G04 #@! TF.GenerationSoftware,KiCad,Pcbnew,8.0.3+1*
G04 #@! TF.CreationDate,2024-07-01T12:38:53+00:00*
G04 #@! TF.ProjectId,dc_shield,64635f73-6869-4656-9c64-2e6b69636164,rev?*
G04 #@! TF.SameCoordinates,Original*
G04 #@! TF.FileFunction,Copper,L3,Inr*
G04 #@! TF.FilePolarity,Positive*
%FSLAX46Y46*%
G04 Gerber Fmt 4.6, Leading zero omitted, Abs format (unit mm)*
G04 Created by KiCad (PCBNEW 8.0.3+1) date 2024-07-01 12:38:53*
%MOMM*%
%LPD*%
G01*
G04 APERTURE LIST*
G04 #@! TA.AperFunction,ComponentPad*
%ADD10R,1.700000X1.700000*%
G04 #@! TD*
G04 #@! TA.AperFunction,ComponentPad*
%ADD11O,1.700000X1.700000*%
G04 #@! TD*
G04 #@! TA.AperFunction,ComponentPad*
%ADD12R,3.000000X1.500000*%
G04 #@! TD*
G04 #@! TA.AperFunction,ComponentPad*
%ADD13O,3.000000X1.500000*%
G04 #@! TD*
G04 #@! TA.AperFunction,ComponentPad*
%ADD14R,2.300000X1.500000*%
G04 #@! TD*
G04 #@! TA.AperFunction,ComponentPad*
%ADD15O,2.300000X1.500000*%
G04 #@! TD*
G04 #@! TA.AperFunction,ViaPad*
%ADD16C,0.600000*%
G04 #@! TD*
G04 #@! TA.AperFunction,Conductor*
%ADD17C,0.250000*%
G04 #@! TD*
G04 APERTURE END LIST*
D10*
X127940000Y-97460000D03*
D11*
X130480000Y-97460000D03*
X133020000Y-97460000D03*
X135560000Y-97460000D03*
X138100000Y-97460000D03*
X140640000Y-97460000D03*
X143180000Y-97460000D03*
X145720000Y-97460000D03*
D10*
X150800000Y-97460000D03*
D11*
X153340000Y-97460000D03*
X155880000Y-97460000D03*
X158420000Y-97460000D03*
X160960000Y-97460000D03*
X163500000Y-97460000D03*
D10*
X118796000Y-49200000D03*
D11*
X121336000Y-49200000D03*
X123876000Y-49200000D03*
X126416000Y-49200000D03*
X128956000Y-49200000D03*
X131496000Y-49200000D03*
X134036000Y-49200000D03*
X136576000Y-49200000D03*
X139116000Y-49200000D03*
X141656000Y-49200000D03*
D10*
X145720000Y-49200000D03*
D11*
X148260000Y-49200000D03*
X150800000Y-49200000D03*
X153340000Y-49200000D03*
X155880000Y-49200000D03*
X158420000Y-49200000D03*
X160960000Y-49200000D03*
X163500000Y-49200000D03*
D12*
X152000000Y-62000000D03*
X157000000Y-62000000D03*
D13*
X152000000Y-57000000D03*
X157000000Y-57000000D03*
D12*
X152000000Y-90000000D03*
X157000000Y-90000000D03*
D13*
X152000000Y-85000000D03*
X157000000Y-85000000D03*
D12*
X152000000Y-76000000D03*
X157000000Y-76000000D03*
D13*
X152000000Y-71000000D03*
X157000000Y-71000000D03*
D14*
X115292500Y-83553000D03*
D15*
X115292500Y-86093000D03*
X115292500Y-88633000D03*
D16*
X135000000Y-71000000D03*
X125000000Y-70000000D03*
X135000000Y-57000000D03*
X135000000Y-70000000D03*
X129000000Y-57000000D03*
X125000000Y-71000000D03*
X135000000Y-69000000D03*
X129000000Y-59000000D03*
X125000000Y-69000000D03*
X125000000Y-72000000D03*
X136000000Y-70000000D03*
X129000000Y-56000000D03*
X135000000Y-56000000D03*
X129000000Y-58000000D03*
X136000000Y-56000000D03*
X135000000Y-55000000D03*
X138500000Y-69250000D03*
X138484942Y-52765058D03*
X139500000Y-70050003D03*
X139500000Y-52750000D03*
X139500000Y-69250000D03*
X135750000Y-63975000D03*
X135750000Y-68000000D03*
X136500000Y-76500000D03*
X137500000Y-76500000D03*
X115500000Y-55750000D03*
X129050000Y-62800000D03*
X138500000Y-76500000D03*
X140500000Y-55250000D03*
X137250000Y-69250000D03*
D17*
X135775000Y-63975000D02*
X148260000Y-51490000D01*
X148260000Y-51490000D02*
X148260000Y-49200000D01*
X135750000Y-63975000D02*
X135775000Y-63975000D01*
X135750000Y-68000000D02*
X150800000Y-52950000D01*
X150800000Y-52950000D02*
X150800000Y-49200000D01*
X155880000Y-55390280D02*
X155880000Y-49200000D01*
X136500000Y-74770280D02*
X155880000Y-55390280D01*
X136500000Y-76500000D02*
X136500000Y-74770280D01*
X137250000Y-69250000D02*
X153340000Y-53160000D01*
X153340000Y-53160000D02*
X153340000Y-49200000D01*
M02*
