G04 #@! TF.GenerationSoftware,KiCad,Pcbnew,8.0.3+1*
G04 #@! TF.CreationDate,2024-07-01T12:38:53+00:00*
G04 #@! TF.ProjectId,dc_shield,64635f73-6869-4656-9c64-2e6b69636164,rev?*
G04 #@! TF.SameCoordinates,Original*
G04 #@! TF.FileFunction,Legend,Top*
G04 #@! TF.FilePolarity,Positive*
%FSLAX46Y46*%
G04 Gerber Fmt 4.6, Leading zero omitted, Abs format (unit mm)*
G04 Created by KiCad (PCBNEW 8.0.3+1) date 2024-07-01 12:38:53*
%MOMM*%
%LPD*%
G01*
G04 APERTURE LIST*
%ADD10C,0.150000*%
%ADD11C,0.120000*%
%ADD12C,0.127000*%
%ADD13C,0.200000*%
G04 APERTURE END LIST*
D10*
X119704819Y-58464285D02*
X120514342Y-58464285D01*
X120514342Y-58464285D02*
X120609580Y-58416666D01*
X120609580Y-58416666D02*
X120657200Y-58369047D01*
X120657200Y-58369047D02*
X120704819Y-58273809D01*
X120704819Y-58273809D02*
X120704819Y-58083333D01*
X120704819Y-58083333D02*
X120657200Y-57988095D01*
X120657200Y-57988095D02*
X120609580Y-57940476D01*
X120609580Y-57940476D02*
X120514342Y-57892857D01*
X120514342Y-57892857D02*
X119704819Y-57892857D01*
X120704819Y-56892857D02*
X120704819Y-57464285D01*
X120704819Y-57178571D02*
X119704819Y-57178571D01*
X119704819Y-57178571D02*
X119847676Y-57273809D01*
X119847676Y-57273809D02*
X119942914Y-57369047D01*
X119942914Y-57369047D02*
X119990533Y-57464285D01*
X119704819Y-56273809D02*
X119704819Y-56178571D01*
X119704819Y-56178571D02*
X119752438Y-56083333D01*
X119752438Y-56083333D02*
X119800057Y-56035714D01*
X119800057Y-56035714D02*
X119895295Y-55988095D01*
X119895295Y-55988095D02*
X120085771Y-55940476D01*
X120085771Y-55940476D02*
X120323866Y-55940476D01*
X120323866Y-55940476D02*
X120514342Y-55988095D01*
X120514342Y-55988095D02*
X120609580Y-56035714D01*
X120609580Y-56035714D02*
X120657200Y-56083333D01*
X120657200Y-56083333D02*
X120704819Y-56178571D01*
X120704819Y-56178571D02*
X120704819Y-56273809D01*
X120704819Y-56273809D02*
X120657200Y-56369047D01*
X120657200Y-56369047D02*
X120609580Y-56416666D01*
X120609580Y-56416666D02*
X120514342Y-56464285D01*
X120514342Y-56464285D02*
X120323866Y-56511904D01*
X120323866Y-56511904D02*
X120085771Y-56511904D01*
X120085771Y-56511904D02*
X119895295Y-56464285D01*
X119895295Y-56464285D02*
X119800057Y-56416666D01*
X119800057Y-56416666D02*
X119752438Y-56369047D01*
X119752438Y-56369047D02*
X119704819Y-56273809D01*
X119800057Y-55559523D02*
X119752438Y-55511904D01*
X119752438Y-55511904D02*
X119704819Y-55416666D01*
X119704819Y-55416666D02*
X119704819Y-55178571D01*
X119704819Y-55178571D02*
X119752438Y-55083333D01*
X119752438Y-55083333D02*
X119800057Y-55035714D01*
X119800057Y-55035714D02*
X119895295Y-54988095D01*
X119895295Y-54988095D02*
X119990533Y-54988095D01*
X119990533Y-54988095D02*
X120133390Y-55035714D01*
X120133390Y-55035714D02*
X120704819Y-55607142D01*
X120704819Y-55607142D02*
X120704819Y-54988095D01*
X121309580Y-62119047D02*
X121357200Y-62166666D01*
X121357200Y-62166666D02*
X121404819Y-62309523D01*
X121404819Y-62309523D02*
X121404819Y-62404761D01*
X121404819Y-62404761D02*
X121357200Y-62547618D01*
X121357200Y-62547618D02*
X121261961Y-62642856D01*
X121261961Y-62642856D02*
X121166723Y-62690475D01*
X121166723Y-62690475D02*
X120976247Y-62738094D01*
X120976247Y-62738094D02*
X120833390Y-62738094D01*
X120833390Y-62738094D02*
X120642914Y-62690475D01*
X120642914Y-62690475D02*
X120547676Y-62642856D01*
X120547676Y-62642856D02*
X120452438Y-62547618D01*
X120452438Y-62547618D02*
X120404819Y-62404761D01*
X120404819Y-62404761D02*
X120404819Y-62309523D01*
X120404819Y-62309523D02*
X120452438Y-62166666D01*
X120452438Y-62166666D02*
X120500057Y-62119047D01*
X121404819Y-61166666D02*
X121404819Y-61738094D01*
X121404819Y-61452380D02*
X120404819Y-61452380D01*
X120404819Y-61452380D02*
X120547676Y-61547618D01*
X120547676Y-61547618D02*
X120642914Y-61642856D01*
X120642914Y-61642856D02*
X120690533Y-61738094D01*
X120404819Y-60547618D02*
X120404819Y-60452380D01*
X120404819Y-60452380D02*
X120452438Y-60357142D01*
X120452438Y-60357142D02*
X120500057Y-60309523D01*
X120500057Y-60309523D02*
X120595295Y-60261904D01*
X120595295Y-60261904D02*
X120785771Y-60214285D01*
X120785771Y-60214285D02*
X121023866Y-60214285D01*
X121023866Y-60214285D02*
X121214342Y-60261904D01*
X121214342Y-60261904D02*
X121309580Y-60309523D01*
X121309580Y-60309523D02*
X121357200Y-60357142D01*
X121357200Y-60357142D02*
X121404819Y-60452380D01*
X121404819Y-60452380D02*
X121404819Y-60547618D01*
X121404819Y-60547618D02*
X121357200Y-60642856D01*
X121357200Y-60642856D02*
X121309580Y-60690475D01*
X121309580Y-60690475D02*
X121214342Y-60738094D01*
X121214342Y-60738094D02*
X121023866Y-60785713D01*
X121023866Y-60785713D02*
X120785771Y-60785713D01*
X120785771Y-60785713D02*
X120595295Y-60738094D01*
X120595295Y-60738094D02*
X120500057Y-60690475D01*
X120500057Y-60690475D02*
X120452438Y-60642856D01*
X120452438Y-60642856D02*
X120404819Y-60547618D01*
X120404819Y-59880951D02*
X120404819Y-59214285D01*
X120404819Y-59214285D02*
X121404819Y-59642856D01*
X110154819Y-58785714D02*
X110869104Y-58785714D01*
X110869104Y-58785714D02*
X111011961Y-58833333D01*
X111011961Y-58833333D02*
X111107200Y-58928571D01*
X111107200Y-58928571D02*
X111154819Y-59071428D01*
X111154819Y-59071428D02*
X111154819Y-59166666D01*
X111154819Y-58309523D02*
X110154819Y-58309523D01*
X110154819Y-58309523D02*
X110154819Y-57928571D01*
X110154819Y-57928571D02*
X110202438Y-57833333D01*
X110202438Y-57833333D02*
X110250057Y-57785714D01*
X110250057Y-57785714D02*
X110345295Y-57738095D01*
X110345295Y-57738095D02*
X110488152Y-57738095D01*
X110488152Y-57738095D02*
X110583390Y-57785714D01*
X110583390Y-57785714D02*
X110631009Y-57833333D01*
X110631009Y-57833333D02*
X110678628Y-57928571D01*
X110678628Y-57928571D02*
X110678628Y-58309523D01*
X111154819Y-56785714D02*
X111154819Y-57357142D01*
X111154819Y-57071428D02*
X110154819Y-57071428D01*
X110154819Y-57071428D02*
X110297676Y-57166666D01*
X110297676Y-57166666D02*
X110392914Y-57261904D01*
X110392914Y-57261904D02*
X110440533Y-57357142D01*
X110154819Y-56166666D02*
X110154819Y-56071428D01*
X110154819Y-56071428D02*
X110202438Y-55976190D01*
X110202438Y-55976190D02*
X110250057Y-55928571D01*
X110250057Y-55928571D02*
X110345295Y-55880952D01*
X110345295Y-55880952D02*
X110535771Y-55833333D01*
X110535771Y-55833333D02*
X110773866Y-55833333D01*
X110773866Y-55833333D02*
X110964342Y-55880952D01*
X110964342Y-55880952D02*
X111059580Y-55928571D01*
X111059580Y-55928571D02*
X111107200Y-55976190D01*
X111107200Y-55976190D02*
X111154819Y-56071428D01*
X111154819Y-56071428D02*
X111154819Y-56166666D01*
X111154819Y-56166666D02*
X111107200Y-56261904D01*
X111107200Y-56261904D02*
X111059580Y-56309523D01*
X111059580Y-56309523D02*
X110964342Y-56357142D01*
X110964342Y-56357142D02*
X110773866Y-56404761D01*
X110773866Y-56404761D02*
X110535771Y-56404761D01*
X110535771Y-56404761D02*
X110345295Y-56357142D01*
X110345295Y-56357142D02*
X110250057Y-56309523D01*
X110250057Y-56309523D02*
X110202438Y-56261904D01*
X110202438Y-56261904D02*
X110154819Y-56166666D01*
X111154819Y-54880952D02*
X111154819Y-55452380D01*
X111154819Y-55166666D02*
X110154819Y-55166666D01*
X110154819Y-55166666D02*
X110297676Y-55261904D01*
X110297676Y-55261904D02*
X110392914Y-55357142D01*
X110392914Y-55357142D02*
X110440533Y-55452380D01*
X125459580Y-95869047D02*
X125507200Y-95916666D01*
X125507200Y-95916666D02*
X125554819Y-96059523D01*
X125554819Y-96059523D02*
X125554819Y-96154761D01*
X125554819Y-96154761D02*
X125507200Y-96297618D01*
X125507200Y-96297618D02*
X125411961Y-96392856D01*
X125411961Y-96392856D02*
X125316723Y-96440475D01*
X125316723Y-96440475D02*
X125126247Y-96488094D01*
X125126247Y-96488094D02*
X124983390Y-96488094D01*
X124983390Y-96488094D02*
X124792914Y-96440475D01*
X124792914Y-96440475D02*
X124697676Y-96392856D01*
X124697676Y-96392856D02*
X124602438Y-96297618D01*
X124602438Y-96297618D02*
X124554819Y-96154761D01*
X124554819Y-96154761D02*
X124554819Y-96059523D01*
X124554819Y-96059523D02*
X124602438Y-95916666D01*
X124602438Y-95916666D02*
X124650057Y-95869047D01*
X125554819Y-94916666D02*
X125554819Y-95488094D01*
X125554819Y-95202380D02*
X124554819Y-95202380D01*
X124554819Y-95202380D02*
X124697676Y-95297618D01*
X124697676Y-95297618D02*
X124792914Y-95392856D01*
X124792914Y-95392856D02*
X124840533Y-95488094D01*
X125554819Y-93964285D02*
X125554819Y-94535713D01*
X125554819Y-94249999D02*
X124554819Y-94249999D01*
X124554819Y-94249999D02*
X124697676Y-94345237D01*
X124697676Y-94345237D02*
X124792914Y-94440475D01*
X124792914Y-94440475D02*
X124840533Y-94535713D01*
X124554819Y-93630951D02*
X124554819Y-93011904D01*
X124554819Y-93011904D02*
X124935771Y-93345237D01*
X124935771Y-93345237D02*
X124935771Y-93202380D01*
X124935771Y-93202380D02*
X124983390Y-93107142D01*
X124983390Y-93107142D02*
X125031009Y-93059523D01*
X125031009Y-93059523D02*
X125126247Y-93011904D01*
X125126247Y-93011904D02*
X125364342Y-93011904D01*
X125364342Y-93011904D02*
X125459580Y-93059523D01*
X125459580Y-93059523D02*
X125507200Y-93107142D01*
X125507200Y-93107142D02*
X125554819Y-93202380D01*
X125554819Y-93202380D02*
X125554819Y-93488094D01*
X125554819Y-93488094D02*
X125507200Y-93583332D01*
X125507200Y-93583332D02*
X125459580Y-93630951D01*
X136650057Y-89547619D02*
X136602438Y-89642857D01*
X136602438Y-89642857D02*
X136507200Y-89738095D01*
X136507200Y-89738095D02*
X136364342Y-89880952D01*
X136364342Y-89880952D02*
X136316723Y-89976190D01*
X136316723Y-89976190D02*
X136316723Y-90071428D01*
X136554819Y-90023809D02*
X136507200Y-90119047D01*
X136507200Y-90119047D02*
X136411961Y-90214285D01*
X136411961Y-90214285D02*
X136221485Y-90261904D01*
X136221485Y-90261904D02*
X135888152Y-90261904D01*
X135888152Y-90261904D02*
X135697676Y-90214285D01*
X135697676Y-90214285D02*
X135602438Y-90119047D01*
X135602438Y-90119047D02*
X135554819Y-90023809D01*
X135554819Y-90023809D02*
X135554819Y-89833333D01*
X135554819Y-89833333D02*
X135602438Y-89738095D01*
X135602438Y-89738095D02*
X135697676Y-89642857D01*
X135697676Y-89642857D02*
X135888152Y-89595238D01*
X135888152Y-89595238D02*
X136221485Y-89595238D01*
X136221485Y-89595238D02*
X136411961Y-89642857D01*
X136411961Y-89642857D02*
X136507200Y-89738095D01*
X136507200Y-89738095D02*
X136554819Y-89833333D01*
X136554819Y-89833333D02*
X136554819Y-90023809D01*
X136554819Y-88642857D02*
X136554819Y-89214285D01*
X136554819Y-88928571D02*
X135554819Y-88928571D01*
X135554819Y-88928571D02*
X135697676Y-89023809D01*
X135697676Y-89023809D02*
X135792914Y-89119047D01*
X135792914Y-89119047D02*
X135840533Y-89214285D01*
X135554819Y-88023809D02*
X135554819Y-87928571D01*
X135554819Y-87928571D02*
X135602438Y-87833333D01*
X135602438Y-87833333D02*
X135650057Y-87785714D01*
X135650057Y-87785714D02*
X135745295Y-87738095D01*
X135745295Y-87738095D02*
X135935771Y-87690476D01*
X135935771Y-87690476D02*
X136173866Y-87690476D01*
X136173866Y-87690476D02*
X136364342Y-87738095D01*
X136364342Y-87738095D02*
X136459580Y-87785714D01*
X136459580Y-87785714D02*
X136507200Y-87833333D01*
X136507200Y-87833333D02*
X136554819Y-87928571D01*
X136554819Y-87928571D02*
X136554819Y-88023809D01*
X136554819Y-88023809D02*
X136507200Y-88119047D01*
X136507200Y-88119047D02*
X136459580Y-88166666D01*
X136459580Y-88166666D02*
X136364342Y-88214285D01*
X136364342Y-88214285D02*
X136173866Y-88261904D01*
X136173866Y-88261904D02*
X135935771Y-88261904D01*
X135935771Y-88261904D02*
X135745295Y-88214285D01*
X135745295Y-88214285D02*
X135650057Y-88166666D01*
X135650057Y-88166666D02*
X135602438Y-88119047D01*
X135602438Y-88119047D02*
X135554819Y-88023809D01*
X136554819Y-86738095D02*
X136554819Y-87309523D01*
X136554819Y-87023809D02*
X135554819Y-87023809D01*
X135554819Y-87023809D02*
X135697676Y-87119047D01*
X135697676Y-87119047D02*
X135792914Y-87214285D01*
X135792914Y-87214285D02*
X135840533Y-87309523D01*
X124054819Y-86940475D02*
X123054819Y-86940475D01*
X123054819Y-86940475D02*
X123054819Y-86702380D01*
X123054819Y-86702380D02*
X123102438Y-86559523D01*
X123102438Y-86559523D02*
X123197676Y-86464285D01*
X123197676Y-86464285D02*
X123292914Y-86416666D01*
X123292914Y-86416666D02*
X123483390Y-86369047D01*
X123483390Y-86369047D02*
X123626247Y-86369047D01*
X123626247Y-86369047D02*
X123816723Y-86416666D01*
X123816723Y-86416666D02*
X123911961Y-86464285D01*
X123911961Y-86464285D02*
X124007200Y-86559523D01*
X124007200Y-86559523D02*
X124054819Y-86702380D01*
X124054819Y-86702380D02*
X124054819Y-86940475D01*
X124054819Y-85416666D02*
X124054819Y-85988094D01*
X124054819Y-85702380D02*
X123054819Y-85702380D01*
X123054819Y-85702380D02*
X123197676Y-85797618D01*
X123197676Y-85797618D02*
X123292914Y-85892856D01*
X123292914Y-85892856D02*
X123340533Y-85988094D01*
X123054819Y-84797618D02*
X123054819Y-84702380D01*
X123054819Y-84702380D02*
X123102438Y-84607142D01*
X123102438Y-84607142D02*
X123150057Y-84559523D01*
X123150057Y-84559523D02*
X123245295Y-84511904D01*
X123245295Y-84511904D02*
X123435771Y-84464285D01*
X123435771Y-84464285D02*
X123673866Y-84464285D01*
X123673866Y-84464285D02*
X123864342Y-84511904D01*
X123864342Y-84511904D02*
X123959580Y-84559523D01*
X123959580Y-84559523D02*
X124007200Y-84607142D01*
X124007200Y-84607142D02*
X124054819Y-84702380D01*
X124054819Y-84702380D02*
X124054819Y-84797618D01*
X124054819Y-84797618D02*
X124007200Y-84892856D01*
X124007200Y-84892856D02*
X123959580Y-84940475D01*
X123959580Y-84940475D02*
X123864342Y-84988094D01*
X123864342Y-84988094D02*
X123673866Y-85035713D01*
X123673866Y-85035713D02*
X123435771Y-85035713D01*
X123435771Y-85035713D02*
X123245295Y-84988094D01*
X123245295Y-84988094D02*
X123150057Y-84940475D01*
X123150057Y-84940475D02*
X123102438Y-84892856D01*
X123102438Y-84892856D02*
X123054819Y-84797618D01*
X124054819Y-83511904D02*
X124054819Y-84083332D01*
X124054819Y-83797618D02*
X123054819Y-83797618D01*
X123054819Y-83797618D02*
X123197676Y-83892856D01*
X123197676Y-83892856D02*
X123292914Y-83988094D01*
X123292914Y-83988094D02*
X123340533Y-84083332D01*
X137380952Y-87704819D02*
X137047619Y-87228628D01*
X136809524Y-87704819D02*
X136809524Y-86704819D01*
X136809524Y-86704819D02*
X137190476Y-86704819D01*
X137190476Y-86704819D02*
X137285714Y-86752438D01*
X137285714Y-86752438D02*
X137333333Y-86800057D01*
X137333333Y-86800057D02*
X137380952Y-86895295D01*
X137380952Y-86895295D02*
X137380952Y-87038152D01*
X137380952Y-87038152D02*
X137333333Y-87133390D01*
X137333333Y-87133390D02*
X137285714Y-87181009D01*
X137285714Y-87181009D02*
X137190476Y-87228628D01*
X137190476Y-87228628D02*
X136809524Y-87228628D01*
X138333333Y-87704819D02*
X137761905Y-87704819D01*
X138047619Y-87704819D02*
X138047619Y-86704819D01*
X138047619Y-86704819D02*
X137952381Y-86847676D01*
X137952381Y-86847676D02*
X137857143Y-86942914D01*
X137857143Y-86942914D02*
X137761905Y-86990533D01*
X138952381Y-86704819D02*
X139047619Y-86704819D01*
X139047619Y-86704819D02*
X139142857Y-86752438D01*
X139142857Y-86752438D02*
X139190476Y-86800057D01*
X139190476Y-86800057D02*
X139238095Y-86895295D01*
X139238095Y-86895295D02*
X139285714Y-87085771D01*
X139285714Y-87085771D02*
X139285714Y-87323866D01*
X139285714Y-87323866D02*
X139238095Y-87514342D01*
X139238095Y-87514342D02*
X139190476Y-87609580D01*
X139190476Y-87609580D02*
X139142857Y-87657200D01*
X139142857Y-87657200D02*
X139047619Y-87704819D01*
X139047619Y-87704819D02*
X138952381Y-87704819D01*
X138952381Y-87704819D02*
X138857143Y-87657200D01*
X138857143Y-87657200D02*
X138809524Y-87609580D01*
X138809524Y-87609580D02*
X138761905Y-87514342D01*
X138761905Y-87514342D02*
X138714286Y-87323866D01*
X138714286Y-87323866D02*
X138714286Y-87085771D01*
X138714286Y-87085771D02*
X138761905Y-86895295D01*
X138761905Y-86895295D02*
X138809524Y-86800057D01*
X138809524Y-86800057D02*
X138857143Y-86752438D01*
X138857143Y-86752438D02*
X138952381Y-86704819D01*
X140238095Y-87704819D02*
X139666667Y-87704819D01*
X139952381Y-87704819D02*
X139952381Y-86704819D01*
X139952381Y-86704819D02*
X139857143Y-86847676D01*
X139857143Y-86847676D02*
X139761905Y-86942914D01*
X139761905Y-86942914D02*
X139666667Y-86990533D01*
X144429580Y-62369047D02*
X144477200Y-62416666D01*
X144477200Y-62416666D02*
X144524819Y-62559523D01*
X144524819Y-62559523D02*
X144524819Y-62654761D01*
X144524819Y-62654761D02*
X144477200Y-62797618D01*
X144477200Y-62797618D02*
X144381961Y-62892856D01*
X144381961Y-62892856D02*
X144286723Y-62940475D01*
X144286723Y-62940475D02*
X144096247Y-62988094D01*
X144096247Y-62988094D02*
X143953390Y-62988094D01*
X143953390Y-62988094D02*
X143762914Y-62940475D01*
X143762914Y-62940475D02*
X143667676Y-62892856D01*
X143667676Y-62892856D02*
X143572438Y-62797618D01*
X143572438Y-62797618D02*
X143524819Y-62654761D01*
X143524819Y-62654761D02*
X143524819Y-62559523D01*
X143524819Y-62559523D02*
X143572438Y-62416666D01*
X143572438Y-62416666D02*
X143620057Y-62369047D01*
X144524819Y-61416666D02*
X144524819Y-61988094D01*
X144524819Y-61702380D02*
X143524819Y-61702380D01*
X143524819Y-61702380D02*
X143667676Y-61797618D01*
X143667676Y-61797618D02*
X143762914Y-61892856D01*
X143762914Y-61892856D02*
X143810533Y-61988094D01*
X143524819Y-60797618D02*
X143524819Y-60702380D01*
X143524819Y-60702380D02*
X143572438Y-60607142D01*
X143572438Y-60607142D02*
X143620057Y-60559523D01*
X143620057Y-60559523D02*
X143715295Y-60511904D01*
X143715295Y-60511904D02*
X143905771Y-60464285D01*
X143905771Y-60464285D02*
X144143866Y-60464285D01*
X144143866Y-60464285D02*
X144334342Y-60511904D01*
X144334342Y-60511904D02*
X144429580Y-60559523D01*
X144429580Y-60559523D02*
X144477200Y-60607142D01*
X144477200Y-60607142D02*
X144524819Y-60702380D01*
X144524819Y-60702380D02*
X144524819Y-60797618D01*
X144524819Y-60797618D02*
X144477200Y-60892856D01*
X144477200Y-60892856D02*
X144429580Y-60940475D01*
X144429580Y-60940475D02*
X144334342Y-60988094D01*
X144334342Y-60988094D02*
X144143866Y-61035713D01*
X144143866Y-61035713D02*
X143905771Y-61035713D01*
X143905771Y-61035713D02*
X143715295Y-60988094D01*
X143715295Y-60988094D02*
X143620057Y-60940475D01*
X143620057Y-60940475D02*
X143572438Y-60892856D01*
X143572438Y-60892856D02*
X143524819Y-60797618D01*
X143524819Y-59607142D02*
X143524819Y-59797618D01*
X143524819Y-59797618D02*
X143572438Y-59892856D01*
X143572438Y-59892856D02*
X143620057Y-59940475D01*
X143620057Y-59940475D02*
X143762914Y-60035713D01*
X143762914Y-60035713D02*
X143953390Y-60083332D01*
X143953390Y-60083332D02*
X144334342Y-60083332D01*
X144334342Y-60083332D02*
X144429580Y-60035713D01*
X144429580Y-60035713D02*
X144477200Y-59988094D01*
X144477200Y-59988094D02*
X144524819Y-59892856D01*
X144524819Y-59892856D02*
X144524819Y-59702380D01*
X144524819Y-59702380D02*
X144477200Y-59607142D01*
X144477200Y-59607142D02*
X144429580Y-59559523D01*
X144429580Y-59559523D02*
X144334342Y-59511904D01*
X144334342Y-59511904D02*
X144096247Y-59511904D01*
X144096247Y-59511904D02*
X144001009Y-59559523D01*
X144001009Y-59559523D02*
X143953390Y-59607142D01*
X143953390Y-59607142D02*
X143905771Y-59702380D01*
X143905771Y-59702380D02*
X143905771Y-59892856D01*
X143905771Y-59892856D02*
X143953390Y-59988094D01*
X143953390Y-59988094D02*
X144001009Y-60035713D01*
X144001009Y-60035713D02*
X144096247Y-60083332D01*
X143509580Y-66594047D02*
X143557200Y-66641666D01*
X143557200Y-66641666D02*
X143604819Y-66784523D01*
X143604819Y-66784523D02*
X143604819Y-66879761D01*
X143604819Y-66879761D02*
X143557200Y-67022618D01*
X143557200Y-67022618D02*
X143461961Y-67117856D01*
X143461961Y-67117856D02*
X143366723Y-67165475D01*
X143366723Y-67165475D02*
X143176247Y-67213094D01*
X143176247Y-67213094D02*
X143033390Y-67213094D01*
X143033390Y-67213094D02*
X142842914Y-67165475D01*
X142842914Y-67165475D02*
X142747676Y-67117856D01*
X142747676Y-67117856D02*
X142652438Y-67022618D01*
X142652438Y-67022618D02*
X142604819Y-66879761D01*
X142604819Y-66879761D02*
X142604819Y-66784523D01*
X142604819Y-66784523D02*
X142652438Y-66641666D01*
X142652438Y-66641666D02*
X142700057Y-66594047D01*
X143604819Y-65641666D02*
X143604819Y-66213094D01*
X143604819Y-65927380D02*
X142604819Y-65927380D01*
X142604819Y-65927380D02*
X142747676Y-66022618D01*
X142747676Y-66022618D02*
X142842914Y-66117856D01*
X142842914Y-66117856D02*
X142890533Y-66213094D01*
X142604819Y-65022618D02*
X142604819Y-64927380D01*
X142604819Y-64927380D02*
X142652438Y-64832142D01*
X142652438Y-64832142D02*
X142700057Y-64784523D01*
X142700057Y-64784523D02*
X142795295Y-64736904D01*
X142795295Y-64736904D02*
X142985771Y-64689285D01*
X142985771Y-64689285D02*
X143223866Y-64689285D01*
X143223866Y-64689285D02*
X143414342Y-64736904D01*
X143414342Y-64736904D02*
X143509580Y-64784523D01*
X143509580Y-64784523D02*
X143557200Y-64832142D01*
X143557200Y-64832142D02*
X143604819Y-64927380D01*
X143604819Y-64927380D02*
X143604819Y-65022618D01*
X143604819Y-65022618D02*
X143557200Y-65117856D01*
X143557200Y-65117856D02*
X143509580Y-65165475D01*
X143509580Y-65165475D02*
X143414342Y-65213094D01*
X143414342Y-65213094D02*
X143223866Y-65260713D01*
X143223866Y-65260713D02*
X142985771Y-65260713D01*
X142985771Y-65260713D02*
X142795295Y-65213094D01*
X142795295Y-65213094D02*
X142700057Y-65165475D01*
X142700057Y-65165475D02*
X142652438Y-65117856D01*
X142652438Y-65117856D02*
X142604819Y-65022618D01*
X143033390Y-64117856D02*
X142985771Y-64213094D01*
X142985771Y-64213094D02*
X142938152Y-64260713D01*
X142938152Y-64260713D02*
X142842914Y-64308332D01*
X142842914Y-64308332D02*
X142795295Y-64308332D01*
X142795295Y-64308332D02*
X142700057Y-64260713D01*
X142700057Y-64260713D02*
X142652438Y-64213094D01*
X142652438Y-64213094D02*
X142604819Y-64117856D01*
X142604819Y-64117856D02*
X142604819Y-63927380D01*
X142604819Y-63927380D02*
X142652438Y-63832142D01*
X142652438Y-63832142D02*
X142700057Y-63784523D01*
X142700057Y-63784523D02*
X142795295Y-63736904D01*
X142795295Y-63736904D02*
X142842914Y-63736904D01*
X142842914Y-63736904D02*
X142938152Y-63784523D01*
X142938152Y-63784523D02*
X142985771Y-63832142D01*
X142985771Y-63832142D02*
X143033390Y-63927380D01*
X143033390Y-63927380D02*
X143033390Y-64117856D01*
X143033390Y-64117856D02*
X143081009Y-64213094D01*
X143081009Y-64213094D02*
X143128628Y-64260713D01*
X143128628Y-64260713D02*
X143223866Y-64308332D01*
X143223866Y-64308332D02*
X143414342Y-64308332D01*
X143414342Y-64308332D02*
X143509580Y-64260713D01*
X143509580Y-64260713D02*
X143557200Y-64213094D01*
X143557200Y-64213094D02*
X143604819Y-64117856D01*
X143604819Y-64117856D02*
X143604819Y-63927380D01*
X143604819Y-63927380D02*
X143557200Y-63832142D01*
X143557200Y-63832142D02*
X143509580Y-63784523D01*
X143509580Y-63784523D02*
X143414342Y-63736904D01*
X143414342Y-63736904D02*
X143223866Y-63736904D01*
X143223866Y-63736904D02*
X143128628Y-63784523D01*
X143128628Y-63784523D02*
X143081009Y-63832142D01*
X143081009Y-63832142D02*
X143033390Y-63927380D01*
X142130952Y-89204819D02*
X141797619Y-88728628D01*
X141559524Y-89204819D02*
X141559524Y-88204819D01*
X141559524Y-88204819D02*
X141940476Y-88204819D01*
X141940476Y-88204819D02*
X142035714Y-88252438D01*
X142035714Y-88252438D02*
X142083333Y-88300057D01*
X142083333Y-88300057D02*
X142130952Y-88395295D01*
X142130952Y-88395295D02*
X142130952Y-88538152D01*
X142130952Y-88538152D02*
X142083333Y-88633390D01*
X142083333Y-88633390D02*
X142035714Y-88681009D01*
X142035714Y-88681009D02*
X141940476Y-88728628D01*
X141940476Y-88728628D02*
X141559524Y-88728628D01*
X143083333Y-89204819D02*
X142511905Y-89204819D01*
X142797619Y-89204819D02*
X142797619Y-88204819D01*
X142797619Y-88204819D02*
X142702381Y-88347676D01*
X142702381Y-88347676D02*
X142607143Y-88442914D01*
X142607143Y-88442914D02*
X142511905Y-88490533D01*
X143702381Y-88204819D02*
X143797619Y-88204819D01*
X143797619Y-88204819D02*
X143892857Y-88252438D01*
X143892857Y-88252438D02*
X143940476Y-88300057D01*
X143940476Y-88300057D02*
X143988095Y-88395295D01*
X143988095Y-88395295D02*
X144035714Y-88585771D01*
X144035714Y-88585771D02*
X144035714Y-88823866D01*
X144035714Y-88823866D02*
X143988095Y-89014342D01*
X143988095Y-89014342D02*
X143940476Y-89109580D01*
X143940476Y-89109580D02*
X143892857Y-89157200D01*
X143892857Y-89157200D02*
X143797619Y-89204819D01*
X143797619Y-89204819D02*
X143702381Y-89204819D01*
X143702381Y-89204819D02*
X143607143Y-89157200D01*
X143607143Y-89157200D02*
X143559524Y-89109580D01*
X143559524Y-89109580D02*
X143511905Y-89014342D01*
X143511905Y-89014342D02*
X143464286Y-88823866D01*
X143464286Y-88823866D02*
X143464286Y-88585771D01*
X143464286Y-88585771D02*
X143511905Y-88395295D01*
X143511905Y-88395295D02*
X143559524Y-88300057D01*
X143559524Y-88300057D02*
X143607143Y-88252438D01*
X143607143Y-88252438D02*
X143702381Y-88204819D01*
X144416667Y-88300057D02*
X144464286Y-88252438D01*
X144464286Y-88252438D02*
X144559524Y-88204819D01*
X144559524Y-88204819D02*
X144797619Y-88204819D01*
X144797619Y-88204819D02*
X144892857Y-88252438D01*
X144892857Y-88252438D02*
X144940476Y-88300057D01*
X144940476Y-88300057D02*
X144988095Y-88395295D01*
X144988095Y-88395295D02*
X144988095Y-88490533D01*
X144988095Y-88490533D02*
X144940476Y-88633390D01*
X144940476Y-88633390D02*
X144369048Y-89204819D01*
X144369048Y-89204819D02*
X144988095Y-89204819D01*
X115630952Y-76759580D02*
X115583333Y-76807200D01*
X115583333Y-76807200D02*
X115440476Y-76854819D01*
X115440476Y-76854819D02*
X115345238Y-76854819D01*
X115345238Y-76854819D02*
X115202381Y-76807200D01*
X115202381Y-76807200D02*
X115107143Y-76711961D01*
X115107143Y-76711961D02*
X115059524Y-76616723D01*
X115059524Y-76616723D02*
X115011905Y-76426247D01*
X115011905Y-76426247D02*
X115011905Y-76283390D01*
X115011905Y-76283390D02*
X115059524Y-76092914D01*
X115059524Y-76092914D02*
X115107143Y-75997676D01*
X115107143Y-75997676D02*
X115202381Y-75902438D01*
X115202381Y-75902438D02*
X115345238Y-75854819D01*
X115345238Y-75854819D02*
X115440476Y-75854819D01*
X115440476Y-75854819D02*
X115583333Y-75902438D01*
X115583333Y-75902438D02*
X115630952Y-75950057D01*
X116583333Y-76854819D02*
X116011905Y-76854819D01*
X116297619Y-76854819D02*
X116297619Y-75854819D01*
X116297619Y-75854819D02*
X116202381Y-75997676D01*
X116202381Y-75997676D02*
X116107143Y-76092914D01*
X116107143Y-76092914D02*
X116011905Y-76140533D01*
X117202381Y-75854819D02*
X117297619Y-75854819D01*
X117297619Y-75854819D02*
X117392857Y-75902438D01*
X117392857Y-75902438D02*
X117440476Y-75950057D01*
X117440476Y-75950057D02*
X117488095Y-76045295D01*
X117488095Y-76045295D02*
X117535714Y-76235771D01*
X117535714Y-76235771D02*
X117535714Y-76473866D01*
X117535714Y-76473866D02*
X117488095Y-76664342D01*
X117488095Y-76664342D02*
X117440476Y-76759580D01*
X117440476Y-76759580D02*
X117392857Y-76807200D01*
X117392857Y-76807200D02*
X117297619Y-76854819D01*
X117297619Y-76854819D02*
X117202381Y-76854819D01*
X117202381Y-76854819D02*
X117107143Y-76807200D01*
X117107143Y-76807200D02*
X117059524Y-76759580D01*
X117059524Y-76759580D02*
X117011905Y-76664342D01*
X117011905Y-76664342D02*
X116964286Y-76473866D01*
X116964286Y-76473866D02*
X116964286Y-76235771D01*
X116964286Y-76235771D02*
X117011905Y-76045295D01*
X117011905Y-76045295D02*
X117059524Y-75950057D01*
X117059524Y-75950057D02*
X117107143Y-75902438D01*
X117107143Y-75902438D02*
X117202381Y-75854819D01*
X117916667Y-75950057D02*
X117964286Y-75902438D01*
X117964286Y-75902438D02*
X118059524Y-75854819D01*
X118059524Y-75854819D02*
X118297619Y-75854819D01*
X118297619Y-75854819D02*
X118392857Y-75902438D01*
X118392857Y-75902438D02*
X118440476Y-75950057D01*
X118440476Y-75950057D02*
X118488095Y-76045295D01*
X118488095Y-76045295D02*
X118488095Y-76140533D01*
X118488095Y-76140533D02*
X118440476Y-76283390D01*
X118440476Y-76283390D02*
X117869048Y-76854819D01*
X117869048Y-76854819D02*
X118488095Y-76854819D01*
X135559524Y-80454819D02*
X135559524Y-79454819D01*
X135559524Y-79454819D02*
X135797619Y-79454819D01*
X135797619Y-79454819D02*
X135940476Y-79502438D01*
X135940476Y-79502438D02*
X136035714Y-79597676D01*
X136035714Y-79597676D02*
X136083333Y-79692914D01*
X136083333Y-79692914D02*
X136130952Y-79883390D01*
X136130952Y-79883390D02*
X136130952Y-80026247D01*
X136130952Y-80026247D02*
X136083333Y-80216723D01*
X136083333Y-80216723D02*
X136035714Y-80311961D01*
X136035714Y-80311961D02*
X135940476Y-80407200D01*
X135940476Y-80407200D02*
X135797619Y-80454819D01*
X135797619Y-80454819D02*
X135559524Y-80454819D01*
X137083333Y-80454819D02*
X136511905Y-80454819D01*
X136797619Y-80454819D02*
X136797619Y-79454819D01*
X136797619Y-79454819D02*
X136702381Y-79597676D01*
X136702381Y-79597676D02*
X136607143Y-79692914D01*
X136607143Y-79692914D02*
X136511905Y-79740533D01*
X137702381Y-79454819D02*
X137797619Y-79454819D01*
X137797619Y-79454819D02*
X137892857Y-79502438D01*
X137892857Y-79502438D02*
X137940476Y-79550057D01*
X137940476Y-79550057D02*
X137988095Y-79645295D01*
X137988095Y-79645295D02*
X138035714Y-79835771D01*
X138035714Y-79835771D02*
X138035714Y-80073866D01*
X138035714Y-80073866D02*
X137988095Y-80264342D01*
X137988095Y-80264342D02*
X137940476Y-80359580D01*
X137940476Y-80359580D02*
X137892857Y-80407200D01*
X137892857Y-80407200D02*
X137797619Y-80454819D01*
X137797619Y-80454819D02*
X137702381Y-80454819D01*
X137702381Y-80454819D02*
X137607143Y-80407200D01*
X137607143Y-80407200D02*
X137559524Y-80359580D01*
X137559524Y-80359580D02*
X137511905Y-80264342D01*
X137511905Y-80264342D02*
X137464286Y-80073866D01*
X137464286Y-80073866D02*
X137464286Y-79835771D01*
X137464286Y-79835771D02*
X137511905Y-79645295D01*
X137511905Y-79645295D02*
X137559524Y-79550057D01*
X137559524Y-79550057D02*
X137607143Y-79502438D01*
X137607143Y-79502438D02*
X137702381Y-79454819D01*
X138416667Y-79550057D02*
X138464286Y-79502438D01*
X138464286Y-79502438D02*
X138559524Y-79454819D01*
X138559524Y-79454819D02*
X138797619Y-79454819D01*
X138797619Y-79454819D02*
X138892857Y-79502438D01*
X138892857Y-79502438D02*
X138940476Y-79550057D01*
X138940476Y-79550057D02*
X138988095Y-79645295D01*
X138988095Y-79645295D02*
X138988095Y-79740533D01*
X138988095Y-79740533D02*
X138940476Y-79883390D01*
X138940476Y-79883390D02*
X138369048Y-80454819D01*
X138369048Y-80454819D02*
X138988095Y-80454819D01*
X134109580Y-71619047D02*
X134157200Y-71666666D01*
X134157200Y-71666666D02*
X134204819Y-71809523D01*
X134204819Y-71809523D02*
X134204819Y-71904761D01*
X134204819Y-71904761D02*
X134157200Y-72047618D01*
X134157200Y-72047618D02*
X134061961Y-72142856D01*
X134061961Y-72142856D02*
X133966723Y-72190475D01*
X133966723Y-72190475D02*
X133776247Y-72238094D01*
X133776247Y-72238094D02*
X133633390Y-72238094D01*
X133633390Y-72238094D02*
X133442914Y-72190475D01*
X133442914Y-72190475D02*
X133347676Y-72142856D01*
X133347676Y-72142856D02*
X133252438Y-72047618D01*
X133252438Y-72047618D02*
X133204819Y-71904761D01*
X133204819Y-71904761D02*
X133204819Y-71809523D01*
X133204819Y-71809523D02*
X133252438Y-71666666D01*
X133252438Y-71666666D02*
X133300057Y-71619047D01*
X134204819Y-70666666D02*
X134204819Y-71238094D01*
X134204819Y-70952380D02*
X133204819Y-70952380D01*
X133204819Y-70952380D02*
X133347676Y-71047618D01*
X133347676Y-71047618D02*
X133442914Y-71142856D01*
X133442914Y-71142856D02*
X133490533Y-71238094D01*
X133204819Y-70047618D02*
X133204819Y-69952380D01*
X133204819Y-69952380D02*
X133252438Y-69857142D01*
X133252438Y-69857142D02*
X133300057Y-69809523D01*
X133300057Y-69809523D02*
X133395295Y-69761904D01*
X133395295Y-69761904D02*
X133585771Y-69714285D01*
X133585771Y-69714285D02*
X133823866Y-69714285D01*
X133823866Y-69714285D02*
X134014342Y-69761904D01*
X134014342Y-69761904D02*
X134109580Y-69809523D01*
X134109580Y-69809523D02*
X134157200Y-69857142D01*
X134157200Y-69857142D02*
X134204819Y-69952380D01*
X134204819Y-69952380D02*
X134204819Y-70047618D01*
X134204819Y-70047618D02*
X134157200Y-70142856D01*
X134157200Y-70142856D02*
X134109580Y-70190475D01*
X134109580Y-70190475D02*
X134014342Y-70238094D01*
X134014342Y-70238094D02*
X133823866Y-70285713D01*
X133823866Y-70285713D02*
X133585771Y-70285713D01*
X133585771Y-70285713D02*
X133395295Y-70238094D01*
X133395295Y-70238094D02*
X133300057Y-70190475D01*
X133300057Y-70190475D02*
X133252438Y-70142856D01*
X133252438Y-70142856D02*
X133204819Y-70047618D01*
X134204819Y-69238094D02*
X134204819Y-69047618D01*
X134204819Y-69047618D02*
X134157200Y-68952380D01*
X134157200Y-68952380D02*
X134109580Y-68904761D01*
X134109580Y-68904761D02*
X133966723Y-68809523D01*
X133966723Y-68809523D02*
X133776247Y-68761904D01*
X133776247Y-68761904D02*
X133395295Y-68761904D01*
X133395295Y-68761904D02*
X133300057Y-68809523D01*
X133300057Y-68809523D02*
X133252438Y-68857142D01*
X133252438Y-68857142D02*
X133204819Y-68952380D01*
X133204819Y-68952380D02*
X133204819Y-69142856D01*
X133204819Y-69142856D02*
X133252438Y-69238094D01*
X133252438Y-69238094D02*
X133300057Y-69285713D01*
X133300057Y-69285713D02*
X133395295Y-69333332D01*
X133395295Y-69333332D02*
X133633390Y-69333332D01*
X133633390Y-69333332D02*
X133728628Y-69285713D01*
X133728628Y-69285713D02*
X133776247Y-69238094D01*
X133776247Y-69238094D02*
X133823866Y-69142856D01*
X133823866Y-69142856D02*
X133823866Y-68952380D01*
X133823866Y-68952380D02*
X133776247Y-68857142D01*
X133776247Y-68857142D02*
X133728628Y-68809523D01*
X133728628Y-68809523D02*
X133633390Y-68761904D01*
X161454819Y-60285714D02*
X162169104Y-60285714D01*
X162169104Y-60285714D02*
X162311961Y-60333333D01*
X162311961Y-60333333D02*
X162407200Y-60428571D01*
X162407200Y-60428571D02*
X162454819Y-60571428D01*
X162454819Y-60571428D02*
X162454819Y-60666666D01*
X162454819Y-59285714D02*
X162454819Y-59857142D01*
X162454819Y-59571428D02*
X161454819Y-59571428D01*
X161454819Y-59571428D02*
X161597676Y-59666666D01*
X161597676Y-59666666D02*
X161692914Y-59761904D01*
X161692914Y-59761904D02*
X161740533Y-59857142D01*
X161454819Y-58666666D02*
X161454819Y-58571428D01*
X161454819Y-58571428D02*
X161502438Y-58476190D01*
X161502438Y-58476190D02*
X161550057Y-58428571D01*
X161550057Y-58428571D02*
X161645295Y-58380952D01*
X161645295Y-58380952D02*
X161835771Y-58333333D01*
X161835771Y-58333333D02*
X162073866Y-58333333D01*
X162073866Y-58333333D02*
X162264342Y-58380952D01*
X162264342Y-58380952D02*
X162359580Y-58428571D01*
X162359580Y-58428571D02*
X162407200Y-58476190D01*
X162407200Y-58476190D02*
X162454819Y-58571428D01*
X162454819Y-58571428D02*
X162454819Y-58666666D01*
X162454819Y-58666666D02*
X162407200Y-58761904D01*
X162407200Y-58761904D02*
X162359580Y-58809523D01*
X162359580Y-58809523D02*
X162264342Y-58857142D01*
X162264342Y-58857142D02*
X162073866Y-58904761D01*
X162073866Y-58904761D02*
X161835771Y-58904761D01*
X161835771Y-58904761D02*
X161645295Y-58857142D01*
X161645295Y-58857142D02*
X161550057Y-58809523D01*
X161550057Y-58809523D02*
X161502438Y-58761904D01*
X161502438Y-58761904D02*
X161454819Y-58666666D01*
X161454819Y-57999999D02*
X161454819Y-57333333D01*
X161454819Y-57333333D02*
X162454819Y-57761904D01*
X132380952Y-81109580D02*
X132333333Y-81157200D01*
X132333333Y-81157200D02*
X132190476Y-81204819D01*
X132190476Y-81204819D02*
X132095238Y-81204819D01*
X132095238Y-81204819D02*
X131952381Y-81157200D01*
X131952381Y-81157200D02*
X131857143Y-81061961D01*
X131857143Y-81061961D02*
X131809524Y-80966723D01*
X131809524Y-80966723D02*
X131761905Y-80776247D01*
X131761905Y-80776247D02*
X131761905Y-80633390D01*
X131761905Y-80633390D02*
X131809524Y-80442914D01*
X131809524Y-80442914D02*
X131857143Y-80347676D01*
X131857143Y-80347676D02*
X131952381Y-80252438D01*
X131952381Y-80252438D02*
X132095238Y-80204819D01*
X132095238Y-80204819D02*
X132190476Y-80204819D01*
X132190476Y-80204819D02*
X132333333Y-80252438D01*
X132333333Y-80252438D02*
X132380952Y-80300057D01*
X133333333Y-81204819D02*
X132761905Y-81204819D01*
X133047619Y-81204819D02*
X133047619Y-80204819D01*
X133047619Y-80204819D02*
X132952381Y-80347676D01*
X132952381Y-80347676D02*
X132857143Y-80442914D01*
X132857143Y-80442914D02*
X132761905Y-80490533D01*
X134285714Y-81204819D02*
X133714286Y-81204819D01*
X134000000Y-81204819D02*
X134000000Y-80204819D01*
X134000000Y-80204819D02*
X133904762Y-80347676D01*
X133904762Y-80347676D02*
X133809524Y-80442914D01*
X133809524Y-80442914D02*
X133714286Y-80490533D01*
X134666667Y-80300057D02*
X134714286Y-80252438D01*
X134714286Y-80252438D02*
X134809524Y-80204819D01*
X134809524Y-80204819D02*
X135047619Y-80204819D01*
X135047619Y-80204819D02*
X135142857Y-80252438D01*
X135142857Y-80252438D02*
X135190476Y-80300057D01*
X135190476Y-80300057D02*
X135238095Y-80395295D01*
X135238095Y-80395295D02*
X135238095Y-80490533D01*
X135238095Y-80490533D02*
X135190476Y-80633390D01*
X135190476Y-80633390D02*
X134619048Y-81204819D01*
X134619048Y-81204819D02*
X135238095Y-81204819D01*
X133562295Y-76621428D02*
X134209914Y-76621428D01*
X134209914Y-76621428D02*
X134286104Y-76583333D01*
X134286104Y-76583333D02*
X134324200Y-76545238D01*
X134324200Y-76545238D02*
X134362295Y-76469047D01*
X134362295Y-76469047D02*
X134362295Y-76316666D01*
X134362295Y-76316666D02*
X134324200Y-76240476D01*
X134324200Y-76240476D02*
X134286104Y-76202381D01*
X134286104Y-76202381D02*
X134209914Y-76164285D01*
X134209914Y-76164285D02*
X133562295Y-76164285D01*
X134362295Y-75364286D02*
X134362295Y-75821429D01*
X134362295Y-75592857D02*
X133562295Y-75592857D01*
X133562295Y-75592857D02*
X133676580Y-75669048D01*
X133676580Y-75669048D02*
X133752771Y-75745238D01*
X133752771Y-75745238D02*
X133790866Y-75821429D01*
X133562295Y-74869047D02*
X133562295Y-74792857D01*
X133562295Y-74792857D02*
X133600390Y-74716666D01*
X133600390Y-74716666D02*
X133638485Y-74678571D01*
X133638485Y-74678571D02*
X133714676Y-74640476D01*
X133714676Y-74640476D02*
X133867057Y-74602381D01*
X133867057Y-74602381D02*
X134057533Y-74602381D01*
X134057533Y-74602381D02*
X134209914Y-74640476D01*
X134209914Y-74640476D02*
X134286104Y-74678571D01*
X134286104Y-74678571D02*
X134324200Y-74716666D01*
X134324200Y-74716666D02*
X134362295Y-74792857D01*
X134362295Y-74792857D02*
X134362295Y-74869047D01*
X134362295Y-74869047D02*
X134324200Y-74945238D01*
X134324200Y-74945238D02*
X134286104Y-74983333D01*
X134286104Y-74983333D02*
X134209914Y-75021428D01*
X134209914Y-75021428D02*
X134057533Y-75059524D01*
X134057533Y-75059524D02*
X133867057Y-75059524D01*
X133867057Y-75059524D02*
X133714676Y-75021428D01*
X133714676Y-75021428D02*
X133638485Y-74983333D01*
X133638485Y-74983333D02*
X133600390Y-74945238D01*
X133600390Y-74945238D02*
X133562295Y-74869047D01*
X133562295Y-74335714D02*
X133562295Y-73840476D01*
X133562295Y-73840476D02*
X133867057Y-74107142D01*
X133867057Y-74107142D02*
X133867057Y-73992857D01*
X133867057Y-73992857D02*
X133905152Y-73916666D01*
X133905152Y-73916666D02*
X133943247Y-73878571D01*
X133943247Y-73878571D02*
X134019438Y-73840476D01*
X134019438Y-73840476D02*
X134209914Y-73840476D01*
X134209914Y-73840476D02*
X134286104Y-73878571D01*
X134286104Y-73878571D02*
X134324200Y-73916666D01*
X134324200Y-73916666D02*
X134362295Y-73992857D01*
X134362295Y-73992857D02*
X134362295Y-74221428D01*
X134362295Y-74221428D02*
X134324200Y-74297619D01*
X134324200Y-74297619D02*
X134286104Y-74335714D01*
X144429580Y-71394047D02*
X144477200Y-71441666D01*
X144477200Y-71441666D02*
X144524819Y-71584523D01*
X144524819Y-71584523D02*
X144524819Y-71679761D01*
X144524819Y-71679761D02*
X144477200Y-71822618D01*
X144477200Y-71822618D02*
X144381961Y-71917856D01*
X144381961Y-71917856D02*
X144286723Y-71965475D01*
X144286723Y-71965475D02*
X144096247Y-72013094D01*
X144096247Y-72013094D02*
X143953390Y-72013094D01*
X143953390Y-72013094D02*
X143762914Y-71965475D01*
X143762914Y-71965475D02*
X143667676Y-71917856D01*
X143667676Y-71917856D02*
X143572438Y-71822618D01*
X143572438Y-71822618D02*
X143524819Y-71679761D01*
X143524819Y-71679761D02*
X143524819Y-71584523D01*
X143524819Y-71584523D02*
X143572438Y-71441666D01*
X143572438Y-71441666D02*
X143620057Y-71394047D01*
X144524819Y-70441666D02*
X144524819Y-71013094D01*
X144524819Y-70727380D02*
X143524819Y-70727380D01*
X143524819Y-70727380D02*
X143667676Y-70822618D01*
X143667676Y-70822618D02*
X143762914Y-70917856D01*
X143762914Y-70917856D02*
X143810533Y-71013094D01*
X143524819Y-69822618D02*
X143524819Y-69727380D01*
X143524819Y-69727380D02*
X143572438Y-69632142D01*
X143572438Y-69632142D02*
X143620057Y-69584523D01*
X143620057Y-69584523D02*
X143715295Y-69536904D01*
X143715295Y-69536904D02*
X143905771Y-69489285D01*
X143905771Y-69489285D02*
X144143866Y-69489285D01*
X144143866Y-69489285D02*
X144334342Y-69536904D01*
X144334342Y-69536904D02*
X144429580Y-69584523D01*
X144429580Y-69584523D02*
X144477200Y-69632142D01*
X144477200Y-69632142D02*
X144524819Y-69727380D01*
X144524819Y-69727380D02*
X144524819Y-69822618D01*
X144524819Y-69822618D02*
X144477200Y-69917856D01*
X144477200Y-69917856D02*
X144429580Y-69965475D01*
X144429580Y-69965475D02*
X144334342Y-70013094D01*
X144334342Y-70013094D02*
X144143866Y-70060713D01*
X144143866Y-70060713D02*
X143905771Y-70060713D01*
X143905771Y-70060713D02*
X143715295Y-70013094D01*
X143715295Y-70013094D02*
X143620057Y-69965475D01*
X143620057Y-69965475D02*
X143572438Y-69917856D01*
X143572438Y-69917856D02*
X143524819Y-69822618D01*
X143524819Y-69155951D02*
X143524819Y-68536904D01*
X143524819Y-68536904D02*
X143905771Y-68870237D01*
X143905771Y-68870237D02*
X143905771Y-68727380D01*
X143905771Y-68727380D02*
X143953390Y-68632142D01*
X143953390Y-68632142D02*
X144001009Y-68584523D01*
X144001009Y-68584523D02*
X144096247Y-68536904D01*
X144096247Y-68536904D02*
X144334342Y-68536904D01*
X144334342Y-68536904D02*
X144429580Y-68584523D01*
X144429580Y-68584523D02*
X144477200Y-68632142D01*
X144477200Y-68632142D02*
X144524819Y-68727380D01*
X144524819Y-68727380D02*
X144524819Y-69013094D01*
X144524819Y-69013094D02*
X144477200Y-69108332D01*
X144477200Y-69108332D02*
X144429580Y-69155951D01*
X110880952Y-53454819D02*
X110547619Y-52978628D01*
X110309524Y-53454819D02*
X110309524Y-52454819D01*
X110309524Y-52454819D02*
X110690476Y-52454819D01*
X110690476Y-52454819D02*
X110785714Y-52502438D01*
X110785714Y-52502438D02*
X110833333Y-52550057D01*
X110833333Y-52550057D02*
X110880952Y-52645295D01*
X110880952Y-52645295D02*
X110880952Y-52788152D01*
X110880952Y-52788152D02*
X110833333Y-52883390D01*
X110833333Y-52883390D02*
X110785714Y-52931009D01*
X110785714Y-52931009D02*
X110690476Y-52978628D01*
X110690476Y-52978628D02*
X110309524Y-52978628D01*
X111833333Y-53454819D02*
X111261905Y-53454819D01*
X111547619Y-53454819D02*
X111547619Y-52454819D01*
X111547619Y-52454819D02*
X111452381Y-52597676D01*
X111452381Y-52597676D02*
X111357143Y-52692914D01*
X111357143Y-52692914D02*
X111261905Y-52740533D01*
X112452381Y-52454819D02*
X112547619Y-52454819D01*
X112547619Y-52454819D02*
X112642857Y-52502438D01*
X112642857Y-52502438D02*
X112690476Y-52550057D01*
X112690476Y-52550057D02*
X112738095Y-52645295D01*
X112738095Y-52645295D02*
X112785714Y-52835771D01*
X112785714Y-52835771D02*
X112785714Y-53073866D01*
X112785714Y-53073866D02*
X112738095Y-53264342D01*
X112738095Y-53264342D02*
X112690476Y-53359580D01*
X112690476Y-53359580D02*
X112642857Y-53407200D01*
X112642857Y-53407200D02*
X112547619Y-53454819D01*
X112547619Y-53454819D02*
X112452381Y-53454819D01*
X112452381Y-53454819D02*
X112357143Y-53407200D01*
X112357143Y-53407200D02*
X112309524Y-53359580D01*
X112309524Y-53359580D02*
X112261905Y-53264342D01*
X112261905Y-53264342D02*
X112214286Y-53073866D01*
X112214286Y-53073866D02*
X112214286Y-52835771D01*
X112214286Y-52835771D02*
X112261905Y-52645295D01*
X112261905Y-52645295D02*
X112309524Y-52550057D01*
X112309524Y-52550057D02*
X112357143Y-52502438D01*
X112357143Y-52502438D02*
X112452381Y-52454819D01*
X113119048Y-52454819D02*
X113738095Y-52454819D01*
X113738095Y-52454819D02*
X113404762Y-52835771D01*
X113404762Y-52835771D02*
X113547619Y-52835771D01*
X113547619Y-52835771D02*
X113642857Y-52883390D01*
X113642857Y-52883390D02*
X113690476Y-52931009D01*
X113690476Y-52931009D02*
X113738095Y-53026247D01*
X113738095Y-53026247D02*
X113738095Y-53264342D01*
X113738095Y-53264342D02*
X113690476Y-53359580D01*
X113690476Y-53359580D02*
X113642857Y-53407200D01*
X113642857Y-53407200D02*
X113547619Y-53454819D01*
X113547619Y-53454819D02*
X113261905Y-53454819D01*
X113261905Y-53454819D02*
X113166667Y-53407200D01*
X113166667Y-53407200D02*
X113119048Y-53359580D01*
X146539580Y-84869047D02*
X146587200Y-84916666D01*
X146587200Y-84916666D02*
X146634819Y-85059523D01*
X146634819Y-85059523D02*
X146634819Y-85154761D01*
X146634819Y-85154761D02*
X146587200Y-85297618D01*
X146587200Y-85297618D02*
X146491961Y-85392856D01*
X146491961Y-85392856D02*
X146396723Y-85440475D01*
X146396723Y-85440475D02*
X146206247Y-85488094D01*
X146206247Y-85488094D02*
X146063390Y-85488094D01*
X146063390Y-85488094D02*
X145872914Y-85440475D01*
X145872914Y-85440475D02*
X145777676Y-85392856D01*
X145777676Y-85392856D02*
X145682438Y-85297618D01*
X145682438Y-85297618D02*
X145634819Y-85154761D01*
X145634819Y-85154761D02*
X145634819Y-85059523D01*
X145634819Y-85059523D02*
X145682438Y-84916666D01*
X145682438Y-84916666D02*
X145730057Y-84869047D01*
X146634819Y-83916666D02*
X146634819Y-84488094D01*
X146634819Y-84202380D02*
X145634819Y-84202380D01*
X145634819Y-84202380D02*
X145777676Y-84297618D01*
X145777676Y-84297618D02*
X145872914Y-84392856D01*
X145872914Y-84392856D02*
X145920533Y-84488094D01*
X145634819Y-83297618D02*
X145634819Y-83202380D01*
X145634819Y-83202380D02*
X145682438Y-83107142D01*
X145682438Y-83107142D02*
X145730057Y-83059523D01*
X145730057Y-83059523D02*
X145825295Y-83011904D01*
X145825295Y-83011904D02*
X146015771Y-82964285D01*
X146015771Y-82964285D02*
X146253866Y-82964285D01*
X146253866Y-82964285D02*
X146444342Y-83011904D01*
X146444342Y-83011904D02*
X146539580Y-83059523D01*
X146539580Y-83059523D02*
X146587200Y-83107142D01*
X146587200Y-83107142D02*
X146634819Y-83202380D01*
X146634819Y-83202380D02*
X146634819Y-83297618D01*
X146634819Y-83297618D02*
X146587200Y-83392856D01*
X146587200Y-83392856D02*
X146539580Y-83440475D01*
X146539580Y-83440475D02*
X146444342Y-83488094D01*
X146444342Y-83488094D02*
X146253866Y-83535713D01*
X146253866Y-83535713D02*
X146015771Y-83535713D01*
X146015771Y-83535713D02*
X145825295Y-83488094D01*
X145825295Y-83488094D02*
X145730057Y-83440475D01*
X145730057Y-83440475D02*
X145682438Y-83392856D01*
X145682438Y-83392856D02*
X145634819Y-83297618D01*
X146634819Y-82011904D02*
X146634819Y-82583332D01*
X146634819Y-82297618D02*
X145634819Y-82297618D01*
X145634819Y-82297618D02*
X145777676Y-82392856D01*
X145777676Y-82392856D02*
X145872914Y-82488094D01*
X145872914Y-82488094D02*
X145920533Y-82583332D01*
X121309580Y-75869047D02*
X121357200Y-75916666D01*
X121357200Y-75916666D02*
X121404819Y-76059523D01*
X121404819Y-76059523D02*
X121404819Y-76154761D01*
X121404819Y-76154761D02*
X121357200Y-76297618D01*
X121357200Y-76297618D02*
X121261961Y-76392856D01*
X121261961Y-76392856D02*
X121166723Y-76440475D01*
X121166723Y-76440475D02*
X120976247Y-76488094D01*
X120976247Y-76488094D02*
X120833390Y-76488094D01*
X120833390Y-76488094D02*
X120642914Y-76440475D01*
X120642914Y-76440475D02*
X120547676Y-76392856D01*
X120547676Y-76392856D02*
X120452438Y-76297618D01*
X120452438Y-76297618D02*
X120404819Y-76154761D01*
X120404819Y-76154761D02*
X120404819Y-76059523D01*
X120404819Y-76059523D02*
X120452438Y-75916666D01*
X120452438Y-75916666D02*
X120500057Y-75869047D01*
X121404819Y-74916666D02*
X121404819Y-75488094D01*
X121404819Y-75202380D02*
X120404819Y-75202380D01*
X120404819Y-75202380D02*
X120547676Y-75297618D01*
X120547676Y-75297618D02*
X120642914Y-75392856D01*
X120642914Y-75392856D02*
X120690533Y-75488094D01*
X121404819Y-73964285D02*
X121404819Y-74535713D01*
X121404819Y-74249999D02*
X120404819Y-74249999D01*
X120404819Y-74249999D02*
X120547676Y-74345237D01*
X120547676Y-74345237D02*
X120642914Y-74440475D01*
X120642914Y-74440475D02*
X120690533Y-74535713D01*
X120404819Y-73345237D02*
X120404819Y-73249999D01*
X120404819Y-73249999D02*
X120452438Y-73154761D01*
X120452438Y-73154761D02*
X120500057Y-73107142D01*
X120500057Y-73107142D02*
X120595295Y-73059523D01*
X120595295Y-73059523D02*
X120785771Y-73011904D01*
X120785771Y-73011904D02*
X121023866Y-73011904D01*
X121023866Y-73011904D02*
X121214342Y-73059523D01*
X121214342Y-73059523D02*
X121309580Y-73107142D01*
X121309580Y-73107142D02*
X121357200Y-73154761D01*
X121357200Y-73154761D02*
X121404819Y-73249999D01*
X121404819Y-73249999D02*
X121404819Y-73345237D01*
X121404819Y-73345237D02*
X121357200Y-73440475D01*
X121357200Y-73440475D02*
X121309580Y-73488094D01*
X121309580Y-73488094D02*
X121214342Y-73535713D01*
X121214342Y-73535713D02*
X121023866Y-73583332D01*
X121023866Y-73583332D02*
X120785771Y-73583332D01*
X120785771Y-73583332D02*
X120595295Y-73535713D01*
X120595295Y-73535713D02*
X120500057Y-73488094D01*
X120500057Y-73488094D02*
X120452438Y-73440475D01*
X120452438Y-73440475D02*
X120404819Y-73345237D01*
X141059524Y-91204819D02*
X141059524Y-90204819D01*
X141059524Y-90204819D02*
X141297619Y-90204819D01*
X141297619Y-90204819D02*
X141440476Y-90252438D01*
X141440476Y-90252438D02*
X141535714Y-90347676D01*
X141535714Y-90347676D02*
X141583333Y-90442914D01*
X141583333Y-90442914D02*
X141630952Y-90633390D01*
X141630952Y-90633390D02*
X141630952Y-90776247D01*
X141630952Y-90776247D02*
X141583333Y-90966723D01*
X141583333Y-90966723D02*
X141535714Y-91061961D01*
X141535714Y-91061961D02*
X141440476Y-91157200D01*
X141440476Y-91157200D02*
X141297619Y-91204819D01*
X141297619Y-91204819D02*
X141059524Y-91204819D01*
X142583333Y-91204819D02*
X142011905Y-91204819D01*
X142297619Y-91204819D02*
X142297619Y-90204819D01*
X142297619Y-90204819D02*
X142202381Y-90347676D01*
X142202381Y-90347676D02*
X142107143Y-90442914D01*
X142107143Y-90442914D02*
X142011905Y-90490533D01*
X143202381Y-90204819D02*
X143297619Y-90204819D01*
X143297619Y-90204819D02*
X143392857Y-90252438D01*
X143392857Y-90252438D02*
X143440476Y-90300057D01*
X143440476Y-90300057D02*
X143488095Y-90395295D01*
X143488095Y-90395295D02*
X143535714Y-90585771D01*
X143535714Y-90585771D02*
X143535714Y-90823866D01*
X143535714Y-90823866D02*
X143488095Y-91014342D01*
X143488095Y-91014342D02*
X143440476Y-91109580D01*
X143440476Y-91109580D02*
X143392857Y-91157200D01*
X143392857Y-91157200D02*
X143297619Y-91204819D01*
X143297619Y-91204819D02*
X143202381Y-91204819D01*
X143202381Y-91204819D02*
X143107143Y-91157200D01*
X143107143Y-91157200D02*
X143059524Y-91109580D01*
X143059524Y-91109580D02*
X143011905Y-91014342D01*
X143011905Y-91014342D02*
X142964286Y-90823866D01*
X142964286Y-90823866D02*
X142964286Y-90585771D01*
X142964286Y-90585771D02*
X143011905Y-90395295D01*
X143011905Y-90395295D02*
X143059524Y-90300057D01*
X143059524Y-90300057D02*
X143107143Y-90252438D01*
X143107143Y-90252438D02*
X143202381Y-90204819D01*
X143869048Y-90204819D02*
X144488095Y-90204819D01*
X144488095Y-90204819D02*
X144154762Y-90585771D01*
X144154762Y-90585771D02*
X144297619Y-90585771D01*
X144297619Y-90585771D02*
X144392857Y-90633390D01*
X144392857Y-90633390D02*
X144440476Y-90681009D01*
X144440476Y-90681009D02*
X144488095Y-90776247D01*
X144488095Y-90776247D02*
X144488095Y-91014342D01*
X144488095Y-91014342D02*
X144440476Y-91109580D01*
X144440476Y-91109580D02*
X144392857Y-91157200D01*
X144392857Y-91157200D02*
X144297619Y-91204819D01*
X144297619Y-91204819D02*
X144011905Y-91204819D01*
X144011905Y-91204819D02*
X143916667Y-91157200D01*
X143916667Y-91157200D02*
X143869048Y-91109580D01*
X133354295Y-63831428D02*
X134001914Y-63831428D01*
X134001914Y-63831428D02*
X134078104Y-63793333D01*
X134078104Y-63793333D02*
X134116200Y-63755238D01*
X134116200Y-63755238D02*
X134154295Y-63679047D01*
X134154295Y-63679047D02*
X134154295Y-63526666D01*
X134154295Y-63526666D02*
X134116200Y-63450476D01*
X134116200Y-63450476D02*
X134078104Y-63412381D01*
X134078104Y-63412381D02*
X134001914Y-63374285D01*
X134001914Y-63374285D02*
X133354295Y-63374285D01*
X134154295Y-62574286D02*
X134154295Y-63031429D01*
X134154295Y-62802857D02*
X133354295Y-62802857D01*
X133354295Y-62802857D02*
X133468580Y-62879048D01*
X133468580Y-62879048D02*
X133544771Y-62955238D01*
X133544771Y-62955238D02*
X133582866Y-63031429D01*
X133354295Y-62079047D02*
X133354295Y-62002857D01*
X133354295Y-62002857D02*
X133392390Y-61926666D01*
X133392390Y-61926666D02*
X133430485Y-61888571D01*
X133430485Y-61888571D02*
X133506676Y-61850476D01*
X133506676Y-61850476D02*
X133659057Y-61812381D01*
X133659057Y-61812381D02*
X133849533Y-61812381D01*
X133849533Y-61812381D02*
X134001914Y-61850476D01*
X134001914Y-61850476D02*
X134078104Y-61888571D01*
X134078104Y-61888571D02*
X134116200Y-61926666D01*
X134116200Y-61926666D02*
X134154295Y-62002857D01*
X134154295Y-62002857D02*
X134154295Y-62079047D01*
X134154295Y-62079047D02*
X134116200Y-62155238D01*
X134116200Y-62155238D02*
X134078104Y-62193333D01*
X134078104Y-62193333D02*
X134001914Y-62231428D01*
X134001914Y-62231428D02*
X133849533Y-62269524D01*
X133849533Y-62269524D02*
X133659057Y-62269524D01*
X133659057Y-62269524D02*
X133506676Y-62231428D01*
X133506676Y-62231428D02*
X133430485Y-62193333D01*
X133430485Y-62193333D02*
X133392390Y-62155238D01*
X133392390Y-62155238D02*
X133354295Y-62079047D01*
X133620961Y-61126666D02*
X134154295Y-61126666D01*
X133316200Y-61317142D02*
X133887628Y-61507619D01*
X133887628Y-61507619D02*
X133887628Y-61012380D01*
X161454819Y-88635714D02*
X162169104Y-88635714D01*
X162169104Y-88635714D02*
X162311961Y-88683333D01*
X162311961Y-88683333D02*
X162407200Y-88778571D01*
X162407200Y-88778571D02*
X162454819Y-88921428D01*
X162454819Y-88921428D02*
X162454819Y-89016666D01*
X162454819Y-87635714D02*
X162454819Y-88207142D01*
X162454819Y-87921428D02*
X161454819Y-87921428D01*
X161454819Y-87921428D02*
X161597676Y-88016666D01*
X161597676Y-88016666D02*
X161692914Y-88111904D01*
X161692914Y-88111904D02*
X161740533Y-88207142D01*
X161454819Y-87016666D02*
X161454819Y-86921428D01*
X161454819Y-86921428D02*
X161502438Y-86826190D01*
X161502438Y-86826190D02*
X161550057Y-86778571D01*
X161550057Y-86778571D02*
X161645295Y-86730952D01*
X161645295Y-86730952D02*
X161835771Y-86683333D01*
X161835771Y-86683333D02*
X162073866Y-86683333D01*
X162073866Y-86683333D02*
X162264342Y-86730952D01*
X162264342Y-86730952D02*
X162359580Y-86778571D01*
X162359580Y-86778571D02*
X162407200Y-86826190D01*
X162407200Y-86826190D02*
X162454819Y-86921428D01*
X162454819Y-86921428D02*
X162454819Y-87016666D01*
X162454819Y-87016666D02*
X162407200Y-87111904D01*
X162407200Y-87111904D02*
X162359580Y-87159523D01*
X162359580Y-87159523D02*
X162264342Y-87207142D01*
X162264342Y-87207142D02*
X162073866Y-87254761D01*
X162073866Y-87254761D02*
X161835771Y-87254761D01*
X161835771Y-87254761D02*
X161645295Y-87207142D01*
X161645295Y-87207142D02*
X161550057Y-87159523D01*
X161550057Y-87159523D02*
X161502438Y-87111904D01*
X161502438Y-87111904D02*
X161454819Y-87016666D01*
X162454819Y-85730952D02*
X162454819Y-86302380D01*
X162454819Y-86016666D02*
X161454819Y-86016666D01*
X161454819Y-86016666D02*
X161597676Y-86111904D01*
X161597676Y-86111904D02*
X161692914Y-86207142D01*
X161692914Y-86207142D02*
X161740533Y-86302380D01*
X161454819Y-74285714D02*
X162169104Y-74285714D01*
X162169104Y-74285714D02*
X162311961Y-74333333D01*
X162311961Y-74333333D02*
X162407200Y-74428571D01*
X162407200Y-74428571D02*
X162454819Y-74571428D01*
X162454819Y-74571428D02*
X162454819Y-74666666D01*
X162454819Y-73285714D02*
X162454819Y-73857142D01*
X162454819Y-73571428D02*
X161454819Y-73571428D01*
X161454819Y-73571428D02*
X161597676Y-73666666D01*
X161597676Y-73666666D02*
X161692914Y-73761904D01*
X161692914Y-73761904D02*
X161740533Y-73857142D01*
X161454819Y-72666666D02*
X161454819Y-72571428D01*
X161454819Y-72571428D02*
X161502438Y-72476190D01*
X161502438Y-72476190D02*
X161550057Y-72428571D01*
X161550057Y-72428571D02*
X161645295Y-72380952D01*
X161645295Y-72380952D02*
X161835771Y-72333333D01*
X161835771Y-72333333D02*
X162073866Y-72333333D01*
X162073866Y-72333333D02*
X162264342Y-72380952D01*
X162264342Y-72380952D02*
X162359580Y-72428571D01*
X162359580Y-72428571D02*
X162407200Y-72476190D01*
X162407200Y-72476190D02*
X162454819Y-72571428D01*
X162454819Y-72571428D02*
X162454819Y-72666666D01*
X162454819Y-72666666D02*
X162407200Y-72761904D01*
X162407200Y-72761904D02*
X162359580Y-72809523D01*
X162359580Y-72809523D02*
X162264342Y-72857142D01*
X162264342Y-72857142D02*
X162073866Y-72904761D01*
X162073866Y-72904761D02*
X161835771Y-72904761D01*
X161835771Y-72904761D02*
X161645295Y-72857142D01*
X161645295Y-72857142D02*
X161550057Y-72809523D01*
X161550057Y-72809523D02*
X161502438Y-72761904D01*
X161502438Y-72761904D02*
X161454819Y-72666666D01*
X161454819Y-71476190D02*
X161454819Y-71666666D01*
X161454819Y-71666666D02*
X161502438Y-71761904D01*
X161502438Y-71761904D02*
X161550057Y-71809523D01*
X161550057Y-71809523D02*
X161692914Y-71904761D01*
X161692914Y-71904761D02*
X161883390Y-71952380D01*
X161883390Y-71952380D02*
X162264342Y-71952380D01*
X162264342Y-71952380D02*
X162359580Y-71904761D01*
X162359580Y-71904761D02*
X162407200Y-71857142D01*
X162407200Y-71857142D02*
X162454819Y-71761904D01*
X162454819Y-71761904D02*
X162454819Y-71571428D01*
X162454819Y-71571428D02*
X162407200Y-71476190D01*
X162407200Y-71476190D02*
X162359580Y-71428571D01*
X162359580Y-71428571D02*
X162264342Y-71380952D01*
X162264342Y-71380952D02*
X162026247Y-71380952D01*
X162026247Y-71380952D02*
X161931009Y-71428571D01*
X161931009Y-71428571D02*
X161883390Y-71476190D01*
X161883390Y-71476190D02*
X161835771Y-71571428D01*
X161835771Y-71571428D02*
X161835771Y-71761904D01*
X161835771Y-71761904D02*
X161883390Y-71857142D01*
X161883390Y-71857142D02*
X161931009Y-71904761D01*
X161931009Y-71904761D02*
X162026247Y-71952380D01*
X121959580Y-95894047D02*
X122007200Y-95941666D01*
X122007200Y-95941666D02*
X122054819Y-96084523D01*
X122054819Y-96084523D02*
X122054819Y-96179761D01*
X122054819Y-96179761D02*
X122007200Y-96322618D01*
X122007200Y-96322618D02*
X121911961Y-96417856D01*
X121911961Y-96417856D02*
X121816723Y-96465475D01*
X121816723Y-96465475D02*
X121626247Y-96513094D01*
X121626247Y-96513094D02*
X121483390Y-96513094D01*
X121483390Y-96513094D02*
X121292914Y-96465475D01*
X121292914Y-96465475D02*
X121197676Y-96417856D01*
X121197676Y-96417856D02*
X121102438Y-96322618D01*
X121102438Y-96322618D02*
X121054819Y-96179761D01*
X121054819Y-96179761D02*
X121054819Y-96084523D01*
X121054819Y-96084523D02*
X121102438Y-95941666D01*
X121102438Y-95941666D02*
X121150057Y-95894047D01*
X122054819Y-94941666D02*
X122054819Y-95513094D01*
X122054819Y-95227380D02*
X121054819Y-95227380D01*
X121054819Y-95227380D02*
X121197676Y-95322618D01*
X121197676Y-95322618D02*
X121292914Y-95417856D01*
X121292914Y-95417856D02*
X121340533Y-95513094D01*
X122054819Y-93989285D02*
X122054819Y-94560713D01*
X122054819Y-94274999D02*
X121054819Y-94274999D01*
X121054819Y-94274999D02*
X121197676Y-94370237D01*
X121197676Y-94370237D02*
X121292914Y-94465475D01*
X121292914Y-94465475D02*
X121340533Y-94560713D01*
X121388152Y-93132142D02*
X122054819Y-93132142D01*
X121007200Y-93370237D02*
X121721485Y-93608332D01*
X121721485Y-93608332D02*
X121721485Y-92989285D01*
X111704819Y-87807285D02*
X112514342Y-87807285D01*
X112514342Y-87807285D02*
X112609580Y-87759666D01*
X112609580Y-87759666D02*
X112657200Y-87712047D01*
X112657200Y-87712047D02*
X112704819Y-87616809D01*
X112704819Y-87616809D02*
X112704819Y-87426333D01*
X112704819Y-87426333D02*
X112657200Y-87331095D01*
X112657200Y-87331095D02*
X112609580Y-87283476D01*
X112609580Y-87283476D02*
X112514342Y-87235857D01*
X112514342Y-87235857D02*
X111704819Y-87235857D01*
X112704819Y-86235857D02*
X112704819Y-86807285D01*
X112704819Y-86521571D02*
X111704819Y-86521571D01*
X111704819Y-86521571D02*
X111847676Y-86616809D01*
X111847676Y-86616809D02*
X111942914Y-86712047D01*
X111942914Y-86712047D02*
X111990533Y-86807285D01*
X111704819Y-85616809D02*
X111704819Y-85521571D01*
X111704819Y-85521571D02*
X111752438Y-85426333D01*
X111752438Y-85426333D02*
X111800057Y-85378714D01*
X111800057Y-85378714D02*
X111895295Y-85331095D01*
X111895295Y-85331095D02*
X112085771Y-85283476D01*
X112085771Y-85283476D02*
X112323866Y-85283476D01*
X112323866Y-85283476D02*
X112514342Y-85331095D01*
X112514342Y-85331095D02*
X112609580Y-85378714D01*
X112609580Y-85378714D02*
X112657200Y-85426333D01*
X112657200Y-85426333D02*
X112704819Y-85521571D01*
X112704819Y-85521571D02*
X112704819Y-85616809D01*
X112704819Y-85616809D02*
X112657200Y-85712047D01*
X112657200Y-85712047D02*
X112609580Y-85759666D01*
X112609580Y-85759666D02*
X112514342Y-85807285D01*
X112514342Y-85807285D02*
X112323866Y-85854904D01*
X112323866Y-85854904D02*
X112085771Y-85854904D01*
X112085771Y-85854904D02*
X111895295Y-85807285D01*
X111895295Y-85807285D02*
X111800057Y-85759666D01*
X111800057Y-85759666D02*
X111752438Y-85712047D01*
X111752438Y-85712047D02*
X111704819Y-85616809D01*
X112704819Y-84331095D02*
X112704819Y-84902523D01*
X112704819Y-84616809D02*
X111704819Y-84616809D01*
X111704819Y-84616809D02*
X111847676Y-84712047D01*
X111847676Y-84712047D02*
X111942914Y-84807285D01*
X111942914Y-84807285D02*
X111990533Y-84902523D01*
X140630952Y-80109580D02*
X140583333Y-80157200D01*
X140583333Y-80157200D02*
X140440476Y-80204819D01*
X140440476Y-80204819D02*
X140345238Y-80204819D01*
X140345238Y-80204819D02*
X140202381Y-80157200D01*
X140202381Y-80157200D02*
X140107143Y-80061961D01*
X140107143Y-80061961D02*
X140059524Y-79966723D01*
X140059524Y-79966723D02*
X140011905Y-79776247D01*
X140011905Y-79776247D02*
X140011905Y-79633390D01*
X140011905Y-79633390D02*
X140059524Y-79442914D01*
X140059524Y-79442914D02*
X140107143Y-79347676D01*
X140107143Y-79347676D02*
X140202381Y-79252438D01*
X140202381Y-79252438D02*
X140345238Y-79204819D01*
X140345238Y-79204819D02*
X140440476Y-79204819D01*
X140440476Y-79204819D02*
X140583333Y-79252438D01*
X140583333Y-79252438D02*
X140630952Y-79300057D01*
X141583333Y-80204819D02*
X141011905Y-80204819D01*
X141297619Y-80204819D02*
X141297619Y-79204819D01*
X141297619Y-79204819D02*
X141202381Y-79347676D01*
X141202381Y-79347676D02*
X141107143Y-79442914D01*
X141107143Y-79442914D02*
X141011905Y-79490533D01*
X142535714Y-80204819D02*
X141964286Y-80204819D01*
X142250000Y-80204819D02*
X142250000Y-79204819D01*
X142250000Y-79204819D02*
X142154762Y-79347676D01*
X142154762Y-79347676D02*
X142059524Y-79442914D01*
X142059524Y-79442914D02*
X141964286Y-79490533D01*
X143488095Y-80204819D02*
X142916667Y-80204819D01*
X143202381Y-80204819D02*
X143202381Y-79204819D01*
X143202381Y-79204819D02*
X143107143Y-79347676D01*
X143107143Y-79347676D02*
X143011905Y-79442914D01*
X143011905Y-79442914D02*
X142916667Y-79490533D01*
X144429580Y-76344047D02*
X144477200Y-76391666D01*
X144477200Y-76391666D02*
X144524819Y-76534523D01*
X144524819Y-76534523D02*
X144524819Y-76629761D01*
X144524819Y-76629761D02*
X144477200Y-76772618D01*
X144477200Y-76772618D02*
X144381961Y-76867856D01*
X144381961Y-76867856D02*
X144286723Y-76915475D01*
X144286723Y-76915475D02*
X144096247Y-76963094D01*
X144096247Y-76963094D02*
X143953390Y-76963094D01*
X143953390Y-76963094D02*
X143762914Y-76915475D01*
X143762914Y-76915475D02*
X143667676Y-76867856D01*
X143667676Y-76867856D02*
X143572438Y-76772618D01*
X143572438Y-76772618D02*
X143524819Y-76629761D01*
X143524819Y-76629761D02*
X143524819Y-76534523D01*
X143524819Y-76534523D02*
X143572438Y-76391666D01*
X143572438Y-76391666D02*
X143620057Y-76344047D01*
X144524819Y-75391666D02*
X144524819Y-75963094D01*
X144524819Y-75677380D02*
X143524819Y-75677380D01*
X143524819Y-75677380D02*
X143667676Y-75772618D01*
X143667676Y-75772618D02*
X143762914Y-75867856D01*
X143762914Y-75867856D02*
X143810533Y-75963094D01*
X143524819Y-74772618D02*
X143524819Y-74677380D01*
X143524819Y-74677380D02*
X143572438Y-74582142D01*
X143572438Y-74582142D02*
X143620057Y-74534523D01*
X143620057Y-74534523D02*
X143715295Y-74486904D01*
X143715295Y-74486904D02*
X143905771Y-74439285D01*
X143905771Y-74439285D02*
X144143866Y-74439285D01*
X144143866Y-74439285D02*
X144334342Y-74486904D01*
X144334342Y-74486904D02*
X144429580Y-74534523D01*
X144429580Y-74534523D02*
X144477200Y-74582142D01*
X144477200Y-74582142D02*
X144524819Y-74677380D01*
X144524819Y-74677380D02*
X144524819Y-74772618D01*
X144524819Y-74772618D02*
X144477200Y-74867856D01*
X144477200Y-74867856D02*
X144429580Y-74915475D01*
X144429580Y-74915475D02*
X144334342Y-74963094D01*
X144334342Y-74963094D02*
X144143866Y-75010713D01*
X144143866Y-75010713D02*
X143905771Y-75010713D01*
X143905771Y-75010713D02*
X143715295Y-74963094D01*
X143715295Y-74963094D02*
X143620057Y-74915475D01*
X143620057Y-74915475D02*
X143572438Y-74867856D01*
X143572438Y-74867856D02*
X143524819Y-74772618D01*
X143524819Y-73534523D02*
X143524819Y-74010713D01*
X143524819Y-74010713D02*
X144001009Y-74058332D01*
X144001009Y-74058332D02*
X143953390Y-74010713D01*
X143953390Y-74010713D02*
X143905771Y-73915475D01*
X143905771Y-73915475D02*
X143905771Y-73677380D01*
X143905771Y-73677380D02*
X143953390Y-73582142D01*
X143953390Y-73582142D02*
X144001009Y-73534523D01*
X144001009Y-73534523D02*
X144096247Y-73486904D01*
X144096247Y-73486904D02*
X144334342Y-73486904D01*
X144334342Y-73486904D02*
X144429580Y-73534523D01*
X144429580Y-73534523D02*
X144477200Y-73582142D01*
X144477200Y-73582142D02*
X144524819Y-73677380D01*
X144524819Y-73677380D02*
X144524819Y-73915475D01*
X144524819Y-73915475D02*
X144477200Y-74010713D01*
X144477200Y-74010713D02*
X144429580Y-74058332D01*
X144429580Y-57369047D02*
X144477200Y-57416666D01*
X144477200Y-57416666D02*
X144524819Y-57559523D01*
X144524819Y-57559523D02*
X144524819Y-57654761D01*
X144524819Y-57654761D02*
X144477200Y-57797618D01*
X144477200Y-57797618D02*
X144381961Y-57892856D01*
X144381961Y-57892856D02*
X144286723Y-57940475D01*
X144286723Y-57940475D02*
X144096247Y-57988094D01*
X144096247Y-57988094D02*
X143953390Y-57988094D01*
X143953390Y-57988094D02*
X143762914Y-57940475D01*
X143762914Y-57940475D02*
X143667676Y-57892856D01*
X143667676Y-57892856D02*
X143572438Y-57797618D01*
X143572438Y-57797618D02*
X143524819Y-57654761D01*
X143524819Y-57654761D02*
X143524819Y-57559523D01*
X143524819Y-57559523D02*
X143572438Y-57416666D01*
X143572438Y-57416666D02*
X143620057Y-57369047D01*
X144524819Y-56416666D02*
X144524819Y-56988094D01*
X144524819Y-56702380D02*
X143524819Y-56702380D01*
X143524819Y-56702380D02*
X143667676Y-56797618D01*
X143667676Y-56797618D02*
X143762914Y-56892856D01*
X143762914Y-56892856D02*
X143810533Y-56988094D01*
X143524819Y-55797618D02*
X143524819Y-55702380D01*
X143524819Y-55702380D02*
X143572438Y-55607142D01*
X143572438Y-55607142D02*
X143620057Y-55559523D01*
X143620057Y-55559523D02*
X143715295Y-55511904D01*
X143715295Y-55511904D02*
X143905771Y-55464285D01*
X143905771Y-55464285D02*
X144143866Y-55464285D01*
X144143866Y-55464285D02*
X144334342Y-55511904D01*
X144334342Y-55511904D02*
X144429580Y-55559523D01*
X144429580Y-55559523D02*
X144477200Y-55607142D01*
X144477200Y-55607142D02*
X144524819Y-55702380D01*
X144524819Y-55702380D02*
X144524819Y-55797618D01*
X144524819Y-55797618D02*
X144477200Y-55892856D01*
X144477200Y-55892856D02*
X144429580Y-55940475D01*
X144429580Y-55940475D02*
X144334342Y-55988094D01*
X144334342Y-55988094D02*
X144143866Y-56035713D01*
X144143866Y-56035713D02*
X143905771Y-56035713D01*
X143905771Y-56035713D02*
X143715295Y-55988094D01*
X143715295Y-55988094D02*
X143620057Y-55940475D01*
X143620057Y-55940475D02*
X143572438Y-55892856D01*
X143572438Y-55892856D02*
X143524819Y-55797618D01*
X143858152Y-54607142D02*
X144524819Y-54607142D01*
X143477200Y-54845237D02*
X144191485Y-55083332D01*
X144191485Y-55083332D02*
X144191485Y-54464285D01*
D11*
X126610000Y-96130000D02*
X127940000Y-96130000D01*
X126610000Y-97460000D02*
X126610000Y-96130000D01*
X129210000Y-96130000D02*
X147050000Y-96130000D01*
X129210000Y-98790000D02*
X129210000Y-96130000D01*
X129210000Y-98790000D02*
X147050000Y-98790000D01*
X147050000Y-98790000D02*
X147050000Y-96130000D01*
X149470000Y-96130000D02*
X150800000Y-96130000D01*
X149470000Y-97460000D02*
X149470000Y-96130000D01*
X152070000Y-96130000D02*
X164830000Y-96130000D01*
X152070000Y-98790000D02*
X152070000Y-96130000D01*
X152070000Y-98790000D02*
X164830000Y-98790000D01*
X164830000Y-98790000D02*
X164830000Y-96130000D01*
X117466000Y-47870000D02*
X118796000Y-47870000D01*
X117466000Y-49200000D02*
X117466000Y-47870000D01*
X120066000Y-47870000D02*
X142986000Y-47870000D01*
X120066000Y-50530000D02*
X120066000Y-47870000D01*
X120066000Y-50530000D02*
X142986000Y-50530000D01*
X142986000Y-50530000D02*
X142986000Y-47870000D01*
X144390000Y-47870000D02*
X145720000Y-47870000D01*
X144390000Y-49200000D02*
X144390000Y-47870000D01*
X146990000Y-47870000D02*
X164830000Y-47870000D01*
X146990000Y-50530000D02*
X146990000Y-47870000D01*
X146990000Y-50530000D02*
X164830000Y-50530000D01*
X164830000Y-50530000D02*
X164830000Y-47870000D01*
X114285000Y-56725000D02*
X114285000Y-54775000D01*
X114285000Y-56725000D02*
X114285000Y-58675000D01*
X119405000Y-56725000D02*
X119405000Y-54775000D01*
X119405000Y-56725000D02*
X119405000Y-58675000D01*
X114380000Y-59425000D02*
X114050000Y-59665000D01*
X114050000Y-59185000D01*
X114380000Y-59425000D01*
G36*
X114380000Y-59425000D02*
G01*
X114050000Y-59665000D01*
X114050000Y-59185000D01*
X114380000Y-59425000D01*
G37*
X121890000Y-55640000D02*
X125740000Y-55640000D01*
X121890000Y-65295563D02*
X121890000Y-55640000D01*
X122954437Y-66360000D02*
X121890000Y-65295563D01*
X122954437Y-66360000D02*
X125740000Y-66360000D01*
X123865000Y-67225000D02*
X125115000Y-67225000D01*
X124490000Y-67850000D02*
X124490000Y-66600000D01*
X131545563Y-66360000D02*
X128760000Y-66360000D01*
X131545563Y-66360000D02*
X132610000Y-65295563D01*
X132610000Y-55640000D02*
X128760000Y-55640000D01*
X132610000Y-65295563D02*
X132610000Y-55640000D01*
X111500000Y-55600000D02*
X113500000Y-55600000D01*
X111500000Y-58400000D02*
X111500000Y-55600000D01*
X113500000Y-55600000D02*
X113500000Y-58400000D01*
X113500000Y-58400000D02*
X111500000Y-58400000D01*
X122340000Y-94038748D02*
X122340000Y-95461252D01*
X124160000Y-94038748D02*
X124160000Y-95461252D01*
X128370000Y-84730000D02*
X128640000Y-84730000D01*
X128370000Y-91150000D02*
X128370000Y-84730000D01*
X135270000Y-84730000D02*
X135000000Y-84730000D01*
X135270000Y-91150000D02*
X135270000Y-84730000D01*
X135290000Y-83550000D02*
X134960000Y-83310000D01*
X135290000Y-83070000D01*
X135290000Y-83550000D01*
G36*
X135290000Y-83550000D02*
G01*
X134960000Y-83310000D01*
X135290000Y-83070000D01*
X135290000Y-83550000D01*
G37*
X124450000Y-88760000D02*
X124450000Y-83250000D01*
X124450000Y-88760000D02*
X127750000Y-88760000D01*
X127750000Y-88760000D02*
X127750000Y-83250000D01*
X137456359Y-85620000D02*
X137763641Y-85620000D01*
X137456359Y-86380000D02*
X137763641Y-86380000D01*
X144990000Y-61390580D02*
X144990000Y-61109420D01*
X146010000Y-61390580D02*
X146010000Y-61109420D01*
X144090000Y-66186252D02*
X144090000Y-64763748D01*
X145910000Y-66186252D02*
X145910000Y-64763748D01*
X143977064Y-85840000D02*
X142522936Y-85840000D01*
X143977064Y-87660000D02*
X142522936Y-87660000D01*
X116038748Y-77340000D02*
X117461252Y-77340000D01*
X116038748Y-79160000D02*
X117461252Y-79160000D01*
X143010000Y-80850000D02*
X137200000Y-80850000D01*
X143010000Y-85150000D02*
X137200000Y-85150000D01*
X143010000Y-85150000D02*
X143010000Y-80850000D01*
X133240000Y-66859420D02*
X133240000Y-67140580D01*
X134260000Y-66859420D02*
X134260000Y-67140580D01*
X146880000Y-53079000D02*
X161120000Y-53079000D01*
X146880000Y-65620000D02*
X146880000Y-53079000D01*
X146880000Y-65620000D02*
X161120000Y-65620000D01*
X147000000Y-54000000D02*
X161000000Y-54000000D01*
X147000000Y-59000000D02*
X147000000Y-54000000D01*
X147000000Y-59000000D02*
X161000000Y-59000000D01*
X147000000Y-59000000D02*
X161000000Y-59000000D01*
X147000000Y-64000000D02*
X147000000Y-59000000D01*
X147000000Y-64000000D02*
X161000000Y-64000000D01*
X147350000Y-56000000D02*
X149849000Y-56000000D01*
X147350000Y-57000000D02*
X147350000Y-56000000D01*
X147350000Y-57000000D02*
X149849000Y-57000000D01*
X147350000Y-61000000D02*
X149849000Y-61000000D01*
X147350000Y-62000000D02*
X147350000Y-61000000D01*
X147350000Y-62000000D02*
X149849000Y-62000000D01*
X149849000Y-57000000D02*
X149849000Y-56000000D01*
X149849000Y-62000000D02*
X149849000Y-61000000D01*
X151500000Y-55770000D02*
X151500000Y-53079000D01*
X151500000Y-60770000D02*
X151500000Y-58230000D01*
X151500000Y-65620000D02*
X151500000Y-63230000D01*
X154300000Y-65620000D02*
X154300000Y-53079000D01*
X154700000Y-54500000D02*
X155700000Y-54500000D01*
X154700000Y-58500000D02*
X154700000Y-54500000D01*
X154700000Y-58500000D02*
X155700000Y-58500000D01*
X154700000Y-59500000D02*
X155700000Y-59500000D01*
X154700000Y-63500000D02*
X154700000Y-59500000D01*
X154700000Y-63500000D02*
X155700000Y-63500000D01*
X155700000Y-55770000D02*
X155700000Y-54500000D01*
X155700000Y-58500000D02*
X155700000Y-58230000D01*
X155700000Y-60770000D02*
X155700000Y-59500000D01*
X155700000Y-63500000D02*
X155700000Y-63230000D01*
X156400000Y-54500000D02*
X159700000Y-54500000D01*
X156400000Y-55770000D02*
X156400000Y-54500000D01*
X156400000Y-58500000D02*
X156400000Y-58230000D01*
X156400000Y-58500000D02*
X159700000Y-58500000D01*
X156400000Y-59500000D02*
X159700000Y-59500000D01*
X156400000Y-60770000D02*
X156400000Y-59500000D01*
X156400000Y-63500000D02*
X156400000Y-63230000D01*
X156400000Y-63500000D02*
X159700000Y-63500000D01*
X159700000Y-58500000D02*
X159700000Y-54500000D01*
X159700000Y-63500000D02*
X159700000Y-59500000D01*
X160000000Y-65620000D02*
X160000000Y-53079000D01*
X160120000Y-65860000D02*
X161360000Y-65860000D01*
X161000000Y-59000000D02*
X161000000Y-54000000D01*
X161000000Y-64000000D02*
X161000000Y-59000000D01*
X161120000Y-65620000D02*
X161120000Y-53079000D01*
X161360000Y-65860000D02*
X161360000Y-64860000D01*
X133240000Y-78865580D02*
X133240000Y-78584420D01*
X134260000Y-78865580D02*
X134260000Y-78584420D01*
D12*
X135800000Y-69250000D02*
X135800000Y-71850000D01*
X135800000Y-69250000D02*
X142200000Y-69250000D01*
X135800000Y-76750000D02*
X135800000Y-74150000D01*
X142200000Y-69250000D02*
X142200000Y-71850000D01*
X142200000Y-76750000D02*
X135800000Y-76750000D01*
X142200000Y-76750000D02*
X142200000Y-74150000D01*
D13*
X136600000Y-79200000D02*
G75*
G02*
X136400000Y-79200000I-100000J0D01*
G01*
X136400000Y-79200000D02*
G75*
G02*
X136600000Y-79200000I100000J0D01*
G01*
D11*
X144990000Y-70415580D02*
X144990000Y-70134420D01*
X146010000Y-70415580D02*
X146010000Y-70134420D01*
X113163641Y-53870000D02*
X112856359Y-53870000D01*
X113163641Y-54630000D02*
X112856359Y-54630000D01*
X144240000Y-83609420D02*
X144240000Y-83890580D01*
X145260000Y-83609420D02*
X145260000Y-83890580D01*
X121890000Y-69390000D02*
X125740000Y-69390000D01*
X121890000Y-79045563D02*
X121890000Y-69390000D01*
X122954437Y-80110000D02*
X121890000Y-79045563D01*
X122954437Y-80110000D02*
X125740000Y-80110000D01*
X123865000Y-80975000D02*
X125115000Y-80975000D01*
X124490000Y-81600000D02*
X124490000Y-80350000D01*
X131545563Y-80110000D02*
X128760000Y-80110000D01*
X131545563Y-80110000D02*
X132610000Y-79045563D01*
X132610000Y-69390000D02*
X128760000Y-69390000D01*
X132610000Y-79045563D02*
X132610000Y-69390000D01*
X146260000Y-91600000D02*
X140750000Y-91600000D01*
X146260000Y-94900000D02*
X140750000Y-94900000D01*
X146260000Y-94900000D02*
X146260000Y-91600000D01*
D12*
X135800000Y-55250000D02*
X135800000Y-57850000D01*
X135800000Y-55250000D02*
X142200000Y-55250000D01*
X135800000Y-62750000D02*
X135800000Y-60150000D01*
X142200000Y-55250000D02*
X142200000Y-57850000D01*
X142200000Y-62750000D02*
X135800000Y-62750000D01*
X142200000Y-62750000D02*
X142200000Y-60150000D01*
D13*
X136600000Y-65200000D02*
G75*
G02*
X136400000Y-65200000I-100000J0D01*
G01*
X136400000Y-65200000D02*
G75*
G02*
X136600000Y-65200000I100000J0D01*
G01*
D11*
X146880000Y-81079000D02*
X161120000Y-81079000D01*
X146880000Y-93620000D02*
X146880000Y-81079000D01*
X146880000Y-93620000D02*
X161120000Y-93620000D01*
X147000000Y-82000000D02*
X161000000Y-82000000D01*
X147000000Y-87000000D02*
X147000000Y-82000000D01*
X147000000Y-87000000D02*
X161000000Y-87000000D01*
X147000000Y-87000000D02*
X161000000Y-87000000D01*
X147000000Y-92000000D02*
X147000000Y-87000000D01*
X147000000Y-92000000D02*
X161000000Y-92000000D01*
X147350000Y-84000000D02*
X149849000Y-84000000D01*
X147350000Y-85000000D02*
X147350000Y-84000000D01*
X147350000Y-85000000D02*
X149849000Y-85000000D01*
X147350000Y-89000000D02*
X149849000Y-89000000D01*
X147350000Y-90000000D02*
X147350000Y-89000000D01*
X147350000Y-90000000D02*
X149849000Y-90000000D01*
X149849000Y-85000000D02*
X149849000Y-84000000D01*
X149849000Y-90000000D02*
X149849000Y-89000000D01*
X151500000Y-83770000D02*
X151500000Y-81079000D01*
X151500000Y-88770000D02*
X151500000Y-86230000D01*
X151500000Y-93620000D02*
X151500000Y-91230000D01*
X154300000Y-93620000D02*
X154300000Y-81079000D01*
X154700000Y-82500000D02*
X155700000Y-82500000D01*
X154700000Y-86500000D02*
X154700000Y-82500000D01*
X154700000Y-86500000D02*
X155700000Y-86500000D01*
X154700000Y-87500000D02*
X155700000Y-87500000D01*
X154700000Y-91500000D02*
X154700000Y-87500000D01*
X154700000Y-91500000D02*
X155700000Y-91500000D01*
X155700000Y-83770000D02*
X155700000Y-82500000D01*
X155700000Y-86500000D02*
X155700000Y-86230000D01*
X155700000Y-88770000D02*
X155700000Y-87500000D01*
X155700000Y-91500000D02*
X155700000Y-91230000D01*
X156400000Y-82500000D02*
X159700000Y-82500000D01*
X156400000Y-83770000D02*
X156400000Y-82500000D01*
X156400000Y-86500000D02*
X156400000Y-86230000D01*
X156400000Y-86500000D02*
X159700000Y-86500000D01*
X156400000Y-87500000D02*
X159700000Y-87500000D01*
X156400000Y-88770000D02*
X156400000Y-87500000D01*
X156400000Y-91500000D02*
X156400000Y-91230000D01*
X156400000Y-91500000D02*
X159700000Y-91500000D01*
X159700000Y-86500000D02*
X159700000Y-82500000D01*
X159700000Y-91500000D02*
X159700000Y-87500000D01*
X160000000Y-93620000D02*
X160000000Y-81079000D01*
X160120000Y-93860000D02*
X161360000Y-93860000D01*
X161000000Y-87000000D02*
X161000000Y-82000000D01*
X161000000Y-92000000D02*
X161000000Y-87000000D01*
X161120000Y-93620000D02*
X161120000Y-81079000D01*
X161360000Y-93860000D02*
X161360000Y-92860000D01*
X146880000Y-67079000D02*
X161120000Y-67079000D01*
X146880000Y-79620000D02*
X146880000Y-67079000D01*
X146880000Y-79620000D02*
X161120000Y-79620000D01*
X147000000Y-68000000D02*
X161000000Y-68000000D01*
X147000000Y-73000000D02*
X147000000Y-68000000D01*
X147000000Y-73000000D02*
X161000000Y-73000000D01*
X147000000Y-73000000D02*
X161000000Y-73000000D01*
X147000000Y-78000000D02*
X147000000Y-73000000D01*
X147000000Y-78000000D02*
X161000000Y-78000000D01*
X147350000Y-70000000D02*
X149849000Y-70000000D01*
X147350000Y-71000000D02*
X147350000Y-70000000D01*
X147350000Y-71000000D02*
X149849000Y-71000000D01*
X147350000Y-75000000D02*
X149849000Y-75000000D01*
X147350000Y-76000000D02*
X147350000Y-75000000D01*
X147350000Y-76000000D02*
X149849000Y-76000000D01*
X149849000Y-71000000D02*
X149849000Y-70000000D01*
X149849000Y-76000000D02*
X149849000Y-75000000D01*
X151500000Y-69770000D02*
X151500000Y-67079000D01*
X151500000Y-74770000D02*
X151500000Y-72230000D01*
X151500000Y-79620000D02*
X151500000Y-77230000D01*
X154300000Y-79620000D02*
X154300000Y-67079000D01*
X154700000Y-68500000D02*
X155700000Y-68500000D01*
X154700000Y-72500000D02*
X154700000Y-68500000D01*
X154700000Y-72500000D02*
X155700000Y-72500000D01*
X154700000Y-73500000D02*
X155700000Y-73500000D01*
X154700000Y-77500000D02*
X154700000Y-73500000D01*
X154700000Y-77500000D02*
X155700000Y-77500000D01*
X155700000Y-69770000D02*
X155700000Y-68500000D01*
X155700000Y-72500000D02*
X155700000Y-72230000D01*
X155700000Y-74770000D02*
X155700000Y-73500000D01*
X155700000Y-77500000D02*
X155700000Y-77230000D01*
X156400000Y-68500000D02*
X159700000Y-68500000D01*
X156400000Y-69770000D02*
X156400000Y-68500000D01*
X156400000Y-72500000D02*
X156400000Y-72230000D01*
X156400000Y-72500000D02*
X159700000Y-72500000D01*
X156400000Y-73500000D02*
X159700000Y-73500000D01*
X156400000Y-74770000D02*
X156400000Y-73500000D01*
X156400000Y-77500000D02*
X156400000Y-77230000D01*
X156400000Y-77500000D02*
X159700000Y-77500000D01*
X159700000Y-72500000D02*
X159700000Y-68500000D01*
X159700000Y-77500000D02*
X159700000Y-73500000D01*
X160000000Y-79620000D02*
X160000000Y-67079000D01*
X160120000Y-79860000D02*
X161360000Y-79860000D01*
X161000000Y-73000000D02*
X161000000Y-68000000D01*
X161000000Y-78000000D02*
X161000000Y-73000000D01*
X161120000Y-79620000D02*
X161120000Y-67079000D01*
X161360000Y-79860000D02*
X161360000Y-78860000D01*
X118840000Y-94063748D02*
X118840000Y-95486252D01*
X120660000Y-94063748D02*
X120660000Y-95486252D01*
X112992500Y-79942000D02*
X112992500Y-81182000D01*
X113232500Y-80182000D02*
X113232500Y-91903000D01*
X114232500Y-79942000D02*
X112992500Y-79942000D01*
X121852500Y-80182000D02*
X113232500Y-80182000D01*
X121852500Y-80182000D02*
X121852500Y-91903000D01*
X121852500Y-91903000D02*
X113232500Y-91903000D01*
X143840000Y-80211252D02*
X143840000Y-78788748D01*
X145660000Y-80211252D02*
X145660000Y-78788748D01*
X144990000Y-75365580D02*
X144990000Y-75084420D01*
X146010000Y-75365580D02*
X146010000Y-75084420D01*
X144990000Y-56390580D02*
X144990000Y-56109420D01*
X146010000Y-56390580D02*
X146010000Y-56109420D01*
M02*
