M48
INCH,TZ
T1C0.0157
T2C0.0394
T3C0.0453
%
G90
G05
T1
X45472Y-21949
X49213Y-27165
X49213Y-27559
X49213Y-27953
X49213Y-28346
X50787Y-22047
X50787Y-22441
X50787Y-22835
X50787Y-23228
X50807Y-24724
X53150Y-21654
X53150Y-22047
X53150Y-22441
X53150Y-27165
X53150Y-27559
X53150Y-27953
X53445Y-25187
X53445Y-26772
X53543Y-22047
X53543Y-27559
X53740Y-30118
X54035Y-27264
X54134Y-30118
X54522Y-20774
X54528Y-27264
X54528Y-30118
X54921Y-20768
X54921Y-27264
X54921Y-27579
X55315Y-21752
T2
X45391Y-32895
X45391Y-33895
X45391Y-34895
X46770Y-19370
X47770Y-19370
X48770Y-19370
X49770Y-19370
X50370Y-38370
X50770Y-19370
X51370Y-38370
X51770Y-19370
X52370Y-38370
X52770Y-19370
X53370Y-38370
X53770Y-19370
X54370Y-38370
X54770Y-19370
X55370Y-38370
X55770Y-19370
X56370Y-38370
X57370Y-19370
X57370Y-38370
X58370Y-19370
X59370Y-19370
X59370Y-38370
X60370Y-19370
X60370Y-38370
X61370Y-19370
X61370Y-38370
X62370Y-19370
X62370Y-38370
X63370Y-19370
X63370Y-38370
X64370Y-19370
X64370Y-38370
T3
X59843Y-22441
X59843Y-24409
X59843Y-27953
X59843Y-29921
X59843Y-33465
X59843Y-35433
X61811Y-22441
X61811Y-24409
X61811Y-27953
X61811Y-29921
X61811Y-33465
X61811Y-35433
M30
