G04 #@! TF.GenerationSoftware,KiCad,Pcbnew,8.0.3+1*
G04 #@! TF.CreationDate,2024-07-01T12:38:46+00:00*
G04 #@! TF.ProjectId,dc_shield,64635f73-6869-4656-9c64-2e6b69636164,rev?*
G04 #@! TF.SameCoordinates,Original*
G04 #@! TF.FileFunction,Legend,Top*
G04 #@! TF.FilePolarity,Positive*
%FSLAX46Y46*%
G04 Gerber Fmt 4.6, Leading zero omitted, Abs format (unit mm)*
G04 Created by KiCad (PCBNEW 8.0.3+1) date 2024-07-01 12:38:46*
%MOMM*%
%LPD*%
G01*
G04 APERTURE LIST*
%ADD10C,0.150000*%
%ADD11C,0.120000*%
%ADD12C,0.127000*%
%ADD13C,0.200000*%
G04 APERTURE END LIST*
D10*
X19704819Y41535715D02*
X20514342Y41535715D01*
X20514342Y41535715D02*
X20609580Y41583334D01*
X20609580Y41583334D02*
X20657200Y41630953D01*
X20657200Y41630953D02*
X20704819Y41726191D01*
X20704819Y41726191D02*
X20704819Y41916667D01*
X20704819Y41916667D02*
X20657200Y42011905D01*
X20657200Y42011905D02*
X20609580Y42059524D01*
X20609580Y42059524D02*
X20514342Y42107143D01*
X20514342Y42107143D02*
X19704819Y42107143D01*
X20704819Y43107143D02*
X20704819Y42535715D01*
X20704819Y42821429D02*
X19704819Y42821429D01*
X19704819Y42821429D02*
X19847676Y42726191D01*
X19847676Y42726191D02*
X19942914Y42630953D01*
X19942914Y42630953D02*
X19990533Y42535715D01*
X19704819Y43726191D02*
X19704819Y43821429D01*
X19704819Y43821429D02*
X19752438Y43916667D01*
X19752438Y43916667D02*
X19800057Y43964286D01*
X19800057Y43964286D02*
X19895295Y44011905D01*
X19895295Y44011905D02*
X20085771Y44059524D01*
X20085771Y44059524D02*
X20323866Y44059524D01*
X20323866Y44059524D02*
X20514342Y44011905D01*
X20514342Y44011905D02*
X20609580Y43964286D01*
X20609580Y43964286D02*
X20657200Y43916667D01*
X20657200Y43916667D02*
X20704819Y43821429D01*
X20704819Y43821429D02*
X20704819Y43726191D01*
X20704819Y43726191D02*
X20657200Y43630953D01*
X20657200Y43630953D02*
X20609580Y43583334D01*
X20609580Y43583334D02*
X20514342Y43535715D01*
X20514342Y43535715D02*
X20323866Y43488096D01*
X20323866Y43488096D02*
X20085771Y43488096D01*
X20085771Y43488096D02*
X19895295Y43535715D01*
X19895295Y43535715D02*
X19800057Y43583334D01*
X19800057Y43583334D02*
X19752438Y43630953D01*
X19752438Y43630953D02*
X19704819Y43726191D01*
X19800057Y44440477D02*
X19752438Y44488096D01*
X19752438Y44488096D02*
X19704819Y44583334D01*
X19704819Y44583334D02*
X19704819Y44821429D01*
X19704819Y44821429D02*
X19752438Y44916667D01*
X19752438Y44916667D02*
X19800057Y44964286D01*
X19800057Y44964286D02*
X19895295Y45011905D01*
X19895295Y45011905D02*
X19990533Y45011905D01*
X19990533Y45011905D02*
X20133390Y44964286D01*
X20133390Y44964286D02*
X20704819Y44392858D01*
X20704819Y44392858D02*
X20704819Y45011905D01*
X21309580Y37880953D02*
X21357200Y37833334D01*
X21357200Y37833334D02*
X21404819Y37690477D01*
X21404819Y37690477D02*
X21404819Y37595239D01*
X21404819Y37595239D02*
X21357200Y37452382D01*
X21357200Y37452382D02*
X21261961Y37357144D01*
X21261961Y37357144D02*
X21166723Y37309525D01*
X21166723Y37309525D02*
X20976247Y37261906D01*
X20976247Y37261906D02*
X20833390Y37261906D01*
X20833390Y37261906D02*
X20642914Y37309525D01*
X20642914Y37309525D02*
X20547676Y37357144D01*
X20547676Y37357144D02*
X20452438Y37452382D01*
X20452438Y37452382D02*
X20404819Y37595239D01*
X20404819Y37595239D02*
X20404819Y37690477D01*
X20404819Y37690477D02*
X20452438Y37833334D01*
X20452438Y37833334D02*
X20500057Y37880953D01*
X21404819Y38833334D02*
X21404819Y38261906D01*
X21404819Y38547620D02*
X20404819Y38547620D01*
X20404819Y38547620D02*
X20547676Y38452382D01*
X20547676Y38452382D02*
X20642914Y38357144D01*
X20642914Y38357144D02*
X20690533Y38261906D01*
X20404819Y39452382D02*
X20404819Y39547620D01*
X20404819Y39547620D02*
X20452438Y39642858D01*
X20452438Y39642858D02*
X20500057Y39690477D01*
X20500057Y39690477D02*
X20595295Y39738096D01*
X20595295Y39738096D02*
X20785771Y39785715D01*
X20785771Y39785715D02*
X21023866Y39785715D01*
X21023866Y39785715D02*
X21214342Y39738096D01*
X21214342Y39738096D02*
X21309580Y39690477D01*
X21309580Y39690477D02*
X21357200Y39642858D01*
X21357200Y39642858D02*
X21404819Y39547620D01*
X21404819Y39547620D02*
X21404819Y39452382D01*
X21404819Y39452382D02*
X21357200Y39357144D01*
X21357200Y39357144D02*
X21309580Y39309525D01*
X21309580Y39309525D02*
X21214342Y39261906D01*
X21214342Y39261906D02*
X21023866Y39214287D01*
X21023866Y39214287D02*
X20785771Y39214287D01*
X20785771Y39214287D02*
X20595295Y39261906D01*
X20595295Y39261906D02*
X20500057Y39309525D01*
X20500057Y39309525D02*
X20452438Y39357144D01*
X20452438Y39357144D02*
X20404819Y39452382D01*
X20404819Y40119049D02*
X20404819Y40785715D01*
X20404819Y40785715D02*
X21404819Y40357144D01*
X10154819Y41214286D02*
X10869104Y41214286D01*
X10869104Y41214286D02*
X11011961Y41166667D01*
X11011961Y41166667D02*
X11107200Y41071429D01*
X11107200Y41071429D02*
X11154819Y40928572D01*
X11154819Y40928572D02*
X11154819Y40833334D01*
X11154819Y41690477D02*
X10154819Y41690477D01*
X10154819Y41690477D02*
X10154819Y42071429D01*
X10154819Y42071429D02*
X10202438Y42166667D01*
X10202438Y42166667D02*
X10250057Y42214286D01*
X10250057Y42214286D02*
X10345295Y42261905D01*
X10345295Y42261905D02*
X10488152Y42261905D01*
X10488152Y42261905D02*
X10583390Y42214286D01*
X10583390Y42214286D02*
X10631009Y42166667D01*
X10631009Y42166667D02*
X10678628Y42071429D01*
X10678628Y42071429D02*
X10678628Y41690477D01*
X11154819Y43214286D02*
X11154819Y42642858D01*
X11154819Y42928572D02*
X10154819Y42928572D01*
X10154819Y42928572D02*
X10297676Y42833334D01*
X10297676Y42833334D02*
X10392914Y42738096D01*
X10392914Y42738096D02*
X10440533Y42642858D01*
X10154819Y43833334D02*
X10154819Y43928572D01*
X10154819Y43928572D02*
X10202438Y44023810D01*
X10202438Y44023810D02*
X10250057Y44071429D01*
X10250057Y44071429D02*
X10345295Y44119048D01*
X10345295Y44119048D02*
X10535771Y44166667D01*
X10535771Y44166667D02*
X10773866Y44166667D01*
X10773866Y44166667D02*
X10964342Y44119048D01*
X10964342Y44119048D02*
X11059580Y44071429D01*
X11059580Y44071429D02*
X11107200Y44023810D01*
X11107200Y44023810D02*
X11154819Y43928572D01*
X11154819Y43928572D02*
X11154819Y43833334D01*
X11154819Y43833334D02*
X11107200Y43738096D01*
X11107200Y43738096D02*
X11059580Y43690477D01*
X11059580Y43690477D02*
X10964342Y43642858D01*
X10964342Y43642858D02*
X10773866Y43595239D01*
X10773866Y43595239D02*
X10535771Y43595239D01*
X10535771Y43595239D02*
X10345295Y43642858D01*
X10345295Y43642858D02*
X10250057Y43690477D01*
X10250057Y43690477D02*
X10202438Y43738096D01*
X10202438Y43738096D02*
X10154819Y43833334D01*
X11154819Y45119048D02*
X11154819Y44547620D01*
X11154819Y44833334D02*
X10154819Y44833334D01*
X10154819Y44833334D02*
X10297676Y44738096D01*
X10297676Y44738096D02*
X10392914Y44642858D01*
X10392914Y44642858D02*
X10440533Y44547620D01*
X25459580Y4130953D02*
X25507200Y4083334D01*
X25507200Y4083334D02*
X25554819Y3940477D01*
X25554819Y3940477D02*
X25554819Y3845239D01*
X25554819Y3845239D02*
X25507200Y3702382D01*
X25507200Y3702382D02*
X25411961Y3607144D01*
X25411961Y3607144D02*
X25316723Y3559525D01*
X25316723Y3559525D02*
X25126247Y3511906D01*
X25126247Y3511906D02*
X24983390Y3511906D01*
X24983390Y3511906D02*
X24792914Y3559525D01*
X24792914Y3559525D02*
X24697676Y3607144D01*
X24697676Y3607144D02*
X24602438Y3702382D01*
X24602438Y3702382D02*
X24554819Y3845239D01*
X24554819Y3845239D02*
X24554819Y3940477D01*
X24554819Y3940477D02*
X24602438Y4083334D01*
X24602438Y4083334D02*
X24650057Y4130953D01*
X25554819Y5083334D02*
X25554819Y4511906D01*
X25554819Y4797620D02*
X24554819Y4797620D01*
X24554819Y4797620D02*
X24697676Y4702382D01*
X24697676Y4702382D02*
X24792914Y4607144D01*
X24792914Y4607144D02*
X24840533Y4511906D01*
X25554819Y6035715D02*
X25554819Y5464287D01*
X25554819Y5750001D02*
X24554819Y5750001D01*
X24554819Y5750001D02*
X24697676Y5654763D01*
X24697676Y5654763D02*
X24792914Y5559525D01*
X24792914Y5559525D02*
X24840533Y5464287D01*
X24554819Y6369049D02*
X24554819Y6988096D01*
X24554819Y6988096D02*
X24935771Y6654763D01*
X24935771Y6654763D02*
X24935771Y6797620D01*
X24935771Y6797620D02*
X24983390Y6892858D01*
X24983390Y6892858D02*
X25031009Y6940477D01*
X25031009Y6940477D02*
X25126247Y6988096D01*
X25126247Y6988096D02*
X25364342Y6988096D01*
X25364342Y6988096D02*
X25459580Y6940477D01*
X25459580Y6940477D02*
X25507200Y6892858D01*
X25507200Y6892858D02*
X25554819Y6797620D01*
X25554819Y6797620D02*
X25554819Y6511906D01*
X25554819Y6511906D02*
X25507200Y6416668D01*
X25507200Y6416668D02*
X25459580Y6369049D01*
X36650057Y10452381D02*
X36602438Y10357143D01*
X36602438Y10357143D02*
X36507200Y10261905D01*
X36507200Y10261905D02*
X36364342Y10119048D01*
X36364342Y10119048D02*
X36316723Y10023810D01*
X36316723Y10023810D02*
X36316723Y9928572D01*
X36554819Y9976191D02*
X36507200Y9880953D01*
X36507200Y9880953D02*
X36411961Y9785715D01*
X36411961Y9785715D02*
X36221485Y9738096D01*
X36221485Y9738096D02*
X35888152Y9738096D01*
X35888152Y9738096D02*
X35697676Y9785715D01*
X35697676Y9785715D02*
X35602438Y9880953D01*
X35602438Y9880953D02*
X35554819Y9976191D01*
X35554819Y9976191D02*
X35554819Y10166667D01*
X35554819Y10166667D02*
X35602438Y10261905D01*
X35602438Y10261905D02*
X35697676Y10357143D01*
X35697676Y10357143D02*
X35888152Y10404762D01*
X35888152Y10404762D02*
X36221485Y10404762D01*
X36221485Y10404762D02*
X36411961Y10357143D01*
X36411961Y10357143D02*
X36507200Y10261905D01*
X36507200Y10261905D02*
X36554819Y10166667D01*
X36554819Y10166667D02*
X36554819Y9976191D01*
X36554819Y11357143D02*
X36554819Y10785715D01*
X36554819Y11071429D02*
X35554819Y11071429D01*
X35554819Y11071429D02*
X35697676Y10976191D01*
X35697676Y10976191D02*
X35792914Y10880953D01*
X35792914Y10880953D02*
X35840533Y10785715D01*
X35554819Y11976191D02*
X35554819Y12071429D01*
X35554819Y12071429D02*
X35602438Y12166667D01*
X35602438Y12166667D02*
X35650057Y12214286D01*
X35650057Y12214286D02*
X35745295Y12261905D01*
X35745295Y12261905D02*
X35935771Y12309524D01*
X35935771Y12309524D02*
X36173866Y12309524D01*
X36173866Y12309524D02*
X36364342Y12261905D01*
X36364342Y12261905D02*
X36459580Y12214286D01*
X36459580Y12214286D02*
X36507200Y12166667D01*
X36507200Y12166667D02*
X36554819Y12071429D01*
X36554819Y12071429D02*
X36554819Y11976191D01*
X36554819Y11976191D02*
X36507200Y11880953D01*
X36507200Y11880953D02*
X36459580Y11833334D01*
X36459580Y11833334D02*
X36364342Y11785715D01*
X36364342Y11785715D02*
X36173866Y11738096D01*
X36173866Y11738096D02*
X35935771Y11738096D01*
X35935771Y11738096D02*
X35745295Y11785715D01*
X35745295Y11785715D02*
X35650057Y11833334D01*
X35650057Y11833334D02*
X35602438Y11880953D01*
X35602438Y11880953D02*
X35554819Y11976191D01*
X36554819Y13261905D02*
X36554819Y12690477D01*
X36554819Y12976191D02*
X35554819Y12976191D01*
X35554819Y12976191D02*
X35697676Y12880953D01*
X35697676Y12880953D02*
X35792914Y12785715D01*
X35792914Y12785715D02*
X35840533Y12690477D01*
X24054819Y13059525D02*
X23054819Y13059525D01*
X23054819Y13059525D02*
X23054819Y13297620D01*
X23054819Y13297620D02*
X23102438Y13440477D01*
X23102438Y13440477D02*
X23197676Y13535715D01*
X23197676Y13535715D02*
X23292914Y13583334D01*
X23292914Y13583334D02*
X23483390Y13630953D01*
X23483390Y13630953D02*
X23626247Y13630953D01*
X23626247Y13630953D02*
X23816723Y13583334D01*
X23816723Y13583334D02*
X23911961Y13535715D01*
X23911961Y13535715D02*
X24007200Y13440477D01*
X24007200Y13440477D02*
X24054819Y13297620D01*
X24054819Y13297620D02*
X24054819Y13059525D01*
X24054819Y14583334D02*
X24054819Y14011906D01*
X24054819Y14297620D02*
X23054819Y14297620D01*
X23054819Y14297620D02*
X23197676Y14202382D01*
X23197676Y14202382D02*
X23292914Y14107144D01*
X23292914Y14107144D02*
X23340533Y14011906D01*
X23054819Y15202382D02*
X23054819Y15297620D01*
X23054819Y15297620D02*
X23102438Y15392858D01*
X23102438Y15392858D02*
X23150057Y15440477D01*
X23150057Y15440477D02*
X23245295Y15488096D01*
X23245295Y15488096D02*
X23435771Y15535715D01*
X23435771Y15535715D02*
X23673866Y15535715D01*
X23673866Y15535715D02*
X23864342Y15488096D01*
X23864342Y15488096D02*
X23959580Y15440477D01*
X23959580Y15440477D02*
X24007200Y15392858D01*
X24007200Y15392858D02*
X24054819Y15297620D01*
X24054819Y15297620D02*
X24054819Y15202382D01*
X24054819Y15202382D02*
X24007200Y15107144D01*
X24007200Y15107144D02*
X23959580Y15059525D01*
X23959580Y15059525D02*
X23864342Y15011906D01*
X23864342Y15011906D02*
X23673866Y14964287D01*
X23673866Y14964287D02*
X23435771Y14964287D01*
X23435771Y14964287D02*
X23245295Y15011906D01*
X23245295Y15011906D02*
X23150057Y15059525D01*
X23150057Y15059525D02*
X23102438Y15107144D01*
X23102438Y15107144D02*
X23054819Y15202382D01*
X24054819Y16488096D02*
X24054819Y15916668D01*
X24054819Y16202382D02*
X23054819Y16202382D01*
X23054819Y16202382D02*
X23197676Y16107144D01*
X23197676Y16107144D02*
X23292914Y16011906D01*
X23292914Y16011906D02*
X23340533Y15916668D01*
X37380952Y12295181D02*
X37047619Y12771372D01*
X36809524Y12295181D02*
X36809524Y13295181D01*
X36809524Y13295181D02*
X37190476Y13295181D01*
X37190476Y13295181D02*
X37285714Y13247562D01*
X37285714Y13247562D02*
X37333333Y13199943D01*
X37333333Y13199943D02*
X37380952Y13104705D01*
X37380952Y13104705D02*
X37380952Y12961848D01*
X37380952Y12961848D02*
X37333333Y12866610D01*
X37333333Y12866610D02*
X37285714Y12818991D01*
X37285714Y12818991D02*
X37190476Y12771372D01*
X37190476Y12771372D02*
X36809524Y12771372D01*
X38333333Y12295181D02*
X37761905Y12295181D01*
X38047619Y12295181D02*
X38047619Y13295181D01*
X38047619Y13295181D02*
X37952381Y13152324D01*
X37952381Y13152324D02*
X37857143Y13057086D01*
X37857143Y13057086D02*
X37761905Y13009467D01*
X38952381Y13295181D02*
X39047619Y13295181D01*
X39047619Y13295181D02*
X39142857Y13247562D01*
X39142857Y13247562D02*
X39190476Y13199943D01*
X39190476Y13199943D02*
X39238095Y13104705D01*
X39238095Y13104705D02*
X39285714Y12914229D01*
X39285714Y12914229D02*
X39285714Y12676134D01*
X39285714Y12676134D02*
X39238095Y12485658D01*
X39238095Y12485658D02*
X39190476Y12390420D01*
X39190476Y12390420D02*
X39142857Y12342800D01*
X39142857Y12342800D02*
X39047619Y12295181D01*
X39047619Y12295181D02*
X38952381Y12295181D01*
X38952381Y12295181D02*
X38857143Y12342800D01*
X38857143Y12342800D02*
X38809524Y12390420D01*
X38809524Y12390420D02*
X38761905Y12485658D01*
X38761905Y12485658D02*
X38714286Y12676134D01*
X38714286Y12676134D02*
X38714286Y12914229D01*
X38714286Y12914229D02*
X38761905Y13104705D01*
X38761905Y13104705D02*
X38809524Y13199943D01*
X38809524Y13199943D02*
X38857143Y13247562D01*
X38857143Y13247562D02*
X38952381Y13295181D01*
X40238095Y12295181D02*
X39666667Y12295181D01*
X39952381Y12295181D02*
X39952381Y13295181D01*
X39952381Y13295181D02*
X39857143Y13152324D01*
X39857143Y13152324D02*
X39761905Y13057086D01*
X39761905Y13057086D02*
X39666667Y13009467D01*
X44429580Y37630953D02*
X44477200Y37583334D01*
X44477200Y37583334D02*
X44524819Y37440477D01*
X44524819Y37440477D02*
X44524819Y37345239D01*
X44524819Y37345239D02*
X44477200Y37202382D01*
X44477200Y37202382D02*
X44381961Y37107144D01*
X44381961Y37107144D02*
X44286723Y37059525D01*
X44286723Y37059525D02*
X44096247Y37011906D01*
X44096247Y37011906D02*
X43953390Y37011906D01*
X43953390Y37011906D02*
X43762914Y37059525D01*
X43762914Y37059525D02*
X43667676Y37107144D01*
X43667676Y37107144D02*
X43572438Y37202382D01*
X43572438Y37202382D02*
X43524819Y37345239D01*
X43524819Y37345239D02*
X43524819Y37440477D01*
X43524819Y37440477D02*
X43572438Y37583334D01*
X43572438Y37583334D02*
X43620057Y37630953D01*
X44524819Y38583334D02*
X44524819Y38011906D01*
X44524819Y38297620D02*
X43524819Y38297620D01*
X43524819Y38297620D02*
X43667676Y38202382D01*
X43667676Y38202382D02*
X43762914Y38107144D01*
X43762914Y38107144D02*
X43810533Y38011906D01*
X43524819Y39202382D02*
X43524819Y39297620D01*
X43524819Y39297620D02*
X43572438Y39392858D01*
X43572438Y39392858D02*
X43620057Y39440477D01*
X43620057Y39440477D02*
X43715295Y39488096D01*
X43715295Y39488096D02*
X43905771Y39535715D01*
X43905771Y39535715D02*
X44143866Y39535715D01*
X44143866Y39535715D02*
X44334342Y39488096D01*
X44334342Y39488096D02*
X44429580Y39440477D01*
X44429580Y39440477D02*
X44477200Y39392858D01*
X44477200Y39392858D02*
X44524819Y39297620D01*
X44524819Y39297620D02*
X44524819Y39202382D01*
X44524819Y39202382D02*
X44477200Y39107144D01*
X44477200Y39107144D02*
X44429580Y39059525D01*
X44429580Y39059525D02*
X44334342Y39011906D01*
X44334342Y39011906D02*
X44143866Y38964287D01*
X44143866Y38964287D02*
X43905771Y38964287D01*
X43905771Y38964287D02*
X43715295Y39011906D01*
X43715295Y39011906D02*
X43620057Y39059525D01*
X43620057Y39059525D02*
X43572438Y39107144D01*
X43572438Y39107144D02*
X43524819Y39202382D01*
X43524819Y40392858D02*
X43524819Y40202382D01*
X43524819Y40202382D02*
X43572438Y40107144D01*
X43572438Y40107144D02*
X43620057Y40059525D01*
X43620057Y40059525D02*
X43762914Y39964287D01*
X43762914Y39964287D02*
X43953390Y39916668D01*
X43953390Y39916668D02*
X44334342Y39916668D01*
X44334342Y39916668D02*
X44429580Y39964287D01*
X44429580Y39964287D02*
X44477200Y40011906D01*
X44477200Y40011906D02*
X44524819Y40107144D01*
X44524819Y40107144D02*
X44524819Y40297620D01*
X44524819Y40297620D02*
X44477200Y40392858D01*
X44477200Y40392858D02*
X44429580Y40440477D01*
X44429580Y40440477D02*
X44334342Y40488096D01*
X44334342Y40488096D02*
X44096247Y40488096D01*
X44096247Y40488096D02*
X44001009Y40440477D01*
X44001009Y40440477D02*
X43953390Y40392858D01*
X43953390Y40392858D02*
X43905771Y40297620D01*
X43905771Y40297620D02*
X43905771Y40107144D01*
X43905771Y40107144D02*
X43953390Y40011906D01*
X43953390Y40011906D02*
X44001009Y39964287D01*
X44001009Y39964287D02*
X44096247Y39916668D01*
X43509580Y33405953D02*
X43557200Y33358334D01*
X43557200Y33358334D02*
X43604819Y33215477D01*
X43604819Y33215477D02*
X43604819Y33120239D01*
X43604819Y33120239D02*
X43557200Y32977382D01*
X43557200Y32977382D02*
X43461961Y32882144D01*
X43461961Y32882144D02*
X43366723Y32834525D01*
X43366723Y32834525D02*
X43176247Y32786906D01*
X43176247Y32786906D02*
X43033390Y32786906D01*
X43033390Y32786906D02*
X42842914Y32834525D01*
X42842914Y32834525D02*
X42747676Y32882144D01*
X42747676Y32882144D02*
X42652438Y32977382D01*
X42652438Y32977382D02*
X42604819Y33120239D01*
X42604819Y33120239D02*
X42604819Y33215477D01*
X42604819Y33215477D02*
X42652438Y33358334D01*
X42652438Y33358334D02*
X42700057Y33405953D01*
X43604819Y34358334D02*
X43604819Y33786906D01*
X43604819Y34072620D02*
X42604819Y34072620D01*
X42604819Y34072620D02*
X42747676Y33977382D01*
X42747676Y33977382D02*
X42842914Y33882144D01*
X42842914Y33882144D02*
X42890533Y33786906D01*
X42604819Y34977382D02*
X42604819Y35072620D01*
X42604819Y35072620D02*
X42652438Y35167858D01*
X42652438Y35167858D02*
X42700057Y35215477D01*
X42700057Y35215477D02*
X42795295Y35263096D01*
X42795295Y35263096D02*
X42985771Y35310715D01*
X42985771Y35310715D02*
X43223866Y35310715D01*
X43223866Y35310715D02*
X43414342Y35263096D01*
X43414342Y35263096D02*
X43509580Y35215477D01*
X43509580Y35215477D02*
X43557200Y35167858D01*
X43557200Y35167858D02*
X43604819Y35072620D01*
X43604819Y35072620D02*
X43604819Y34977382D01*
X43604819Y34977382D02*
X43557200Y34882144D01*
X43557200Y34882144D02*
X43509580Y34834525D01*
X43509580Y34834525D02*
X43414342Y34786906D01*
X43414342Y34786906D02*
X43223866Y34739287D01*
X43223866Y34739287D02*
X42985771Y34739287D01*
X42985771Y34739287D02*
X42795295Y34786906D01*
X42795295Y34786906D02*
X42700057Y34834525D01*
X42700057Y34834525D02*
X42652438Y34882144D01*
X42652438Y34882144D02*
X42604819Y34977382D01*
X43033390Y35882144D02*
X42985771Y35786906D01*
X42985771Y35786906D02*
X42938152Y35739287D01*
X42938152Y35739287D02*
X42842914Y35691668D01*
X42842914Y35691668D02*
X42795295Y35691668D01*
X42795295Y35691668D02*
X42700057Y35739287D01*
X42700057Y35739287D02*
X42652438Y35786906D01*
X42652438Y35786906D02*
X42604819Y35882144D01*
X42604819Y35882144D02*
X42604819Y36072620D01*
X42604819Y36072620D02*
X42652438Y36167858D01*
X42652438Y36167858D02*
X42700057Y36215477D01*
X42700057Y36215477D02*
X42795295Y36263096D01*
X42795295Y36263096D02*
X42842914Y36263096D01*
X42842914Y36263096D02*
X42938152Y36215477D01*
X42938152Y36215477D02*
X42985771Y36167858D01*
X42985771Y36167858D02*
X43033390Y36072620D01*
X43033390Y36072620D02*
X43033390Y35882144D01*
X43033390Y35882144D02*
X43081009Y35786906D01*
X43081009Y35786906D02*
X43128628Y35739287D01*
X43128628Y35739287D02*
X43223866Y35691668D01*
X43223866Y35691668D02*
X43414342Y35691668D01*
X43414342Y35691668D02*
X43509580Y35739287D01*
X43509580Y35739287D02*
X43557200Y35786906D01*
X43557200Y35786906D02*
X43604819Y35882144D01*
X43604819Y35882144D02*
X43604819Y36072620D01*
X43604819Y36072620D02*
X43557200Y36167858D01*
X43557200Y36167858D02*
X43509580Y36215477D01*
X43509580Y36215477D02*
X43414342Y36263096D01*
X43414342Y36263096D02*
X43223866Y36263096D01*
X43223866Y36263096D02*
X43128628Y36215477D01*
X43128628Y36215477D02*
X43081009Y36167858D01*
X43081009Y36167858D02*
X43033390Y36072620D01*
X42130952Y10795181D02*
X41797619Y11271372D01*
X41559524Y10795181D02*
X41559524Y11795181D01*
X41559524Y11795181D02*
X41940476Y11795181D01*
X41940476Y11795181D02*
X42035714Y11747562D01*
X42035714Y11747562D02*
X42083333Y11699943D01*
X42083333Y11699943D02*
X42130952Y11604705D01*
X42130952Y11604705D02*
X42130952Y11461848D01*
X42130952Y11461848D02*
X42083333Y11366610D01*
X42083333Y11366610D02*
X42035714Y11318991D01*
X42035714Y11318991D02*
X41940476Y11271372D01*
X41940476Y11271372D02*
X41559524Y11271372D01*
X43083333Y10795181D02*
X42511905Y10795181D01*
X42797619Y10795181D02*
X42797619Y11795181D01*
X42797619Y11795181D02*
X42702381Y11652324D01*
X42702381Y11652324D02*
X42607143Y11557086D01*
X42607143Y11557086D02*
X42511905Y11509467D01*
X43702381Y11795181D02*
X43797619Y11795181D01*
X43797619Y11795181D02*
X43892857Y11747562D01*
X43892857Y11747562D02*
X43940476Y11699943D01*
X43940476Y11699943D02*
X43988095Y11604705D01*
X43988095Y11604705D02*
X44035714Y11414229D01*
X44035714Y11414229D02*
X44035714Y11176134D01*
X44035714Y11176134D02*
X43988095Y10985658D01*
X43988095Y10985658D02*
X43940476Y10890420D01*
X43940476Y10890420D02*
X43892857Y10842800D01*
X43892857Y10842800D02*
X43797619Y10795181D01*
X43797619Y10795181D02*
X43702381Y10795181D01*
X43702381Y10795181D02*
X43607143Y10842800D01*
X43607143Y10842800D02*
X43559524Y10890420D01*
X43559524Y10890420D02*
X43511905Y10985658D01*
X43511905Y10985658D02*
X43464286Y11176134D01*
X43464286Y11176134D02*
X43464286Y11414229D01*
X43464286Y11414229D02*
X43511905Y11604705D01*
X43511905Y11604705D02*
X43559524Y11699943D01*
X43559524Y11699943D02*
X43607143Y11747562D01*
X43607143Y11747562D02*
X43702381Y11795181D01*
X44416667Y11699943D02*
X44464286Y11747562D01*
X44464286Y11747562D02*
X44559524Y11795181D01*
X44559524Y11795181D02*
X44797619Y11795181D01*
X44797619Y11795181D02*
X44892857Y11747562D01*
X44892857Y11747562D02*
X44940476Y11699943D01*
X44940476Y11699943D02*
X44988095Y11604705D01*
X44988095Y11604705D02*
X44988095Y11509467D01*
X44988095Y11509467D02*
X44940476Y11366610D01*
X44940476Y11366610D02*
X44369048Y10795181D01*
X44369048Y10795181D02*
X44988095Y10795181D01*
X15630952Y23240420D02*
X15583333Y23192800D01*
X15583333Y23192800D02*
X15440476Y23145181D01*
X15440476Y23145181D02*
X15345238Y23145181D01*
X15345238Y23145181D02*
X15202381Y23192800D01*
X15202381Y23192800D02*
X15107143Y23288039D01*
X15107143Y23288039D02*
X15059524Y23383277D01*
X15059524Y23383277D02*
X15011905Y23573753D01*
X15011905Y23573753D02*
X15011905Y23716610D01*
X15011905Y23716610D02*
X15059524Y23907086D01*
X15059524Y23907086D02*
X15107143Y24002324D01*
X15107143Y24002324D02*
X15202381Y24097562D01*
X15202381Y24097562D02*
X15345238Y24145181D01*
X15345238Y24145181D02*
X15440476Y24145181D01*
X15440476Y24145181D02*
X15583333Y24097562D01*
X15583333Y24097562D02*
X15630952Y24049943D01*
X16583333Y23145181D02*
X16011905Y23145181D01*
X16297619Y23145181D02*
X16297619Y24145181D01*
X16297619Y24145181D02*
X16202381Y24002324D01*
X16202381Y24002324D02*
X16107143Y23907086D01*
X16107143Y23907086D02*
X16011905Y23859467D01*
X17202381Y24145181D02*
X17297619Y24145181D01*
X17297619Y24145181D02*
X17392857Y24097562D01*
X17392857Y24097562D02*
X17440476Y24049943D01*
X17440476Y24049943D02*
X17488095Y23954705D01*
X17488095Y23954705D02*
X17535714Y23764229D01*
X17535714Y23764229D02*
X17535714Y23526134D01*
X17535714Y23526134D02*
X17488095Y23335658D01*
X17488095Y23335658D02*
X17440476Y23240420D01*
X17440476Y23240420D02*
X17392857Y23192800D01*
X17392857Y23192800D02*
X17297619Y23145181D01*
X17297619Y23145181D02*
X17202381Y23145181D01*
X17202381Y23145181D02*
X17107143Y23192800D01*
X17107143Y23192800D02*
X17059524Y23240420D01*
X17059524Y23240420D02*
X17011905Y23335658D01*
X17011905Y23335658D02*
X16964286Y23526134D01*
X16964286Y23526134D02*
X16964286Y23764229D01*
X16964286Y23764229D02*
X17011905Y23954705D01*
X17011905Y23954705D02*
X17059524Y24049943D01*
X17059524Y24049943D02*
X17107143Y24097562D01*
X17107143Y24097562D02*
X17202381Y24145181D01*
X17916667Y24049943D02*
X17964286Y24097562D01*
X17964286Y24097562D02*
X18059524Y24145181D01*
X18059524Y24145181D02*
X18297619Y24145181D01*
X18297619Y24145181D02*
X18392857Y24097562D01*
X18392857Y24097562D02*
X18440476Y24049943D01*
X18440476Y24049943D02*
X18488095Y23954705D01*
X18488095Y23954705D02*
X18488095Y23859467D01*
X18488095Y23859467D02*
X18440476Y23716610D01*
X18440476Y23716610D02*
X17869048Y23145181D01*
X17869048Y23145181D02*
X18488095Y23145181D01*
X35559524Y19545181D02*
X35559524Y20545181D01*
X35559524Y20545181D02*
X35797619Y20545181D01*
X35797619Y20545181D02*
X35940476Y20497562D01*
X35940476Y20497562D02*
X36035714Y20402324D01*
X36035714Y20402324D02*
X36083333Y20307086D01*
X36083333Y20307086D02*
X36130952Y20116610D01*
X36130952Y20116610D02*
X36130952Y19973753D01*
X36130952Y19973753D02*
X36083333Y19783277D01*
X36083333Y19783277D02*
X36035714Y19688039D01*
X36035714Y19688039D02*
X35940476Y19592800D01*
X35940476Y19592800D02*
X35797619Y19545181D01*
X35797619Y19545181D02*
X35559524Y19545181D01*
X37083333Y19545181D02*
X36511905Y19545181D01*
X36797619Y19545181D02*
X36797619Y20545181D01*
X36797619Y20545181D02*
X36702381Y20402324D01*
X36702381Y20402324D02*
X36607143Y20307086D01*
X36607143Y20307086D02*
X36511905Y20259467D01*
X37702381Y20545181D02*
X37797619Y20545181D01*
X37797619Y20545181D02*
X37892857Y20497562D01*
X37892857Y20497562D02*
X37940476Y20449943D01*
X37940476Y20449943D02*
X37988095Y20354705D01*
X37988095Y20354705D02*
X38035714Y20164229D01*
X38035714Y20164229D02*
X38035714Y19926134D01*
X38035714Y19926134D02*
X37988095Y19735658D01*
X37988095Y19735658D02*
X37940476Y19640420D01*
X37940476Y19640420D02*
X37892857Y19592800D01*
X37892857Y19592800D02*
X37797619Y19545181D01*
X37797619Y19545181D02*
X37702381Y19545181D01*
X37702381Y19545181D02*
X37607143Y19592800D01*
X37607143Y19592800D02*
X37559524Y19640420D01*
X37559524Y19640420D02*
X37511905Y19735658D01*
X37511905Y19735658D02*
X37464286Y19926134D01*
X37464286Y19926134D02*
X37464286Y20164229D01*
X37464286Y20164229D02*
X37511905Y20354705D01*
X37511905Y20354705D02*
X37559524Y20449943D01*
X37559524Y20449943D02*
X37607143Y20497562D01*
X37607143Y20497562D02*
X37702381Y20545181D01*
X38416667Y20449943D02*
X38464286Y20497562D01*
X38464286Y20497562D02*
X38559524Y20545181D01*
X38559524Y20545181D02*
X38797619Y20545181D01*
X38797619Y20545181D02*
X38892857Y20497562D01*
X38892857Y20497562D02*
X38940476Y20449943D01*
X38940476Y20449943D02*
X38988095Y20354705D01*
X38988095Y20354705D02*
X38988095Y20259467D01*
X38988095Y20259467D02*
X38940476Y20116610D01*
X38940476Y20116610D02*
X38369048Y19545181D01*
X38369048Y19545181D02*
X38988095Y19545181D01*
X34109580Y28380953D02*
X34157200Y28333334D01*
X34157200Y28333334D02*
X34204819Y28190477D01*
X34204819Y28190477D02*
X34204819Y28095239D01*
X34204819Y28095239D02*
X34157200Y27952382D01*
X34157200Y27952382D02*
X34061961Y27857144D01*
X34061961Y27857144D02*
X33966723Y27809525D01*
X33966723Y27809525D02*
X33776247Y27761906D01*
X33776247Y27761906D02*
X33633390Y27761906D01*
X33633390Y27761906D02*
X33442914Y27809525D01*
X33442914Y27809525D02*
X33347676Y27857144D01*
X33347676Y27857144D02*
X33252438Y27952382D01*
X33252438Y27952382D02*
X33204819Y28095239D01*
X33204819Y28095239D02*
X33204819Y28190477D01*
X33204819Y28190477D02*
X33252438Y28333334D01*
X33252438Y28333334D02*
X33300057Y28380953D01*
X34204819Y29333334D02*
X34204819Y28761906D01*
X34204819Y29047620D02*
X33204819Y29047620D01*
X33204819Y29047620D02*
X33347676Y28952382D01*
X33347676Y28952382D02*
X33442914Y28857144D01*
X33442914Y28857144D02*
X33490533Y28761906D01*
X33204819Y29952382D02*
X33204819Y30047620D01*
X33204819Y30047620D02*
X33252438Y30142858D01*
X33252438Y30142858D02*
X33300057Y30190477D01*
X33300057Y30190477D02*
X33395295Y30238096D01*
X33395295Y30238096D02*
X33585771Y30285715D01*
X33585771Y30285715D02*
X33823866Y30285715D01*
X33823866Y30285715D02*
X34014342Y30238096D01*
X34014342Y30238096D02*
X34109580Y30190477D01*
X34109580Y30190477D02*
X34157200Y30142858D01*
X34157200Y30142858D02*
X34204819Y30047620D01*
X34204819Y30047620D02*
X34204819Y29952382D01*
X34204819Y29952382D02*
X34157200Y29857144D01*
X34157200Y29857144D02*
X34109580Y29809525D01*
X34109580Y29809525D02*
X34014342Y29761906D01*
X34014342Y29761906D02*
X33823866Y29714287D01*
X33823866Y29714287D02*
X33585771Y29714287D01*
X33585771Y29714287D02*
X33395295Y29761906D01*
X33395295Y29761906D02*
X33300057Y29809525D01*
X33300057Y29809525D02*
X33252438Y29857144D01*
X33252438Y29857144D02*
X33204819Y29952382D01*
X34204819Y30761906D02*
X34204819Y30952382D01*
X34204819Y30952382D02*
X34157200Y31047620D01*
X34157200Y31047620D02*
X34109580Y31095239D01*
X34109580Y31095239D02*
X33966723Y31190477D01*
X33966723Y31190477D02*
X33776247Y31238096D01*
X33776247Y31238096D02*
X33395295Y31238096D01*
X33395295Y31238096D02*
X33300057Y31190477D01*
X33300057Y31190477D02*
X33252438Y31142858D01*
X33252438Y31142858D02*
X33204819Y31047620D01*
X33204819Y31047620D02*
X33204819Y30857144D01*
X33204819Y30857144D02*
X33252438Y30761906D01*
X33252438Y30761906D02*
X33300057Y30714287D01*
X33300057Y30714287D02*
X33395295Y30666668D01*
X33395295Y30666668D02*
X33633390Y30666668D01*
X33633390Y30666668D02*
X33728628Y30714287D01*
X33728628Y30714287D02*
X33776247Y30761906D01*
X33776247Y30761906D02*
X33823866Y30857144D01*
X33823866Y30857144D02*
X33823866Y31047620D01*
X33823866Y31047620D02*
X33776247Y31142858D01*
X33776247Y31142858D02*
X33728628Y31190477D01*
X33728628Y31190477D02*
X33633390Y31238096D01*
X61454819Y39714286D02*
X62169104Y39714286D01*
X62169104Y39714286D02*
X62311961Y39666667D01*
X62311961Y39666667D02*
X62407200Y39571429D01*
X62407200Y39571429D02*
X62454819Y39428572D01*
X62454819Y39428572D02*
X62454819Y39333334D01*
X62454819Y40714286D02*
X62454819Y40142858D01*
X62454819Y40428572D02*
X61454819Y40428572D01*
X61454819Y40428572D02*
X61597676Y40333334D01*
X61597676Y40333334D02*
X61692914Y40238096D01*
X61692914Y40238096D02*
X61740533Y40142858D01*
X61454819Y41333334D02*
X61454819Y41428572D01*
X61454819Y41428572D02*
X61502438Y41523810D01*
X61502438Y41523810D02*
X61550057Y41571429D01*
X61550057Y41571429D02*
X61645295Y41619048D01*
X61645295Y41619048D02*
X61835771Y41666667D01*
X61835771Y41666667D02*
X62073866Y41666667D01*
X62073866Y41666667D02*
X62264342Y41619048D01*
X62264342Y41619048D02*
X62359580Y41571429D01*
X62359580Y41571429D02*
X62407200Y41523810D01*
X62407200Y41523810D02*
X62454819Y41428572D01*
X62454819Y41428572D02*
X62454819Y41333334D01*
X62454819Y41333334D02*
X62407200Y41238096D01*
X62407200Y41238096D02*
X62359580Y41190477D01*
X62359580Y41190477D02*
X62264342Y41142858D01*
X62264342Y41142858D02*
X62073866Y41095239D01*
X62073866Y41095239D02*
X61835771Y41095239D01*
X61835771Y41095239D02*
X61645295Y41142858D01*
X61645295Y41142858D02*
X61550057Y41190477D01*
X61550057Y41190477D02*
X61502438Y41238096D01*
X61502438Y41238096D02*
X61454819Y41333334D01*
X61454819Y42000001D02*
X61454819Y42666667D01*
X61454819Y42666667D02*
X62454819Y42238096D01*
X32380952Y18890420D02*
X32333333Y18842800D01*
X32333333Y18842800D02*
X32190476Y18795181D01*
X32190476Y18795181D02*
X32095238Y18795181D01*
X32095238Y18795181D02*
X31952381Y18842800D01*
X31952381Y18842800D02*
X31857143Y18938039D01*
X31857143Y18938039D02*
X31809524Y19033277D01*
X31809524Y19033277D02*
X31761905Y19223753D01*
X31761905Y19223753D02*
X31761905Y19366610D01*
X31761905Y19366610D02*
X31809524Y19557086D01*
X31809524Y19557086D02*
X31857143Y19652324D01*
X31857143Y19652324D02*
X31952381Y19747562D01*
X31952381Y19747562D02*
X32095238Y19795181D01*
X32095238Y19795181D02*
X32190476Y19795181D01*
X32190476Y19795181D02*
X32333333Y19747562D01*
X32333333Y19747562D02*
X32380952Y19699943D01*
X33333333Y18795181D02*
X32761905Y18795181D01*
X33047619Y18795181D02*
X33047619Y19795181D01*
X33047619Y19795181D02*
X32952381Y19652324D01*
X32952381Y19652324D02*
X32857143Y19557086D01*
X32857143Y19557086D02*
X32761905Y19509467D01*
X34285714Y18795181D02*
X33714286Y18795181D01*
X34000000Y18795181D02*
X34000000Y19795181D01*
X34000000Y19795181D02*
X33904762Y19652324D01*
X33904762Y19652324D02*
X33809524Y19557086D01*
X33809524Y19557086D02*
X33714286Y19509467D01*
X34666667Y19699943D02*
X34714286Y19747562D01*
X34714286Y19747562D02*
X34809524Y19795181D01*
X34809524Y19795181D02*
X35047619Y19795181D01*
X35047619Y19795181D02*
X35142857Y19747562D01*
X35142857Y19747562D02*
X35190476Y19699943D01*
X35190476Y19699943D02*
X35238095Y19604705D01*
X35238095Y19604705D02*
X35238095Y19509467D01*
X35238095Y19509467D02*
X35190476Y19366610D01*
X35190476Y19366610D02*
X34619048Y18795181D01*
X34619048Y18795181D02*
X35238095Y18795181D01*
X33562295Y23378572D02*
X34209914Y23378572D01*
X34209914Y23378572D02*
X34286104Y23416667D01*
X34286104Y23416667D02*
X34324200Y23454762D01*
X34324200Y23454762D02*
X34362295Y23530953D01*
X34362295Y23530953D02*
X34362295Y23683334D01*
X34362295Y23683334D02*
X34324200Y23759524D01*
X34324200Y23759524D02*
X34286104Y23797619D01*
X34286104Y23797619D02*
X34209914Y23835715D01*
X34209914Y23835715D02*
X33562295Y23835715D01*
X34362295Y24635714D02*
X34362295Y24178571D01*
X34362295Y24407143D02*
X33562295Y24407143D01*
X33562295Y24407143D02*
X33676580Y24330952D01*
X33676580Y24330952D02*
X33752771Y24254762D01*
X33752771Y24254762D02*
X33790866Y24178571D01*
X33562295Y25130953D02*
X33562295Y25207143D01*
X33562295Y25207143D02*
X33600390Y25283334D01*
X33600390Y25283334D02*
X33638485Y25321429D01*
X33638485Y25321429D02*
X33714676Y25359524D01*
X33714676Y25359524D02*
X33867057Y25397619D01*
X33867057Y25397619D02*
X34057533Y25397619D01*
X34057533Y25397619D02*
X34209914Y25359524D01*
X34209914Y25359524D02*
X34286104Y25321429D01*
X34286104Y25321429D02*
X34324200Y25283334D01*
X34324200Y25283334D02*
X34362295Y25207143D01*
X34362295Y25207143D02*
X34362295Y25130953D01*
X34362295Y25130953D02*
X34324200Y25054762D01*
X34324200Y25054762D02*
X34286104Y25016667D01*
X34286104Y25016667D02*
X34209914Y24978572D01*
X34209914Y24978572D02*
X34057533Y24940476D01*
X34057533Y24940476D02*
X33867057Y24940476D01*
X33867057Y24940476D02*
X33714676Y24978572D01*
X33714676Y24978572D02*
X33638485Y25016667D01*
X33638485Y25016667D02*
X33600390Y25054762D01*
X33600390Y25054762D02*
X33562295Y25130953D01*
X33562295Y25664286D02*
X33562295Y26159524D01*
X33562295Y26159524D02*
X33867057Y25892858D01*
X33867057Y25892858D02*
X33867057Y26007143D01*
X33867057Y26007143D02*
X33905152Y26083334D01*
X33905152Y26083334D02*
X33943247Y26121429D01*
X33943247Y26121429D02*
X34019438Y26159524D01*
X34019438Y26159524D02*
X34209914Y26159524D01*
X34209914Y26159524D02*
X34286104Y26121429D01*
X34286104Y26121429D02*
X34324200Y26083334D01*
X34324200Y26083334D02*
X34362295Y26007143D01*
X34362295Y26007143D02*
X34362295Y25778572D01*
X34362295Y25778572D02*
X34324200Y25702381D01*
X34324200Y25702381D02*
X34286104Y25664286D01*
X44429580Y28605953D02*
X44477200Y28558334D01*
X44477200Y28558334D02*
X44524819Y28415477D01*
X44524819Y28415477D02*
X44524819Y28320239D01*
X44524819Y28320239D02*
X44477200Y28177382D01*
X44477200Y28177382D02*
X44381961Y28082144D01*
X44381961Y28082144D02*
X44286723Y28034525D01*
X44286723Y28034525D02*
X44096247Y27986906D01*
X44096247Y27986906D02*
X43953390Y27986906D01*
X43953390Y27986906D02*
X43762914Y28034525D01*
X43762914Y28034525D02*
X43667676Y28082144D01*
X43667676Y28082144D02*
X43572438Y28177382D01*
X43572438Y28177382D02*
X43524819Y28320239D01*
X43524819Y28320239D02*
X43524819Y28415477D01*
X43524819Y28415477D02*
X43572438Y28558334D01*
X43572438Y28558334D02*
X43620057Y28605953D01*
X44524819Y29558334D02*
X44524819Y28986906D01*
X44524819Y29272620D02*
X43524819Y29272620D01*
X43524819Y29272620D02*
X43667676Y29177382D01*
X43667676Y29177382D02*
X43762914Y29082144D01*
X43762914Y29082144D02*
X43810533Y28986906D01*
X43524819Y30177382D02*
X43524819Y30272620D01*
X43524819Y30272620D02*
X43572438Y30367858D01*
X43572438Y30367858D02*
X43620057Y30415477D01*
X43620057Y30415477D02*
X43715295Y30463096D01*
X43715295Y30463096D02*
X43905771Y30510715D01*
X43905771Y30510715D02*
X44143866Y30510715D01*
X44143866Y30510715D02*
X44334342Y30463096D01*
X44334342Y30463096D02*
X44429580Y30415477D01*
X44429580Y30415477D02*
X44477200Y30367858D01*
X44477200Y30367858D02*
X44524819Y30272620D01*
X44524819Y30272620D02*
X44524819Y30177382D01*
X44524819Y30177382D02*
X44477200Y30082144D01*
X44477200Y30082144D02*
X44429580Y30034525D01*
X44429580Y30034525D02*
X44334342Y29986906D01*
X44334342Y29986906D02*
X44143866Y29939287D01*
X44143866Y29939287D02*
X43905771Y29939287D01*
X43905771Y29939287D02*
X43715295Y29986906D01*
X43715295Y29986906D02*
X43620057Y30034525D01*
X43620057Y30034525D02*
X43572438Y30082144D01*
X43572438Y30082144D02*
X43524819Y30177382D01*
X43524819Y30844049D02*
X43524819Y31463096D01*
X43524819Y31463096D02*
X43905771Y31129763D01*
X43905771Y31129763D02*
X43905771Y31272620D01*
X43905771Y31272620D02*
X43953390Y31367858D01*
X43953390Y31367858D02*
X44001009Y31415477D01*
X44001009Y31415477D02*
X44096247Y31463096D01*
X44096247Y31463096D02*
X44334342Y31463096D01*
X44334342Y31463096D02*
X44429580Y31415477D01*
X44429580Y31415477D02*
X44477200Y31367858D01*
X44477200Y31367858D02*
X44524819Y31272620D01*
X44524819Y31272620D02*
X44524819Y30986906D01*
X44524819Y30986906D02*
X44477200Y30891668D01*
X44477200Y30891668D02*
X44429580Y30844049D01*
X10880952Y46545181D02*
X10547619Y47021372D01*
X10309524Y46545181D02*
X10309524Y47545181D01*
X10309524Y47545181D02*
X10690476Y47545181D01*
X10690476Y47545181D02*
X10785714Y47497562D01*
X10785714Y47497562D02*
X10833333Y47449943D01*
X10833333Y47449943D02*
X10880952Y47354705D01*
X10880952Y47354705D02*
X10880952Y47211848D01*
X10880952Y47211848D02*
X10833333Y47116610D01*
X10833333Y47116610D02*
X10785714Y47068991D01*
X10785714Y47068991D02*
X10690476Y47021372D01*
X10690476Y47021372D02*
X10309524Y47021372D01*
X11833333Y46545181D02*
X11261905Y46545181D01*
X11547619Y46545181D02*
X11547619Y47545181D01*
X11547619Y47545181D02*
X11452381Y47402324D01*
X11452381Y47402324D02*
X11357143Y47307086D01*
X11357143Y47307086D02*
X11261905Y47259467D01*
X12452381Y47545181D02*
X12547619Y47545181D01*
X12547619Y47545181D02*
X12642857Y47497562D01*
X12642857Y47497562D02*
X12690476Y47449943D01*
X12690476Y47449943D02*
X12738095Y47354705D01*
X12738095Y47354705D02*
X12785714Y47164229D01*
X12785714Y47164229D02*
X12785714Y46926134D01*
X12785714Y46926134D02*
X12738095Y46735658D01*
X12738095Y46735658D02*
X12690476Y46640420D01*
X12690476Y46640420D02*
X12642857Y46592800D01*
X12642857Y46592800D02*
X12547619Y46545181D01*
X12547619Y46545181D02*
X12452381Y46545181D01*
X12452381Y46545181D02*
X12357143Y46592800D01*
X12357143Y46592800D02*
X12309524Y46640420D01*
X12309524Y46640420D02*
X12261905Y46735658D01*
X12261905Y46735658D02*
X12214286Y46926134D01*
X12214286Y46926134D02*
X12214286Y47164229D01*
X12214286Y47164229D02*
X12261905Y47354705D01*
X12261905Y47354705D02*
X12309524Y47449943D01*
X12309524Y47449943D02*
X12357143Y47497562D01*
X12357143Y47497562D02*
X12452381Y47545181D01*
X13119048Y47545181D02*
X13738095Y47545181D01*
X13738095Y47545181D02*
X13404762Y47164229D01*
X13404762Y47164229D02*
X13547619Y47164229D01*
X13547619Y47164229D02*
X13642857Y47116610D01*
X13642857Y47116610D02*
X13690476Y47068991D01*
X13690476Y47068991D02*
X13738095Y46973753D01*
X13738095Y46973753D02*
X13738095Y46735658D01*
X13738095Y46735658D02*
X13690476Y46640420D01*
X13690476Y46640420D02*
X13642857Y46592800D01*
X13642857Y46592800D02*
X13547619Y46545181D01*
X13547619Y46545181D02*
X13261905Y46545181D01*
X13261905Y46545181D02*
X13166667Y46592800D01*
X13166667Y46592800D02*
X13119048Y46640420D01*
X46539580Y15130953D02*
X46587200Y15083334D01*
X46587200Y15083334D02*
X46634819Y14940477D01*
X46634819Y14940477D02*
X46634819Y14845239D01*
X46634819Y14845239D02*
X46587200Y14702382D01*
X46587200Y14702382D02*
X46491961Y14607144D01*
X46491961Y14607144D02*
X46396723Y14559525D01*
X46396723Y14559525D02*
X46206247Y14511906D01*
X46206247Y14511906D02*
X46063390Y14511906D01*
X46063390Y14511906D02*
X45872914Y14559525D01*
X45872914Y14559525D02*
X45777676Y14607144D01*
X45777676Y14607144D02*
X45682438Y14702382D01*
X45682438Y14702382D02*
X45634819Y14845239D01*
X45634819Y14845239D02*
X45634819Y14940477D01*
X45634819Y14940477D02*
X45682438Y15083334D01*
X45682438Y15083334D02*
X45730057Y15130953D01*
X46634819Y16083334D02*
X46634819Y15511906D01*
X46634819Y15797620D02*
X45634819Y15797620D01*
X45634819Y15797620D02*
X45777676Y15702382D01*
X45777676Y15702382D02*
X45872914Y15607144D01*
X45872914Y15607144D02*
X45920533Y15511906D01*
X45634819Y16702382D02*
X45634819Y16797620D01*
X45634819Y16797620D02*
X45682438Y16892858D01*
X45682438Y16892858D02*
X45730057Y16940477D01*
X45730057Y16940477D02*
X45825295Y16988096D01*
X45825295Y16988096D02*
X46015771Y17035715D01*
X46015771Y17035715D02*
X46253866Y17035715D01*
X46253866Y17035715D02*
X46444342Y16988096D01*
X46444342Y16988096D02*
X46539580Y16940477D01*
X46539580Y16940477D02*
X46587200Y16892858D01*
X46587200Y16892858D02*
X46634819Y16797620D01*
X46634819Y16797620D02*
X46634819Y16702382D01*
X46634819Y16702382D02*
X46587200Y16607144D01*
X46587200Y16607144D02*
X46539580Y16559525D01*
X46539580Y16559525D02*
X46444342Y16511906D01*
X46444342Y16511906D02*
X46253866Y16464287D01*
X46253866Y16464287D02*
X46015771Y16464287D01*
X46015771Y16464287D02*
X45825295Y16511906D01*
X45825295Y16511906D02*
X45730057Y16559525D01*
X45730057Y16559525D02*
X45682438Y16607144D01*
X45682438Y16607144D02*
X45634819Y16702382D01*
X46634819Y17988096D02*
X46634819Y17416668D01*
X46634819Y17702382D02*
X45634819Y17702382D01*
X45634819Y17702382D02*
X45777676Y17607144D01*
X45777676Y17607144D02*
X45872914Y17511906D01*
X45872914Y17511906D02*
X45920533Y17416668D01*
X21309580Y24130953D02*
X21357200Y24083334D01*
X21357200Y24083334D02*
X21404819Y23940477D01*
X21404819Y23940477D02*
X21404819Y23845239D01*
X21404819Y23845239D02*
X21357200Y23702382D01*
X21357200Y23702382D02*
X21261961Y23607144D01*
X21261961Y23607144D02*
X21166723Y23559525D01*
X21166723Y23559525D02*
X20976247Y23511906D01*
X20976247Y23511906D02*
X20833390Y23511906D01*
X20833390Y23511906D02*
X20642914Y23559525D01*
X20642914Y23559525D02*
X20547676Y23607144D01*
X20547676Y23607144D02*
X20452438Y23702382D01*
X20452438Y23702382D02*
X20404819Y23845239D01*
X20404819Y23845239D02*
X20404819Y23940477D01*
X20404819Y23940477D02*
X20452438Y24083334D01*
X20452438Y24083334D02*
X20500057Y24130953D01*
X21404819Y25083334D02*
X21404819Y24511906D01*
X21404819Y24797620D02*
X20404819Y24797620D01*
X20404819Y24797620D02*
X20547676Y24702382D01*
X20547676Y24702382D02*
X20642914Y24607144D01*
X20642914Y24607144D02*
X20690533Y24511906D01*
X21404819Y26035715D02*
X21404819Y25464287D01*
X21404819Y25750001D02*
X20404819Y25750001D01*
X20404819Y25750001D02*
X20547676Y25654763D01*
X20547676Y25654763D02*
X20642914Y25559525D01*
X20642914Y25559525D02*
X20690533Y25464287D01*
X20404819Y26654763D02*
X20404819Y26750001D01*
X20404819Y26750001D02*
X20452438Y26845239D01*
X20452438Y26845239D02*
X20500057Y26892858D01*
X20500057Y26892858D02*
X20595295Y26940477D01*
X20595295Y26940477D02*
X20785771Y26988096D01*
X20785771Y26988096D02*
X21023866Y26988096D01*
X21023866Y26988096D02*
X21214342Y26940477D01*
X21214342Y26940477D02*
X21309580Y26892858D01*
X21309580Y26892858D02*
X21357200Y26845239D01*
X21357200Y26845239D02*
X21404819Y26750001D01*
X21404819Y26750001D02*
X21404819Y26654763D01*
X21404819Y26654763D02*
X21357200Y26559525D01*
X21357200Y26559525D02*
X21309580Y26511906D01*
X21309580Y26511906D02*
X21214342Y26464287D01*
X21214342Y26464287D02*
X21023866Y26416668D01*
X21023866Y26416668D02*
X20785771Y26416668D01*
X20785771Y26416668D02*
X20595295Y26464287D01*
X20595295Y26464287D02*
X20500057Y26511906D01*
X20500057Y26511906D02*
X20452438Y26559525D01*
X20452438Y26559525D02*
X20404819Y26654763D01*
X41059524Y8795181D02*
X41059524Y9795181D01*
X41059524Y9795181D02*
X41297619Y9795181D01*
X41297619Y9795181D02*
X41440476Y9747562D01*
X41440476Y9747562D02*
X41535714Y9652324D01*
X41535714Y9652324D02*
X41583333Y9557086D01*
X41583333Y9557086D02*
X41630952Y9366610D01*
X41630952Y9366610D02*
X41630952Y9223753D01*
X41630952Y9223753D02*
X41583333Y9033277D01*
X41583333Y9033277D02*
X41535714Y8938039D01*
X41535714Y8938039D02*
X41440476Y8842800D01*
X41440476Y8842800D02*
X41297619Y8795181D01*
X41297619Y8795181D02*
X41059524Y8795181D01*
X42583333Y8795181D02*
X42011905Y8795181D01*
X42297619Y8795181D02*
X42297619Y9795181D01*
X42297619Y9795181D02*
X42202381Y9652324D01*
X42202381Y9652324D02*
X42107143Y9557086D01*
X42107143Y9557086D02*
X42011905Y9509467D01*
X43202381Y9795181D02*
X43297619Y9795181D01*
X43297619Y9795181D02*
X43392857Y9747562D01*
X43392857Y9747562D02*
X43440476Y9699943D01*
X43440476Y9699943D02*
X43488095Y9604705D01*
X43488095Y9604705D02*
X43535714Y9414229D01*
X43535714Y9414229D02*
X43535714Y9176134D01*
X43535714Y9176134D02*
X43488095Y8985658D01*
X43488095Y8985658D02*
X43440476Y8890420D01*
X43440476Y8890420D02*
X43392857Y8842800D01*
X43392857Y8842800D02*
X43297619Y8795181D01*
X43297619Y8795181D02*
X43202381Y8795181D01*
X43202381Y8795181D02*
X43107143Y8842800D01*
X43107143Y8842800D02*
X43059524Y8890420D01*
X43059524Y8890420D02*
X43011905Y8985658D01*
X43011905Y8985658D02*
X42964286Y9176134D01*
X42964286Y9176134D02*
X42964286Y9414229D01*
X42964286Y9414229D02*
X43011905Y9604705D01*
X43011905Y9604705D02*
X43059524Y9699943D01*
X43059524Y9699943D02*
X43107143Y9747562D01*
X43107143Y9747562D02*
X43202381Y9795181D01*
X43869048Y9795181D02*
X44488095Y9795181D01*
X44488095Y9795181D02*
X44154762Y9414229D01*
X44154762Y9414229D02*
X44297619Y9414229D01*
X44297619Y9414229D02*
X44392857Y9366610D01*
X44392857Y9366610D02*
X44440476Y9318991D01*
X44440476Y9318991D02*
X44488095Y9223753D01*
X44488095Y9223753D02*
X44488095Y8985658D01*
X44488095Y8985658D02*
X44440476Y8890420D01*
X44440476Y8890420D02*
X44392857Y8842800D01*
X44392857Y8842800D02*
X44297619Y8795181D01*
X44297619Y8795181D02*
X44011905Y8795181D01*
X44011905Y8795181D02*
X43916667Y8842800D01*
X43916667Y8842800D02*
X43869048Y8890420D01*
X33354295Y36168572D02*
X34001914Y36168572D01*
X34001914Y36168572D02*
X34078104Y36206667D01*
X34078104Y36206667D02*
X34116200Y36244762D01*
X34116200Y36244762D02*
X34154295Y36320953D01*
X34154295Y36320953D02*
X34154295Y36473334D01*
X34154295Y36473334D02*
X34116200Y36549524D01*
X34116200Y36549524D02*
X34078104Y36587619D01*
X34078104Y36587619D02*
X34001914Y36625715D01*
X34001914Y36625715D02*
X33354295Y36625715D01*
X34154295Y37425714D02*
X34154295Y36968571D01*
X34154295Y37197143D02*
X33354295Y37197143D01*
X33354295Y37197143D02*
X33468580Y37120952D01*
X33468580Y37120952D02*
X33544771Y37044762D01*
X33544771Y37044762D02*
X33582866Y36968571D01*
X33354295Y37920953D02*
X33354295Y37997143D01*
X33354295Y37997143D02*
X33392390Y38073334D01*
X33392390Y38073334D02*
X33430485Y38111429D01*
X33430485Y38111429D02*
X33506676Y38149524D01*
X33506676Y38149524D02*
X33659057Y38187619D01*
X33659057Y38187619D02*
X33849533Y38187619D01*
X33849533Y38187619D02*
X34001914Y38149524D01*
X34001914Y38149524D02*
X34078104Y38111429D01*
X34078104Y38111429D02*
X34116200Y38073334D01*
X34116200Y38073334D02*
X34154295Y37997143D01*
X34154295Y37997143D02*
X34154295Y37920953D01*
X34154295Y37920953D02*
X34116200Y37844762D01*
X34116200Y37844762D02*
X34078104Y37806667D01*
X34078104Y37806667D02*
X34001914Y37768572D01*
X34001914Y37768572D02*
X33849533Y37730476D01*
X33849533Y37730476D02*
X33659057Y37730476D01*
X33659057Y37730476D02*
X33506676Y37768572D01*
X33506676Y37768572D02*
X33430485Y37806667D01*
X33430485Y37806667D02*
X33392390Y37844762D01*
X33392390Y37844762D02*
X33354295Y37920953D01*
X33620961Y38873334D02*
X34154295Y38873334D01*
X33316200Y38682858D02*
X33887628Y38492381D01*
X33887628Y38492381D02*
X33887628Y38987620D01*
X61454819Y11364286D02*
X62169104Y11364286D01*
X62169104Y11364286D02*
X62311961Y11316667D01*
X62311961Y11316667D02*
X62407200Y11221429D01*
X62407200Y11221429D02*
X62454819Y11078572D01*
X62454819Y11078572D02*
X62454819Y10983334D01*
X62454819Y12364286D02*
X62454819Y11792858D01*
X62454819Y12078572D02*
X61454819Y12078572D01*
X61454819Y12078572D02*
X61597676Y11983334D01*
X61597676Y11983334D02*
X61692914Y11888096D01*
X61692914Y11888096D02*
X61740533Y11792858D01*
X61454819Y12983334D02*
X61454819Y13078572D01*
X61454819Y13078572D02*
X61502438Y13173810D01*
X61502438Y13173810D02*
X61550057Y13221429D01*
X61550057Y13221429D02*
X61645295Y13269048D01*
X61645295Y13269048D02*
X61835771Y13316667D01*
X61835771Y13316667D02*
X62073866Y13316667D01*
X62073866Y13316667D02*
X62264342Y13269048D01*
X62264342Y13269048D02*
X62359580Y13221429D01*
X62359580Y13221429D02*
X62407200Y13173810D01*
X62407200Y13173810D02*
X62454819Y13078572D01*
X62454819Y13078572D02*
X62454819Y12983334D01*
X62454819Y12983334D02*
X62407200Y12888096D01*
X62407200Y12888096D02*
X62359580Y12840477D01*
X62359580Y12840477D02*
X62264342Y12792858D01*
X62264342Y12792858D02*
X62073866Y12745239D01*
X62073866Y12745239D02*
X61835771Y12745239D01*
X61835771Y12745239D02*
X61645295Y12792858D01*
X61645295Y12792858D02*
X61550057Y12840477D01*
X61550057Y12840477D02*
X61502438Y12888096D01*
X61502438Y12888096D02*
X61454819Y12983334D01*
X62454819Y14269048D02*
X62454819Y13697620D01*
X62454819Y13983334D02*
X61454819Y13983334D01*
X61454819Y13983334D02*
X61597676Y13888096D01*
X61597676Y13888096D02*
X61692914Y13792858D01*
X61692914Y13792858D02*
X61740533Y13697620D01*
X61454819Y25714286D02*
X62169104Y25714286D01*
X62169104Y25714286D02*
X62311961Y25666667D01*
X62311961Y25666667D02*
X62407200Y25571429D01*
X62407200Y25571429D02*
X62454819Y25428572D01*
X62454819Y25428572D02*
X62454819Y25333334D01*
X62454819Y26714286D02*
X62454819Y26142858D01*
X62454819Y26428572D02*
X61454819Y26428572D01*
X61454819Y26428572D02*
X61597676Y26333334D01*
X61597676Y26333334D02*
X61692914Y26238096D01*
X61692914Y26238096D02*
X61740533Y26142858D01*
X61454819Y27333334D02*
X61454819Y27428572D01*
X61454819Y27428572D02*
X61502438Y27523810D01*
X61502438Y27523810D02*
X61550057Y27571429D01*
X61550057Y27571429D02*
X61645295Y27619048D01*
X61645295Y27619048D02*
X61835771Y27666667D01*
X61835771Y27666667D02*
X62073866Y27666667D01*
X62073866Y27666667D02*
X62264342Y27619048D01*
X62264342Y27619048D02*
X62359580Y27571429D01*
X62359580Y27571429D02*
X62407200Y27523810D01*
X62407200Y27523810D02*
X62454819Y27428572D01*
X62454819Y27428572D02*
X62454819Y27333334D01*
X62454819Y27333334D02*
X62407200Y27238096D01*
X62407200Y27238096D02*
X62359580Y27190477D01*
X62359580Y27190477D02*
X62264342Y27142858D01*
X62264342Y27142858D02*
X62073866Y27095239D01*
X62073866Y27095239D02*
X61835771Y27095239D01*
X61835771Y27095239D02*
X61645295Y27142858D01*
X61645295Y27142858D02*
X61550057Y27190477D01*
X61550057Y27190477D02*
X61502438Y27238096D01*
X61502438Y27238096D02*
X61454819Y27333334D01*
X61454819Y28523810D02*
X61454819Y28333334D01*
X61454819Y28333334D02*
X61502438Y28238096D01*
X61502438Y28238096D02*
X61550057Y28190477D01*
X61550057Y28190477D02*
X61692914Y28095239D01*
X61692914Y28095239D02*
X61883390Y28047620D01*
X61883390Y28047620D02*
X62264342Y28047620D01*
X62264342Y28047620D02*
X62359580Y28095239D01*
X62359580Y28095239D02*
X62407200Y28142858D01*
X62407200Y28142858D02*
X62454819Y28238096D01*
X62454819Y28238096D02*
X62454819Y28428572D01*
X62454819Y28428572D02*
X62407200Y28523810D01*
X62407200Y28523810D02*
X62359580Y28571429D01*
X62359580Y28571429D02*
X62264342Y28619048D01*
X62264342Y28619048D02*
X62026247Y28619048D01*
X62026247Y28619048D02*
X61931009Y28571429D01*
X61931009Y28571429D02*
X61883390Y28523810D01*
X61883390Y28523810D02*
X61835771Y28428572D01*
X61835771Y28428572D02*
X61835771Y28238096D01*
X61835771Y28238096D02*
X61883390Y28142858D01*
X61883390Y28142858D02*
X61931009Y28095239D01*
X61931009Y28095239D02*
X62026247Y28047620D01*
X21959580Y4105953D02*
X22007200Y4058334D01*
X22007200Y4058334D02*
X22054819Y3915477D01*
X22054819Y3915477D02*
X22054819Y3820239D01*
X22054819Y3820239D02*
X22007200Y3677382D01*
X22007200Y3677382D02*
X21911961Y3582144D01*
X21911961Y3582144D02*
X21816723Y3534525D01*
X21816723Y3534525D02*
X21626247Y3486906D01*
X21626247Y3486906D02*
X21483390Y3486906D01*
X21483390Y3486906D02*
X21292914Y3534525D01*
X21292914Y3534525D02*
X21197676Y3582144D01*
X21197676Y3582144D02*
X21102438Y3677382D01*
X21102438Y3677382D02*
X21054819Y3820239D01*
X21054819Y3820239D02*
X21054819Y3915477D01*
X21054819Y3915477D02*
X21102438Y4058334D01*
X21102438Y4058334D02*
X21150057Y4105953D01*
X22054819Y5058334D02*
X22054819Y4486906D01*
X22054819Y4772620D02*
X21054819Y4772620D01*
X21054819Y4772620D02*
X21197676Y4677382D01*
X21197676Y4677382D02*
X21292914Y4582144D01*
X21292914Y4582144D02*
X21340533Y4486906D01*
X22054819Y6010715D02*
X22054819Y5439287D01*
X22054819Y5725001D02*
X21054819Y5725001D01*
X21054819Y5725001D02*
X21197676Y5629763D01*
X21197676Y5629763D02*
X21292914Y5534525D01*
X21292914Y5534525D02*
X21340533Y5439287D01*
X21388152Y6867858D02*
X22054819Y6867858D01*
X21007200Y6629763D02*
X21721485Y6391668D01*
X21721485Y6391668D02*
X21721485Y7010715D01*
X11704819Y12192715D02*
X12514342Y12192715D01*
X12514342Y12192715D02*
X12609580Y12240334D01*
X12609580Y12240334D02*
X12657200Y12287953D01*
X12657200Y12287953D02*
X12704819Y12383191D01*
X12704819Y12383191D02*
X12704819Y12573667D01*
X12704819Y12573667D02*
X12657200Y12668905D01*
X12657200Y12668905D02*
X12609580Y12716524D01*
X12609580Y12716524D02*
X12514342Y12764143D01*
X12514342Y12764143D02*
X11704819Y12764143D01*
X12704819Y13764143D02*
X12704819Y13192715D01*
X12704819Y13478429D02*
X11704819Y13478429D01*
X11704819Y13478429D02*
X11847676Y13383191D01*
X11847676Y13383191D02*
X11942914Y13287953D01*
X11942914Y13287953D02*
X11990533Y13192715D01*
X11704819Y14383191D02*
X11704819Y14478429D01*
X11704819Y14478429D02*
X11752438Y14573667D01*
X11752438Y14573667D02*
X11800057Y14621286D01*
X11800057Y14621286D02*
X11895295Y14668905D01*
X11895295Y14668905D02*
X12085771Y14716524D01*
X12085771Y14716524D02*
X12323866Y14716524D01*
X12323866Y14716524D02*
X12514342Y14668905D01*
X12514342Y14668905D02*
X12609580Y14621286D01*
X12609580Y14621286D02*
X12657200Y14573667D01*
X12657200Y14573667D02*
X12704819Y14478429D01*
X12704819Y14478429D02*
X12704819Y14383191D01*
X12704819Y14383191D02*
X12657200Y14287953D01*
X12657200Y14287953D02*
X12609580Y14240334D01*
X12609580Y14240334D02*
X12514342Y14192715D01*
X12514342Y14192715D02*
X12323866Y14145096D01*
X12323866Y14145096D02*
X12085771Y14145096D01*
X12085771Y14145096D02*
X11895295Y14192715D01*
X11895295Y14192715D02*
X11800057Y14240334D01*
X11800057Y14240334D02*
X11752438Y14287953D01*
X11752438Y14287953D02*
X11704819Y14383191D01*
X12704819Y15668905D02*
X12704819Y15097477D01*
X12704819Y15383191D02*
X11704819Y15383191D01*
X11704819Y15383191D02*
X11847676Y15287953D01*
X11847676Y15287953D02*
X11942914Y15192715D01*
X11942914Y15192715D02*
X11990533Y15097477D01*
X40630952Y19890420D02*
X40583333Y19842800D01*
X40583333Y19842800D02*
X40440476Y19795181D01*
X40440476Y19795181D02*
X40345238Y19795181D01*
X40345238Y19795181D02*
X40202381Y19842800D01*
X40202381Y19842800D02*
X40107143Y19938039D01*
X40107143Y19938039D02*
X40059524Y20033277D01*
X40059524Y20033277D02*
X40011905Y20223753D01*
X40011905Y20223753D02*
X40011905Y20366610D01*
X40011905Y20366610D02*
X40059524Y20557086D01*
X40059524Y20557086D02*
X40107143Y20652324D01*
X40107143Y20652324D02*
X40202381Y20747562D01*
X40202381Y20747562D02*
X40345238Y20795181D01*
X40345238Y20795181D02*
X40440476Y20795181D01*
X40440476Y20795181D02*
X40583333Y20747562D01*
X40583333Y20747562D02*
X40630952Y20699943D01*
X41583333Y19795181D02*
X41011905Y19795181D01*
X41297619Y19795181D02*
X41297619Y20795181D01*
X41297619Y20795181D02*
X41202381Y20652324D01*
X41202381Y20652324D02*
X41107143Y20557086D01*
X41107143Y20557086D02*
X41011905Y20509467D01*
X42535714Y19795181D02*
X41964286Y19795181D01*
X42250000Y19795181D02*
X42250000Y20795181D01*
X42250000Y20795181D02*
X42154762Y20652324D01*
X42154762Y20652324D02*
X42059524Y20557086D01*
X42059524Y20557086D02*
X41964286Y20509467D01*
X43488095Y19795181D02*
X42916667Y19795181D01*
X43202381Y19795181D02*
X43202381Y20795181D01*
X43202381Y20795181D02*
X43107143Y20652324D01*
X43107143Y20652324D02*
X43011905Y20557086D01*
X43011905Y20557086D02*
X42916667Y20509467D01*
X44429580Y23655953D02*
X44477200Y23608334D01*
X44477200Y23608334D02*
X44524819Y23465477D01*
X44524819Y23465477D02*
X44524819Y23370239D01*
X44524819Y23370239D02*
X44477200Y23227382D01*
X44477200Y23227382D02*
X44381961Y23132144D01*
X44381961Y23132144D02*
X44286723Y23084525D01*
X44286723Y23084525D02*
X44096247Y23036906D01*
X44096247Y23036906D02*
X43953390Y23036906D01*
X43953390Y23036906D02*
X43762914Y23084525D01*
X43762914Y23084525D02*
X43667676Y23132144D01*
X43667676Y23132144D02*
X43572438Y23227382D01*
X43572438Y23227382D02*
X43524819Y23370239D01*
X43524819Y23370239D02*
X43524819Y23465477D01*
X43524819Y23465477D02*
X43572438Y23608334D01*
X43572438Y23608334D02*
X43620057Y23655953D01*
X44524819Y24608334D02*
X44524819Y24036906D01*
X44524819Y24322620D02*
X43524819Y24322620D01*
X43524819Y24322620D02*
X43667676Y24227382D01*
X43667676Y24227382D02*
X43762914Y24132144D01*
X43762914Y24132144D02*
X43810533Y24036906D01*
X43524819Y25227382D02*
X43524819Y25322620D01*
X43524819Y25322620D02*
X43572438Y25417858D01*
X43572438Y25417858D02*
X43620057Y25465477D01*
X43620057Y25465477D02*
X43715295Y25513096D01*
X43715295Y25513096D02*
X43905771Y25560715D01*
X43905771Y25560715D02*
X44143866Y25560715D01*
X44143866Y25560715D02*
X44334342Y25513096D01*
X44334342Y25513096D02*
X44429580Y25465477D01*
X44429580Y25465477D02*
X44477200Y25417858D01*
X44477200Y25417858D02*
X44524819Y25322620D01*
X44524819Y25322620D02*
X44524819Y25227382D01*
X44524819Y25227382D02*
X44477200Y25132144D01*
X44477200Y25132144D02*
X44429580Y25084525D01*
X44429580Y25084525D02*
X44334342Y25036906D01*
X44334342Y25036906D02*
X44143866Y24989287D01*
X44143866Y24989287D02*
X43905771Y24989287D01*
X43905771Y24989287D02*
X43715295Y25036906D01*
X43715295Y25036906D02*
X43620057Y25084525D01*
X43620057Y25084525D02*
X43572438Y25132144D01*
X43572438Y25132144D02*
X43524819Y25227382D01*
X43524819Y26465477D02*
X43524819Y25989287D01*
X43524819Y25989287D02*
X44001009Y25941668D01*
X44001009Y25941668D02*
X43953390Y25989287D01*
X43953390Y25989287D02*
X43905771Y26084525D01*
X43905771Y26084525D02*
X43905771Y26322620D01*
X43905771Y26322620D02*
X43953390Y26417858D01*
X43953390Y26417858D02*
X44001009Y26465477D01*
X44001009Y26465477D02*
X44096247Y26513096D01*
X44096247Y26513096D02*
X44334342Y26513096D01*
X44334342Y26513096D02*
X44429580Y26465477D01*
X44429580Y26465477D02*
X44477200Y26417858D01*
X44477200Y26417858D02*
X44524819Y26322620D01*
X44524819Y26322620D02*
X44524819Y26084525D01*
X44524819Y26084525D02*
X44477200Y25989287D01*
X44477200Y25989287D02*
X44429580Y25941668D01*
X44429580Y42630953D02*
X44477200Y42583334D01*
X44477200Y42583334D02*
X44524819Y42440477D01*
X44524819Y42440477D02*
X44524819Y42345239D01*
X44524819Y42345239D02*
X44477200Y42202382D01*
X44477200Y42202382D02*
X44381961Y42107144D01*
X44381961Y42107144D02*
X44286723Y42059525D01*
X44286723Y42059525D02*
X44096247Y42011906D01*
X44096247Y42011906D02*
X43953390Y42011906D01*
X43953390Y42011906D02*
X43762914Y42059525D01*
X43762914Y42059525D02*
X43667676Y42107144D01*
X43667676Y42107144D02*
X43572438Y42202382D01*
X43572438Y42202382D02*
X43524819Y42345239D01*
X43524819Y42345239D02*
X43524819Y42440477D01*
X43524819Y42440477D02*
X43572438Y42583334D01*
X43572438Y42583334D02*
X43620057Y42630953D01*
X44524819Y43583334D02*
X44524819Y43011906D01*
X44524819Y43297620D02*
X43524819Y43297620D01*
X43524819Y43297620D02*
X43667676Y43202382D01*
X43667676Y43202382D02*
X43762914Y43107144D01*
X43762914Y43107144D02*
X43810533Y43011906D01*
X43524819Y44202382D02*
X43524819Y44297620D01*
X43524819Y44297620D02*
X43572438Y44392858D01*
X43572438Y44392858D02*
X43620057Y44440477D01*
X43620057Y44440477D02*
X43715295Y44488096D01*
X43715295Y44488096D02*
X43905771Y44535715D01*
X43905771Y44535715D02*
X44143866Y44535715D01*
X44143866Y44535715D02*
X44334342Y44488096D01*
X44334342Y44488096D02*
X44429580Y44440477D01*
X44429580Y44440477D02*
X44477200Y44392858D01*
X44477200Y44392858D02*
X44524819Y44297620D01*
X44524819Y44297620D02*
X44524819Y44202382D01*
X44524819Y44202382D02*
X44477200Y44107144D01*
X44477200Y44107144D02*
X44429580Y44059525D01*
X44429580Y44059525D02*
X44334342Y44011906D01*
X44334342Y44011906D02*
X44143866Y43964287D01*
X44143866Y43964287D02*
X43905771Y43964287D01*
X43905771Y43964287D02*
X43715295Y44011906D01*
X43715295Y44011906D02*
X43620057Y44059525D01*
X43620057Y44059525D02*
X43572438Y44107144D01*
X43572438Y44107144D02*
X43524819Y44202382D01*
X43858152Y45392858D02*
X44524819Y45392858D01*
X43477200Y45154763D02*
X44191485Y44916668D01*
X44191485Y44916668D02*
X44191485Y45535715D01*
D11*
X26610000Y3870000D02*
X27940000Y3870000D01*
X26610000Y2540000D02*
X26610000Y3870000D01*
X29210000Y3870000D02*
X47050000Y3870000D01*
X29210000Y1210000D02*
X29210000Y3870000D01*
X29210000Y1210000D02*
X47050000Y1210000D01*
X47050000Y1210000D02*
X47050000Y3870000D01*
X49470000Y3870000D02*
X50800000Y3870000D01*
X49470000Y2540000D02*
X49470000Y3870000D01*
X52070000Y3870000D02*
X64830000Y3870000D01*
X52070000Y1210000D02*
X52070000Y3870000D01*
X52070000Y1210000D02*
X64830000Y1210000D01*
X64830000Y1210000D02*
X64830000Y3870000D01*
X17466000Y52130000D02*
X18796000Y52130000D01*
X17466000Y50800000D02*
X17466000Y52130000D01*
X20066000Y52130000D02*
X42986000Y52130000D01*
X20066000Y49470000D02*
X20066000Y52130000D01*
X20066000Y49470000D02*
X42986000Y49470000D01*
X42986000Y49470000D02*
X42986000Y52130000D01*
X44390000Y52130000D02*
X45720000Y52130000D01*
X44390000Y50800000D02*
X44390000Y52130000D01*
X46990000Y52130000D02*
X64830000Y52130000D01*
X46990000Y49470000D02*
X46990000Y52130000D01*
X46990000Y49470000D02*
X64830000Y49470000D01*
X64830000Y49470000D02*
X64830000Y52130000D01*
X14285000Y43275000D02*
X14285000Y45225000D01*
X14285000Y43275000D02*
X14285000Y41325000D01*
X19405000Y43275000D02*
X19405000Y45225000D01*
X19405000Y43275000D02*
X19405000Y41325000D01*
X14380000Y40575000D02*
X14050000Y40335000D01*
X14050000Y40815000D01*
X14380000Y40575000D01*
G36*
X14380000Y40575000D02*
G01*
X14050000Y40335000D01*
X14050000Y40815000D01*
X14380000Y40575000D01*
G37*
X21890000Y44360000D02*
X25740000Y44360000D01*
X21890000Y34704437D02*
X21890000Y44360000D01*
X22954437Y33640000D02*
X21890000Y34704437D01*
X22954437Y33640000D02*
X25740000Y33640000D01*
X23865000Y32775000D02*
X25115000Y32775000D01*
X24490000Y32150000D02*
X24490000Y33400000D01*
X31545563Y33640000D02*
X28760000Y33640000D01*
X31545563Y33640000D02*
X32610000Y34704437D01*
X32610000Y44360000D02*
X28760000Y44360000D01*
X32610000Y34704437D02*
X32610000Y44360000D01*
X11500000Y44400000D02*
X13500000Y44400000D01*
X11500000Y41600000D02*
X11500000Y44400000D01*
X13500000Y44400000D02*
X13500000Y41600000D01*
X13500000Y41600000D02*
X11500000Y41600000D01*
X22340000Y5961252D02*
X22340000Y4538748D01*
X24160000Y5961252D02*
X24160000Y4538748D01*
X28370000Y15270000D02*
X28640000Y15270000D01*
X28370000Y8850000D02*
X28370000Y15270000D01*
X35270000Y15270000D02*
X35000000Y15270000D01*
X35270000Y8850000D02*
X35270000Y15270000D01*
X35290000Y16450000D02*
X34960000Y16690000D01*
X35290000Y16930000D01*
X35290000Y16450000D01*
G36*
X35290000Y16450000D02*
G01*
X34960000Y16690000D01*
X35290000Y16930000D01*
X35290000Y16450000D01*
G37*
X24450000Y11240000D02*
X24450000Y16750000D01*
X24450000Y11240000D02*
X27750000Y11240000D01*
X27750000Y11240000D02*
X27750000Y16750000D01*
X37456359Y14380000D02*
X37763641Y14380000D01*
X37456359Y13620000D02*
X37763641Y13620000D01*
X44990000Y38609420D02*
X44990000Y38890580D01*
X46010000Y38609420D02*
X46010000Y38890580D01*
X44090000Y33813748D02*
X44090000Y35236252D01*
X45910000Y33813748D02*
X45910000Y35236252D01*
X43977064Y14160000D02*
X42522936Y14160000D01*
X43977064Y12340000D02*
X42522936Y12340000D01*
X16038748Y22660000D02*
X17461252Y22660000D01*
X16038748Y20840000D02*
X17461252Y20840000D01*
X43010000Y19150000D02*
X37200000Y19150000D01*
X43010000Y14850000D02*
X37200000Y14850000D01*
X43010000Y14850000D02*
X43010000Y19150000D01*
X33240000Y33140580D02*
X33240000Y32859420D01*
X34260000Y33140580D02*
X34260000Y32859420D01*
X46880000Y46921000D02*
X61120000Y46921000D01*
X46880000Y34380000D02*
X46880000Y46921000D01*
X46880000Y34380000D02*
X61120000Y34380000D01*
X47000000Y46000000D02*
X61000000Y46000000D01*
X47000000Y41000000D02*
X47000000Y46000000D01*
X47000000Y41000000D02*
X61000000Y41000000D01*
X47000000Y41000000D02*
X61000000Y41000000D01*
X47000000Y36000000D02*
X47000000Y41000000D01*
X47000000Y36000000D02*
X61000000Y36000000D01*
X47350000Y44000000D02*
X49849000Y44000000D01*
X47350000Y43000000D02*
X47350000Y44000000D01*
X47350000Y43000000D02*
X49849000Y43000000D01*
X47350000Y39000000D02*
X49849000Y39000000D01*
X47350000Y38000000D02*
X47350000Y39000000D01*
X47350000Y38000000D02*
X49849000Y38000000D01*
X49849000Y43000000D02*
X49849000Y44000000D01*
X49849000Y38000000D02*
X49849000Y39000000D01*
X51500000Y44230000D02*
X51500000Y46921000D01*
X51500000Y39230000D02*
X51500000Y41770000D01*
X51500000Y34380000D02*
X51500000Y36770000D01*
X54300000Y34380000D02*
X54300000Y46921000D01*
X54700000Y45500000D02*
X55700000Y45500000D01*
X54700000Y41500000D02*
X54700000Y45500000D01*
X54700000Y41500000D02*
X55700000Y41500000D01*
X54700000Y40500000D02*
X55700000Y40500000D01*
X54700000Y36500000D02*
X54700000Y40500000D01*
X54700000Y36500000D02*
X55700000Y36500000D01*
X55700000Y44230000D02*
X55700000Y45500000D01*
X55700000Y41500000D02*
X55700000Y41770000D01*
X55700000Y39230000D02*
X55700000Y40500000D01*
X55700000Y36500000D02*
X55700000Y36770000D01*
X56400000Y45500000D02*
X59700000Y45500000D01*
X56400000Y44230000D02*
X56400000Y45500000D01*
X56400000Y41500000D02*
X56400000Y41770000D01*
X56400000Y41500000D02*
X59700000Y41500000D01*
X56400000Y40500000D02*
X59700000Y40500000D01*
X56400000Y39230000D02*
X56400000Y40500000D01*
X56400000Y36500000D02*
X56400000Y36770000D01*
X56400000Y36500000D02*
X59700000Y36500000D01*
X59700000Y41500000D02*
X59700000Y45500000D01*
X59700000Y36500000D02*
X59700000Y40500000D01*
X60000000Y34380000D02*
X60000000Y46921000D01*
X60120000Y34140000D02*
X61360000Y34140000D01*
X61000000Y41000000D02*
X61000000Y46000000D01*
X61000000Y36000000D02*
X61000000Y41000000D01*
X61120000Y34380000D02*
X61120000Y46921000D01*
X61360000Y34140000D02*
X61360000Y35140000D01*
X33240000Y21134420D02*
X33240000Y21415580D01*
X34260000Y21134420D02*
X34260000Y21415580D01*
D12*
X35800000Y30750000D02*
X35800000Y28150000D01*
X35800000Y30750000D02*
X42200000Y30750000D01*
X35800000Y23250000D02*
X35800000Y25850000D01*
X42200000Y30750000D02*
X42200000Y28150000D01*
X42200000Y23250000D02*
X35800000Y23250000D01*
X42200000Y23250000D02*
X42200000Y25850000D01*
D13*
X36600000Y20800000D02*
G75*
G02*
X36400000Y20800000I-100000J0D01*
G01*
X36400000Y20800000D02*
G75*
G02*
X36600000Y20800000I100000J0D01*
G01*
D11*
X44990000Y29584420D02*
X44990000Y29865580D01*
X46010000Y29584420D02*
X46010000Y29865580D01*
X13163641Y46130000D02*
X12856359Y46130000D01*
X13163641Y45370000D02*
X12856359Y45370000D01*
X44240000Y16390580D02*
X44240000Y16109420D01*
X45260000Y16390580D02*
X45260000Y16109420D01*
X21890000Y30610000D02*
X25740000Y30610000D01*
X21890000Y20954437D02*
X21890000Y30610000D01*
X22954437Y19890000D02*
X21890000Y20954437D01*
X22954437Y19890000D02*
X25740000Y19890000D01*
X23865000Y19025000D02*
X25115000Y19025000D01*
X24490000Y18400000D02*
X24490000Y19650000D01*
X31545563Y19890000D02*
X28760000Y19890000D01*
X31545563Y19890000D02*
X32610000Y20954437D01*
X32610000Y30610000D02*
X28760000Y30610000D01*
X32610000Y20954437D02*
X32610000Y30610000D01*
X46260000Y8400000D02*
X40750000Y8400000D01*
X46260000Y5100000D02*
X40750000Y5100000D01*
X46260000Y5100000D02*
X46260000Y8400000D01*
D12*
X35800000Y44750000D02*
X35800000Y42150000D01*
X35800000Y44750000D02*
X42200000Y44750000D01*
X35800000Y37250000D02*
X35800000Y39850000D01*
X42200000Y44750000D02*
X42200000Y42150000D01*
X42200000Y37250000D02*
X35800000Y37250000D01*
X42200000Y37250000D02*
X42200000Y39850000D01*
D13*
X36600000Y34800000D02*
G75*
G02*
X36400000Y34800000I-100000J0D01*
G01*
X36400000Y34800000D02*
G75*
G02*
X36600000Y34800000I100000J0D01*
G01*
D11*
X46880000Y18921000D02*
X61120000Y18921000D01*
X46880000Y6380000D02*
X46880000Y18921000D01*
X46880000Y6380000D02*
X61120000Y6380000D01*
X47000000Y18000000D02*
X61000000Y18000000D01*
X47000000Y13000000D02*
X47000000Y18000000D01*
X47000000Y13000000D02*
X61000000Y13000000D01*
X47000000Y13000000D02*
X61000000Y13000000D01*
X47000000Y8000000D02*
X47000000Y13000000D01*
X47000000Y8000000D02*
X61000000Y8000000D01*
X47350000Y16000000D02*
X49849000Y16000000D01*
X47350000Y15000000D02*
X47350000Y16000000D01*
X47350000Y15000000D02*
X49849000Y15000000D01*
X47350000Y11000000D02*
X49849000Y11000000D01*
X47350000Y10000000D02*
X47350000Y11000000D01*
X47350000Y10000000D02*
X49849000Y10000000D01*
X49849000Y15000000D02*
X49849000Y16000000D01*
X49849000Y10000000D02*
X49849000Y11000000D01*
X51500000Y16230000D02*
X51500000Y18921000D01*
X51500000Y11230000D02*
X51500000Y13770000D01*
X51500000Y6380000D02*
X51500000Y8770000D01*
X54300000Y6380000D02*
X54300000Y18921000D01*
X54700000Y17500000D02*
X55700000Y17500000D01*
X54700000Y13500000D02*
X54700000Y17500000D01*
X54700000Y13500000D02*
X55700000Y13500000D01*
X54700000Y12500000D02*
X55700000Y12500000D01*
X54700000Y8500000D02*
X54700000Y12500000D01*
X54700000Y8500000D02*
X55700000Y8500000D01*
X55700000Y16230000D02*
X55700000Y17500000D01*
X55700000Y13500000D02*
X55700000Y13770000D01*
X55700000Y11230000D02*
X55700000Y12500000D01*
X55700000Y8500000D02*
X55700000Y8770000D01*
X56400000Y17500000D02*
X59700000Y17500000D01*
X56400000Y16230000D02*
X56400000Y17500000D01*
X56400000Y13500000D02*
X56400000Y13770000D01*
X56400000Y13500000D02*
X59700000Y13500000D01*
X56400000Y12500000D02*
X59700000Y12500000D01*
X56400000Y11230000D02*
X56400000Y12500000D01*
X56400000Y8500000D02*
X56400000Y8770000D01*
X56400000Y8500000D02*
X59700000Y8500000D01*
X59700000Y13500000D02*
X59700000Y17500000D01*
X59700000Y8500000D02*
X59700000Y12500000D01*
X60000000Y6380000D02*
X60000000Y18921000D01*
X60120000Y6140000D02*
X61360000Y6140000D01*
X61000000Y13000000D02*
X61000000Y18000000D01*
X61000000Y8000000D02*
X61000000Y13000000D01*
X61120000Y6380000D02*
X61120000Y18921000D01*
X61360000Y6140000D02*
X61360000Y7140000D01*
X46880000Y32921000D02*
X61120000Y32921000D01*
X46880000Y20380000D02*
X46880000Y32921000D01*
X46880000Y20380000D02*
X61120000Y20380000D01*
X47000000Y32000000D02*
X61000000Y32000000D01*
X47000000Y27000000D02*
X47000000Y32000000D01*
X47000000Y27000000D02*
X61000000Y27000000D01*
X47000000Y27000000D02*
X61000000Y27000000D01*
X47000000Y22000000D02*
X47000000Y27000000D01*
X47000000Y22000000D02*
X61000000Y22000000D01*
X47350000Y30000000D02*
X49849000Y30000000D01*
X47350000Y29000000D02*
X47350000Y30000000D01*
X47350000Y29000000D02*
X49849000Y29000000D01*
X47350000Y25000000D02*
X49849000Y25000000D01*
X47350000Y24000000D02*
X47350000Y25000000D01*
X47350000Y24000000D02*
X49849000Y24000000D01*
X49849000Y29000000D02*
X49849000Y30000000D01*
X49849000Y24000000D02*
X49849000Y25000000D01*
X51500000Y30230000D02*
X51500000Y32921000D01*
X51500000Y25230000D02*
X51500000Y27770000D01*
X51500000Y20380000D02*
X51500000Y22770000D01*
X54300000Y20380000D02*
X54300000Y32921000D01*
X54700000Y31500000D02*
X55700000Y31500000D01*
X54700000Y27500000D02*
X54700000Y31500000D01*
X54700000Y27500000D02*
X55700000Y27500000D01*
X54700000Y26500000D02*
X55700000Y26500000D01*
X54700000Y22500000D02*
X54700000Y26500000D01*
X54700000Y22500000D02*
X55700000Y22500000D01*
X55700000Y30230000D02*
X55700000Y31500000D01*
X55700000Y27500000D02*
X55700000Y27770000D01*
X55700000Y25230000D02*
X55700000Y26500000D01*
X55700000Y22500000D02*
X55700000Y22770000D01*
X56400000Y31500000D02*
X59700000Y31500000D01*
X56400000Y30230000D02*
X56400000Y31500000D01*
X56400000Y27500000D02*
X56400000Y27770000D01*
X56400000Y27500000D02*
X59700000Y27500000D01*
X56400000Y26500000D02*
X59700000Y26500000D01*
X56400000Y25230000D02*
X56400000Y26500000D01*
X56400000Y22500000D02*
X56400000Y22770000D01*
X56400000Y22500000D02*
X59700000Y22500000D01*
X59700000Y27500000D02*
X59700000Y31500000D01*
X59700000Y22500000D02*
X59700000Y26500000D01*
X60000000Y20380000D02*
X60000000Y32921000D01*
X60120000Y20140000D02*
X61360000Y20140000D01*
X61000000Y27000000D02*
X61000000Y32000000D01*
X61000000Y22000000D02*
X61000000Y27000000D01*
X61120000Y20380000D02*
X61120000Y32921000D01*
X61360000Y20140000D02*
X61360000Y21140000D01*
X18840000Y5936252D02*
X18840000Y4513748D01*
X20660000Y5936252D02*
X20660000Y4513748D01*
X12992500Y20058000D02*
X12992500Y18818000D01*
X13232500Y19818000D02*
X13232500Y8097000D01*
X14232500Y20058000D02*
X12992500Y20058000D01*
X21852500Y19818000D02*
X13232500Y19818000D01*
X21852500Y19818000D02*
X21852500Y8097000D01*
X21852500Y8097000D02*
X13232500Y8097000D01*
X43840000Y19788748D02*
X43840000Y21211252D01*
X45660000Y19788748D02*
X45660000Y21211252D01*
X44990000Y24634420D02*
X44990000Y24915580D01*
X46010000Y24634420D02*
X46010000Y24915580D01*
X44990000Y43609420D02*
X44990000Y43890580D01*
X46010000Y43609420D02*
X46010000Y43890580D01*
M02*
