G04 #@! TF.GenerationSoftware,KiCad,Pcbnew,8.0.8+1*
G04 #@! TF.CreationDate,2025-03-25T15:29:21+00:00*
G04 #@! TF.ProjectId,dc_shield,64635f73-6869-4656-9c64-2e6b69636164,rev?*
G04 #@! TF.SameCoordinates,Original*
G04 #@! TF.FileFunction,Copper,L3,Inr*
G04 #@! TF.FilePolarity,Positive*
%FSLAX46Y46*%
G04 Gerber Fmt 4.6, Leading zero omitted, Abs format (unit mm)*
G04 Created by KiCad (PCBNEW 8.0.8+1) date 2025-03-25 15:29:21*
%MOMM*%
%LPD*%
G01*
G04 APERTURE LIST*
G04 #@! TA.AperFunction,ComponentPad*
%ADD10R,1.700000X1.700000*%
G04 #@! TD*
G04 #@! TA.AperFunction,ComponentPad*
%ADD11O,1.700000X1.700000*%
G04 #@! TD*
G04 #@! TA.AperFunction,ComponentPad*
%ADD12R,3.000000X1.500000*%
G04 #@! TD*
G04 #@! TA.AperFunction,ComponentPad*
%ADD13O,3.000000X1.500000*%
G04 #@! TD*
G04 #@! TA.AperFunction,ComponentPad*
%ADD14R,2.300000X1.500000*%
G04 #@! TD*
G04 #@! TA.AperFunction,ComponentPad*
%ADD15O,2.300000X1.500000*%
G04 #@! TD*
G04 #@! TA.AperFunction,ViaPad*
%ADD16C,0.600000*%
G04 #@! TD*
G04 #@! TA.AperFunction,Conductor*
%ADD17C,0.600000*%
G04 #@! TD*
G04 #@! TA.AperFunction,Conductor*
%ADD18C,0.250000*%
G04 #@! TD*
G04 APERTURE END LIST*
D10*
X27940000Y2540000D03*
D11*
X30480000Y2540000D03*
X33020000Y2540000D03*
X35560000Y2540000D03*
X38100000Y2540000D03*
X40640000Y2540000D03*
X43180000Y2540000D03*
X45720000Y2540000D03*
D10*
X50800000Y2540000D03*
D11*
X53340000Y2540000D03*
X55880000Y2540000D03*
X58420000Y2540000D03*
X60960000Y2540000D03*
X63500000Y2540000D03*
D10*
X18796000Y50800000D03*
D11*
X21336000Y50800000D03*
X23876000Y50800000D03*
X26416000Y50800000D03*
X28956000Y50800000D03*
X31496000Y50800000D03*
X34036000Y50800000D03*
X36576000Y50800000D03*
X39116000Y50800000D03*
X41656000Y50800000D03*
D10*
X45720000Y50800000D03*
D11*
X48260000Y50800000D03*
X50800000Y50800000D03*
X53340000Y50800000D03*
X55880000Y50800000D03*
X58420000Y50800000D03*
X60960000Y50800000D03*
X63500000Y50800000D03*
D12*
X52000000Y38000000D03*
X57000000Y38000000D03*
D13*
X52000000Y43000000D03*
X57000000Y43000000D03*
D12*
X52000000Y10000000D03*
X57000000Y10000000D03*
D13*
X52000000Y15000000D03*
X57000000Y15000000D03*
D12*
X52000000Y24000000D03*
X57000000Y24000000D03*
D13*
X52000000Y29000000D03*
X57000000Y29000000D03*
D14*
X15292500Y16447000D03*
D15*
X15292500Y13907000D03*
X15292500Y11367000D03*
D16*
X17750000Y20250000D03*
X35000000Y29000000D03*
X25000000Y30000000D03*
X35000000Y43000000D03*
X35000000Y30000000D03*
X29000000Y43000000D03*
X25000000Y29000000D03*
X35000000Y31000000D03*
X29000000Y41000000D03*
X25000000Y31000000D03*
X25000000Y28000000D03*
X20250000Y22500000D03*
X36000000Y30000000D03*
X19500000Y22500000D03*
X18500000Y20250000D03*
X29000000Y44000000D03*
X20250000Y21750000D03*
X35000000Y44000000D03*
X29000000Y42000000D03*
X36000000Y44000000D03*
X35000000Y45000000D03*
X17000000Y20250000D03*
X19250000Y20250000D03*
X16840000Y28300000D03*
X16840000Y36360000D03*
X8000000Y22250000D03*
X8000000Y30250000D03*
X38500000Y30750000D03*
X38484942Y47234942D03*
X39500000Y29949997D03*
X39500000Y47250000D03*
X39500000Y30750000D03*
X35750000Y36025000D03*
X35750000Y32000000D03*
X36500000Y23500000D03*
X37500000Y23500000D03*
X15500000Y44250000D03*
X29050000Y37200000D03*
X31250000Y17000000D03*
X43500000Y17025000D03*
X38500000Y23500000D03*
X40500000Y44750000D03*
X37250000Y30750000D03*
X19400000Y28300000D03*
X13500000Y27000000D03*
X19390000Y36370000D03*
X13500000Y35000000D03*
X12250000Y29500000D03*
X18100000Y28300000D03*
X12250000Y37250000D03*
X18110000Y36370000D03*
D17*
X16840000Y28300000D02*
X16840000Y36360000D01*
X16840000Y23800000D02*
X17820000Y22820000D01*
X16840000Y28300000D02*
X16840000Y23800000D01*
X17820000Y22820000D02*
X38100000Y2540000D01*
D18*
X35775000Y36025000D02*
X48260000Y48510000D01*
X48260000Y48510000D02*
X48260000Y50800000D01*
X35750000Y36025000D02*
X35775000Y36025000D01*
X35750000Y32000000D02*
X50800000Y47050000D01*
X50800000Y47050000D02*
X50800000Y50800000D01*
X55880000Y44609720D02*
X55880000Y50800000D01*
X36500000Y25229720D02*
X55880000Y44609720D01*
X36500000Y23500000D02*
X36500000Y25229720D01*
X37250000Y30750000D02*
X53340000Y46840000D01*
X53340000Y46840000D02*
X53340000Y50800000D01*
M02*
