M48
; DRILL file {KiCad 8.0.3+1} date 2024-07-01T12:39:06+0000
; FORMAT={-:-/ absolute / inch / decimal}
; #@! TF.CreationDate,2024-07-01T12:39:06+00:00
; #@! TF.GenerationSoftware,Kicad,Pcbnew,8.0.3+1
; #@! TF.FileFunction,Plated,1,4,PTH
FMAT,2
INCH
; #@! TA.AperFunction,Plated,PTH,ViaDrill
T1C0.0157
; #@! TA.AperFunction,Plated,PTH,ComponentDrill
T2C0.0394
; #@! TA.AperFunction,Plated,PTH,ComponentDrill
T3C0.0453
%
G90
G05
T1
X4.5472Y-2.1949
X4.9213Y-2.7165
X4.9213Y-2.7559
X4.9213Y-2.7953
X4.9213Y-2.8346
X5.0787Y-2.2047
X5.0787Y-2.2441
X5.0787Y-2.2835
X5.0787Y-2.3228
X5.0807Y-2.4724
X5.315Y-2.1654
X5.315Y-2.2047
X5.315Y-2.2441
X5.315Y-2.7165
X5.315Y-2.7559
X5.315Y-2.7953
X5.3445Y-2.5187
X5.3445Y-2.6772
X5.3543Y-2.2047
X5.3543Y-2.7559
X5.374Y-3.0118
X5.4035Y-2.7264
X5.4134Y-3.0118
X5.4522Y-2.0774
X5.4528Y-2.7264
X5.4528Y-3.0118
X5.4921Y-2.0768
X5.4921Y-2.7264
X5.4921Y-2.7579
X5.5315Y-2.1752
T2
X4.5391Y-3.2895
X4.5391Y-3.3895
X4.5391Y-3.4895
X4.677Y-1.937
X4.777Y-1.937
X4.877Y-1.937
X4.977Y-1.937
X5.037Y-3.837
X5.077Y-1.937
X5.137Y-3.837
X5.177Y-1.937
X5.237Y-3.837
X5.277Y-1.937
X5.337Y-3.837
X5.377Y-1.937
X5.437Y-3.837
X5.477Y-1.937
X5.537Y-3.837
X5.577Y-1.937
X5.637Y-3.837
X5.737Y-1.937
X5.737Y-3.837
X5.837Y-1.937
X5.937Y-1.937
X5.937Y-3.837
X6.037Y-1.937
X6.037Y-3.837
X6.137Y-1.937
X6.137Y-3.837
X6.237Y-1.937
X6.237Y-3.837
X6.337Y-1.937
X6.337Y-3.837
X6.437Y-1.937
X6.437Y-3.837
T3
X5.9843Y-2.2441
X5.9843Y-2.4409
X5.9843Y-2.7953
X5.9843Y-2.9921
X5.9843Y-3.3465
X5.9843Y-3.5433
X6.1811Y-2.2441
X6.1811Y-2.4409
X6.1811Y-2.7953
X6.1811Y-2.9921
X6.1811Y-3.3465
X6.1811Y-3.5433
M30
