%TF.GenerationSoftware,KiCad,Pcbnew,8.0.8+1*%
%TF.CreationDate,2025-03-25T14:10:32+00:00*%
%TF.ProjectId,dc_shield,64635f73-6869-4656-9c64-2e6b69636164,rev?*%
%TF.SameCoordinates,Original*%
%TF.FileFunction,Plated,1,4,PTH,Drill*%
%TF.FilePolarity,Positive*%
%FSLAX46Y46*%
G04 Gerber Fmt 4.6, Leading zero omitted, Abs format (unit mm)*
G04 Created by KiCad (PCBNEW 8.0.8+1) date 2025-03-25 14:10:32*
%MOMM*%
%LPD*%
G01*
G04 APERTURE LIST*
%TA.AperFunction,ViaDrill*%
%ADD10C,0.400000*%
%TD*%
%TA.AperFunction,ComponentDrill*%
%ADD11C,1.000000*%
%TD*%
%TA.AperFunction,ComponentDrill*%
%ADD12C,1.150000*%
%TD*%
G04 APERTURE END LIST*
D10*
X108000000Y-69750000D03*
X108000000Y-77750000D03*
X112250000Y-62750000D03*
X112250000Y-70500000D03*
X113500000Y-65000000D03*
X113500000Y-73000000D03*
X115500000Y-55750000D03*
X116840000Y-63640000D03*
X116840000Y-71700000D03*
X117000000Y-79750000D03*
X117750000Y-79750000D03*
X118100000Y-71700000D03*
X118110000Y-63630000D03*
X118500000Y-79750000D03*
X119250000Y-79750000D03*
X119390000Y-63630000D03*
X119400000Y-71700000D03*
X119500000Y-77500000D03*
X120250000Y-77500000D03*
X120250000Y-78250000D03*
X125000000Y-69000000D03*
X125000000Y-70000000D03*
X125000000Y-71000000D03*
X125000000Y-72000000D03*
X129000000Y-56000000D03*
X129000000Y-57000000D03*
X129000000Y-58000000D03*
X129000000Y-59000000D03*
X129050000Y-62800000D03*
X131250000Y-83000000D03*
X135000000Y-55000000D03*
X135000000Y-56000000D03*
X135000000Y-57000000D03*
X135000000Y-69000000D03*
X135000000Y-70000000D03*
X135000000Y-71000000D03*
X135750000Y-63975000D03*
X135750000Y-68000000D03*
X136000000Y-56000000D03*
X136000000Y-70000000D03*
X136500000Y-76500000D03*
X137250000Y-69250000D03*
X137500000Y-76500000D03*
X138484942Y-52765058D03*
X138500000Y-69250000D03*
X138500000Y-76500000D03*
X139500000Y-52750000D03*
X139500000Y-69250000D03*
X139500000Y-70050003D03*
X140500000Y-55250000D03*
X143500000Y-82975000D03*
D11*
%TO.C,U101*%
X115292500Y-83553000D03*
X115292500Y-86093000D03*
X115292500Y-88633000D03*
%TO.C,J104*%
X118796000Y-49200000D03*
X121336000Y-49200000D03*
X123876000Y-49200000D03*
X126416000Y-49200000D03*
%TO.C,J102*%
X127940000Y-97460000D03*
%TO.C,J104*%
X128956000Y-49200000D03*
%TO.C,J102*%
X130480000Y-97460000D03*
%TO.C,J104*%
X131496000Y-49200000D03*
%TO.C,J102*%
X133020000Y-97460000D03*
%TO.C,J104*%
X134036000Y-49200000D03*
%TO.C,J102*%
X135560000Y-97460000D03*
%TO.C,J104*%
X136576000Y-49200000D03*
%TO.C,J102*%
X138100000Y-97460000D03*
%TO.C,J104*%
X139116000Y-49200000D03*
%TO.C,J102*%
X140640000Y-97460000D03*
%TO.C,J104*%
X141656000Y-49200000D03*
%TO.C,J102*%
X143180000Y-97460000D03*
%TO.C,J105*%
X145720000Y-49200000D03*
%TO.C,J102*%
X145720000Y-97460000D03*
%TO.C,J105*%
X148260000Y-49200000D03*
X150800000Y-49200000D03*
%TO.C,J103*%
X150800000Y-97460000D03*
%TO.C,J105*%
X153340000Y-49200000D03*
%TO.C,J103*%
X153340000Y-97460000D03*
%TO.C,J105*%
X155880000Y-49200000D03*
%TO.C,J103*%
X155880000Y-97460000D03*
%TO.C,J105*%
X158420000Y-49200000D03*
%TO.C,J103*%
X158420000Y-97460000D03*
%TO.C,J105*%
X160960000Y-49200000D03*
%TO.C,J103*%
X160960000Y-97460000D03*
%TO.C,J105*%
X163500000Y-49200000D03*
%TO.C,J103*%
X163500000Y-97460000D03*
D12*
%TO.C,J107*%
X152000000Y-57000000D03*
X152000000Y-62000000D03*
%TO.C,J106*%
X152000000Y-71000000D03*
X152000000Y-76000000D03*
%TO.C,J101*%
X152000000Y-85000000D03*
X152000000Y-90000000D03*
%TO.C,J107*%
X157000000Y-57000000D03*
X157000000Y-62000000D03*
%TO.C,J106*%
X157000000Y-71000000D03*
X157000000Y-76000000D03*
%TO.C,J101*%
X157000000Y-85000000D03*
X157000000Y-90000000D03*
M02*
