%TF.GenerationSoftware,KiCad,Pcbnew,8.0.3+1*%
%TF.CreationDate,2024-07-01T12:39:06+00:00*%
%TF.ProjectId,dc_shield,64635f73-6869-4656-9c64-2e6b69636164,rev?*%
%TF.SameCoordinates,Original*%
%TF.FileFunction,Paste,Top*%
%TF.FilePolarity,Positive*%
%FSLAX46Y46*%
G04 Gerber Fmt 4.6, Leading zero omitted, Abs format (unit mm)*
G04 Created by KiCad (PCBNEW 8.0.3+1) date 2024-07-01 12:39:06*
%MOMM*%
%LPD*%
G01*
G04 APERTURE LIST*
G04 Aperture macros list*
%AMRoundRect*
0 Rectangle with rounded corners*
0 $1 Rounding radius*
0 $2 $3 $4 $5 $6 $7 $8 $9 X,Y pos of 4 corners*
0 Add a 4 corners polygon primitive as box body*
4,1,4,$2,$3,$4,$5,$6,$7,$8,$9,$2,$3,0*
0 Add four circle primitives for the rounded corners*
1,1,$1+$1,$2,$3*
1,1,$1+$1,$4,$5*
1,1,$1+$1,$6,$7*
1,1,$1+$1,$8,$9*
0 Add four rect primitives between the rounded corners*
20,1,$1+$1,$2,$3,$4,$5,0*
20,1,$1+$1,$4,$5,$6,$7,0*
20,1,$1+$1,$6,$7,$8,$9,0*
20,1,$1+$1,$8,$9,$2,$3,0*%
G04 Aperture macros list end*
%ADD10C,0.010000*%
%ADD11RoundRect,0.150000X0.150000X-0.825000X0.150000X0.825000X-0.150000X0.825000X-0.150000X-0.825000X0*%
%ADD12RoundRect,0.250000X1.000000X-1.950000X1.000000X1.950000X-1.000000X1.950000X-1.000000X-1.950000X0*%
%ADD13RoundRect,0.250000X-0.650000X0.325000X-0.650000X-0.325000X0.650000X-0.325000X0.650000X0.325000X0*%
%ADD14RoundRect,0.250000X-0.350000X0.850000X-0.350000X-0.850000X0.350000X-0.850000X0.350000X0.850000X0*%
%ADD15RoundRect,0.250000X-1.125000X1.275000X-1.125000X-1.275000X1.125000X-1.275000X1.125000X1.275000X0*%
%ADD16RoundRect,0.250000X0.650000X-1.000000X0.650000X1.000000X-0.650000X1.000000X-0.650000X-1.000000X0*%
%ADD17RoundRect,0.135000X-0.135000X-0.185000X0.135000X-0.185000X0.135000X0.185000X-0.135000X0.185000X0*%
%ADD18RoundRect,0.225000X0.250000X-0.225000X0.250000X0.225000X-0.250000X0.225000X-0.250000X-0.225000X0*%
%ADD19RoundRect,0.250000X0.650000X-0.325000X0.650000X0.325000X-0.650000X0.325000X-0.650000X-0.325000X0*%
%ADD20RoundRect,0.250000X0.312500X0.625000X-0.312500X0.625000X-0.312500X-0.625000X0.312500X-0.625000X0*%
%ADD21RoundRect,0.250000X-0.325000X-0.650000X0.325000X-0.650000X0.325000X0.650000X-0.325000X0.650000X0*%
%ADD22RoundRect,0.250000X1.000000X0.900000X-1.000000X0.900000X-1.000000X-0.900000X1.000000X-0.900000X0*%
%ADD23RoundRect,0.225000X-0.250000X0.225000X-0.250000X-0.225000X0.250000X-0.225000X0.250000X0.225000X0*%
%ADD24R,0.650000X1.350000*%
%ADD25RoundRect,0.135000X0.135000X0.185000X-0.135000X0.185000X-0.135000X-0.185000X0.135000X-0.185000X0*%
%ADD26RoundRect,0.250000X1.000000X0.650000X-1.000000X0.650000X-1.000000X-0.650000X1.000000X-0.650000X0*%
G04 APERTURE END LIST*
D10*
%TO.C,U103*%
X136475000Y-73475000D02*
X134875000Y-73475000D01*
X134875000Y-72525000D01*
X136475000Y-72525000D01*
X136475000Y-73475000D01*
G36*
X136475000Y-73475000D02*
G01*
X134875000Y-73475000D01*
X134875000Y-72525000D01*
X136475000Y-72525000D01*
X136475000Y-73475000D01*
G37*
X138625000Y-72975000D02*
X136725000Y-72975000D01*
X136725000Y-70725000D01*
X138625000Y-70725000D01*
X138625000Y-72975000D01*
G36*
X138625000Y-72975000D02*
G01*
X136725000Y-72975000D01*
X136725000Y-70725000D01*
X138625000Y-70725000D01*
X138625000Y-72975000D01*
G37*
X138625000Y-75275000D02*
X136725000Y-75275000D01*
X136725000Y-73025000D01*
X138625000Y-73025000D01*
X138625000Y-75275000D01*
G36*
X138625000Y-75275000D02*
G01*
X136725000Y-75275000D01*
X136725000Y-73025000D01*
X138625000Y-73025000D01*
X138625000Y-75275000D01*
G37*
X141275000Y-72975000D02*
X139375000Y-72975000D01*
X139375000Y-70725000D01*
X141275000Y-70725000D01*
X141275000Y-72975000D01*
G36*
X141275000Y-72975000D02*
G01*
X139375000Y-72975000D01*
X139375000Y-70725000D01*
X141275000Y-70725000D01*
X141275000Y-72975000D01*
G37*
X141275000Y-75275000D02*
X139375000Y-75275000D01*
X139375000Y-73025000D01*
X141275000Y-73025000D01*
X141275000Y-75275000D01*
G36*
X141275000Y-75275000D02*
G01*
X139375000Y-75275000D01*
X139375000Y-73025000D01*
X141275000Y-73025000D01*
X141275000Y-75275000D01*
G37*
X143125000Y-73475000D02*
X141525000Y-73475000D01*
X141525000Y-72525000D01*
X143125000Y-72525000D01*
X143125000Y-73475000D01*
G36*
X143125000Y-73475000D02*
G01*
X141525000Y-73475000D01*
X141525000Y-72525000D01*
X143125000Y-72525000D01*
X143125000Y-73475000D01*
G37*
%TO.C,U104*%
X136475000Y-59475000D02*
X134875000Y-59475000D01*
X134875000Y-58525000D01*
X136475000Y-58525000D01*
X136475000Y-59475000D01*
G36*
X136475000Y-59475000D02*
G01*
X134875000Y-59475000D01*
X134875000Y-58525000D01*
X136475000Y-58525000D01*
X136475000Y-59475000D01*
G37*
X138625000Y-58975000D02*
X136725000Y-58975000D01*
X136725000Y-56725000D01*
X138625000Y-56725000D01*
X138625000Y-58975000D01*
G36*
X138625000Y-58975000D02*
G01*
X136725000Y-58975000D01*
X136725000Y-56725000D01*
X138625000Y-56725000D01*
X138625000Y-58975000D01*
G37*
X138625000Y-61275000D02*
X136725000Y-61275000D01*
X136725000Y-59025000D01*
X138625000Y-59025000D01*
X138625000Y-61275000D01*
G36*
X138625000Y-61275000D02*
G01*
X136725000Y-61275000D01*
X136725000Y-59025000D01*
X138625000Y-59025000D01*
X138625000Y-61275000D01*
G37*
X141275000Y-58975000D02*
X139375000Y-58975000D01*
X139375000Y-56725000D01*
X141275000Y-56725000D01*
X141275000Y-58975000D01*
G36*
X141275000Y-58975000D02*
G01*
X139375000Y-58975000D01*
X139375000Y-56725000D01*
X141275000Y-56725000D01*
X141275000Y-58975000D01*
G37*
X141275000Y-61275000D02*
X139375000Y-61275000D01*
X139375000Y-59025000D01*
X141275000Y-59025000D01*
X141275000Y-61275000D01*
G36*
X141275000Y-61275000D02*
G01*
X139375000Y-61275000D01*
X139375000Y-59025000D01*
X141275000Y-59025000D01*
X141275000Y-61275000D01*
G37*
X143125000Y-59475000D02*
X141525000Y-59475000D01*
X141525000Y-58525000D01*
X143125000Y-58525000D01*
X143125000Y-59475000D01*
G36*
X143125000Y-59475000D02*
G01*
X141525000Y-59475000D01*
X141525000Y-58525000D01*
X143125000Y-58525000D01*
X143125000Y-59475000D01*
G37*
%TD*%
D11*
%TO.C,U102*%
X114940000Y-59200000D03*
X116210000Y-59200000D03*
X117480000Y-59200000D03*
X118750000Y-59200000D03*
X118750000Y-54250000D03*
X117480000Y-54250000D03*
X116210000Y-54250000D03*
X114940000Y-54250000D03*
%TD*%
D12*
%TO.C,C107*%
X127250000Y-65200000D03*
X127250000Y-56800000D03*
%TD*%
D13*
%TO.C,C113*%
X123250000Y-93275000D03*
X123250000Y-96225000D03*
%TD*%
D14*
%TO.C,Q101*%
X134100000Y-83000000D03*
D15*
X133345000Y-87625000D03*
X130295000Y-87625000D03*
X133345000Y-90975000D03*
X130295000Y-90975000D03*
D14*
X129540000Y-83000000D03*
%TD*%
D16*
%TO.C,D101*%
X126100000Y-87250000D03*
X126100000Y-83250000D03*
%TD*%
D17*
%TO.C,R101*%
X137100000Y-86000000D03*
X138120000Y-86000000D03*
%TD*%
D18*
%TO.C,C106*%
X145500000Y-62025000D03*
X145500000Y-60475000D03*
%TD*%
D19*
%TO.C,C108*%
X145000000Y-66950000D03*
X145000000Y-64000000D03*
%TD*%
D20*
%TO.C,R102*%
X144712500Y-86750000D03*
X141787500Y-86750000D03*
%TD*%
D21*
%TO.C,C102*%
X115275000Y-78250000D03*
X118225000Y-78250000D03*
%TD*%
D22*
%TO.C,D102*%
X141500000Y-83000000D03*
X137200000Y-83000000D03*
%TD*%
D23*
%TO.C,C109*%
X133750000Y-66225000D03*
X133750000Y-67775000D03*
%TD*%
D18*
%TO.C,C112*%
X133750000Y-79500000D03*
X133750000Y-77950000D03*
%TD*%
D24*
%TO.C,U103*%
X136500000Y-77975000D03*
X137500000Y-77975000D03*
X138500000Y-77975000D03*
X139500000Y-77975000D03*
X140500000Y-77975000D03*
X141500000Y-77975000D03*
X141500000Y-68025000D03*
X140500000Y-68025000D03*
X139500000Y-68025000D03*
X138500000Y-68025000D03*
X137500000Y-68025000D03*
X136500000Y-68025000D03*
%TD*%
D18*
%TO.C,C103*%
X145500000Y-71050000D03*
X145500000Y-69500000D03*
%TD*%
D25*
%TO.C,R103*%
X113520000Y-54250000D03*
X112500000Y-54250000D03*
%TD*%
D23*
%TO.C,C101*%
X144750000Y-82975000D03*
X144750000Y-84525000D03*
%TD*%
D12*
%TO.C,C110*%
X127250000Y-78950000D03*
X127250000Y-70550000D03*
%TD*%
D26*
%TO.C,D103*%
X144750000Y-93250000D03*
X140750000Y-93250000D03*
%TD*%
D24*
%TO.C,U104*%
X136500000Y-63975000D03*
X137500000Y-63975000D03*
X138500000Y-63975000D03*
X139500000Y-63975000D03*
X140500000Y-63975000D03*
X141500000Y-63975000D03*
X141500000Y-54025000D03*
X140500000Y-54025000D03*
X139500000Y-54025000D03*
X138500000Y-54025000D03*
X137500000Y-54025000D03*
X136500000Y-54025000D03*
%TD*%
D13*
%TO.C,C114*%
X119750000Y-93300000D03*
X119750000Y-96250000D03*
%TD*%
D19*
%TO.C,C111*%
X144750000Y-80975000D03*
X144750000Y-78025000D03*
%TD*%
D18*
%TO.C,C105*%
X145500000Y-76000000D03*
X145500000Y-74450000D03*
%TD*%
%TO.C,C104*%
X145500000Y-57025000D03*
X145500000Y-55475000D03*
%TD*%
M02*
