%TF.GenerationSoftware,KiCad,Pcbnew,8.0.8+1*%
%TF.CreationDate,2025-03-25T20:35:48+00:00*%
%TF.ProjectId,dc_shield,64635f73-6869-4656-9c64-2e6b69636164,rev?*%
%TF.SameCoordinates,Original*%
%TF.FileFunction,Soldermask,Top*%
%TF.FilePolarity,Negative*%
%FSLAX46Y46*%
G04 Gerber Fmt 4.6, Leading zero omitted, Abs format (unit mm)*
G04 Created by KiCad (PCBNEW 8.0.8+1) date 2025-03-25 20:35:48*
%MOMM*%
%LPD*%
G01*
G04 APERTURE LIST*
G04 Aperture macros list*
%AMRoundRect*
0 Rectangle with rounded corners*
0 $1 Rounding radius*
0 $2 $3 $4 $5 $6 $7 $8 $9 X,Y pos of 4 corners*
0 Add a 4 corners polygon primitive as box body*
4,1,4,$2,$3,$4,$5,$6,$7,$8,$9,$2,$3,0*
0 Add four circle primitives for the rounded corners*
1,1,$1+$1,$2,$3*
1,1,$1+$1,$4,$5*
1,1,$1+$1,$6,$7*
1,1,$1+$1,$8,$9*
0 Add four rect primitives between the rounded corners*
20,1,$1+$1,$2,$3,$4,$5,0*
20,1,$1+$1,$4,$5,$6,$7,0*
20,1,$1+$1,$6,$7,$8,$9,0*
20,1,$1+$1,$8,$9,$2,$3,0*%
G04 Aperture macros list end*
%ADD10R,1.700000X1.700000*%
%ADD11O,1.700000X1.700000*%
%ADD12RoundRect,0.150000X0.150000X-0.825000X0.150000X0.825000X-0.150000X0.825000X-0.150000X-0.825000X0*%
%ADD13RoundRect,0.225000X0.375000X-0.225000X0.375000X0.225000X-0.375000X0.225000X-0.375000X-0.225000X0*%
%ADD14RoundRect,0.250000X1.000000X-1.950000X1.000000X1.950000X-1.000000X1.950000X-1.000000X-1.950000X0*%
%ADD15RoundRect,0.135000X0.135000X0.185000X-0.135000X0.185000X-0.135000X-0.185000X0.135000X-0.185000X0*%
%ADD16RoundRect,0.135000X0.185000X-0.135000X0.185000X0.135000X-0.185000X0.135000X-0.185000X-0.135000X0*%
%ADD17R,1.500000X1.000000*%
%ADD18RoundRect,0.250000X-0.650000X0.325000X-0.650000X-0.325000X0.650000X-0.325000X0.650000X0.325000X0*%
%ADD19RoundRect,0.250000X-0.350000X0.850000X-0.350000X-0.850000X0.350000X-0.850000X0.350000X0.850000X0*%
%ADD20RoundRect,0.249997X-2.650003X2.950003X-2.650003X-2.950003X2.650003X-2.950003X2.650003X2.950003X0*%
%ADD21RoundRect,0.250000X0.650000X-1.000000X0.650000X1.000000X-0.650000X1.000000X-0.650000X-1.000000X0*%
%ADD22RoundRect,0.135000X-0.135000X-0.185000X0.135000X-0.185000X0.135000X0.185000X-0.135000X0.185000X0*%
%ADD23RoundRect,0.225000X0.250000X-0.225000X0.250000X0.225000X-0.250000X0.225000X-0.250000X-0.225000X0*%
%ADD24RoundRect,0.250000X0.650000X-0.325000X0.650000X0.325000X-0.650000X0.325000X-0.650000X-0.325000X0*%
%ADD25RoundRect,0.250000X0.312500X0.625000X-0.312500X0.625000X-0.312500X-0.625000X0.312500X-0.625000X0*%
%ADD26RoundRect,0.225000X-0.225000X-0.250000X0.225000X-0.250000X0.225000X0.250000X-0.225000X0.250000X0*%
%ADD27RoundRect,0.250000X-0.325000X-0.650000X0.325000X-0.650000X0.325000X0.650000X-0.325000X0.650000X0*%
%ADD28RoundRect,0.250000X1.000000X0.900000X-1.000000X0.900000X-1.000000X-0.900000X1.000000X-0.900000X0*%
%ADD29RoundRect,0.225000X-0.250000X0.225000X-0.250000X-0.225000X0.250000X-0.225000X0.250000X0.225000X0*%
%ADD30RoundRect,0.225000X0.225000X0.250000X-0.225000X0.250000X-0.225000X-0.250000X0.225000X-0.250000X0*%
%ADD31R,3.000000X1.500000*%
%ADD32O,3.000000X1.500000*%
%ADD33RoundRect,0.102000X0.325000X-0.675000X0.325000X0.675000X-0.325000X0.675000X-0.325000X-0.675000X0*%
%ADD34RoundRect,0.102000X-0.325000X0.675000X-0.325000X-0.675000X0.325000X-0.675000X0.325000X0.675000X0*%
%ADD35RoundRect,0.102000X-2.550000X2.200000X-2.550000X-2.200000X2.550000X-2.200000X2.550000X2.200000X0*%
%ADD36RoundRect,0.102000X0.675000X0.900000X-0.675000X0.900000X-0.675000X-0.900000X0.675000X-0.900000X0*%
%ADD37C,3.200000*%
%ADD38RoundRect,0.250000X1.000000X0.650000X-1.000000X0.650000X-1.000000X-0.650000X1.000000X-0.650000X0*%
%ADD39R,2.300000X1.500000*%
%ADD40O,2.300000X1.500000*%
G04 APERTURE END LIST*
D10*
%TO.C,J102*%
X127940000Y-97460000D03*
D11*
X130480000Y-97460000D03*
X133020000Y-97460000D03*
X135560000Y-97460000D03*
X138100000Y-97460000D03*
X140640000Y-97460000D03*
X143180000Y-97460000D03*
X145720000Y-97460000D03*
%TD*%
D10*
%TO.C,J103*%
X150800000Y-97460000D03*
D11*
X153340000Y-97460000D03*
X155880000Y-97460000D03*
X158420000Y-97460000D03*
X160960000Y-97460000D03*
X163500000Y-97460000D03*
%TD*%
D10*
%TO.C,J104*%
X118796000Y-49200000D03*
D11*
X121336000Y-49200000D03*
X123876000Y-49200000D03*
X126416000Y-49200000D03*
X128956000Y-49200000D03*
X131496000Y-49200000D03*
X134036000Y-49200000D03*
X136576000Y-49200000D03*
X139116000Y-49200000D03*
X141656000Y-49200000D03*
%TD*%
D10*
%TO.C,J105*%
X145720000Y-49200000D03*
D11*
X148260000Y-49200000D03*
X150800000Y-49200000D03*
X153340000Y-49200000D03*
X155880000Y-49200000D03*
X158420000Y-49200000D03*
X160960000Y-49200000D03*
X163500000Y-49200000D03*
%TD*%
D12*
%TO.C,U102*%
X114940000Y-59200000D03*
X116210000Y-59200000D03*
X117480000Y-59200000D03*
X118750000Y-59200000D03*
X118750000Y-54250000D03*
X117480000Y-54250000D03*
X116210000Y-54250000D03*
X114940000Y-54250000D03*
%TD*%
D13*
%TO.C,D105*%
X108000000Y-66650000D03*
X108000000Y-63350000D03*
%TD*%
D14*
%TO.C,C107*%
X127250000Y-65200000D03*
X127250000Y-56800000D03*
%TD*%
D15*
%TO.C,R106*%
X112260000Y-71500000D03*
X111240000Y-71500000D03*
%TD*%
D16*
%TO.C,R105*%
X110000000Y-63510000D03*
X110000000Y-62490000D03*
%TD*%
D17*
%TO.C,JP101*%
X112500000Y-57650000D03*
X112500000Y-56350000D03*
%TD*%
D18*
%TO.C,C113*%
X123250000Y-93275000D03*
X123250000Y-96225000D03*
%TD*%
D19*
%TO.C,Q101*%
X134100000Y-83000000D03*
D20*
X131820000Y-89300000D03*
D19*
X129540000Y-83000000D03*
%TD*%
D21*
%TO.C,D101*%
X126100000Y-87250000D03*
X126100000Y-83250000D03*
%TD*%
D22*
%TO.C,R101*%
X137100000Y-86000000D03*
X138120000Y-86000000D03*
%TD*%
D23*
%TO.C,C106*%
X145500000Y-62025000D03*
X145500000Y-60475000D03*
%TD*%
D15*
%TO.C,R107*%
X112260000Y-63500000D03*
X111240000Y-63500000D03*
%TD*%
D24*
%TO.C,C108*%
X145000000Y-66950000D03*
X145000000Y-64000000D03*
%TD*%
D25*
%TO.C,R102*%
X144712500Y-86750000D03*
X141787500Y-86750000D03*
%TD*%
D12*
%TO.C,U105*%
X116845000Y-75475000D03*
X118115000Y-75475000D03*
X119385000Y-75475000D03*
X120655000Y-75475000D03*
X120655000Y-70525000D03*
X119385000Y-70525000D03*
X118115000Y-70525000D03*
X116845000Y-70525000D03*
%TD*%
D26*
%TO.C,C118*%
X107975000Y-76500000D03*
X109525000Y-76500000D03*
%TD*%
D27*
%TO.C,C102*%
X115275000Y-78250000D03*
X118225000Y-78250000D03*
%TD*%
D28*
%TO.C,D102*%
X141500000Y-83000000D03*
X137200000Y-83000000D03*
%TD*%
D29*
%TO.C,C109*%
X133750000Y-66225000D03*
X133750000Y-67775000D03*
%TD*%
D30*
%TO.C,C120*%
X138025000Y-94500000D03*
X136475000Y-94500000D03*
%TD*%
%TO.C,C115*%
X112525000Y-73000000D03*
X110975000Y-73000000D03*
%TD*%
D26*
%TO.C,C117*%
X107975000Y-68500000D03*
X109525000Y-68500000D03*
%TD*%
D31*
%TO.C,J107*%
X152000000Y-62000000D03*
X157000000Y-62000000D03*
D32*
X152000000Y-57000000D03*
X157000000Y-57000000D03*
%TD*%
D12*
%TO.C,U106*%
X116845000Y-66975000D03*
X118115000Y-66975000D03*
X119385000Y-66975000D03*
X120655000Y-66975000D03*
X120655000Y-62025000D03*
X119385000Y-62025000D03*
X118115000Y-62025000D03*
X116845000Y-62025000D03*
%TD*%
D23*
%TO.C,C112*%
X133750000Y-79500000D03*
X133750000Y-77950000D03*
%TD*%
%TO.C,C119*%
X115000000Y-63525000D03*
X115000000Y-61975000D03*
%TD*%
D33*
%TO.C,U103*%
X136500000Y-77975000D03*
X137500000Y-77975000D03*
X138500000Y-77975000D03*
X139500000Y-77975000D03*
X140500000Y-77975000D03*
X141500000Y-77975000D03*
D34*
X141500000Y-68025000D03*
X140500000Y-68025000D03*
X139500000Y-68025000D03*
X138500000Y-68025000D03*
X137500000Y-68025000D03*
X136500000Y-68025000D03*
D35*
X139000000Y-73000000D03*
D36*
X135775000Y-73000000D03*
X142225000Y-73000000D03*
%TD*%
D37*
%TO.C,MH1*%
X115240000Y-49200000D03*
%TD*%
D23*
%TO.C,C103*%
X145500000Y-71050000D03*
X145500000Y-69500000D03*
%TD*%
D15*
%TO.C,R103*%
X113520000Y-54250000D03*
X112500000Y-54250000D03*
%TD*%
D30*
%TO.C,C116*%
X112525000Y-65000000D03*
X110975000Y-65000000D03*
%TD*%
D13*
%TO.C,D104*%
X108000000Y-74650000D03*
X108000000Y-71350000D03*
%TD*%
D29*
%TO.C,C101*%
X144750000Y-82975000D03*
X144750000Y-84525000D03*
%TD*%
D14*
%TO.C,C110*%
X127250000Y-78950000D03*
X127250000Y-70550000D03*
%TD*%
D38*
%TO.C,D103*%
X144750000Y-93250000D03*
X140750000Y-93250000D03*
%TD*%
D33*
%TO.C,U104*%
X136500000Y-63975000D03*
X137500000Y-63975000D03*
X138500000Y-63975000D03*
X139500000Y-63975000D03*
X140500000Y-63975000D03*
X141500000Y-63975000D03*
D34*
X141500000Y-54025000D03*
X140500000Y-54025000D03*
X139500000Y-54025000D03*
X138500000Y-54025000D03*
X137500000Y-54025000D03*
X136500000Y-54025000D03*
D35*
X139000000Y-59000000D03*
D36*
X135775000Y-59000000D03*
X142225000Y-59000000D03*
%TD*%
D31*
%TO.C,J101*%
X152000000Y-90000000D03*
X157000000Y-90000000D03*
D32*
X152000000Y-85000000D03*
X157000000Y-85000000D03*
%TD*%
D16*
%TO.C,R104*%
X110000000Y-71510000D03*
X110000000Y-70490000D03*
%TD*%
D31*
%TO.C,J106*%
X152000000Y-76000000D03*
X157000000Y-76000000D03*
D32*
X152000000Y-71000000D03*
X157000000Y-71000000D03*
%TD*%
D18*
%TO.C,C114*%
X119750000Y-93300000D03*
X119750000Y-96250000D03*
%TD*%
D39*
%TO.C,U101*%
X115292500Y-83553000D03*
D40*
X115292500Y-86093000D03*
X115292500Y-88633000D03*
%TD*%
D37*
%TO.C,MH2*%
X113970000Y-97460000D03*
%TD*%
%TO.C,MH3*%
X166040000Y-64440000D03*
%TD*%
%TO.C,MH4*%
X166040000Y-92380000D03*
%TD*%
D24*
%TO.C,C111*%
X144750000Y-80975000D03*
X144750000Y-78025000D03*
%TD*%
D23*
%TO.C,C105*%
X145500000Y-76000000D03*
X145500000Y-74450000D03*
%TD*%
%TO.C,C104*%
X145500000Y-57025000D03*
X145500000Y-55475000D03*
%TD*%
M02*
