G04 #@! TF.GenerationSoftware,KiCad,Pcbnew,8.0.8+1*
G04 #@! TF.CreationDate,2025-03-25T13:32:44+00:00*
G04 #@! TF.ProjectId,dc_shield,64635f73-6869-4656-9c64-2e6b69636164,rev?*
G04 #@! TF.SameCoordinates,Original*
G04 #@! TF.FileFunction,Legend,Top*
G04 #@! TF.FilePolarity,Positive*
%FSLAX46Y46*%
G04 Gerber Fmt 4.6, Leading zero omitted, Abs format (unit mm)*
G04 Created by KiCad (PCBNEW 8.0.8+1) date 2025-03-25 13:32:44*
%MOMM*%
%LPD*%
G01*
G04 APERTURE LIST*
%ADD10C,0.150000*%
%ADD11C,0.120000*%
%ADD12C,0.127000*%
%ADD13C,0.200000*%
%ADD14R,1.700000X1.700000*%
%ADD15O,1.700000X1.700000*%
%ADD16R,1.500000X1.000000*%
%ADD17R,3.000000X1.500000*%
%ADD18O,3.000000X1.500000*%
%ADD19C,3.200000*%
%ADD20R,2.300000X1.500000*%
%ADD21O,2.300000X1.500000*%
G04 APERTURE END LIST*
D10*
X119704819Y-56464285D02*
X120514342Y-56464285D01*
X120514342Y-56464285D02*
X120609580Y-56416666D01*
X120609580Y-56416666D02*
X120657200Y-56369047D01*
X120657200Y-56369047D02*
X120704819Y-56273809D01*
X120704819Y-56273809D02*
X120704819Y-56083333D01*
X120704819Y-56083333D02*
X120657200Y-55988095D01*
X120657200Y-55988095D02*
X120609580Y-55940476D01*
X120609580Y-55940476D02*
X120514342Y-55892857D01*
X120514342Y-55892857D02*
X119704819Y-55892857D01*
X120704819Y-54892857D02*
X120704819Y-55464285D01*
X120704819Y-55178571D02*
X119704819Y-55178571D01*
X119704819Y-55178571D02*
X119847676Y-55273809D01*
X119847676Y-55273809D02*
X119942914Y-55369047D01*
X119942914Y-55369047D02*
X119990533Y-55464285D01*
X119704819Y-54273809D02*
X119704819Y-54178571D01*
X119704819Y-54178571D02*
X119752438Y-54083333D01*
X119752438Y-54083333D02*
X119800057Y-54035714D01*
X119800057Y-54035714D02*
X119895295Y-53988095D01*
X119895295Y-53988095D02*
X120085771Y-53940476D01*
X120085771Y-53940476D02*
X120323866Y-53940476D01*
X120323866Y-53940476D02*
X120514342Y-53988095D01*
X120514342Y-53988095D02*
X120609580Y-54035714D01*
X120609580Y-54035714D02*
X120657200Y-54083333D01*
X120657200Y-54083333D02*
X120704819Y-54178571D01*
X120704819Y-54178571D02*
X120704819Y-54273809D01*
X120704819Y-54273809D02*
X120657200Y-54369047D01*
X120657200Y-54369047D02*
X120609580Y-54416666D01*
X120609580Y-54416666D02*
X120514342Y-54464285D01*
X120514342Y-54464285D02*
X120323866Y-54511904D01*
X120323866Y-54511904D02*
X120085771Y-54511904D01*
X120085771Y-54511904D02*
X119895295Y-54464285D01*
X119895295Y-54464285D02*
X119800057Y-54416666D01*
X119800057Y-54416666D02*
X119752438Y-54369047D01*
X119752438Y-54369047D02*
X119704819Y-54273809D01*
X119800057Y-53559523D02*
X119752438Y-53511904D01*
X119752438Y-53511904D02*
X119704819Y-53416666D01*
X119704819Y-53416666D02*
X119704819Y-53178571D01*
X119704819Y-53178571D02*
X119752438Y-53083333D01*
X119752438Y-53083333D02*
X119800057Y-53035714D01*
X119800057Y-53035714D02*
X119895295Y-52988095D01*
X119895295Y-52988095D02*
X119990533Y-52988095D01*
X119990533Y-52988095D02*
X120133390Y-53035714D01*
X120133390Y-53035714D02*
X120704819Y-53607142D01*
X120704819Y-53607142D02*
X120704819Y-52988095D01*
X106454819Y-66690475D02*
X105454819Y-66690475D01*
X105454819Y-66690475D02*
X105454819Y-66452380D01*
X105454819Y-66452380D02*
X105502438Y-66309523D01*
X105502438Y-66309523D02*
X105597676Y-66214285D01*
X105597676Y-66214285D02*
X105692914Y-66166666D01*
X105692914Y-66166666D02*
X105883390Y-66119047D01*
X105883390Y-66119047D02*
X106026247Y-66119047D01*
X106026247Y-66119047D02*
X106216723Y-66166666D01*
X106216723Y-66166666D02*
X106311961Y-66214285D01*
X106311961Y-66214285D02*
X106407200Y-66309523D01*
X106407200Y-66309523D02*
X106454819Y-66452380D01*
X106454819Y-66452380D02*
X106454819Y-66690475D01*
X106454819Y-65166666D02*
X106454819Y-65738094D01*
X106454819Y-65452380D02*
X105454819Y-65452380D01*
X105454819Y-65452380D02*
X105597676Y-65547618D01*
X105597676Y-65547618D02*
X105692914Y-65642856D01*
X105692914Y-65642856D02*
X105740533Y-65738094D01*
X105454819Y-64547618D02*
X105454819Y-64452380D01*
X105454819Y-64452380D02*
X105502438Y-64357142D01*
X105502438Y-64357142D02*
X105550057Y-64309523D01*
X105550057Y-64309523D02*
X105645295Y-64261904D01*
X105645295Y-64261904D02*
X105835771Y-64214285D01*
X105835771Y-64214285D02*
X106073866Y-64214285D01*
X106073866Y-64214285D02*
X106264342Y-64261904D01*
X106264342Y-64261904D02*
X106359580Y-64309523D01*
X106359580Y-64309523D02*
X106407200Y-64357142D01*
X106407200Y-64357142D02*
X106454819Y-64452380D01*
X106454819Y-64452380D02*
X106454819Y-64547618D01*
X106454819Y-64547618D02*
X106407200Y-64642856D01*
X106407200Y-64642856D02*
X106359580Y-64690475D01*
X106359580Y-64690475D02*
X106264342Y-64738094D01*
X106264342Y-64738094D02*
X106073866Y-64785713D01*
X106073866Y-64785713D02*
X105835771Y-64785713D01*
X105835771Y-64785713D02*
X105645295Y-64738094D01*
X105645295Y-64738094D02*
X105550057Y-64690475D01*
X105550057Y-64690475D02*
X105502438Y-64642856D01*
X105502438Y-64642856D02*
X105454819Y-64547618D01*
X105454819Y-63309523D02*
X105454819Y-63785713D01*
X105454819Y-63785713D02*
X105931009Y-63833332D01*
X105931009Y-63833332D02*
X105883390Y-63785713D01*
X105883390Y-63785713D02*
X105835771Y-63690475D01*
X105835771Y-63690475D02*
X105835771Y-63452380D01*
X105835771Y-63452380D02*
X105883390Y-63357142D01*
X105883390Y-63357142D02*
X105931009Y-63309523D01*
X105931009Y-63309523D02*
X106026247Y-63261904D01*
X106026247Y-63261904D02*
X106264342Y-63261904D01*
X106264342Y-63261904D02*
X106359580Y-63309523D01*
X106359580Y-63309523D02*
X106407200Y-63357142D01*
X106407200Y-63357142D02*
X106454819Y-63452380D01*
X106454819Y-63452380D02*
X106454819Y-63690475D01*
X106454819Y-63690475D02*
X106407200Y-63785713D01*
X106407200Y-63785713D02*
X106359580Y-63833332D01*
X122380952Y-55109580D02*
X122333333Y-55157200D01*
X122333333Y-55157200D02*
X122190476Y-55204819D01*
X122190476Y-55204819D02*
X122095238Y-55204819D01*
X122095238Y-55204819D02*
X121952381Y-55157200D01*
X121952381Y-55157200D02*
X121857143Y-55061961D01*
X121857143Y-55061961D02*
X121809524Y-54966723D01*
X121809524Y-54966723D02*
X121761905Y-54776247D01*
X121761905Y-54776247D02*
X121761905Y-54633390D01*
X121761905Y-54633390D02*
X121809524Y-54442914D01*
X121809524Y-54442914D02*
X121857143Y-54347676D01*
X121857143Y-54347676D02*
X121952381Y-54252438D01*
X121952381Y-54252438D02*
X122095238Y-54204819D01*
X122095238Y-54204819D02*
X122190476Y-54204819D01*
X122190476Y-54204819D02*
X122333333Y-54252438D01*
X122333333Y-54252438D02*
X122380952Y-54300057D01*
X123333333Y-55204819D02*
X122761905Y-55204819D01*
X123047619Y-55204819D02*
X123047619Y-54204819D01*
X123047619Y-54204819D02*
X122952381Y-54347676D01*
X122952381Y-54347676D02*
X122857143Y-54442914D01*
X122857143Y-54442914D02*
X122761905Y-54490533D01*
X123952381Y-54204819D02*
X124047619Y-54204819D01*
X124047619Y-54204819D02*
X124142857Y-54252438D01*
X124142857Y-54252438D02*
X124190476Y-54300057D01*
X124190476Y-54300057D02*
X124238095Y-54395295D01*
X124238095Y-54395295D02*
X124285714Y-54585771D01*
X124285714Y-54585771D02*
X124285714Y-54823866D01*
X124285714Y-54823866D02*
X124238095Y-55014342D01*
X124238095Y-55014342D02*
X124190476Y-55109580D01*
X124190476Y-55109580D02*
X124142857Y-55157200D01*
X124142857Y-55157200D02*
X124047619Y-55204819D01*
X124047619Y-55204819D02*
X123952381Y-55204819D01*
X123952381Y-55204819D02*
X123857143Y-55157200D01*
X123857143Y-55157200D02*
X123809524Y-55109580D01*
X123809524Y-55109580D02*
X123761905Y-55014342D01*
X123761905Y-55014342D02*
X123714286Y-54823866D01*
X123714286Y-54823866D02*
X123714286Y-54585771D01*
X123714286Y-54585771D02*
X123761905Y-54395295D01*
X123761905Y-54395295D02*
X123809524Y-54300057D01*
X123809524Y-54300057D02*
X123857143Y-54252438D01*
X123857143Y-54252438D02*
X123952381Y-54204819D01*
X124619048Y-54204819D02*
X125285714Y-54204819D01*
X125285714Y-54204819D02*
X124857143Y-55204819D01*
X111380952Y-70704819D02*
X111047619Y-70228628D01*
X110809524Y-70704819D02*
X110809524Y-69704819D01*
X110809524Y-69704819D02*
X111190476Y-69704819D01*
X111190476Y-69704819D02*
X111285714Y-69752438D01*
X111285714Y-69752438D02*
X111333333Y-69800057D01*
X111333333Y-69800057D02*
X111380952Y-69895295D01*
X111380952Y-69895295D02*
X111380952Y-70038152D01*
X111380952Y-70038152D02*
X111333333Y-70133390D01*
X111333333Y-70133390D02*
X111285714Y-70181009D01*
X111285714Y-70181009D02*
X111190476Y-70228628D01*
X111190476Y-70228628D02*
X110809524Y-70228628D01*
X112333333Y-70704819D02*
X111761905Y-70704819D01*
X112047619Y-70704819D02*
X112047619Y-69704819D01*
X112047619Y-69704819D02*
X111952381Y-69847676D01*
X111952381Y-69847676D02*
X111857143Y-69942914D01*
X111857143Y-69942914D02*
X111761905Y-69990533D01*
X112952381Y-69704819D02*
X113047619Y-69704819D01*
X113047619Y-69704819D02*
X113142857Y-69752438D01*
X113142857Y-69752438D02*
X113190476Y-69800057D01*
X113190476Y-69800057D02*
X113238095Y-69895295D01*
X113238095Y-69895295D02*
X113285714Y-70085771D01*
X113285714Y-70085771D02*
X113285714Y-70323866D01*
X113285714Y-70323866D02*
X113238095Y-70514342D01*
X113238095Y-70514342D02*
X113190476Y-70609580D01*
X113190476Y-70609580D02*
X113142857Y-70657200D01*
X113142857Y-70657200D02*
X113047619Y-70704819D01*
X113047619Y-70704819D02*
X112952381Y-70704819D01*
X112952381Y-70704819D02*
X112857143Y-70657200D01*
X112857143Y-70657200D02*
X112809524Y-70609580D01*
X112809524Y-70609580D02*
X112761905Y-70514342D01*
X112761905Y-70514342D02*
X112714286Y-70323866D01*
X112714286Y-70323866D02*
X112714286Y-70085771D01*
X112714286Y-70085771D02*
X112761905Y-69895295D01*
X112761905Y-69895295D02*
X112809524Y-69800057D01*
X112809524Y-69800057D02*
X112857143Y-69752438D01*
X112857143Y-69752438D02*
X112952381Y-69704819D01*
X114142857Y-69704819D02*
X113952381Y-69704819D01*
X113952381Y-69704819D02*
X113857143Y-69752438D01*
X113857143Y-69752438D02*
X113809524Y-69800057D01*
X113809524Y-69800057D02*
X113714286Y-69942914D01*
X113714286Y-69942914D02*
X113666667Y-70133390D01*
X113666667Y-70133390D02*
X113666667Y-70514342D01*
X113666667Y-70514342D02*
X113714286Y-70609580D01*
X113714286Y-70609580D02*
X113761905Y-70657200D01*
X113761905Y-70657200D02*
X113857143Y-70704819D01*
X113857143Y-70704819D02*
X114047619Y-70704819D01*
X114047619Y-70704819D02*
X114142857Y-70657200D01*
X114142857Y-70657200D02*
X114190476Y-70609580D01*
X114190476Y-70609580D02*
X114238095Y-70514342D01*
X114238095Y-70514342D02*
X114238095Y-70276247D01*
X114238095Y-70276247D02*
X114190476Y-70181009D01*
X114190476Y-70181009D02*
X114142857Y-70133390D01*
X114142857Y-70133390D02*
X114047619Y-70085771D01*
X114047619Y-70085771D02*
X113857143Y-70085771D01*
X113857143Y-70085771D02*
X113761905Y-70133390D01*
X113761905Y-70133390D02*
X113714286Y-70181009D01*
X113714286Y-70181009D02*
X113666667Y-70276247D01*
X110579819Y-61119047D02*
X110103628Y-61452380D01*
X110579819Y-61690475D02*
X109579819Y-61690475D01*
X109579819Y-61690475D02*
X109579819Y-61309523D01*
X109579819Y-61309523D02*
X109627438Y-61214285D01*
X109627438Y-61214285D02*
X109675057Y-61166666D01*
X109675057Y-61166666D02*
X109770295Y-61119047D01*
X109770295Y-61119047D02*
X109913152Y-61119047D01*
X109913152Y-61119047D02*
X110008390Y-61166666D01*
X110008390Y-61166666D02*
X110056009Y-61214285D01*
X110056009Y-61214285D02*
X110103628Y-61309523D01*
X110103628Y-61309523D02*
X110103628Y-61690475D01*
X110579819Y-60166666D02*
X110579819Y-60738094D01*
X110579819Y-60452380D02*
X109579819Y-60452380D01*
X109579819Y-60452380D02*
X109722676Y-60547618D01*
X109722676Y-60547618D02*
X109817914Y-60642856D01*
X109817914Y-60642856D02*
X109865533Y-60738094D01*
X109579819Y-59547618D02*
X109579819Y-59452380D01*
X109579819Y-59452380D02*
X109627438Y-59357142D01*
X109627438Y-59357142D02*
X109675057Y-59309523D01*
X109675057Y-59309523D02*
X109770295Y-59261904D01*
X109770295Y-59261904D02*
X109960771Y-59214285D01*
X109960771Y-59214285D02*
X110198866Y-59214285D01*
X110198866Y-59214285D02*
X110389342Y-59261904D01*
X110389342Y-59261904D02*
X110484580Y-59309523D01*
X110484580Y-59309523D02*
X110532200Y-59357142D01*
X110532200Y-59357142D02*
X110579819Y-59452380D01*
X110579819Y-59452380D02*
X110579819Y-59547618D01*
X110579819Y-59547618D02*
X110532200Y-59642856D01*
X110532200Y-59642856D02*
X110484580Y-59690475D01*
X110484580Y-59690475D02*
X110389342Y-59738094D01*
X110389342Y-59738094D02*
X110198866Y-59785713D01*
X110198866Y-59785713D02*
X109960771Y-59785713D01*
X109960771Y-59785713D02*
X109770295Y-59738094D01*
X109770295Y-59738094D02*
X109675057Y-59690475D01*
X109675057Y-59690475D02*
X109627438Y-59642856D01*
X109627438Y-59642856D02*
X109579819Y-59547618D01*
X109579819Y-58309523D02*
X109579819Y-58785713D01*
X109579819Y-58785713D02*
X110056009Y-58833332D01*
X110056009Y-58833332D02*
X110008390Y-58785713D01*
X110008390Y-58785713D02*
X109960771Y-58690475D01*
X109960771Y-58690475D02*
X109960771Y-58452380D01*
X109960771Y-58452380D02*
X110008390Y-58357142D01*
X110008390Y-58357142D02*
X110056009Y-58309523D01*
X110056009Y-58309523D02*
X110151247Y-58261904D01*
X110151247Y-58261904D02*
X110389342Y-58261904D01*
X110389342Y-58261904D02*
X110484580Y-58309523D01*
X110484580Y-58309523D02*
X110532200Y-58357142D01*
X110532200Y-58357142D02*
X110579819Y-58452380D01*
X110579819Y-58452380D02*
X110579819Y-58690475D01*
X110579819Y-58690475D02*
X110532200Y-58785713D01*
X110532200Y-58785713D02*
X110484580Y-58833332D01*
X109954819Y-57785714D02*
X110669104Y-57785714D01*
X110669104Y-57785714D02*
X110811961Y-57833333D01*
X110811961Y-57833333D02*
X110907200Y-57928571D01*
X110907200Y-57928571D02*
X110954819Y-58071428D01*
X110954819Y-58071428D02*
X110954819Y-58166666D01*
X110954819Y-57309523D02*
X109954819Y-57309523D01*
X109954819Y-57309523D02*
X109954819Y-56928571D01*
X109954819Y-56928571D02*
X110002438Y-56833333D01*
X110002438Y-56833333D02*
X110050057Y-56785714D01*
X110050057Y-56785714D02*
X110145295Y-56738095D01*
X110145295Y-56738095D02*
X110288152Y-56738095D01*
X110288152Y-56738095D02*
X110383390Y-56785714D01*
X110383390Y-56785714D02*
X110431009Y-56833333D01*
X110431009Y-56833333D02*
X110478628Y-56928571D01*
X110478628Y-56928571D02*
X110478628Y-57309523D01*
X110954819Y-55785714D02*
X110954819Y-56357142D01*
X110954819Y-56071428D02*
X109954819Y-56071428D01*
X109954819Y-56071428D02*
X110097676Y-56166666D01*
X110097676Y-56166666D02*
X110192914Y-56261904D01*
X110192914Y-56261904D02*
X110240533Y-56357142D01*
X109954819Y-55166666D02*
X109954819Y-55071428D01*
X109954819Y-55071428D02*
X110002438Y-54976190D01*
X110002438Y-54976190D02*
X110050057Y-54928571D01*
X110050057Y-54928571D02*
X110145295Y-54880952D01*
X110145295Y-54880952D02*
X110335771Y-54833333D01*
X110335771Y-54833333D02*
X110573866Y-54833333D01*
X110573866Y-54833333D02*
X110764342Y-54880952D01*
X110764342Y-54880952D02*
X110859580Y-54928571D01*
X110859580Y-54928571D02*
X110907200Y-54976190D01*
X110907200Y-54976190D02*
X110954819Y-55071428D01*
X110954819Y-55071428D02*
X110954819Y-55166666D01*
X110954819Y-55166666D02*
X110907200Y-55261904D01*
X110907200Y-55261904D02*
X110859580Y-55309523D01*
X110859580Y-55309523D02*
X110764342Y-55357142D01*
X110764342Y-55357142D02*
X110573866Y-55404761D01*
X110573866Y-55404761D02*
X110335771Y-55404761D01*
X110335771Y-55404761D02*
X110145295Y-55357142D01*
X110145295Y-55357142D02*
X110050057Y-55309523D01*
X110050057Y-55309523D02*
X110002438Y-55261904D01*
X110002438Y-55261904D02*
X109954819Y-55166666D01*
X110954819Y-53880952D02*
X110954819Y-54452380D01*
X110954819Y-54166666D02*
X109954819Y-54166666D01*
X109954819Y-54166666D02*
X110097676Y-54261904D01*
X110097676Y-54261904D02*
X110192914Y-54357142D01*
X110192914Y-54357142D02*
X110240533Y-54452380D01*
X125459580Y-95869047D02*
X125507200Y-95916666D01*
X125507200Y-95916666D02*
X125554819Y-96059523D01*
X125554819Y-96059523D02*
X125554819Y-96154761D01*
X125554819Y-96154761D02*
X125507200Y-96297618D01*
X125507200Y-96297618D02*
X125411961Y-96392856D01*
X125411961Y-96392856D02*
X125316723Y-96440475D01*
X125316723Y-96440475D02*
X125126247Y-96488094D01*
X125126247Y-96488094D02*
X124983390Y-96488094D01*
X124983390Y-96488094D02*
X124792914Y-96440475D01*
X124792914Y-96440475D02*
X124697676Y-96392856D01*
X124697676Y-96392856D02*
X124602438Y-96297618D01*
X124602438Y-96297618D02*
X124554819Y-96154761D01*
X124554819Y-96154761D02*
X124554819Y-96059523D01*
X124554819Y-96059523D02*
X124602438Y-95916666D01*
X124602438Y-95916666D02*
X124650057Y-95869047D01*
X125554819Y-94916666D02*
X125554819Y-95488094D01*
X125554819Y-95202380D02*
X124554819Y-95202380D01*
X124554819Y-95202380D02*
X124697676Y-95297618D01*
X124697676Y-95297618D02*
X124792914Y-95392856D01*
X124792914Y-95392856D02*
X124840533Y-95488094D01*
X125554819Y-93964285D02*
X125554819Y-94535713D01*
X125554819Y-94249999D02*
X124554819Y-94249999D01*
X124554819Y-94249999D02*
X124697676Y-94345237D01*
X124697676Y-94345237D02*
X124792914Y-94440475D01*
X124792914Y-94440475D02*
X124840533Y-94535713D01*
X124554819Y-93630951D02*
X124554819Y-93011904D01*
X124554819Y-93011904D02*
X124935771Y-93345237D01*
X124935771Y-93345237D02*
X124935771Y-93202380D01*
X124935771Y-93202380D02*
X124983390Y-93107142D01*
X124983390Y-93107142D02*
X125031009Y-93059523D01*
X125031009Y-93059523D02*
X125126247Y-93011904D01*
X125126247Y-93011904D02*
X125364342Y-93011904D01*
X125364342Y-93011904D02*
X125459580Y-93059523D01*
X125459580Y-93059523D02*
X125507200Y-93107142D01*
X125507200Y-93107142D02*
X125554819Y-93202380D01*
X125554819Y-93202380D02*
X125554819Y-93488094D01*
X125554819Y-93488094D02*
X125507200Y-93583332D01*
X125507200Y-93583332D02*
X125459580Y-93630951D01*
X136650057Y-89547619D02*
X136602438Y-89642857D01*
X136602438Y-89642857D02*
X136507200Y-89738095D01*
X136507200Y-89738095D02*
X136364342Y-89880952D01*
X136364342Y-89880952D02*
X136316723Y-89976190D01*
X136316723Y-89976190D02*
X136316723Y-90071428D01*
X136554819Y-90023809D02*
X136507200Y-90119047D01*
X136507200Y-90119047D02*
X136411961Y-90214285D01*
X136411961Y-90214285D02*
X136221485Y-90261904D01*
X136221485Y-90261904D02*
X135888152Y-90261904D01*
X135888152Y-90261904D02*
X135697676Y-90214285D01*
X135697676Y-90214285D02*
X135602438Y-90119047D01*
X135602438Y-90119047D02*
X135554819Y-90023809D01*
X135554819Y-90023809D02*
X135554819Y-89833333D01*
X135554819Y-89833333D02*
X135602438Y-89738095D01*
X135602438Y-89738095D02*
X135697676Y-89642857D01*
X135697676Y-89642857D02*
X135888152Y-89595238D01*
X135888152Y-89595238D02*
X136221485Y-89595238D01*
X136221485Y-89595238D02*
X136411961Y-89642857D01*
X136411961Y-89642857D02*
X136507200Y-89738095D01*
X136507200Y-89738095D02*
X136554819Y-89833333D01*
X136554819Y-89833333D02*
X136554819Y-90023809D01*
X136554819Y-88642857D02*
X136554819Y-89214285D01*
X136554819Y-88928571D02*
X135554819Y-88928571D01*
X135554819Y-88928571D02*
X135697676Y-89023809D01*
X135697676Y-89023809D02*
X135792914Y-89119047D01*
X135792914Y-89119047D02*
X135840533Y-89214285D01*
X135554819Y-88023809D02*
X135554819Y-87928571D01*
X135554819Y-87928571D02*
X135602438Y-87833333D01*
X135602438Y-87833333D02*
X135650057Y-87785714D01*
X135650057Y-87785714D02*
X135745295Y-87738095D01*
X135745295Y-87738095D02*
X135935771Y-87690476D01*
X135935771Y-87690476D02*
X136173866Y-87690476D01*
X136173866Y-87690476D02*
X136364342Y-87738095D01*
X136364342Y-87738095D02*
X136459580Y-87785714D01*
X136459580Y-87785714D02*
X136507200Y-87833333D01*
X136507200Y-87833333D02*
X136554819Y-87928571D01*
X136554819Y-87928571D02*
X136554819Y-88023809D01*
X136554819Y-88023809D02*
X136507200Y-88119047D01*
X136507200Y-88119047D02*
X136459580Y-88166666D01*
X136459580Y-88166666D02*
X136364342Y-88214285D01*
X136364342Y-88214285D02*
X136173866Y-88261904D01*
X136173866Y-88261904D02*
X135935771Y-88261904D01*
X135935771Y-88261904D02*
X135745295Y-88214285D01*
X135745295Y-88214285D02*
X135650057Y-88166666D01*
X135650057Y-88166666D02*
X135602438Y-88119047D01*
X135602438Y-88119047D02*
X135554819Y-88023809D01*
X136554819Y-86738095D02*
X136554819Y-87309523D01*
X136554819Y-87023809D02*
X135554819Y-87023809D01*
X135554819Y-87023809D02*
X135697676Y-87119047D01*
X135697676Y-87119047D02*
X135792914Y-87214285D01*
X135792914Y-87214285D02*
X135840533Y-87309523D01*
X124054819Y-86940475D02*
X123054819Y-86940475D01*
X123054819Y-86940475D02*
X123054819Y-86702380D01*
X123054819Y-86702380D02*
X123102438Y-86559523D01*
X123102438Y-86559523D02*
X123197676Y-86464285D01*
X123197676Y-86464285D02*
X123292914Y-86416666D01*
X123292914Y-86416666D02*
X123483390Y-86369047D01*
X123483390Y-86369047D02*
X123626247Y-86369047D01*
X123626247Y-86369047D02*
X123816723Y-86416666D01*
X123816723Y-86416666D02*
X123911961Y-86464285D01*
X123911961Y-86464285D02*
X124007200Y-86559523D01*
X124007200Y-86559523D02*
X124054819Y-86702380D01*
X124054819Y-86702380D02*
X124054819Y-86940475D01*
X124054819Y-85416666D02*
X124054819Y-85988094D01*
X124054819Y-85702380D02*
X123054819Y-85702380D01*
X123054819Y-85702380D02*
X123197676Y-85797618D01*
X123197676Y-85797618D02*
X123292914Y-85892856D01*
X123292914Y-85892856D02*
X123340533Y-85988094D01*
X123054819Y-84797618D02*
X123054819Y-84702380D01*
X123054819Y-84702380D02*
X123102438Y-84607142D01*
X123102438Y-84607142D02*
X123150057Y-84559523D01*
X123150057Y-84559523D02*
X123245295Y-84511904D01*
X123245295Y-84511904D02*
X123435771Y-84464285D01*
X123435771Y-84464285D02*
X123673866Y-84464285D01*
X123673866Y-84464285D02*
X123864342Y-84511904D01*
X123864342Y-84511904D02*
X123959580Y-84559523D01*
X123959580Y-84559523D02*
X124007200Y-84607142D01*
X124007200Y-84607142D02*
X124054819Y-84702380D01*
X124054819Y-84702380D02*
X124054819Y-84797618D01*
X124054819Y-84797618D02*
X124007200Y-84892856D01*
X124007200Y-84892856D02*
X123959580Y-84940475D01*
X123959580Y-84940475D02*
X123864342Y-84988094D01*
X123864342Y-84988094D02*
X123673866Y-85035713D01*
X123673866Y-85035713D02*
X123435771Y-85035713D01*
X123435771Y-85035713D02*
X123245295Y-84988094D01*
X123245295Y-84988094D02*
X123150057Y-84940475D01*
X123150057Y-84940475D02*
X123102438Y-84892856D01*
X123102438Y-84892856D02*
X123054819Y-84797618D01*
X124054819Y-83511904D02*
X124054819Y-84083332D01*
X124054819Y-83797618D02*
X123054819Y-83797618D01*
X123054819Y-83797618D02*
X123197676Y-83892856D01*
X123197676Y-83892856D02*
X123292914Y-83988094D01*
X123292914Y-83988094D02*
X123340533Y-84083332D01*
X137380952Y-87704819D02*
X137047619Y-87228628D01*
X136809524Y-87704819D02*
X136809524Y-86704819D01*
X136809524Y-86704819D02*
X137190476Y-86704819D01*
X137190476Y-86704819D02*
X137285714Y-86752438D01*
X137285714Y-86752438D02*
X137333333Y-86800057D01*
X137333333Y-86800057D02*
X137380952Y-86895295D01*
X137380952Y-86895295D02*
X137380952Y-87038152D01*
X137380952Y-87038152D02*
X137333333Y-87133390D01*
X137333333Y-87133390D02*
X137285714Y-87181009D01*
X137285714Y-87181009D02*
X137190476Y-87228628D01*
X137190476Y-87228628D02*
X136809524Y-87228628D01*
X138333333Y-87704819D02*
X137761905Y-87704819D01*
X138047619Y-87704819D02*
X138047619Y-86704819D01*
X138047619Y-86704819D02*
X137952381Y-86847676D01*
X137952381Y-86847676D02*
X137857143Y-86942914D01*
X137857143Y-86942914D02*
X137761905Y-86990533D01*
X138952381Y-86704819D02*
X139047619Y-86704819D01*
X139047619Y-86704819D02*
X139142857Y-86752438D01*
X139142857Y-86752438D02*
X139190476Y-86800057D01*
X139190476Y-86800057D02*
X139238095Y-86895295D01*
X139238095Y-86895295D02*
X139285714Y-87085771D01*
X139285714Y-87085771D02*
X139285714Y-87323866D01*
X139285714Y-87323866D02*
X139238095Y-87514342D01*
X139238095Y-87514342D02*
X139190476Y-87609580D01*
X139190476Y-87609580D02*
X139142857Y-87657200D01*
X139142857Y-87657200D02*
X139047619Y-87704819D01*
X139047619Y-87704819D02*
X138952381Y-87704819D01*
X138952381Y-87704819D02*
X138857143Y-87657200D01*
X138857143Y-87657200D02*
X138809524Y-87609580D01*
X138809524Y-87609580D02*
X138761905Y-87514342D01*
X138761905Y-87514342D02*
X138714286Y-87323866D01*
X138714286Y-87323866D02*
X138714286Y-87085771D01*
X138714286Y-87085771D02*
X138761905Y-86895295D01*
X138761905Y-86895295D02*
X138809524Y-86800057D01*
X138809524Y-86800057D02*
X138857143Y-86752438D01*
X138857143Y-86752438D02*
X138952381Y-86704819D01*
X140238095Y-87704819D02*
X139666667Y-87704819D01*
X139952381Y-87704819D02*
X139952381Y-86704819D01*
X139952381Y-86704819D02*
X139857143Y-86847676D01*
X139857143Y-86847676D02*
X139761905Y-86942914D01*
X139761905Y-86942914D02*
X139666667Y-86990533D01*
X144429580Y-62369047D02*
X144477200Y-62416666D01*
X144477200Y-62416666D02*
X144524819Y-62559523D01*
X144524819Y-62559523D02*
X144524819Y-62654761D01*
X144524819Y-62654761D02*
X144477200Y-62797618D01*
X144477200Y-62797618D02*
X144381961Y-62892856D01*
X144381961Y-62892856D02*
X144286723Y-62940475D01*
X144286723Y-62940475D02*
X144096247Y-62988094D01*
X144096247Y-62988094D02*
X143953390Y-62988094D01*
X143953390Y-62988094D02*
X143762914Y-62940475D01*
X143762914Y-62940475D02*
X143667676Y-62892856D01*
X143667676Y-62892856D02*
X143572438Y-62797618D01*
X143572438Y-62797618D02*
X143524819Y-62654761D01*
X143524819Y-62654761D02*
X143524819Y-62559523D01*
X143524819Y-62559523D02*
X143572438Y-62416666D01*
X143572438Y-62416666D02*
X143620057Y-62369047D01*
X144524819Y-61416666D02*
X144524819Y-61988094D01*
X144524819Y-61702380D02*
X143524819Y-61702380D01*
X143524819Y-61702380D02*
X143667676Y-61797618D01*
X143667676Y-61797618D02*
X143762914Y-61892856D01*
X143762914Y-61892856D02*
X143810533Y-61988094D01*
X143524819Y-60797618D02*
X143524819Y-60702380D01*
X143524819Y-60702380D02*
X143572438Y-60607142D01*
X143572438Y-60607142D02*
X143620057Y-60559523D01*
X143620057Y-60559523D02*
X143715295Y-60511904D01*
X143715295Y-60511904D02*
X143905771Y-60464285D01*
X143905771Y-60464285D02*
X144143866Y-60464285D01*
X144143866Y-60464285D02*
X144334342Y-60511904D01*
X144334342Y-60511904D02*
X144429580Y-60559523D01*
X144429580Y-60559523D02*
X144477200Y-60607142D01*
X144477200Y-60607142D02*
X144524819Y-60702380D01*
X144524819Y-60702380D02*
X144524819Y-60797618D01*
X144524819Y-60797618D02*
X144477200Y-60892856D01*
X144477200Y-60892856D02*
X144429580Y-60940475D01*
X144429580Y-60940475D02*
X144334342Y-60988094D01*
X144334342Y-60988094D02*
X144143866Y-61035713D01*
X144143866Y-61035713D02*
X143905771Y-61035713D01*
X143905771Y-61035713D02*
X143715295Y-60988094D01*
X143715295Y-60988094D02*
X143620057Y-60940475D01*
X143620057Y-60940475D02*
X143572438Y-60892856D01*
X143572438Y-60892856D02*
X143524819Y-60797618D01*
X143524819Y-59607142D02*
X143524819Y-59797618D01*
X143524819Y-59797618D02*
X143572438Y-59892856D01*
X143572438Y-59892856D02*
X143620057Y-59940475D01*
X143620057Y-59940475D02*
X143762914Y-60035713D01*
X143762914Y-60035713D02*
X143953390Y-60083332D01*
X143953390Y-60083332D02*
X144334342Y-60083332D01*
X144334342Y-60083332D02*
X144429580Y-60035713D01*
X144429580Y-60035713D02*
X144477200Y-59988094D01*
X144477200Y-59988094D02*
X144524819Y-59892856D01*
X144524819Y-59892856D02*
X144524819Y-59702380D01*
X144524819Y-59702380D02*
X144477200Y-59607142D01*
X144477200Y-59607142D02*
X144429580Y-59559523D01*
X144429580Y-59559523D02*
X144334342Y-59511904D01*
X144334342Y-59511904D02*
X144096247Y-59511904D01*
X144096247Y-59511904D02*
X144001009Y-59559523D01*
X144001009Y-59559523D02*
X143953390Y-59607142D01*
X143953390Y-59607142D02*
X143905771Y-59702380D01*
X143905771Y-59702380D02*
X143905771Y-59892856D01*
X143905771Y-59892856D02*
X143953390Y-59988094D01*
X143953390Y-59988094D02*
X144001009Y-60035713D01*
X144001009Y-60035713D02*
X144096247Y-60083332D01*
X111505952Y-62704819D02*
X111172619Y-62228628D01*
X110934524Y-62704819D02*
X110934524Y-61704819D01*
X110934524Y-61704819D02*
X111315476Y-61704819D01*
X111315476Y-61704819D02*
X111410714Y-61752438D01*
X111410714Y-61752438D02*
X111458333Y-61800057D01*
X111458333Y-61800057D02*
X111505952Y-61895295D01*
X111505952Y-61895295D02*
X111505952Y-62038152D01*
X111505952Y-62038152D02*
X111458333Y-62133390D01*
X111458333Y-62133390D02*
X111410714Y-62181009D01*
X111410714Y-62181009D02*
X111315476Y-62228628D01*
X111315476Y-62228628D02*
X110934524Y-62228628D01*
X112458333Y-62704819D02*
X111886905Y-62704819D01*
X112172619Y-62704819D02*
X112172619Y-61704819D01*
X112172619Y-61704819D02*
X112077381Y-61847676D01*
X112077381Y-61847676D02*
X111982143Y-61942914D01*
X111982143Y-61942914D02*
X111886905Y-61990533D01*
X113077381Y-61704819D02*
X113172619Y-61704819D01*
X113172619Y-61704819D02*
X113267857Y-61752438D01*
X113267857Y-61752438D02*
X113315476Y-61800057D01*
X113315476Y-61800057D02*
X113363095Y-61895295D01*
X113363095Y-61895295D02*
X113410714Y-62085771D01*
X113410714Y-62085771D02*
X113410714Y-62323866D01*
X113410714Y-62323866D02*
X113363095Y-62514342D01*
X113363095Y-62514342D02*
X113315476Y-62609580D01*
X113315476Y-62609580D02*
X113267857Y-62657200D01*
X113267857Y-62657200D02*
X113172619Y-62704819D01*
X113172619Y-62704819D02*
X113077381Y-62704819D01*
X113077381Y-62704819D02*
X112982143Y-62657200D01*
X112982143Y-62657200D02*
X112934524Y-62609580D01*
X112934524Y-62609580D02*
X112886905Y-62514342D01*
X112886905Y-62514342D02*
X112839286Y-62323866D01*
X112839286Y-62323866D02*
X112839286Y-62085771D01*
X112839286Y-62085771D02*
X112886905Y-61895295D01*
X112886905Y-61895295D02*
X112934524Y-61800057D01*
X112934524Y-61800057D02*
X112982143Y-61752438D01*
X112982143Y-61752438D02*
X113077381Y-61704819D01*
X113744048Y-61704819D02*
X114410714Y-61704819D01*
X114410714Y-61704819D02*
X113982143Y-62704819D01*
X143509580Y-66594047D02*
X143557200Y-66641666D01*
X143557200Y-66641666D02*
X143604819Y-66784523D01*
X143604819Y-66784523D02*
X143604819Y-66879761D01*
X143604819Y-66879761D02*
X143557200Y-67022618D01*
X143557200Y-67022618D02*
X143461961Y-67117856D01*
X143461961Y-67117856D02*
X143366723Y-67165475D01*
X143366723Y-67165475D02*
X143176247Y-67213094D01*
X143176247Y-67213094D02*
X143033390Y-67213094D01*
X143033390Y-67213094D02*
X142842914Y-67165475D01*
X142842914Y-67165475D02*
X142747676Y-67117856D01*
X142747676Y-67117856D02*
X142652438Y-67022618D01*
X142652438Y-67022618D02*
X142604819Y-66879761D01*
X142604819Y-66879761D02*
X142604819Y-66784523D01*
X142604819Y-66784523D02*
X142652438Y-66641666D01*
X142652438Y-66641666D02*
X142700057Y-66594047D01*
X143604819Y-65641666D02*
X143604819Y-66213094D01*
X143604819Y-65927380D02*
X142604819Y-65927380D01*
X142604819Y-65927380D02*
X142747676Y-66022618D01*
X142747676Y-66022618D02*
X142842914Y-66117856D01*
X142842914Y-66117856D02*
X142890533Y-66213094D01*
X142604819Y-65022618D02*
X142604819Y-64927380D01*
X142604819Y-64927380D02*
X142652438Y-64832142D01*
X142652438Y-64832142D02*
X142700057Y-64784523D01*
X142700057Y-64784523D02*
X142795295Y-64736904D01*
X142795295Y-64736904D02*
X142985771Y-64689285D01*
X142985771Y-64689285D02*
X143223866Y-64689285D01*
X143223866Y-64689285D02*
X143414342Y-64736904D01*
X143414342Y-64736904D02*
X143509580Y-64784523D01*
X143509580Y-64784523D02*
X143557200Y-64832142D01*
X143557200Y-64832142D02*
X143604819Y-64927380D01*
X143604819Y-64927380D02*
X143604819Y-65022618D01*
X143604819Y-65022618D02*
X143557200Y-65117856D01*
X143557200Y-65117856D02*
X143509580Y-65165475D01*
X143509580Y-65165475D02*
X143414342Y-65213094D01*
X143414342Y-65213094D02*
X143223866Y-65260713D01*
X143223866Y-65260713D02*
X142985771Y-65260713D01*
X142985771Y-65260713D02*
X142795295Y-65213094D01*
X142795295Y-65213094D02*
X142700057Y-65165475D01*
X142700057Y-65165475D02*
X142652438Y-65117856D01*
X142652438Y-65117856D02*
X142604819Y-65022618D01*
X143033390Y-64117856D02*
X142985771Y-64213094D01*
X142985771Y-64213094D02*
X142938152Y-64260713D01*
X142938152Y-64260713D02*
X142842914Y-64308332D01*
X142842914Y-64308332D02*
X142795295Y-64308332D01*
X142795295Y-64308332D02*
X142700057Y-64260713D01*
X142700057Y-64260713D02*
X142652438Y-64213094D01*
X142652438Y-64213094D02*
X142604819Y-64117856D01*
X142604819Y-64117856D02*
X142604819Y-63927380D01*
X142604819Y-63927380D02*
X142652438Y-63832142D01*
X142652438Y-63832142D02*
X142700057Y-63784523D01*
X142700057Y-63784523D02*
X142795295Y-63736904D01*
X142795295Y-63736904D02*
X142842914Y-63736904D01*
X142842914Y-63736904D02*
X142938152Y-63784523D01*
X142938152Y-63784523D02*
X142985771Y-63832142D01*
X142985771Y-63832142D02*
X143033390Y-63927380D01*
X143033390Y-63927380D02*
X143033390Y-64117856D01*
X143033390Y-64117856D02*
X143081009Y-64213094D01*
X143081009Y-64213094D02*
X143128628Y-64260713D01*
X143128628Y-64260713D02*
X143223866Y-64308332D01*
X143223866Y-64308332D02*
X143414342Y-64308332D01*
X143414342Y-64308332D02*
X143509580Y-64260713D01*
X143509580Y-64260713D02*
X143557200Y-64213094D01*
X143557200Y-64213094D02*
X143604819Y-64117856D01*
X143604819Y-64117856D02*
X143604819Y-63927380D01*
X143604819Y-63927380D02*
X143557200Y-63832142D01*
X143557200Y-63832142D02*
X143509580Y-63784523D01*
X143509580Y-63784523D02*
X143414342Y-63736904D01*
X143414342Y-63736904D02*
X143223866Y-63736904D01*
X143223866Y-63736904D02*
X143128628Y-63784523D01*
X143128628Y-63784523D02*
X143081009Y-63832142D01*
X143081009Y-63832142D02*
X143033390Y-63927380D01*
X142130952Y-89204819D02*
X141797619Y-88728628D01*
X141559524Y-89204819D02*
X141559524Y-88204819D01*
X141559524Y-88204819D02*
X141940476Y-88204819D01*
X141940476Y-88204819D02*
X142035714Y-88252438D01*
X142035714Y-88252438D02*
X142083333Y-88300057D01*
X142083333Y-88300057D02*
X142130952Y-88395295D01*
X142130952Y-88395295D02*
X142130952Y-88538152D01*
X142130952Y-88538152D02*
X142083333Y-88633390D01*
X142083333Y-88633390D02*
X142035714Y-88681009D01*
X142035714Y-88681009D02*
X141940476Y-88728628D01*
X141940476Y-88728628D02*
X141559524Y-88728628D01*
X143083333Y-89204819D02*
X142511905Y-89204819D01*
X142797619Y-89204819D02*
X142797619Y-88204819D01*
X142797619Y-88204819D02*
X142702381Y-88347676D01*
X142702381Y-88347676D02*
X142607143Y-88442914D01*
X142607143Y-88442914D02*
X142511905Y-88490533D01*
X143702381Y-88204819D02*
X143797619Y-88204819D01*
X143797619Y-88204819D02*
X143892857Y-88252438D01*
X143892857Y-88252438D02*
X143940476Y-88300057D01*
X143940476Y-88300057D02*
X143988095Y-88395295D01*
X143988095Y-88395295D02*
X144035714Y-88585771D01*
X144035714Y-88585771D02*
X144035714Y-88823866D01*
X144035714Y-88823866D02*
X143988095Y-89014342D01*
X143988095Y-89014342D02*
X143940476Y-89109580D01*
X143940476Y-89109580D02*
X143892857Y-89157200D01*
X143892857Y-89157200D02*
X143797619Y-89204819D01*
X143797619Y-89204819D02*
X143702381Y-89204819D01*
X143702381Y-89204819D02*
X143607143Y-89157200D01*
X143607143Y-89157200D02*
X143559524Y-89109580D01*
X143559524Y-89109580D02*
X143511905Y-89014342D01*
X143511905Y-89014342D02*
X143464286Y-88823866D01*
X143464286Y-88823866D02*
X143464286Y-88585771D01*
X143464286Y-88585771D02*
X143511905Y-88395295D01*
X143511905Y-88395295D02*
X143559524Y-88300057D01*
X143559524Y-88300057D02*
X143607143Y-88252438D01*
X143607143Y-88252438D02*
X143702381Y-88204819D01*
X144416667Y-88300057D02*
X144464286Y-88252438D01*
X144464286Y-88252438D02*
X144559524Y-88204819D01*
X144559524Y-88204819D02*
X144797619Y-88204819D01*
X144797619Y-88204819D02*
X144892857Y-88252438D01*
X144892857Y-88252438D02*
X144940476Y-88300057D01*
X144940476Y-88300057D02*
X144988095Y-88395295D01*
X144988095Y-88395295D02*
X144988095Y-88490533D01*
X144988095Y-88490533D02*
X144940476Y-88633390D01*
X144940476Y-88633390D02*
X144369048Y-89204819D01*
X144369048Y-89204819D02*
X144988095Y-89204819D01*
X104130952Y-76859580D02*
X104083333Y-76907200D01*
X104083333Y-76907200D02*
X103940476Y-76954819D01*
X103940476Y-76954819D02*
X103845238Y-76954819D01*
X103845238Y-76954819D02*
X103702381Y-76907200D01*
X103702381Y-76907200D02*
X103607143Y-76811961D01*
X103607143Y-76811961D02*
X103559524Y-76716723D01*
X103559524Y-76716723D02*
X103511905Y-76526247D01*
X103511905Y-76526247D02*
X103511905Y-76383390D01*
X103511905Y-76383390D02*
X103559524Y-76192914D01*
X103559524Y-76192914D02*
X103607143Y-76097676D01*
X103607143Y-76097676D02*
X103702381Y-76002438D01*
X103702381Y-76002438D02*
X103845238Y-75954819D01*
X103845238Y-75954819D02*
X103940476Y-75954819D01*
X103940476Y-75954819D02*
X104083333Y-76002438D01*
X104083333Y-76002438D02*
X104130952Y-76050057D01*
X105083333Y-76954819D02*
X104511905Y-76954819D01*
X104797619Y-76954819D02*
X104797619Y-75954819D01*
X104797619Y-75954819D02*
X104702381Y-76097676D01*
X104702381Y-76097676D02*
X104607143Y-76192914D01*
X104607143Y-76192914D02*
X104511905Y-76240533D01*
X106035714Y-76954819D02*
X105464286Y-76954819D01*
X105750000Y-76954819D02*
X105750000Y-75954819D01*
X105750000Y-75954819D02*
X105654762Y-76097676D01*
X105654762Y-76097676D02*
X105559524Y-76192914D01*
X105559524Y-76192914D02*
X105464286Y-76240533D01*
X106607143Y-76383390D02*
X106511905Y-76335771D01*
X106511905Y-76335771D02*
X106464286Y-76288152D01*
X106464286Y-76288152D02*
X106416667Y-76192914D01*
X106416667Y-76192914D02*
X106416667Y-76145295D01*
X106416667Y-76145295D02*
X106464286Y-76050057D01*
X106464286Y-76050057D02*
X106511905Y-76002438D01*
X106511905Y-76002438D02*
X106607143Y-75954819D01*
X106607143Y-75954819D02*
X106797619Y-75954819D01*
X106797619Y-75954819D02*
X106892857Y-76002438D01*
X106892857Y-76002438D02*
X106940476Y-76050057D01*
X106940476Y-76050057D02*
X106988095Y-76145295D01*
X106988095Y-76145295D02*
X106988095Y-76192914D01*
X106988095Y-76192914D02*
X106940476Y-76288152D01*
X106940476Y-76288152D02*
X106892857Y-76335771D01*
X106892857Y-76335771D02*
X106797619Y-76383390D01*
X106797619Y-76383390D02*
X106607143Y-76383390D01*
X106607143Y-76383390D02*
X106511905Y-76431009D01*
X106511905Y-76431009D02*
X106464286Y-76478628D01*
X106464286Y-76478628D02*
X106416667Y-76573866D01*
X106416667Y-76573866D02*
X106416667Y-76764342D01*
X106416667Y-76764342D02*
X106464286Y-76859580D01*
X106464286Y-76859580D02*
X106511905Y-76907200D01*
X106511905Y-76907200D02*
X106607143Y-76954819D01*
X106607143Y-76954819D02*
X106797619Y-76954819D01*
X106797619Y-76954819D02*
X106892857Y-76907200D01*
X106892857Y-76907200D02*
X106940476Y-76859580D01*
X106940476Y-76859580D02*
X106988095Y-76764342D01*
X106988095Y-76764342D02*
X106988095Y-76573866D01*
X106988095Y-76573866D02*
X106940476Y-76478628D01*
X106940476Y-76478628D02*
X106892857Y-76431009D01*
X106892857Y-76431009D02*
X106797619Y-76383390D01*
X111130952Y-78609580D02*
X111083333Y-78657200D01*
X111083333Y-78657200D02*
X110940476Y-78704819D01*
X110940476Y-78704819D02*
X110845238Y-78704819D01*
X110845238Y-78704819D02*
X110702381Y-78657200D01*
X110702381Y-78657200D02*
X110607143Y-78561961D01*
X110607143Y-78561961D02*
X110559524Y-78466723D01*
X110559524Y-78466723D02*
X110511905Y-78276247D01*
X110511905Y-78276247D02*
X110511905Y-78133390D01*
X110511905Y-78133390D02*
X110559524Y-77942914D01*
X110559524Y-77942914D02*
X110607143Y-77847676D01*
X110607143Y-77847676D02*
X110702381Y-77752438D01*
X110702381Y-77752438D02*
X110845238Y-77704819D01*
X110845238Y-77704819D02*
X110940476Y-77704819D01*
X110940476Y-77704819D02*
X111083333Y-77752438D01*
X111083333Y-77752438D02*
X111130952Y-77800057D01*
X112083333Y-78704819D02*
X111511905Y-78704819D01*
X111797619Y-78704819D02*
X111797619Y-77704819D01*
X111797619Y-77704819D02*
X111702381Y-77847676D01*
X111702381Y-77847676D02*
X111607143Y-77942914D01*
X111607143Y-77942914D02*
X111511905Y-77990533D01*
X112702381Y-77704819D02*
X112797619Y-77704819D01*
X112797619Y-77704819D02*
X112892857Y-77752438D01*
X112892857Y-77752438D02*
X112940476Y-77800057D01*
X112940476Y-77800057D02*
X112988095Y-77895295D01*
X112988095Y-77895295D02*
X113035714Y-78085771D01*
X113035714Y-78085771D02*
X113035714Y-78323866D01*
X113035714Y-78323866D02*
X112988095Y-78514342D01*
X112988095Y-78514342D02*
X112940476Y-78609580D01*
X112940476Y-78609580D02*
X112892857Y-78657200D01*
X112892857Y-78657200D02*
X112797619Y-78704819D01*
X112797619Y-78704819D02*
X112702381Y-78704819D01*
X112702381Y-78704819D02*
X112607143Y-78657200D01*
X112607143Y-78657200D02*
X112559524Y-78609580D01*
X112559524Y-78609580D02*
X112511905Y-78514342D01*
X112511905Y-78514342D02*
X112464286Y-78323866D01*
X112464286Y-78323866D02*
X112464286Y-78085771D01*
X112464286Y-78085771D02*
X112511905Y-77895295D01*
X112511905Y-77895295D02*
X112559524Y-77800057D01*
X112559524Y-77800057D02*
X112607143Y-77752438D01*
X112607143Y-77752438D02*
X112702381Y-77704819D01*
X113416667Y-77800057D02*
X113464286Y-77752438D01*
X113464286Y-77752438D02*
X113559524Y-77704819D01*
X113559524Y-77704819D02*
X113797619Y-77704819D01*
X113797619Y-77704819D02*
X113892857Y-77752438D01*
X113892857Y-77752438D02*
X113940476Y-77800057D01*
X113940476Y-77800057D02*
X113988095Y-77895295D01*
X113988095Y-77895295D02*
X113988095Y-77990533D01*
X113988095Y-77990533D02*
X113940476Y-78133390D01*
X113940476Y-78133390D02*
X113369048Y-78704819D01*
X113369048Y-78704819D02*
X113988095Y-78704819D01*
X135559524Y-80454819D02*
X135559524Y-79454819D01*
X135559524Y-79454819D02*
X135797619Y-79454819D01*
X135797619Y-79454819D02*
X135940476Y-79502438D01*
X135940476Y-79502438D02*
X136035714Y-79597676D01*
X136035714Y-79597676D02*
X136083333Y-79692914D01*
X136083333Y-79692914D02*
X136130952Y-79883390D01*
X136130952Y-79883390D02*
X136130952Y-80026247D01*
X136130952Y-80026247D02*
X136083333Y-80216723D01*
X136083333Y-80216723D02*
X136035714Y-80311961D01*
X136035714Y-80311961D02*
X135940476Y-80407200D01*
X135940476Y-80407200D02*
X135797619Y-80454819D01*
X135797619Y-80454819D02*
X135559524Y-80454819D01*
X137083333Y-80454819D02*
X136511905Y-80454819D01*
X136797619Y-80454819D02*
X136797619Y-79454819D01*
X136797619Y-79454819D02*
X136702381Y-79597676D01*
X136702381Y-79597676D02*
X136607143Y-79692914D01*
X136607143Y-79692914D02*
X136511905Y-79740533D01*
X137702381Y-79454819D02*
X137797619Y-79454819D01*
X137797619Y-79454819D02*
X137892857Y-79502438D01*
X137892857Y-79502438D02*
X137940476Y-79550057D01*
X137940476Y-79550057D02*
X137988095Y-79645295D01*
X137988095Y-79645295D02*
X138035714Y-79835771D01*
X138035714Y-79835771D02*
X138035714Y-80073866D01*
X138035714Y-80073866D02*
X137988095Y-80264342D01*
X137988095Y-80264342D02*
X137940476Y-80359580D01*
X137940476Y-80359580D02*
X137892857Y-80407200D01*
X137892857Y-80407200D02*
X137797619Y-80454819D01*
X137797619Y-80454819D02*
X137702381Y-80454819D01*
X137702381Y-80454819D02*
X137607143Y-80407200D01*
X137607143Y-80407200D02*
X137559524Y-80359580D01*
X137559524Y-80359580D02*
X137511905Y-80264342D01*
X137511905Y-80264342D02*
X137464286Y-80073866D01*
X137464286Y-80073866D02*
X137464286Y-79835771D01*
X137464286Y-79835771D02*
X137511905Y-79645295D01*
X137511905Y-79645295D02*
X137559524Y-79550057D01*
X137559524Y-79550057D02*
X137607143Y-79502438D01*
X137607143Y-79502438D02*
X137702381Y-79454819D01*
X138416667Y-79550057D02*
X138464286Y-79502438D01*
X138464286Y-79502438D02*
X138559524Y-79454819D01*
X138559524Y-79454819D02*
X138797619Y-79454819D01*
X138797619Y-79454819D02*
X138892857Y-79502438D01*
X138892857Y-79502438D02*
X138940476Y-79550057D01*
X138940476Y-79550057D02*
X138988095Y-79645295D01*
X138988095Y-79645295D02*
X138988095Y-79740533D01*
X138988095Y-79740533D02*
X138940476Y-79883390D01*
X138940476Y-79883390D02*
X138369048Y-80454819D01*
X138369048Y-80454819D02*
X138988095Y-80454819D01*
X134109580Y-71619047D02*
X134157200Y-71666666D01*
X134157200Y-71666666D02*
X134204819Y-71809523D01*
X134204819Y-71809523D02*
X134204819Y-71904761D01*
X134204819Y-71904761D02*
X134157200Y-72047618D01*
X134157200Y-72047618D02*
X134061961Y-72142856D01*
X134061961Y-72142856D02*
X133966723Y-72190475D01*
X133966723Y-72190475D02*
X133776247Y-72238094D01*
X133776247Y-72238094D02*
X133633390Y-72238094D01*
X133633390Y-72238094D02*
X133442914Y-72190475D01*
X133442914Y-72190475D02*
X133347676Y-72142856D01*
X133347676Y-72142856D02*
X133252438Y-72047618D01*
X133252438Y-72047618D02*
X133204819Y-71904761D01*
X133204819Y-71904761D02*
X133204819Y-71809523D01*
X133204819Y-71809523D02*
X133252438Y-71666666D01*
X133252438Y-71666666D02*
X133300057Y-71619047D01*
X134204819Y-70666666D02*
X134204819Y-71238094D01*
X134204819Y-70952380D02*
X133204819Y-70952380D01*
X133204819Y-70952380D02*
X133347676Y-71047618D01*
X133347676Y-71047618D02*
X133442914Y-71142856D01*
X133442914Y-71142856D02*
X133490533Y-71238094D01*
X133204819Y-70047618D02*
X133204819Y-69952380D01*
X133204819Y-69952380D02*
X133252438Y-69857142D01*
X133252438Y-69857142D02*
X133300057Y-69809523D01*
X133300057Y-69809523D02*
X133395295Y-69761904D01*
X133395295Y-69761904D02*
X133585771Y-69714285D01*
X133585771Y-69714285D02*
X133823866Y-69714285D01*
X133823866Y-69714285D02*
X134014342Y-69761904D01*
X134014342Y-69761904D02*
X134109580Y-69809523D01*
X134109580Y-69809523D02*
X134157200Y-69857142D01*
X134157200Y-69857142D02*
X134204819Y-69952380D01*
X134204819Y-69952380D02*
X134204819Y-70047618D01*
X134204819Y-70047618D02*
X134157200Y-70142856D01*
X134157200Y-70142856D02*
X134109580Y-70190475D01*
X134109580Y-70190475D02*
X134014342Y-70238094D01*
X134014342Y-70238094D02*
X133823866Y-70285713D01*
X133823866Y-70285713D02*
X133585771Y-70285713D01*
X133585771Y-70285713D02*
X133395295Y-70238094D01*
X133395295Y-70238094D02*
X133300057Y-70190475D01*
X133300057Y-70190475D02*
X133252438Y-70142856D01*
X133252438Y-70142856D02*
X133204819Y-70047618D01*
X134204819Y-69238094D02*
X134204819Y-69047618D01*
X134204819Y-69047618D02*
X134157200Y-68952380D01*
X134157200Y-68952380D02*
X134109580Y-68904761D01*
X134109580Y-68904761D02*
X133966723Y-68809523D01*
X133966723Y-68809523D02*
X133776247Y-68761904D01*
X133776247Y-68761904D02*
X133395295Y-68761904D01*
X133395295Y-68761904D02*
X133300057Y-68809523D01*
X133300057Y-68809523D02*
X133252438Y-68857142D01*
X133252438Y-68857142D02*
X133204819Y-68952380D01*
X133204819Y-68952380D02*
X133204819Y-69142856D01*
X133204819Y-69142856D02*
X133252438Y-69238094D01*
X133252438Y-69238094D02*
X133300057Y-69285713D01*
X133300057Y-69285713D02*
X133395295Y-69333332D01*
X133395295Y-69333332D02*
X133633390Y-69333332D01*
X133633390Y-69333332D02*
X133728628Y-69285713D01*
X133728628Y-69285713D02*
X133776247Y-69238094D01*
X133776247Y-69238094D02*
X133823866Y-69142856D01*
X133823866Y-69142856D02*
X133823866Y-68952380D01*
X133823866Y-68952380D02*
X133776247Y-68857142D01*
X133776247Y-68857142D02*
X133728628Y-68809523D01*
X133728628Y-68809523D02*
X133633390Y-68761904D01*
X110630952Y-74789580D02*
X110583333Y-74837200D01*
X110583333Y-74837200D02*
X110440476Y-74884819D01*
X110440476Y-74884819D02*
X110345238Y-74884819D01*
X110345238Y-74884819D02*
X110202381Y-74837200D01*
X110202381Y-74837200D02*
X110107143Y-74741961D01*
X110107143Y-74741961D02*
X110059524Y-74646723D01*
X110059524Y-74646723D02*
X110011905Y-74456247D01*
X110011905Y-74456247D02*
X110011905Y-74313390D01*
X110011905Y-74313390D02*
X110059524Y-74122914D01*
X110059524Y-74122914D02*
X110107143Y-74027676D01*
X110107143Y-74027676D02*
X110202381Y-73932438D01*
X110202381Y-73932438D02*
X110345238Y-73884819D01*
X110345238Y-73884819D02*
X110440476Y-73884819D01*
X110440476Y-73884819D02*
X110583333Y-73932438D01*
X110583333Y-73932438D02*
X110630952Y-73980057D01*
X111583333Y-74884819D02*
X111011905Y-74884819D01*
X111297619Y-74884819D02*
X111297619Y-73884819D01*
X111297619Y-73884819D02*
X111202381Y-74027676D01*
X111202381Y-74027676D02*
X111107143Y-74122914D01*
X111107143Y-74122914D02*
X111011905Y-74170533D01*
X112535714Y-74884819D02*
X111964286Y-74884819D01*
X112250000Y-74884819D02*
X112250000Y-73884819D01*
X112250000Y-73884819D02*
X112154762Y-74027676D01*
X112154762Y-74027676D02*
X112059524Y-74122914D01*
X112059524Y-74122914D02*
X111964286Y-74170533D01*
X113440476Y-73884819D02*
X112964286Y-73884819D01*
X112964286Y-73884819D02*
X112916667Y-74361009D01*
X112916667Y-74361009D02*
X112964286Y-74313390D01*
X112964286Y-74313390D02*
X113059524Y-74265771D01*
X113059524Y-74265771D02*
X113297619Y-74265771D01*
X113297619Y-74265771D02*
X113392857Y-74313390D01*
X113392857Y-74313390D02*
X113440476Y-74361009D01*
X113440476Y-74361009D02*
X113488095Y-74456247D01*
X113488095Y-74456247D02*
X113488095Y-74694342D01*
X113488095Y-74694342D02*
X113440476Y-74789580D01*
X113440476Y-74789580D02*
X113392857Y-74837200D01*
X113392857Y-74837200D02*
X113297619Y-74884819D01*
X113297619Y-74884819D02*
X113059524Y-74884819D01*
X113059524Y-74884819D02*
X112964286Y-74837200D01*
X112964286Y-74837200D02*
X112916667Y-74789580D01*
X104130952Y-68859580D02*
X104083333Y-68907200D01*
X104083333Y-68907200D02*
X103940476Y-68954819D01*
X103940476Y-68954819D02*
X103845238Y-68954819D01*
X103845238Y-68954819D02*
X103702381Y-68907200D01*
X103702381Y-68907200D02*
X103607143Y-68811961D01*
X103607143Y-68811961D02*
X103559524Y-68716723D01*
X103559524Y-68716723D02*
X103511905Y-68526247D01*
X103511905Y-68526247D02*
X103511905Y-68383390D01*
X103511905Y-68383390D02*
X103559524Y-68192914D01*
X103559524Y-68192914D02*
X103607143Y-68097676D01*
X103607143Y-68097676D02*
X103702381Y-68002438D01*
X103702381Y-68002438D02*
X103845238Y-67954819D01*
X103845238Y-67954819D02*
X103940476Y-67954819D01*
X103940476Y-67954819D02*
X104083333Y-68002438D01*
X104083333Y-68002438D02*
X104130952Y-68050057D01*
X105083333Y-68954819D02*
X104511905Y-68954819D01*
X104797619Y-68954819D02*
X104797619Y-67954819D01*
X104797619Y-67954819D02*
X104702381Y-68097676D01*
X104702381Y-68097676D02*
X104607143Y-68192914D01*
X104607143Y-68192914D02*
X104511905Y-68240533D01*
X106035714Y-68954819D02*
X105464286Y-68954819D01*
X105750000Y-68954819D02*
X105750000Y-67954819D01*
X105750000Y-67954819D02*
X105654762Y-68097676D01*
X105654762Y-68097676D02*
X105559524Y-68192914D01*
X105559524Y-68192914D02*
X105464286Y-68240533D01*
X106369048Y-67954819D02*
X107035714Y-67954819D01*
X107035714Y-67954819D02*
X106607143Y-68954819D01*
X161454819Y-60285714D02*
X162169104Y-60285714D01*
X162169104Y-60285714D02*
X162311961Y-60333333D01*
X162311961Y-60333333D02*
X162407200Y-60428571D01*
X162407200Y-60428571D02*
X162454819Y-60571428D01*
X162454819Y-60571428D02*
X162454819Y-60666666D01*
X162454819Y-59285714D02*
X162454819Y-59857142D01*
X162454819Y-59571428D02*
X161454819Y-59571428D01*
X161454819Y-59571428D02*
X161597676Y-59666666D01*
X161597676Y-59666666D02*
X161692914Y-59761904D01*
X161692914Y-59761904D02*
X161740533Y-59857142D01*
X161454819Y-58666666D02*
X161454819Y-58571428D01*
X161454819Y-58571428D02*
X161502438Y-58476190D01*
X161502438Y-58476190D02*
X161550057Y-58428571D01*
X161550057Y-58428571D02*
X161645295Y-58380952D01*
X161645295Y-58380952D02*
X161835771Y-58333333D01*
X161835771Y-58333333D02*
X162073866Y-58333333D01*
X162073866Y-58333333D02*
X162264342Y-58380952D01*
X162264342Y-58380952D02*
X162359580Y-58428571D01*
X162359580Y-58428571D02*
X162407200Y-58476190D01*
X162407200Y-58476190D02*
X162454819Y-58571428D01*
X162454819Y-58571428D02*
X162454819Y-58666666D01*
X162454819Y-58666666D02*
X162407200Y-58761904D01*
X162407200Y-58761904D02*
X162359580Y-58809523D01*
X162359580Y-58809523D02*
X162264342Y-58857142D01*
X162264342Y-58857142D02*
X162073866Y-58904761D01*
X162073866Y-58904761D02*
X161835771Y-58904761D01*
X161835771Y-58904761D02*
X161645295Y-58857142D01*
X161645295Y-58857142D02*
X161550057Y-58809523D01*
X161550057Y-58809523D02*
X161502438Y-58761904D01*
X161502438Y-58761904D02*
X161454819Y-58666666D01*
X161454819Y-57999999D02*
X161454819Y-57333333D01*
X161454819Y-57333333D02*
X162454819Y-57761904D01*
X132380952Y-81109580D02*
X132333333Y-81157200D01*
X132333333Y-81157200D02*
X132190476Y-81204819D01*
X132190476Y-81204819D02*
X132095238Y-81204819D01*
X132095238Y-81204819D02*
X131952381Y-81157200D01*
X131952381Y-81157200D02*
X131857143Y-81061961D01*
X131857143Y-81061961D02*
X131809524Y-80966723D01*
X131809524Y-80966723D02*
X131761905Y-80776247D01*
X131761905Y-80776247D02*
X131761905Y-80633390D01*
X131761905Y-80633390D02*
X131809524Y-80442914D01*
X131809524Y-80442914D02*
X131857143Y-80347676D01*
X131857143Y-80347676D02*
X131952381Y-80252438D01*
X131952381Y-80252438D02*
X132095238Y-80204819D01*
X132095238Y-80204819D02*
X132190476Y-80204819D01*
X132190476Y-80204819D02*
X132333333Y-80252438D01*
X132333333Y-80252438D02*
X132380952Y-80300057D01*
X133333333Y-81204819D02*
X132761905Y-81204819D01*
X133047619Y-81204819D02*
X133047619Y-80204819D01*
X133047619Y-80204819D02*
X132952381Y-80347676D01*
X132952381Y-80347676D02*
X132857143Y-80442914D01*
X132857143Y-80442914D02*
X132761905Y-80490533D01*
X134285714Y-81204819D02*
X133714286Y-81204819D01*
X134000000Y-81204819D02*
X134000000Y-80204819D01*
X134000000Y-80204819D02*
X133904762Y-80347676D01*
X133904762Y-80347676D02*
X133809524Y-80442914D01*
X133809524Y-80442914D02*
X133714286Y-80490533D01*
X134666667Y-80300057D02*
X134714286Y-80252438D01*
X134714286Y-80252438D02*
X134809524Y-80204819D01*
X134809524Y-80204819D02*
X135047619Y-80204819D01*
X135047619Y-80204819D02*
X135142857Y-80252438D01*
X135142857Y-80252438D02*
X135190476Y-80300057D01*
X135190476Y-80300057D02*
X135238095Y-80395295D01*
X135238095Y-80395295D02*
X135238095Y-80490533D01*
X135238095Y-80490533D02*
X135190476Y-80633390D01*
X135190476Y-80633390D02*
X134619048Y-81204819D01*
X134619048Y-81204819D02*
X135238095Y-81204819D01*
X133562295Y-76621428D02*
X134209914Y-76621428D01*
X134209914Y-76621428D02*
X134286104Y-76583333D01*
X134286104Y-76583333D02*
X134324200Y-76545238D01*
X134324200Y-76545238D02*
X134362295Y-76469047D01*
X134362295Y-76469047D02*
X134362295Y-76316666D01*
X134362295Y-76316666D02*
X134324200Y-76240476D01*
X134324200Y-76240476D02*
X134286104Y-76202381D01*
X134286104Y-76202381D02*
X134209914Y-76164285D01*
X134209914Y-76164285D02*
X133562295Y-76164285D01*
X134362295Y-75364286D02*
X134362295Y-75821429D01*
X134362295Y-75592857D02*
X133562295Y-75592857D01*
X133562295Y-75592857D02*
X133676580Y-75669048D01*
X133676580Y-75669048D02*
X133752771Y-75745238D01*
X133752771Y-75745238D02*
X133790866Y-75821429D01*
X133562295Y-74869047D02*
X133562295Y-74792857D01*
X133562295Y-74792857D02*
X133600390Y-74716666D01*
X133600390Y-74716666D02*
X133638485Y-74678571D01*
X133638485Y-74678571D02*
X133714676Y-74640476D01*
X133714676Y-74640476D02*
X133867057Y-74602381D01*
X133867057Y-74602381D02*
X134057533Y-74602381D01*
X134057533Y-74602381D02*
X134209914Y-74640476D01*
X134209914Y-74640476D02*
X134286104Y-74678571D01*
X134286104Y-74678571D02*
X134324200Y-74716666D01*
X134324200Y-74716666D02*
X134362295Y-74792857D01*
X134362295Y-74792857D02*
X134362295Y-74869047D01*
X134362295Y-74869047D02*
X134324200Y-74945238D01*
X134324200Y-74945238D02*
X134286104Y-74983333D01*
X134286104Y-74983333D02*
X134209914Y-75021428D01*
X134209914Y-75021428D02*
X134057533Y-75059524D01*
X134057533Y-75059524D02*
X133867057Y-75059524D01*
X133867057Y-75059524D02*
X133714676Y-75021428D01*
X133714676Y-75021428D02*
X133638485Y-74983333D01*
X133638485Y-74983333D02*
X133600390Y-74945238D01*
X133600390Y-74945238D02*
X133562295Y-74869047D01*
X133562295Y-74335714D02*
X133562295Y-73840476D01*
X133562295Y-73840476D02*
X133867057Y-74107142D01*
X133867057Y-74107142D02*
X133867057Y-73992857D01*
X133867057Y-73992857D02*
X133905152Y-73916666D01*
X133905152Y-73916666D02*
X133943247Y-73878571D01*
X133943247Y-73878571D02*
X134019438Y-73840476D01*
X134019438Y-73840476D02*
X134209914Y-73840476D01*
X134209914Y-73840476D02*
X134286104Y-73878571D01*
X134286104Y-73878571D02*
X134324200Y-73916666D01*
X134324200Y-73916666D02*
X134362295Y-73992857D01*
X134362295Y-73992857D02*
X134362295Y-74221428D01*
X134362295Y-74221428D02*
X134324200Y-74297619D01*
X134324200Y-74297619D02*
X134286104Y-74335714D01*
X144429580Y-71394047D02*
X144477200Y-71441666D01*
X144477200Y-71441666D02*
X144524819Y-71584523D01*
X144524819Y-71584523D02*
X144524819Y-71679761D01*
X144524819Y-71679761D02*
X144477200Y-71822618D01*
X144477200Y-71822618D02*
X144381961Y-71917856D01*
X144381961Y-71917856D02*
X144286723Y-71965475D01*
X144286723Y-71965475D02*
X144096247Y-72013094D01*
X144096247Y-72013094D02*
X143953390Y-72013094D01*
X143953390Y-72013094D02*
X143762914Y-71965475D01*
X143762914Y-71965475D02*
X143667676Y-71917856D01*
X143667676Y-71917856D02*
X143572438Y-71822618D01*
X143572438Y-71822618D02*
X143524819Y-71679761D01*
X143524819Y-71679761D02*
X143524819Y-71584523D01*
X143524819Y-71584523D02*
X143572438Y-71441666D01*
X143572438Y-71441666D02*
X143620057Y-71394047D01*
X144524819Y-70441666D02*
X144524819Y-71013094D01*
X144524819Y-70727380D02*
X143524819Y-70727380D01*
X143524819Y-70727380D02*
X143667676Y-70822618D01*
X143667676Y-70822618D02*
X143762914Y-70917856D01*
X143762914Y-70917856D02*
X143810533Y-71013094D01*
X143524819Y-69822618D02*
X143524819Y-69727380D01*
X143524819Y-69727380D02*
X143572438Y-69632142D01*
X143572438Y-69632142D02*
X143620057Y-69584523D01*
X143620057Y-69584523D02*
X143715295Y-69536904D01*
X143715295Y-69536904D02*
X143905771Y-69489285D01*
X143905771Y-69489285D02*
X144143866Y-69489285D01*
X144143866Y-69489285D02*
X144334342Y-69536904D01*
X144334342Y-69536904D02*
X144429580Y-69584523D01*
X144429580Y-69584523D02*
X144477200Y-69632142D01*
X144477200Y-69632142D02*
X144524819Y-69727380D01*
X144524819Y-69727380D02*
X144524819Y-69822618D01*
X144524819Y-69822618D02*
X144477200Y-69917856D01*
X144477200Y-69917856D02*
X144429580Y-69965475D01*
X144429580Y-69965475D02*
X144334342Y-70013094D01*
X144334342Y-70013094D02*
X144143866Y-70060713D01*
X144143866Y-70060713D02*
X143905771Y-70060713D01*
X143905771Y-70060713D02*
X143715295Y-70013094D01*
X143715295Y-70013094D02*
X143620057Y-69965475D01*
X143620057Y-69965475D02*
X143572438Y-69917856D01*
X143572438Y-69917856D02*
X143524819Y-69822618D01*
X143524819Y-69155951D02*
X143524819Y-68536904D01*
X143524819Y-68536904D02*
X143905771Y-68870237D01*
X143905771Y-68870237D02*
X143905771Y-68727380D01*
X143905771Y-68727380D02*
X143953390Y-68632142D01*
X143953390Y-68632142D02*
X144001009Y-68584523D01*
X144001009Y-68584523D02*
X144096247Y-68536904D01*
X144096247Y-68536904D02*
X144334342Y-68536904D01*
X144334342Y-68536904D02*
X144429580Y-68584523D01*
X144429580Y-68584523D02*
X144477200Y-68632142D01*
X144477200Y-68632142D02*
X144524819Y-68727380D01*
X144524819Y-68727380D02*
X144524819Y-69013094D01*
X144524819Y-69013094D02*
X144477200Y-69108332D01*
X144477200Y-69108332D02*
X144429580Y-69155951D01*
X110880952Y-53454819D02*
X110547619Y-52978628D01*
X110309524Y-53454819D02*
X110309524Y-52454819D01*
X110309524Y-52454819D02*
X110690476Y-52454819D01*
X110690476Y-52454819D02*
X110785714Y-52502438D01*
X110785714Y-52502438D02*
X110833333Y-52550057D01*
X110833333Y-52550057D02*
X110880952Y-52645295D01*
X110880952Y-52645295D02*
X110880952Y-52788152D01*
X110880952Y-52788152D02*
X110833333Y-52883390D01*
X110833333Y-52883390D02*
X110785714Y-52931009D01*
X110785714Y-52931009D02*
X110690476Y-52978628D01*
X110690476Y-52978628D02*
X110309524Y-52978628D01*
X111833333Y-53454819D02*
X111261905Y-53454819D01*
X111547619Y-53454819D02*
X111547619Y-52454819D01*
X111547619Y-52454819D02*
X111452381Y-52597676D01*
X111452381Y-52597676D02*
X111357143Y-52692914D01*
X111357143Y-52692914D02*
X111261905Y-52740533D01*
X112452381Y-52454819D02*
X112547619Y-52454819D01*
X112547619Y-52454819D02*
X112642857Y-52502438D01*
X112642857Y-52502438D02*
X112690476Y-52550057D01*
X112690476Y-52550057D02*
X112738095Y-52645295D01*
X112738095Y-52645295D02*
X112785714Y-52835771D01*
X112785714Y-52835771D02*
X112785714Y-53073866D01*
X112785714Y-53073866D02*
X112738095Y-53264342D01*
X112738095Y-53264342D02*
X112690476Y-53359580D01*
X112690476Y-53359580D02*
X112642857Y-53407200D01*
X112642857Y-53407200D02*
X112547619Y-53454819D01*
X112547619Y-53454819D02*
X112452381Y-53454819D01*
X112452381Y-53454819D02*
X112357143Y-53407200D01*
X112357143Y-53407200D02*
X112309524Y-53359580D01*
X112309524Y-53359580D02*
X112261905Y-53264342D01*
X112261905Y-53264342D02*
X112214286Y-53073866D01*
X112214286Y-53073866D02*
X112214286Y-52835771D01*
X112214286Y-52835771D02*
X112261905Y-52645295D01*
X112261905Y-52645295D02*
X112309524Y-52550057D01*
X112309524Y-52550057D02*
X112357143Y-52502438D01*
X112357143Y-52502438D02*
X112452381Y-52454819D01*
X113119048Y-52454819D02*
X113738095Y-52454819D01*
X113738095Y-52454819D02*
X113404762Y-52835771D01*
X113404762Y-52835771D02*
X113547619Y-52835771D01*
X113547619Y-52835771D02*
X113642857Y-52883390D01*
X113642857Y-52883390D02*
X113690476Y-52931009D01*
X113690476Y-52931009D02*
X113738095Y-53026247D01*
X113738095Y-53026247D02*
X113738095Y-53264342D01*
X113738095Y-53264342D02*
X113690476Y-53359580D01*
X113690476Y-53359580D02*
X113642857Y-53407200D01*
X113642857Y-53407200D02*
X113547619Y-53454819D01*
X113547619Y-53454819D02*
X113261905Y-53454819D01*
X113261905Y-53454819D02*
X113166667Y-53407200D01*
X113166667Y-53407200D02*
X113119048Y-53359580D01*
X110755952Y-66859580D02*
X110708333Y-66907200D01*
X110708333Y-66907200D02*
X110565476Y-66954819D01*
X110565476Y-66954819D02*
X110470238Y-66954819D01*
X110470238Y-66954819D02*
X110327381Y-66907200D01*
X110327381Y-66907200D02*
X110232143Y-66811961D01*
X110232143Y-66811961D02*
X110184524Y-66716723D01*
X110184524Y-66716723D02*
X110136905Y-66526247D01*
X110136905Y-66526247D02*
X110136905Y-66383390D01*
X110136905Y-66383390D02*
X110184524Y-66192914D01*
X110184524Y-66192914D02*
X110232143Y-66097676D01*
X110232143Y-66097676D02*
X110327381Y-66002438D01*
X110327381Y-66002438D02*
X110470238Y-65954819D01*
X110470238Y-65954819D02*
X110565476Y-65954819D01*
X110565476Y-65954819D02*
X110708333Y-66002438D01*
X110708333Y-66002438D02*
X110755952Y-66050057D01*
X111708333Y-66954819D02*
X111136905Y-66954819D01*
X111422619Y-66954819D02*
X111422619Y-65954819D01*
X111422619Y-65954819D02*
X111327381Y-66097676D01*
X111327381Y-66097676D02*
X111232143Y-66192914D01*
X111232143Y-66192914D02*
X111136905Y-66240533D01*
X112660714Y-66954819D02*
X112089286Y-66954819D01*
X112375000Y-66954819D02*
X112375000Y-65954819D01*
X112375000Y-65954819D02*
X112279762Y-66097676D01*
X112279762Y-66097676D02*
X112184524Y-66192914D01*
X112184524Y-66192914D02*
X112089286Y-66240533D01*
X113517857Y-65954819D02*
X113327381Y-65954819D01*
X113327381Y-65954819D02*
X113232143Y-66002438D01*
X113232143Y-66002438D02*
X113184524Y-66050057D01*
X113184524Y-66050057D02*
X113089286Y-66192914D01*
X113089286Y-66192914D02*
X113041667Y-66383390D01*
X113041667Y-66383390D02*
X113041667Y-66764342D01*
X113041667Y-66764342D02*
X113089286Y-66859580D01*
X113089286Y-66859580D02*
X113136905Y-66907200D01*
X113136905Y-66907200D02*
X113232143Y-66954819D01*
X113232143Y-66954819D02*
X113422619Y-66954819D01*
X113422619Y-66954819D02*
X113517857Y-66907200D01*
X113517857Y-66907200D02*
X113565476Y-66859580D01*
X113565476Y-66859580D02*
X113613095Y-66764342D01*
X113613095Y-66764342D02*
X113613095Y-66526247D01*
X113613095Y-66526247D02*
X113565476Y-66431009D01*
X113565476Y-66431009D02*
X113517857Y-66383390D01*
X113517857Y-66383390D02*
X113422619Y-66335771D01*
X113422619Y-66335771D02*
X113232143Y-66335771D01*
X113232143Y-66335771D02*
X113136905Y-66383390D01*
X113136905Y-66383390D02*
X113089286Y-66431009D01*
X113089286Y-66431009D02*
X113041667Y-66526247D01*
X114804819Y-74714285D02*
X115614342Y-74714285D01*
X115614342Y-74714285D02*
X115709580Y-74666666D01*
X115709580Y-74666666D02*
X115757200Y-74619047D01*
X115757200Y-74619047D02*
X115804819Y-74523809D01*
X115804819Y-74523809D02*
X115804819Y-74333333D01*
X115804819Y-74333333D02*
X115757200Y-74238095D01*
X115757200Y-74238095D02*
X115709580Y-74190476D01*
X115709580Y-74190476D02*
X115614342Y-74142857D01*
X115614342Y-74142857D02*
X114804819Y-74142857D01*
X115804819Y-73142857D02*
X115804819Y-73714285D01*
X115804819Y-73428571D02*
X114804819Y-73428571D01*
X114804819Y-73428571D02*
X114947676Y-73523809D01*
X114947676Y-73523809D02*
X115042914Y-73619047D01*
X115042914Y-73619047D02*
X115090533Y-73714285D01*
X114804819Y-72523809D02*
X114804819Y-72428571D01*
X114804819Y-72428571D02*
X114852438Y-72333333D01*
X114852438Y-72333333D02*
X114900057Y-72285714D01*
X114900057Y-72285714D02*
X114995295Y-72238095D01*
X114995295Y-72238095D02*
X115185771Y-72190476D01*
X115185771Y-72190476D02*
X115423866Y-72190476D01*
X115423866Y-72190476D02*
X115614342Y-72238095D01*
X115614342Y-72238095D02*
X115709580Y-72285714D01*
X115709580Y-72285714D02*
X115757200Y-72333333D01*
X115757200Y-72333333D02*
X115804819Y-72428571D01*
X115804819Y-72428571D02*
X115804819Y-72523809D01*
X115804819Y-72523809D02*
X115757200Y-72619047D01*
X115757200Y-72619047D02*
X115709580Y-72666666D01*
X115709580Y-72666666D02*
X115614342Y-72714285D01*
X115614342Y-72714285D02*
X115423866Y-72761904D01*
X115423866Y-72761904D02*
X115185771Y-72761904D01*
X115185771Y-72761904D02*
X114995295Y-72714285D01*
X114995295Y-72714285D02*
X114900057Y-72666666D01*
X114900057Y-72666666D02*
X114852438Y-72619047D01*
X114852438Y-72619047D02*
X114804819Y-72523809D01*
X114804819Y-71285714D02*
X114804819Y-71761904D01*
X114804819Y-71761904D02*
X115281009Y-71809523D01*
X115281009Y-71809523D02*
X115233390Y-71761904D01*
X115233390Y-71761904D02*
X115185771Y-71666666D01*
X115185771Y-71666666D02*
X115185771Y-71428571D01*
X115185771Y-71428571D02*
X115233390Y-71333333D01*
X115233390Y-71333333D02*
X115281009Y-71285714D01*
X115281009Y-71285714D02*
X115376247Y-71238095D01*
X115376247Y-71238095D02*
X115614342Y-71238095D01*
X115614342Y-71238095D02*
X115709580Y-71285714D01*
X115709580Y-71285714D02*
X115757200Y-71333333D01*
X115757200Y-71333333D02*
X115804819Y-71428571D01*
X115804819Y-71428571D02*
X115804819Y-71666666D01*
X115804819Y-71666666D02*
X115757200Y-71761904D01*
X115757200Y-71761904D02*
X115709580Y-71809523D01*
X106454819Y-74690475D02*
X105454819Y-74690475D01*
X105454819Y-74690475D02*
X105454819Y-74452380D01*
X105454819Y-74452380D02*
X105502438Y-74309523D01*
X105502438Y-74309523D02*
X105597676Y-74214285D01*
X105597676Y-74214285D02*
X105692914Y-74166666D01*
X105692914Y-74166666D02*
X105883390Y-74119047D01*
X105883390Y-74119047D02*
X106026247Y-74119047D01*
X106026247Y-74119047D02*
X106216723Y-74166666D01*
X106216723Y-74166666D02*
X106311961Y-74214285D01*
X106311961Y-74214285D02*
X106407200Y-74309523D01*
X106407200Y-74309523D02*
X106454819Y-74452380D01*
X106454819Y-74452380D02*
X106454819Y-74690475D01*
X106454819Y-73166666D02*
X106454819Y-73738094D01*
X106454819Y-73452380D02*
X105454819Y-73452380D01*
X105454819Y-73452380D02*
X105597676Y-73547618D01*
X105597676Y-73547618D02*
X105692914Y-73642856D01*
X105692914Y-73642856D02*
X105740533Y-73738094D01*
X105454819Y-72547618D02*
X105454819Y-72452380D01*
X105454819Y-72452380D02*
X105502438Y-72357142D01*
X105502438Y-72357142D02*
X105550057Y-72309523D01*
X105550057Y-72309523D02*
X105645295Y-72261904D01*
X105645295Y-72261904D02*
X105835771Y-72214285D01*
X105835771Y-72214285D02*
X106073866Y-72214285D01*
X106073866Y-72214285D02*
X106264342Y-72261904D01*
X106264342Y-72261904D02*
X106359580Y-72309523D01*
X106359580Y-72309523D02*
X106407200Y-72357142D01*
X106407200Y-72357142D02*
X106454819Y-72452380D01*
X106454819Y-72452380D02*
X106454819Y-72547618D01*
X106454819Y-72547618D02*
X106407200Y-72642856D01*
X106407200Y-72642856D02*
X106359580Y-72690475D01*
X106359580Y-72690475D02*
X106264342Y-72738094D01*
X106264342Y-72738094D02*
X106073866Y-72785713D01*
X106073866Y-72785713D02*
X105835771Y-72785713D01*
X105835771Y-72785713D02*
X105645295Y-72738094D01*
X105645295Y-72738094D02*
X105550057Y-72690475D01*
X105550057Y-72690475D02*
X105502438Y-72642856D01*
X105502438Y-72642856D02*
X105454819Y-72547618D01*
X105788152Y-71357142D02*
X106454819Y-71357142D01*
X105407200Y-71595237D02*
X106121485Y-71833332D01*
X106121485Y-71833332D02*
X106121485Y-71214285D01*
X146539580Y-84869047D02*
X146587200Y-84916666D01*
X146587200Y-84916666D02*
X146634819Y-85059523D01*
X146634819Y-85059523D02*
X146634819Y-85154761D01*
X146634819Y-85154761D02*
X146587200Y-85297618D01*
X146587200Y-85297618D02*
X146491961Y-85392856D01*
X146491961Y-85392856D02*
X146396723Y-85440475D01*
X146396723Y-85440475D02*
X146206247Y-85488094D01*
X146206247Y-85488094D02*
X146063390Y-85488094D01*
X146063390Y-85488094D02*
X145872914Y-85440475D01*
X145872914Y-85440475D02*
X145777676Y-85392856D01*
X145777676Y-85392856D02*
X145682438Y-85297618D01*
X145682438Y-85297618D02*
X145634819Y-85154761D01*
X145634819Y-85154761D02*
X145634819Y-85059523D01*
X145634819Y-85059523D02*
X145682438Y-84916666D01*
X145682438Y-84916666D02*
X145730057Y-84869047D01*
X146634819Y-83916666D02*
X146634819Y-84488094D01*
X146634819Y-84202380D02*
X145634819Y-84202380D01*
X145634819Y-84202380D02*
X145777676Y-84297618D01*
X145777676Y-84297618D02*
X145872914Y-84392856D01*
X145872914Y-84392856D02*
X145920533Y-84488094D01*
X145634819Y-83297618D02*
X145634819Y-83202380D01*
X145634819Y-83202380D02*
X145682438Y-83107142D01*
X145682438Y-83107142D02*
X145730057Y-83059523D01*
X145730057Y-83059523D02*
X145825295Y-83011904D01*
X145825295Y-83011904D02*
X146015771Y-82964285D01*
X146015771Y-82964285D02*
X146253866Y-82964285D01*
X146253866Y-82964285D02*
X146444342Y-83011904D01*
X146444342Y-83011904D02*
X146539580Y-83059523D01*
X146539580Y-83059523D02*
X146587200Y-83107142D01*
X146587200Y-83107142D02*
X146634819Y-83202380D01*
X146634819Y-83202380D02*
X146634819Y-83297618D01*
X146634819Y-83297618D02*
X146587200Y-83392856D01*
X146587200Y-83392856D02*
X146539580Y-83440475D01*
X146539580Y-83440475D02*
X146444342Y-83488094D01*
X146444342Y-83488094D02*
X146253866Y-83535713D01*
X146253866Y-83535713D02*
X146015771Y-83535713D01*
X146015771Y-83535713D02*
X145825295Y-83488094D01*
X145825295Y-83488094D02*
X145730057Y-83440475D01*
X145730057Y-83440475D02*
X145682438Y-83392856D01*
X145682438Y-83392856D02*
X145634819Y-83297618D01*
X146634819Y-82011904D02*
X146634819Y-82583332D01*
X146634819Y-82297618D02*
X145634819Y-82297618D01*
X145634819Y-82297618D02*
X145777676Y-82392856D01*
X145777676Y-82392856D02*
X145872914Y-82488094D01*
X145872914Y-82488094D02*
X145920533Y-82583332D01*
X122630952Y-68859580D02*
X122583333Y-68907200D01*
X122583333Y-68907200D02*
X122440476Y-68954819D01*
X122440476Y-68954819D02*
X122345238Y-68954819D01*
X122345238Y-68954819D02*
X122202381Y-68907200D01*
X122202381Y-68907200D02*
X122107143Y-68811961D01*
X122107143Y-68811961D02*
X122059524Y-68716723D01*
X122059524Y-68716723D02*
X122011905Y-68526247D01*
X122011905Y-68526247D02*
X122011905Y-68383390D01*
X122011905Y-68383390D02*
X122059524Y-68192914D01*
X122059524Y-68192914D02*
X122107143Y-68097676D01*
X122107143Y-68097676D02*
X122202381Y-68002438D01*
X122202381Y-68002438D02*
X122345238Y-67954819D01*
X122345238Y-67954819D02*
X122440476Y-67954819D01*
X122440476Y-67954819D02*
X122583333Y-68002438D01*
X122583333Y-68002438D02*
X122630952Y-68050057D01*
X123583333Y-68954819D02*
X123011905Y-68954819D01*
X123297619Y-68954819D02*
X123297619Y-67954819D01*
X123297619Y-67954819D02*
X123202381Y-68097676D01*
X123202381Y-68097676D02*
X123107143Y-68192914D01*
X123107143Y-68192914D02*
X123011905Y-68240533D01*
X124535714Y-68954819D02*
X123964286Y-68954819D01*
X124250000Y-68954819D02*
X124250000Y-67954819D01*
X124250000Y-67954819D02*
X124154762Y-68097676D01*
X124154762Y-68097676D02*
X124059524Y-68192914D01*
X124059524Y-68192914D02*
X123964286Y-68240533D01*
X125154762Y-67954819D02*
X125250000Y-67954819D01*
X125250000Y-67954819D02*
X125345238Y-68002438D01*
X125345238Y-68002438D02*
X125392857Y-68050057D01*
X125392857Y-68050057D02*
X125440476Y-68145295D01*
X125440476Y-68145295D02*
X125488095Y-68335771D01*
X125488095Y-68335771D02*
X125488095Y-68573866D01*
X125488095Y-68573866D02*
X125440476Y-68764342D01*
X125440476Y-68764342D02*
X125392857Y-68859580D01*
X125392857Y-68859580D02*
X125345238Y-68907200D01*
X125345238Y-68907200D02*
X125250000Y-68954819D01*
X125250000Y-68954819D02*
X125154762Y-68954819D01*
X125154762Y-68954819D02*
X125059524Y-68907200D01*
X125059524Y-68907200D02*
X125011905Y-68859580D01*
X125011905Y-68859580D02*
X124964286Y-68764342D01*
X124964286Y-68764342D02*
X124916667Y-68573866D01*
X124916667Y-68573866D02*
X124916667Y-68335771D01*
X124916667Y-68335771D02*
X124964286Y-68145295D01*
X124964286Y-68145295D02*
X125011905Y-68050057D01*
X125011905Y-68050057D02*
X125059524Y-68002438D01*
X125059524Y-68002438D02*
X125154762Y-67954819D01*
X141059524Y-91204819D02*
X141059524Y-90204819D01*
X141059524Y-90204819D02*
X141297619Y-90204819D01*
X141297619Y-90204819D02*
X141440476Y-90252438D01*
X141440476Y-90252438D02*
X141535714Y-90347676D01*
X141535714Y-90347676D02*
X141583333Y-90442914D01*
X141583333Y-90442914D02*
X141630952Y-90633390D01*
X141630952Y-90633390D02*
X141630952Y-90776247D01*
X141630952Y-90776247D02*
X141583333Y-90966723D01*
X141583333Y-90966723D02*
X141535714Y-91061961D01*
X141535714Y-91061961D02*
X141440476Y-91157200D01*
X141440476Y-91157200D02*
X141297619Y-91204819D01*
X141297619Y-91204819D02*
X141059524Y-91204819D01*
X142583333Y-91204819D02*
X142011905Y-91204819D01*
X142297619Y-91204819D02*
X142297619Y-90204819D01*
X142297619Y-90204819D02*
X142202381Y-90347676D01*
X142202381Y-90347676D02*
X142107143Y-90442914D01*
X142107143Y-90442914D02*
X142011905Y-90490533D01*
X143202381Y-90204819D02*
X143297619Y-90204819D01*
X143297619Y-90204819D02*
X143392857Y-90252438D01*
X143392857Y-90252438D02*
X143440476Y-90300057D01*
X143440476Y-90300057D02*
X143488095Y-90395295D01*
X143488095Y-90395295D02*
X143535714Y-90585771D01*
X143535714Y-90585771D02*
X143535714Y-90823866D01*
X143535714Y-90823866D02*
X143488095Y-91014342D01*
X143488095Y-91014342D02*
X143440476Y-91109580D01*
X143440476Y-91109580D02*
X143392857Y-91157200D01*
X143392857Y-91157200D02*
X143297619Y-91204819D01*
X143297619Y-91204819D02*
X143202381Y-91204819D01*
X143202381Y-91204819D02*
X143107143Y-91157200D01*
X143107143Y-91157200D02*
X143059524Y-91109580D01*
X143059524Y-91109580D02*
X143011905Y-91014342D01*
X143011905Y-91014342D02*
X142964286Y-90823866D01*
X142964286Y-90823866D02*
X142964286Y-90585771D01*
X142964286Y-90585771D02*
X143011905Y-90395295D01*
X143011905Y-90395295D02*
X143059524Y-90300057D01*
X143059524Y-90300057D02*
X143107143Y-90252438D01*
X143107143Y-90252438D02*
X143202381Y-90204819D01*
X143869048Y-90204819D02*
X144488095Y-90204819D01*
X144488095Y-90204819D02*
X144154762Y-90585771D01*
X144154762Y-90585771D02*
X144297619Y-90585771D01*
X144297619Y-90585771D02*
X144392857Y-90633390D01*
X144392857Y-90633390D02*
X144440476Y-90681009D01*
X144440476Y-90681009D02*
X144488095Y-90776247D01*
X144488095Y-90776247D02*
X144488095Y-91014342D01*
X144488095Y-91014342D02*
X144440476Y-91109580D01*
X144440476Y-91109580D02*
X144392857Y-91157200D01*
X144392857Y-91157200D02*
X144297619Y-91204819D01*
X144297619Y-91204819D02*
X144011905Y-91204819D01*
X144011905Y-91204819D02*
X143916667Y-91157200D01*
X143916667Y-91157200D02*
X143869048Y-91109580D01*
X120454819Y-60464285D02*
X121264342Y-60464285D01*
X121264342Y-60464285D02*
X121359580Y-60416666D01*
X121359580Y-60416666D02*
X121407200Y-60369047D01*
X121407200Y-60369047D02*
X121454819Y-60273809D01*
X121454819Y-60273809D02*
X121454819Y-60083333D01*
X121454819Y-60083333D02*
X121407200Y-59988095D01*
X121407200Y-59988095D02*
X121359580Y-59940476D01*
X121359580Y-59940476D02*
X121264342Y-59892857D01*
X121264342Y-59892857D02*
X120454819Y-59892857D01*
X121454819Y-58892857D02*
X121454819Y-59464285D01*
X121454819Y-59178571D02*
X120454819Y-59178571D01*
X120454819Y-59178571D02*
X120597676Y-59273809D01*
X120597676Y-59273809D02*
X120692914Y-59369047D01*
X120692914Y-59369047D02*
X120740533Y-59464285D01*
X120454819Y-58273809D02*
X120454819Y-58178571D01*
X120454819Y-58178571D02*
X120502438Y-58083333D01*
X120502438Y-58083333D02*
X120550057Y-58035714D01*
X120550057Y-58035714D02*
X120645295Y-57988095D01*
X120645295Y-57988095D02*
X120835771Y-57940476D01*
X120835771Y-57940476D02*
X121073866Y-57940476D01*
X121073866Y-57940476D02*
X121264342Y-57988095D01*
X121264342Y-57988095D02*
X121359580Y-58035714D01*
X121359580Y-58035714D02*
X121407200Y-58083333D01*
X121407200Y-58083333D02*
X121454819Y-58178571D01*
X121454819Y-58178571D02*
X121454819Y-58273809D01*
X121454819Y-58273809D02*
X121407200Y-58369047D01*
X121407200Y-58369047D02*
X121359580Y-58416666D01*
X121359580Y-58416666D02*
X121264342Y-58464285D01*
X121264342Y-58464285D02*
X121073866Y-58511904D01*
X121073866Y-58511904D02*
X120835771Y-58511904D01*
X120835771Y-58511904D02*
X120645295Y-58464285D01*
X120645295Y-58464285D02*
X120550057Y-58416666D01*
X120550057Y-58416666D02*
X120502438Y-58369047D01*
X120502438Y-58369047D02*
X120454819Y-58273809D01*
X120454819Y-57083333D02*
X120454819Y-57273809D01*
X120454819Y-57273809D02*
X120502438Y-57369047D01*
X120502438Y-57369047D02*
X120550057Y-57416666D01*
X120550057Y-57416666D02*
X120692914Y-57511904D01*
X120692914Y-57511904D02*
X120883390Y-57559523D01*
X120883390Y-57559523D02*
X121264342Y-57559523D01*
X121264342Y-57559523D02*
X121359580Y-57511904D01*
X121359580Y-57511904D02*
X121407200Y-57464285D01*
X121407200Y-57464285D02*
X121454819Y-57369047D01*
X121454819Y-57369047D02*
X121454819Y-57178571D01*
X121454819Y-57178571D02*
X121407200Y-57083333D01*
X121407200Y-57083333D02*
X121359580Y-57035714D01*
X121359580Y-57035714D02*
X121264342Y-56988095D01*
X121264342Y-56988095D02*
X121026247Y-56988095D01*
X121026247Y-56988095D02*
X120931009Y-57035714D01*
X120931009Y-57035714D02*
X120883390Y-57083333D01*
X120883390Y-57083333D02*
X120835771Y-57178571D01*
X120835771Y-57178571D02*
X120835771Y-57369047D01*
X120835771Y-57369047D02*
X120883390Y-57464285D01*
X120883390Y-57464285D02*
X120931009Y-57511904D01*
X120931009Y-57511904D02*
X121026247Y-57559523D01*
X133354295Y-63831428D02*
X134001914Y-63831428D01*
X134001914Y-63831428D02*
X134078104Y-63793333D01*
X134078104Y-63793333D02*
X134116200Y-63755238D01*
X134116200Y-63755238D02*
X134154295Y-63679047D01*
X134154295Y-63679047D02*
X134154295Y-63526666D01*
X134154295Y-63526666D02*
X134116200Y-63450476D01*
X134116200Y-63450476D02*
X134078104Y-63412381D01*
X134078104Y-63412381D02*
X134001914Y-63374285D01*
X134001914Y-63374285D02*
X133354295Y-63374285D01*
X134154295Y-62574286D02*
X134154295Y-63031429D01*
X134154295Y-62802857D02*
X133354295Y-62802857D01*
X133354295Y-62802857D02*
X133468580Y-62879048D01*
X133468580Y-62879048D02*
X133544771Y-62955238D01*
X133544771Y-62955238D02*
X133582866Y-63031429D01*
X133354295Y-62079047D02*
X133354295Y-62002857D01*
X133354295Y-62002857D02*
X133392390Y-61926666D01*
X133392390Y-61926666D02*
X133430485Y-61888571D01*
X133430485Y-61888571D02*
X133506676Y-61850476D01*
X133506676Y-61850476D02*
X133659057Y-61812381D01*
X133659057Y-61812381D02*
X133849533Y-61812381D01*
X133849533Y-61812381D02*
X134001914Y-61850476D01*
X134001914Y-61850476D02*
X134078104Y-61888571D01*
X134078104Y-61888571D02*
X134116200Y-61926666D01*
X134116200Y-61926666D02*
X134154295Y-62002857D01*
X134154295Y-62002857D02*
X134154295Y-62079047D01*
X134154295Y-62079047D02*
X134116200Y-62155238D01*
X134116200Y-62155238D02*
X134078104Y-62193333D01*
X134078104Y-62193333D02*
X134001914Y-62231428D01*
X134001914Y-62231428D02*
X133849533Y-62269524D01*
X133849533Y-62269524D02*
X133659057Y-62269524D01*
X133659057Y-62269524D02*
X133506676Y-62231428D01*
X133506676Y-62231428D02*
X133430485Y-62193333D01*
X133430485Y-62193333D02*
X133392390Y-62155238D01*
X133392390Y-62155238D02*
X133354295Y-62079047D01*
X133620961Y-61126666D02*
X134154295Y-61126666D01*
X133316200Y-61317142D02*
X133887628Y-61507619D01*
X133887628Y-61507619D02*
X133887628Y-61012380D01*
X161454819Y-88635714D02*
X162169104Y-88635714D01*
X162169104Y-88635714D02*
X162311961Y-88683333D01*
X162311961Y-88683333D02*
X162407200Y-88778571D01*
X162407200Y-88778571D02*
X162454819Y-88921428D01*
X162454819Y-88921428D02*
X162454819Y-89016666D01*
X162454819Y-87635714D02*
X162454819Y-88207142D01*
X162454819Y-87921428D02*
X161454819Y-87921428D01*
X161454819Y-87921428D02*
X161597676Y-88016666D01*
X161597676Y-88016666D02*
X161692914Y-88111904D01*
X161692914Y-88111904D02*
X161740533Y-88207142D01*
X161454819Y-87016666D02*
X161454819Y-86921428D01*
X161454819Y-86921428D02*
X161502438Y-86826190D01*
X161502438Y-86826190D02*
X161550057Y-86778571D01*
X161550057Y-86778571D02*
X161645295Y-86730952D01*
X161645295Y-86730952D02*
X161835771Y-86683333D01*
X161835771Y-86683333D02*
X162073866Y-86683333D01*
X162073866Y-86683333D02*
X162264342Y-86730952D01*
X162264342Y-86730952D02*
X162359580Y-86778571D01*
X162359580Y-86778571D02*
X162407200Y-86826190D01*
X162407200Y-86826190D02*
X162454819Y-86921428D01*
X162454819Y-86921428D02*
X162454819Y-87016666D01*
X162454819Y-87016666D02*
X162407200Y-87111904D01*
X162407200Y-87111904D02*
X162359580Y-87159523D01*
X162359580Y-87159523D02*
X162264342Y-87207142D01*
X162264342Y-87207142D02*
X162073866Y-87254761D01*
X162073866Y-87254761D02*
X161835771Y-87254761D01*
X161835771Y-87254761D02*
X161645295Y-87207142D01*
X161645295Y-87207142D02*
X161550057Y-87159523D01*
X161550057Y-87159523D02*
X161502438Y-87111904D01*
X161502438Y-87111904D02*
X161454819Y-87016666D01*
X162454819Y-85730952D02*
X162454819Y-86302380D01*
X162454819Y-86016666D02*
X161454819Y-86016666D01*
X161454819Y-86016666D02*
X161597676Y-86111904D01*
X161597676Y-86111904D02*
X161692914Y-86207142D01*
X161692914Y-86207142D02*
X161740533Y-86302380D01*
X111130952Y-69454819D02*
X110797619Y-68978628D01*
X110559524Y-69454819D02*
X110559524Y-68454819D01*
X110559524Y-68454819D02*
X110940476Y-68454819D01*
X110940476Y-68454819D02*
X111035714Y-68502438D01*
X111035714Y-68502438D02*
X111083333Y-68550057D01*
X111083333Y-68550057D02*
X111130952Y-68645295D01*
X111130952Y-68645295D02*
X111130952Y-68788152D01*
X111130952Y-68788152D02*
X111083333Y-68883390D01*
X111083333Y-68883390D02*
X111035714Y-68931009D01*
X111035714Y-68931009D02*
X110940476Y-68978628D01*
X110940476Y-68978628D02*
X110559524Y-68978628D01*
X112083333Y-69454819D02*
X111511905Y-69454819D01*
X111797619Y-69454819D02*
X111797619Y-68454819D01*
X111797619Y-68454819D02*
X111702381Y-68597676D01*
X111702381Y-68597676D02*
X111607143Y-68692914D01*
X111607143Y-68692914D02*
X111511905Y-68740533D01*
X112702381Y-68454819D02*
X112797619Y-68454819D01*
X112797619Y-68454819D02*
X112892857Y-68502438D01*
X112892857Y-68502438D02*
X112940476Y-68550057D01*
X112940476Y-68550057D02*
X112988095Y-68645295D01*
X112988095Y-68645295D02*
X113035714Y-68835771D01*
X113035714Y-68835771D02*
X113035714Y-69073866D01*
X113035714Y-69073866D02*
X112988095Y-69264342D01*
X112988095Y-69264342D02*
X112940476Y-69359580D01*
X112940476Y-69359580D02*
X112892857Y-69407200D01*
X112892857Y-69407200D02*
X112797619Y-69454819D01*
X112797619Y-69454819D02*
X112702381Y-69454819D01*
X112702381Y-69454819D02*
X112607143Y-69407200D01*
X112607143Y-69407200D02*
X112559524Y-69359580D01*
X112559524Y-69359580D02*
X112511905Y-69264342D01*
X112511905Y-69264342D02*
X112464286Y-69073866D01*
X112464286Y-69073866D02*
X112464286Y-68835771D01*
X112464286Y-68835771D02*
X112511905Y-68645295D01*
X112511905Y-68645295D02*
X112559524Y-68550057D01*
X112559524Y-68550057D02*
X112607143Y-68502438D01*
X112607143Y-68502438D02*
X112702381Y-68454819D01*
X113892857Y-68788152D02*
X113892857Y-69454819D01*
X113654762Y-68407200D02*
X113416667Y-69121485D01*
X113416667Y-69121485D02*
X114035714Y-69121485D01*
X161454819Y-74285714D02*
X162169104Y-74285714D01*
X162169104Y-74285714D02*
X162311961Y-74333333D01*
X162311961Y-74333333D02*
X162407200Y-74428571D01*
X162407200Y-74428571D02*
X162454819Y-74571428D01*
X162454819Y-74571428D02*
X162454819Y-74666666D01*
X162454819Y-73285714D02*
X162454819Y-73857142D01*
X162454819Y-73571428D02*
X161454819Y-73571428D01*
X161454819Y-73571428D02*
X161597676Y-73666666D01*
X161597676Y-73666666D02*
X161692914Y-73761904D01*
X161692914Y-73761904D02*
X161740533Y-73857142D01*
X161454819Y-72666666D02*
X161454819Y-72571428D01*
X161454819Y-72571428D02*
X161502438Y-72476190D01*
X161502438Y-72476190D02*
X161550057Y-72428571D01*
X161550057Y-72428571D02*
X161645295Y-72380952D01*
X161645295Y-72380952D02*
X161835771Y-72333333D01*
X161835771Y-72333333D02*
X162073866Y-72333333D01*
X162073866Y-72333333D02*
X162264342Y-72380952D01*
X162264342Y-72380952D02*
X162359580Y-72428571D01*
X162359580Y-72428571D02*
X162407200Y-72476190D01*
X162407200Y-72476190D02*
X162454819Y-72571428D01*
X162454819Y-72571428D02*
X162454819Y-72666666D01*
X162454819Y-72666666D02*
X162407200Y-72761904D01*
X162407200Y-72761904D02*
X162359580Y-72809523D01*
X162359580Y-72809523D02*
X162264342Y-72857142D01*
X162264342Y-72857142D02*
X162073866Y-72904761D01*
X162073866Y-72904761D02*
X161835771Y-72904761D01*
X161835771Y-72904761D02*
X161645295Y-72857142D01*
X161645295Y-72857142D02*
X161550057Y-72809523D01*
X161550057Y-72809523D02*
X161502438Y-72761904D01*
X161502438Y-72761904D02*
X161454819Y-72666666D01*
X161454819Y-71476190D02*
X161454819Y-71666666D01*
X161454819Y-71666666D02*
X161502438Y-71761904D01*
X161502438Y-71761904D02*
X161550057Y-71809523D01*
X161550057Y-71809523D02*
X161692914Y-71904761D01*
X161692914Y-71904761D02*
X161883390Y-71952380D01*
X161883390Y-71952380D02*
X162264342Y-71952380D01*
X162264342Y-71952380D02*
X162359580Y-71904761D01*
X162359580Y-71904761D02*
X162407200Y-71857142D01*
X162407200Y-71857142D02*
X162454819Y-71761904D01*
X162454819Y-71761904D02*
X162454819Y-71571428D01*
X162454819Y-71571428D02*
X162407200Y-71476190D01*
X162407200Y-71476190D02*
X162359580Y-71428571D01*
X162359580Y-71428571D02*
X162264342Y-71380952D01*
X162264342Y-71380952D02*
X162026247Y-71380952D01*
X162026247Y-71380952D02*
X161931009Y-71428571D01*
X161931009Y-71428571D02*
X161883390Y-71476190D01*
X161883390Y-71476190D02*
X161835771Y-71571428D01*
X161835771Y-71571428D02*
X161835771Y-71761904D01*
X161835771Y-71761904D02*
X161883390Y-71857142D01*
X161883390Y-71857142D02*
X161931009Y-71904761D01*
X161931009Y-71904761D02*
X162026247Y-71952380D01*
X121959580Y-95894047D02*
X122007200Y-95941666D01*
X122007200Y-95941666D02*
X122054819Y-96084523D01*
X122054819Y-96084523D02*
X122054819Y-96179761D01*
X122054819Y-96179761D02*
X122007200Y-96322618D01*
X122007200Y-96322618D02*
X121911961Y-96417856D01*
X121911961Y-96417856D02*
X121816723Y-96465475D01*
X121816723Y-96465475D02*
X121626247Y-96513094D01*
X121626247Y-96513094D02*
X121483390Y-96513094D01*
X121483390Y-96513094D02*
X121292914Y-96465475D01*
X121292914Y-96465475D02*
X121197676Y-96417856D01*
X121197676Y-96417856D02*
X121102438Y-96322618D01*
X121102438Y-96322618D02*
X121054819Y-96179761D01*
X121054819Y-96179761D02*
X121054819Y-96084523D01*
X121054819Y-96084523D02*
X121102438Y-95941666D01*
X121102438Y-95941666D02*
X121150057Y-95894047D01*
X122054819Y-94941666D02*
X122054819Y-95513094D01*
X122054819Y-95227380D02*
X121054819Y-95227380D01*
X121054819Y-95227380D02*
X121197676Y-95322618D01*
X121197676Y-95322618D02*
X121292914Y-95417856D01*
X121292914Y-95417856D02*
X121340533Y-95513094D01*
X122054819Y-93989285D02*
X122054819Y-94560713D01*
X122054819Y-94274999D02*
X121054819Y-94274999D01*
X121054819Y-94274999D02*
X121197676Y-94370237D01*
X121197676Y-94370237D02*
X121292914Y-94465475D01*
X121292914Y-94465475D02*
X121340533Y-94560713D01*
X121388152Y-93132142D02*
X122054819Y-93132142D01*
X121007200Y-93370237D02*
X121721485Y-93608332D01*
X121721485Y-93608332D02*
X121721485Y-92989285D01*
X111704819Y-87807285D02*
X112514342Y-87807285D01*
X112514342Y-87807285D02*
X112609580Y-87759666D01*
X112609580Y-87759666D02*
X112657200Y-87712047D01*
X112657200Y-87712047D02*
X112704819Y-87616809D01*
X112704819Y-87616809D02*
X112704819Y-87426333D01*
X112704819Y-87426333D02*
X112657200Y-87331095D01*
X112657200Y-87331095D02*
X112609580Y-87283476D01*
X112609580Y-87283476D02*
X112514342Y-87235857D01*
X112514342Y-87235857D02*
X111704819Y-87235857D01*
X112704819Y-86235857D02*
X112704819Y-86807285D01*
X112704819Y-86521571D02*
X111704819Y-86521571D01*
X111704819Y-86521571D02*
X111847676Y-86616809D01*
X111847676Y-86616809D02*
X111942914Y-86712047D01*
X111942914Y-86712047D02*
X111990533Y-86807285D01*
X111704819Y-85616809D02*
X111704819Y-85521571D01*
X111704819Y-85521571D02*
X111752438Y-85426333D01*
X111752438Y-85426333D02*
X111800057Y-85378714D01*
X111800057Y-85378714D02*
X111895295Y-85331095D01*
X111895295Y-85331095D02*
X112085771Y-85283476D01*
X112085771Y-85283476D02*
X112323866Y-85283476D01*
X112323866Y-85283476D02*
X112514342Y-85331095D01*
X112514342Y-85331095D02*
X112609580Y-85378714D01*
X112609580Y-85378714D02*
X112657200Y-85426333D01*
X112657200Y-85426333D02*
X112704819Y-85521571D01*
X112704819Y-85521571D02*
X112704819Y-85616809D01*
X112704819Y-85616809D02*
X112657200Y-85712047D01*
X112657200Y-85712047D02*
X112609580Y-85759666D01*
X112609580Y-85759666D02*
X112514342Y-85807285D01*
X112514342Y-85807285D02*
X112323866Y-85854904D01*
X112323866Y-85854904D02*
X112085771Y-85854904D01*
X112085771Y-85854904D02*
X111895295Y-85807285D01*
X111895295Y-85807285D02*
X111800057Y-85759666D01*
X111800057Y-85759666D02*
X111752438Y-85712047D01*
X111752438Y-85712047D02*
X111704819Y-85616809D01*
X112704819Y-84331095D02*
X112704819Y-84902523D01*
X112704819Y-84616809D02*
X111704819Y-84616809D01*
X111704819Y-84616809D02*
X111847676Y-84712047D01*
X111847676Y-84712047D02*
X111942914Y-84807285D01*
X111942914Y-84807285D02*
X111990533Y-84902523D01*
X140630952Y-80109580D02*
X140583333Y-80157200D01*
X140583333Y-80157200D02*
X140440476Y-80204819D01*
X140440476Y-80204819D02*
X140345238Y-80204819D01*
X140345238Y-80204819D02*
X140202381Y-80157200D01*
X140202381Y-80157200D02*
X140107143Y-80061961D01*
X140107143Y-80061961D02*
X140059524Y-79966723D01*
X140059524Y-79966723D02*
X140011905Y-79776247D01*
X140011905Y-79776247D02*
X140011905Y-79633390D01*
X140011905Y-79633390D02*
X140059524Y-79442914D01*
X140059524Y-79442914D02*
X140107143Y-79347676D01*
X140107143Y-79347676D02*
X140202381Y-79252438D01*
X140202381Y-79252438D02*
X140345238Y-79204819D01*
X140345238Y-79204819D02*
X140440476Y-79204819D01*
X140440476Y-79204819D02*
X140583333Y-79252438D01*
X140583333Y-79252438D02*
X140630952Y-79300057D01*
X141583333Y-80204819D02*
X141011905Y-80204819D01*
X141297619Y-80204819D02*
X141297619Y-79204819D01*
X141297619Y-79204819D02*
X141202381Y-79347676D01*
X141202381Y-79347676D02*
X141107143Y-79442914D01*
X141107143Y-79442914D02*
X141011905Y-79490533D01*
X142535714Y-80204819D02*
X141964286Y-80204819D01*
X142250000Y-80204819D02*
X142250000Y-79204819D01*
X142250000Y-79204819D02*
X142154762Y-79347676D01*
X142154762Y-79347676D02*
X142059524Y-79442914D01*
X142059524Y-79442914D02*
X141964286Y-79490533D01*
X143488095Y-80204819D02*
X142916667Y-80204819D01*
X143202381Y-80204819D02*
X143202381Y-79204819D01*
X143202381Y-79204819D02*
X143107143Y-79347676D01*
X143107143Y-79347676D02*
X143011905Y-79442914D01*
X143011905Y-79442914D02*
X142916667Y-79490533D01*
X144429580Y-76344047D02*
X144477200Y-76391666D01*
X144477200Y-76391666D02*
X144524819Y-76534523D01*
X144524819Y-76534523D02*
X144524819Y-76629761D01*
X144524819Y-76629761D02*
X144477200Y-76772618D01*
X144477200Y-76772618D02*
X144381961Y-76867856D01*
X144381961Y-76867856D02*
X144286723Y-76915475D01*
X144286723Y-76915475D02*
X144096247Y-76963094D01*
X144096247Y-76963094D02*
X143953390Y-76963094D01*
X143953390Y-76963094D02*
X143762914Y-76915475D01*
X143762914Y-76915475D02*
X143667676Y-76867856D01*
X143667676Y-76867856D02*
X143572438Y-76772618D01*
X143572438Y-76772618D02*
X143524819Y-76629761D01*
X143524819Y-76629761D02*
X143524819Y-76534523D01*
X143524819Y-76534523D02*
X143572438Y-76391666D01*
X143572438Y-76391666D02*
X143620057Y-76344047D01*
X144524819Y-75391666D02*
X144524819Y-75963094D01*
X144524819Y-75677380D02*
X143524819Y-75677380D01*
X143524819Y-75677380D02*
X143667676Y-75772618D01*
X143667676Y-75772618D02*
X143762914Y-75867856D01*
X143762914Y-75867856D02*
X143810533Y-75963094D01*
X143524819Y-74772618D02*
X143524819Y-74677380D01*
X143524819Y-74677380D02*
X143572438Y-74582142D01*
X143572438Y-74582142D02*
X143620057Y-74534523D01*
X143620057Y-74534523D02*
X143715295Y-74486904D01*
X143715295Y-74486904D02*
X143905771Y-74439285D01*
X143905771Y-74439285D02*
X144143866Y-74439285D01*
X144143866Y-74439285D02*
X144334342Y-74486904D01*
X144334342Y-74486904D02*
X144429580Y-74534523D01*
X144429580Y-74534523D02*
X144477200Y-74582142D01*
X144477200Y-74582142D02*
X144524819Y-74677380D01*
X144524819Y-74677380D02*
X144524819Y-74772618D01*
X144524819Y-74772618D02*
X144477200Y-74867856D01*
X144477200Y-74867856D02*
X144429580Y-74915475D01*
X144429580Y-74915475D02*
X144334342Y-74963094D01*
X144334342Y-74963094D02*
X144143866Y-75010713D01*
X144143866Y-75010713D02*
X143905771Y-75010713D01*
X143905771Y-75010713D02*
X143715295Y-74963094D01*
X143715295Y-74963094D02*
X143620057Y-74915475D01*
X143620057Y-74915475D02*
X143572438Y-74867856D01*
X143572438Y-74867856D02*
X143524819Y-74772618D01*
X143524819Y-73534523D02*
X143524819Y-74010713D01*
X143524819Y-74010713D02*
X144001009Y-74058332D01*
X144001009Y-74058332D02*
X143953390Y-74010713D01*
X143953390Y-74010713D02*
X143905771Y-73915475D01*
X143905771Y-73915475D02*
X143905771Y-73677380D01*
X143905771Y-73677380D02*
X143953390Y-73582142D01*
X143953390Y-73582142D02*
X144001009Y-73534523D01*
X144001009Y-73534523D02*
X144096247Y-73486904D01*
X144096247Y-73486904D02*
X144334342Y-73486904D01*
X144334342Y-73486904D02*
X144429580Y-73534523D01*
X144429580Y-73534523D02*
X144477200Y-73582142D01*
X144477200Y-73582142D02*
X144524819Y-73677380D01*
X144524819Y-73677380D02*
X144524819Y-73915475D01*
X144524819Y-73915475D02*
X144477200Y-74010713D01*
X144477200Y-74010713D02*
X144429580Y-74058332D01*
X144429580Y-57369047D02*
X144477200Y-57416666D01*
X144477200Y-57416666D02*
X144524819Y-57559523D01*
X144524819Y-57559523D02*
X144524819Y-57654761D01*
X144524819Y-57654761D02*
X144477200Y-57797618D01*
X144477200Y-57797618D02*
X144381961Y-57892856D01*
X144381961Y-57892856D02*
X144286723Y-57940475D01*
X144286723Y-57940475D02*
X144096247Y-57988094D01*
X144096247Y-57988094D02*
X143953390Y-57988094D01*
X143953390Y-57988094D02*
X143762914Y-57940475D01*
X143762914Y-57940475D02*
X143667676Y-57892856D01*
X143667676Y-57892856D02*
X143572438Y-57797618D01*
X143572438Y-57797618D02*
X143524819Y-57654761D01*
X143524819Y-57654761D02*
X143524819Y-57559523D01*
X143524819Y-57559523D02*
X143572438Y-57416666D01*
X143572438Y-57416666D02*
X143620057Y-57369047D01*
X144524819Y-56416666D02*
X144524819Y-56988094D01*
X144524819Y-56702380D02*
X143524819Y-56702380D01*
X143524819Y-56702380D02*
X143667676Y-56797618D01*
X143667676Y-56797618D02*
X143762914Y-56892856D01*
X143762914Y-56892856D02*
X143810533Y-56988094D01*
X143524819Y-55797618D02*
X143524819Y-55702380D01*
X143524819Y-55702380D02*
X143572438Y-55607142D01*
X143572438Y-55607142D02*
X143620057Y-55559523D01*
X143620057Y-55559523D02*
X143715295Y-55511904D01*
X143715295Y-55511904D02*
X143905771Y-55464285D01*
X143905771Y-55464285D02*
X144143866Y-55464285D01*
X144143866Y-55464285D02*
X144334342Y-55511904D01*
X144334342Y-55511904D02*
X144429580Y-55559523D01*
X144429580Y-55559523D02*
X144477200Y-55607142D01*
X144477200Y-55607142D02*
X144524819Y-55702380D01*
X144524819Y-55702380D02*
X144524819Y-55797618D01*
X144524819Y-55797618D02*
X144477200Y-55892856D01*
X144477200Y-55892856D02*
X144429580Y-55940475D01*
X144429580Y-55940475D02*
X144334342Y-55988094D01*
X144334342Y-55988094D02*
X144143866Y-56035713D01*
X144143866Y-56035713D02*
X143905771Y-56035713D01*
X143905771Y-56035713D02*
X143715295Y-55988094D01*
X143715295Y-55988094D02*
X143620057Y-55940475D01*
X143620057Y-55940475D02*
X143572438Y-55892856D01*
X143572438Y-55892856D02*
X143524819Y-55797618D01*
X143858152Y-54607142D02*
X144524819Y-54607142D01*
X143477200Y-54845237D02*
X144191485Y-55083332D01*
X144191485Y-55083332D02*
X144191485Y-54464285D01*
D11*
X126610000Y-96130000D02*
X127940000Y-96130000D01*
X126610000Y-97460000D02*
X126610000Y-96130000D01*
X129210000Y-96130000D02*
X147050000Y-96130000D01*
X129210000Y-98790000D02*
X129210000Y-96130000D01*
X129210000Y-98790000D02*
X147050000Y-98790000D01*
X147050000Y-98790000D02*
X147050000Y-96130000D01*
X149470000Y-96130000D02*
X150800000Y-96130000D01*
X149470000Y-97460000D02*
X149470000Y-96130000D01*
X152070000Y-96130000D02*
X164830000Y-96130000D01*
X152070000Y-98790000D02*
X152070000Y-96130000D01*
X152070000Y-98790000D02*
X164830000Y-98790000D01*
X164830000Y-98790000D02*
X164830000Y-96130000D01*
X117466000Y-47870000D02*
X118796000Y-47870000D01*
X117466000Y-49200000D02*
X117466000Y-47870000D01*
X120066000Y-47870000D02*
X142986000Y-47870000D01*
X120066000Y-50530000D02*
X120066000Y-47870000D01*
X120066000Y-50530000D02*
X142986000Y-50530000D01*
X142986000Y-50530000D02*
X142986000Y-47870000D01*
X144390000Y-47870000D02*
X145720000Y-47870000D01*
X144390000Y-49200000D02*
X144390000Y-47870000D01*
X146990000Y-47870000D02*
X164830000Y-47870000D01*
X146990000Y-50530000D02*
X146990000Y-47870000D01*
X146990000Y-50530000D02*
X164830000Y-50530000D01*
X164830000Y-50530000D02*
X164830000Y-47870000D01*
X114285000Y-56725000D02*
X114285000Y-54775000D01*
X114285000Y-56725000D02*
X114285000Y-58675000D01*
X119405000Y-56725000D02*
X119405000Y-54775000D01*
X119405000Y-56725000D02*
X119405000Y-58675000D01*
X114380000Y-59425000D02*
X114050000Y-59665000D01*
X114050000Y-59185000D01*
X114380000Y-59425000D01*
G36*
X114380000Y-59425000D02*
G01*
X114050000Y-59665000D01*
X114050000Y-59185000D01*
X114380000Y-59425000D01*
G37*
X107000000Y-67360000D02*
X107000000Y-63350000D01*
X107000000Y-67360000D02*
X109000000Y-67360000D01*
X109000000Y-67360000D02*
X109000000Y-63350000D01*
X121890000Y-55640000D02*
X125740000Y-55640000D01*
X121890000Y-65295563D02*
X121890000Y-55640000D01*
X122954437Y-66360000D02*
X121890000Y-65295563D01*
X122954437Y-66360000D02*
X125740000Y-66360000D01*
X123865000Y-67225000D02*
X125115000Y-67225000D01*
X124490000Y-67850000D02*
X124490000Y-66600000D01*
X131545563Y-66360000D02*
X128760000Y-66360000D01*
X131545563Y-66360000D02*
X132610000Y-65295563D01*
X132610000Y-55640000D02*
X128760000Y-55640000D01*
X132610000Y-65295563D02*
X132610000Y-55640000D01*
X111903641Y-71120000D02*
X111596359Y-71120000D01*
X111903641Y-71880000D02*
X111596359Y-71880000D01*
X109620000Y-63153641D02*
X109620000Y-62846359D01*
X110380000Y-63153641D02*
X110380000Y-62846359D01*
X111500000Y-55600000D02*
X113500000Y-55600000D01*
X111500000Y-58400000D02*
X111500000Y-55600000D01*
X113500000Y-55600000D02*
X113500000Y-58400000D01*
X113500000Y-58400000D02*
X111500000Y-58400000D01*
X122340000Y-94038748D02*
X122340000Y-95461252D01*
X124160000Y-94038748D02*
X124160000Y-95461252D01*
X128370000Y-84730000D02*
X128640000Y-84730000D01*
X128370000Y-91150000D02*
X128370000Y-84730000D01*
X135270000Y-84730000D02*
X135000000Y-84730000D01*
X135270000Y-91150000D02*
X135270000Y-84730000D01*
X135430000Y-83340000D02*
X134960000Y-83000000D01*
X135430000Y-82660000D01*
X135430000Y-83340000D01*
G36*
X135430000Y-83340000D02*
G01*
X134960000Y-83000000D01*
X135430000Y-82660000D01*
X135430000Y-83340000D01*
G37*
X124450000Y-88760000D02*
X124450000Y-83250000D01*
X124450000Y-88760000D02*
X127750000Y-88760000D01*
X127750000Y-88760000D02*
X127750000Y-83250000D01*
X137456359Y-85620000D02*
X137763641Y-85620000D01*
X137456359Y-86380000D02*
X137763641Y-86380000D01*
X144990000Y-61390580D02*
X144990000Y-61109420D01*
X146010000Y-61390580D02*
X146010000Y-61109420D01*
X111903641Y-63120000D02*
X111596359Y-63120000D01*
X111903641Y-63880000D02*
X111596359Y-63880000D01*
X144090000Y-66186252D02*
X144090000Y-64763748D01*
X145910000Y-66186252D02*
X145910000Y-64763748D01*
X143977064Y-85840000D02*
X142522936Y-85840000D01*
X143977064Y-87660000D02*
X142522936Y-87660000D01*
X108609420Y-75990000D02*
X108890580Y-75990000D01*
X108609420Y-77010000D02*
X108890580Y-77010000D01*
X116038748Y-77340000D02*
X117461252Y-77340000D01*
X116038748Y-79160000D02*
X117461252Y-79160000D01*
X143010000Y-80850000D02*
X137200000Y-80850000D01*
X143010000Y-85150000D02*
X137200000Y-85150000D01*
X143010000Y-85150000D02*
X143010000Y-80850000D01*
X133240000Y-66859420D02*
X133240000Y-67140580D01*
X134260000Y-66859420D02*
X134260000Y-67140580D01*
X111890580Y-72490000D02*
X111609420Y-72490000D01*
X111890580Y-73510000D02*
X111609420Y-73510000D01*
X108609420Y-67990000D02*
X108890580Y-67990000D01*
X108609420Y-69010000D02*
X108890580Y-69010000D01*
X146880000Y-53079000D02*
X161120000Y-53079000D01*
X146880000Y-65620000D02*
X146880000Y-53079000D01*
X146880000Y-65620000D02*
X161120000Y-65620000D01*
X147000000Y-54000000D02*
X161000000Y-54000000D01*
X147000000Y-59000000D02*
X147000000Y-54000000D01*
X147000000Y-59000000D02*
X161000000Y-59000000D01*
X147000000Y-59000000D02*
X161000000Y-59000000D01*
X147000000Y-64000000D02*
X147000000Y-59000000D01*
X147000000Y-64000000D02*
X161000000Y-64000000D01*
X147350000Y-56000000D02*
X149849000Y-56000000D01*
X147350000Y-57000000D02*
X147350000Y-56000000D01*
X147350000Y-57000000D02*
X149849000Y-57000000D01*
X147350000Y-61000000D02*
X149849000Y-61000000D01*
X147350000Y-62000000D02*
X147350000Y-61000000D01*
X147350000Y-62000000D02*
X149849000Y-62000000D01*
X149849000Y-57000000D02*
X149849000Y-56000000D01*
X149849000Y-62000000D02*
X149849000Y-61000000D01*
X151500000Y-55770000D02*
X151500000Y-53079000D01*
X151500000Y-60770000D02*
X151500000Y-58230000D01*
X151500000Y-65620000D02*
X151500000Y-63230000D01*
X154300000Y-65620000D02*
X154300000Y-53079000D01*
X154700000Y-54500000D02*
X155700000Y-54500000D01*
X154700000Y-58500000D02*
X154700000Y-54500000D01*
X154700000Y-58500000D02*
X155700000Y-58500000D01*
X154700000Y-59500000D02*
X155700000Y-59500000D01*
X154700000Y-63500000D02*
X154700000Y-59500000D01*
X154700000Y-63500000D02*
X155700000Y-63500000D01*
X155700000Y-55770000D02*
X155700000Y-54500000D01*
X155700000Y-58500000D02*
X155700000Y-58230000D01*
X155700000Y-60770000D02*
X155700000Y-59500000D01*
X155700000Y-63500000D02*
X155700000Y-63230000D01*
X156400000Y-54500000D02*
X159700000Y-54500000D01*
X156400000Y-55770000D02*
X156400000Y-54500000D01*
X156400000Y-58500000D02*
X156400000Y-58230000D01*
X156400000Y-58500000D02*
X159700000Y-58500000D01*
X156400000Y-59500000D02*
X159700000Y-59500000D01*
X156400000Y-60770000D02*
X156400000Y-59500000D01*
X156400000Y-63500000D02*
X156400000Y-63230000D01*
X156400000Y-63500000D02*
X159700000Y-63500000D01*
X159700000Y-58500000D02*
X159700000Y-54500000D01*
X159700000Y-63500000D02*
X159700000Y-59500000D01*
X160000000Y-65620000D02*
X160000000Y-53079000D01*
X160120000Y-65860000D02*
X161360000Y-65860000D01*
X161000000Y-59000000D02*
X161000000Y-54000000D01*
X161000000Y-64000000D02*
X161000000Y-59000000D01*
X161120000Y-65620000D02*
X161120000Y-53079000D01*
X161360000Y-65860000D02*
X161360000Y-64860000D01*
X133240000Y-78865580D02*
X133240000Y-78584420D01*
X134260000Y-78865580D02*
X134260000Y-78584420D01*
D12*
X135800000Y-69250000D02*
X135800000Y-71850000D01*
X135800000Y-69250000D02*
X142200000Y-69250000D01*
X135800000Y-76750000D02*
X135800000Y-74150000D01*
X142200000Y-69250000D02*
X142200000Y-71850000D01*
X142200000Y-76750000D02*
X135800000Y-76750000D01*
X142200000Y-76750000D02*
X142200000Y-74150000D01*
D13*
X136600000Y-79200000D02*
G75*
G02*
X136400000Y-79200000I-100000J0D01*
G01*
X136400000Y-79200000D02*
G75*
G02*
X136600000Y-79200000I100000J0D01*
G01*
D11*
X144990000Y-70415580D02*
X144990000Y-70134420D01*
X146010000Y-70415580D02*
X146010000Y-70134420D01*
X113163641Y-53870000D02*
X112856359Y-53870000D01*
X113163641Y-54630000D02*
X112856359Y-54630000D01*
X111890580Y-64490000D02*
X111609420Y-64490000D01*
X111890580Y-65510000D02*
X111609420Y-65510000D01*
X116190000Y-73000000D02*
X116190000Y-71050000D01*
X116190000Y-73000000D02*
X116190000Y-74950000D01*
X121310000Y-73000000D02*
X121310000Y-71050000D01*
X121310000Y-73000000D02*
X121310000Y-74950000D01*
X116285000Y-75700000D02*
X115955000Y-75940000D01*
X115955000Y-75460000D01*
X116285000Y-75700000D01*
G36*
X116285000Y-75700000D02*
G01*
X115955000Y-75940000D01*
X115955000Y-75460000D01*
X116285000Y-75700000D01*
G37*
X107000000Y-75360000D02*
X107000000Y-71350000D01*
X107000000Y-75360000D02*
X109000000Y-75360000D01*
X109000000Y-75360000D02*
X109000000Y-71350000D01*
X144240000Y-83609420D02*
X144240000Y-83890580D01*
X145260000Y-83609420D02*
X145260000Y-83890580D01*
X121890000Y-69390000D02*
X125740000Y-69390000D01*
X121890000Y-79045563D02*
X121890000Y-69390000D01*
X122954437Y-80110000D02*
X121890000Y-79045563D01*
X122954437Y-80110000D02*
X125740000Y-80110000D01*
X123865000Y-80975000D02*
X125115000Y-80975000D01*
X124490000Y-81600000D02*
X124490000Y-80350000D01*
X131545563Y-80110000D02*
X128760000Y-80110000D01*
X131545563Y-80110000D02*
X132610000Y-79045563D01*
X132610000Y-69390000D02*
X128760000Y-69390000D01*
X132610000Y-79045563D02*
X132610000Y-69390000D01*
X146260000Y-91600000D02*
X140750000Y-91600000D01*
X146260000Y-94900000D02*
X140750000Y-94900000D01*
X146260000Y-94900000D02*
X146260000Y-91600000D01*
X116190000Y-64475000D02*
X116190000Y-62525000D01*
X116190000Y-64475000D02*
X116190000Y-66425000D01*
X121310000Y-64475000D02*
X121310000Y-62525000D01*
X121310000Y-64475000D02*
X121310000Y-66425000D01*
X116285000Y-67175000D02*
X115955000Y-67415000D01*
X115955000Y-66935000D01*
X116285000Y-67175000D01*
G36*
X116285000Y-67175000D02*
G01*
X115955000Y-67415000D01*
X115955000Y-66935000D01*
X116285000Y-67175000D01*
G37*
D12*
X135800000Y-55250000D02*
X135800000Y-57850000D01*
X135800000Y-55250000D02*
X142200000Y-55250000D01*
X135800000Y-62750000D02*
X135800000Y-60150000D01*
X142200000Y-55250000D02*
X142200000Y-57850000D01*
X142200000Y-62750000D02*
X135800000Y-62750000D01*
X142200000Y-62750000D02*
X142200000Y-60150000D01*
D13*
X136600000Y-65200000D02*
G75*
G02*
X136400000Y-65200000I-100000J0D01*
G01*
X136400000Y-65200000D02*
G75*
G02*
X136600000Y-65200000I100000J0D01*
G01*
D11*
X146880000Y-81079000D02*
X161120000Y-81079000D01*
X146880000Y-93620000D02*
X146880000Y-81079000D01*
X146880000Y-93620000D02*
X161120000Y-93620000D01*
X147000000Y-82000000D02*
X161000000Y-82000000D01*
X147000000Y-87000000D02*
X147000000Y-82000000D01*
X147000000Y-87000000D02*
X161000000Y-87000000D01*
X147000000Y-87000000D02*
X161000000Y-87000000D01*
X147000000Y-92000000D02*
X147000000Y-87000000D01*
X147000000Y-92000000D02*
X161000000Y-92000000D01*
X147350000Y-84000000D02*
X149849000Y-84000000D01*
X147350000Y-85000000D02*
X147350000Y-84000000D01*
X147350000Y-85000000D02*
X149849000Y-85000000D01*
X147350000Y-89000000D02*
X149849000Y-89000000D01*
X147350000Y-90000000D02*
X147350000Y-89000000D01*
X147350000Y-90000000D02*
X149849000Y-90000000D01*
X149849000Y-85000000D02*
X149849000Y-84000000D01*
X149849000Y-90000000D02*
X149849000Y-89000000D01*
X151500000Y-83770000D02*
X151500000Y-81079000D01*
X151500000Y-88770000D02*
X151500000Y-86230000D01*
X151500000Y-93620000D02*
X151500000Y-91230000D01*
X154300000Y-93620000D02*
X154300000Y-81079000D01*
X154700000Y-82500000D02*
X155700000Y-82500000D01*
X154700000Y-86500000D02*
X154700000Y-82500000D01*
X154700000Y-86500000D02*
X155700000Y-86500000D01*
X154700000Y-87500000D02*
X155700000Y-87500000D01*
X154700000Y-91500000D02*
X154700000Y-87500000D01*
X154700000Y-91500000D02*
X155700000Y-91500000D01*
X155700000Y-83770000D02*
X155700000Y-82500000D01*
X155700000Y-86500000D02*
X155700000Y-86230000D01*
X155700000Y-88770000D02*
X155700000Y-87500000D01*
X155700000Y-91500000D02*
X155700000Y-91230000D01*
X156400000Y-82500000D02*
X159700000Y-82500000D01*
X156400000Y-83770000D02*
X156400000Y-82500000D01*
X156400000Y-86500000D02*
X156400000Y-86230000D01*
X156400000Y-86500000D02*
X159700000Y-86500000D01*
X156400000Y-87500000D02*
X159700000Y-87500000D01*
X156400000Y-88770000D02*
X156400000Y-87500000D01*
X156400000Y-91500000D02*
X156400000Y-91230000D01*
X156400000Y-91500000D02*
X159700000Y-91500000D01*
X159700000Y-86500000D02*
X159700000Y-82500000D01*
X159700000Y-91500000D02*
X159700000Y-87500000D01*
X160000000Y-93620000D02*
X160000000Y-81079000D01*
X160120000Y-93860000D02*
X161360000Y-93860000D01*
X161000000Y-87000000D02*
X161000000Y-82000000D01*
X161000000Y-92000000D02*
X161000000Y-87000000D01*
X161120000Y-93620000D02*
X161120000Y-81079000D01*
X161360000Y-93860000D02*
X161360000Y-92860000D01*
X109620000Y-71153641D02*
X109620000Y-70846359D01*
X110380000Y-71153641D02*
X110380000Y-70846359D01*
X146880000Y-67079000D02*
X161120000Y-67079000D01*
X146880000Y-79620000D02*
X146880000Y-67079000D01*
X146880000Y-79620000D02*
X161120000Y-79620000D01*
X147000000Y-68000000D02*
X161000000Y-68000000D01*
X147000000Y-73000000D02*
X147000000Y-68000000D01*
X147000000Y-73000000D02*
X161000000Y-73000000D01*
X147000000Y-73000000D02*
X161000000Y-73000000D01*
X147000000Y-78000000D02*
X147000000Y-73000000D01*
X147000000Y-78000000D02*
X161000000Y-78000000D01*
X147350000Y-70000000D02*
X149849000Y-70000000D01*
X147350000Y-71000000D02*
X147350000Y-70000000D01*
X147350000Y-71000000D02*
X149849000Y-71000000D01*
X147350000Y-75000000D02*
X149849000Y-75000000D01*
X147350000Y-76000000D02*
X147350000Y-75000000D01*
X147350000Y-76000000D02*
X149849000Y-76000000D01*
X149849000Y-71000000D02*
X149849000Y-70000000D01*
X149849000Y-76000000D02*
X149849000Y-75000000D01*
X151500000Y-69770000D02*
X151500000Y-67079000D01*
X151500000Y-74770000D02*
X151500000Y-72230000D01*
X151500000Y-79620000D02*
X151500000Y-77230000D01*
X154300000Y-79620000D02*
X154300000Y-67079000D01*
X154700000Y-68500000D02*
X155700000Y-68500000D01*
X154700000Y-72500000D02*
X154700000Y-68500000D01*
X154700000Y-72500000D02*
X155700000Y-72500000D01*
X154700000Y-73500000D02*
X155700000Y-73500000D01*
X154700000Y-77500000D02*
X154700000Y-73500000D01*
X154700000Y-77500000D02*
X155700000Y-77500000D01*
X155700000Y-69770000D02*
X155700000Y-68500000D01*
X155700000Y-72500000D02*
X155700000Y-72230000D01*
X155700000Y-74770000D02*
X155700000Y-73500000D01*
X155700000Y-77500000D02*
X155700000Y-77230000D01*
X156400000Y-68500000D02*
X159700000Y-68500000D01*
X156400000Y-69770000D02*
X156400000Y-68500000D01*
X156400000Y-72500000D02*
X156400000Y-72230000D01*
X156400000Y-72500000D02*
X159700000Y-72500000D01*
X156400000Y-73500000D02*
X159700000Y-73500000D01*
X156400000Y-74770000D02*
X156400000Y-73500000D01*
X156400000Y-77500000D02*
X156400000Y-77230000D01*
X156400000Y-77500000D02*
X159700000Y-77500000D01*
X159700000Y-72500000D02*
X159700000Y-68500000D01*
X159700000Y-77500000D02*
X159700000Y-73500000D01*
X160000000Y-79620000D02*
X160000000Y-67079000D01*
X160120000Y-79860000D02*
X161360000Y-79860000D01*
X161000000Y-73000000D02*
X161000000Y-68000000D01*
X161000000Y-78000000D02*
X161000000Y-73000000D01*
X161120000Y-79620000D02*
X161120000Y-67079000D01*
X161360000Y-79860000D02*
X161360000Y-78860000D01*
X118840000Y-94063748D02*
X118840000Y-95486252D01*
X120660000Y-94063748D02*
X120660000Y-95486252D01*
X112992500Y-79942000D02*
X112992500Y-81182000D01*
X113232500Y-80182000D02*
X113232500Y-91903000D01*
X114232500Y-79942000D02*
X112992500Y-79942000D01*
X121852500Y-80182000D02*
X113232500Y-80182000D01*
X121852500Y-80182000D02*
X121852500Y-91903000D01*
X121852500Y-91903000D02*
X113232500Y-91903000D01*
X143840000Y-80211252D02*
X143840000Y-78788748D01*
X145660000Y-80211252D02*
X145660000Y-78788748D01*
X144990000Y-75365580D02*
X144990000Y-75084420D01*
X146010000Y-75365580D02*
X146010000Y-75084420D01*
X144990000Y-56390580D02*
X144990000Y-56109420D01*
X146010000Y-56390580D02*
X146010000Y-56109420D01*
%LPC*%
D14*
X127940000Y-97460000D03*
D15*
X130480000Y-97460000D03*
X133020000Y-97460000D03*
X135560000Y-97460000D03*
X138100000Y-97460000D03*
X140640000Y-97460000D03*
X143180000Y-97460000D03*
X145720000Y-97460000D03*
D14*
X150800000Y-97460000D03*
D15*
X153340000Y-97460000D03*
X155880000Y-97460000D03*
X158420000Y-97460000D03*
X160960000Y-97460000D03*
X163500000Y-97460000D03*
D14*
X118796000Y-49200000D03*
D15*
X121336000Y-49200000D03*
X123876000Y-49200000D03*
X126416000Y-49200000D03*
X128956000Y-49200000D03*
X131496000Y-49200000D03*
X134036000Y-49200000D03*
X136576000Y-49200000D03*
X139116000Y-49200000D03*
X141656000Y-49200000D03*
D14*
X145720000Y-49200000D03*
D15*
X148260000Y-49200000D03*
X150800000Y-49200000D03*
X153340000Y-49200000D03*
X155880000Y-49200000D03*
X158420000Y-49200000D03*
X160960000Y-49200000D03*
X163500000Y-49200000D03*
G36*
G01*
X115090000Y-60175000D02*
X114790000Y-60175000D01*
G75*
G02*
X114640000Y-60025000I0J150000D01*
G01*
X114640000Y-58375000D01*
G75*
G02*
X114790000Y-58225000I150000J0D01*
G01*
X115090000Y-58225000D01*
G75*
G02*
X115240000Y-58375000I0J-150000D01*
G01*
X115240000Y-60025000D01*
G75*
G02*
X115090000Y-60175000I-150000J0D01*
G01*
G37*
G36*
G01*
X116360000Y-60175000D02*
X116060000Y-60175000D01*
G75*
G02*
X115910000Y-60025000I0J150000D01*
G01*
X115910000Y-58375000D01*
G75*
G02*
X116060000Y-58225000I150000J0D01*
G01*
X116360000Y-58225000D01*
G75*
G02*
X116510000Y-58375000I0J-150000D01*
G01*
X116510000Y-60025000D01*
G75*
G02*
X116360000Y-60175000I-150000J0D01*
G01*
G37*
G36*
G01*
X117630000Y-60175000D02*
X117330000Y-60175000D01*
G75*
G02*
X117180000Y-60025000I0J150000D01*
G01*
X117180000Y-58375000D01*
G75*
G02*
X117330000Y-58225000I150000J0D01*
G01*
X117630000Y-58225000D01*
G75*
G02*
X117780000Y-58375000I0J-150000D01*
G01*
X117780000Y-60025000D01*
G75*
G02*
X117630000Y-60175000I-150000J0D01*
G01*
G37*
G36*
G01*
X118900000Y-60175000D02*
X118600000Y-60175000D01*
G75*
G02*
X118450000Y-60025000I0J150000D01*
G01*
X118450000Y-58375000D01*
G75*
G02*
X118600000Y-58225000I150000J0D01*
G01*
X118900000Y-58225000D01*
G75*
G02*
X119050000Y-58375000I0J-150000D01*
G01*
X119050000Y-60025000D01*
G75*
G02*
X118900000Y-60175000I-150000J0D01*
G01*
G37*
G36*
G01*
X118900000Y-55225000D02*
X118600000Y-55225000D01*
G75*
G02*
X118450000Y-55075000I0J150000D01*
G01*
X118450000Y-53425000D01*
G75*
G02*
X118600000Y-53275000I150000J0D01*
G01*
X118900000Y-53275000D01*
G75*
G02*
X119050000Y-53425000I0J-150000D01*
G01*
X119050000Y-55075000D01*
G75*
G02*
X118900000Y-55225000I-150000J0D01*
G01*
G37*
G36*
G01*
X117630000Y-55225000D02*
X117330000Y-55225000D01*
G75*
G02*
X117180000Y-55075000I0J150000D01*
G01*
X117180000Y-53425000D01*
G75*
G02*
X117330000Y-53275000I150000J0D01*
G01*
X117630000Y-53275000D01*
G75*
G02*
X117780000Y-53425000I0J-150000D01*
G01*
X117780000Y-55075000D01*
G75*
G02*
X117630000Y-55225000I-150000J0D01*
G01*
G37*
G36*
G01*
X116360000Y-55225000D02*
X116060000Y-55225000D01*
G75*
G02*
X115910000Y-55075000I0J150000D01*
G01*
X115910000Y-53425000D01*
G75*
G02*
X116060000Y-53275000I150000J0D01*
G01*
X116360000Y-53275000D01*
G75*
G02*
X116510000Y-53425000I0J-150000D01*
G01*
X116510000Y-55075000D01*
G75*
G02*
X116360000Y-55225000I-150000J0D01*
G01*
G37*
G36*
G01*
X115090000Y-55225000D02*
X114790000Y-55225000D01*
G75*
G02*
X114640000Y-55075000I0J150000D01*
G01*
X114640000Y-53425000D01*
G75*
G02*
X114790000Y-53275000I150000J0D01*
G01*
X115090000Y-53275000D01*
G75*
G02*
X115240000Y-53425000I0J-150000D01*
G01*
X115240000Y-55075000D01*
G75*
G02*
X115090000Y-55225000I-150000J0D01*
G01*
G37*
G36*
G01*
X108375000Y-67100000D02*
X107625000Y-67100000D01*
G75*
G02*
X107400000Y-66875000I0J225000D01*
G01*
X107400000Y-66425000D01*
G75*
G02*
X107625000Y-66200000I225000J0D01*
G01*
X108375000Y-66200000D01*
G75*
G02*
X108600000Y-66425000I0J-225000D01*
G01*
X108600000Y-66875000D01*
G75*
G02*
X108375000Y-67100000I-225000J0D01*
G01*
G37*
G36*
G01*
X108375000Y-63800000D02*
X107625000Y-63800000D01*
G75*
G02*
X107400000Y-63575000I0J225000D01*
G01*
X107400000Y-63125000D01*
G75*
G02*
X107625000Y-62900000I225000J0D01*
G01*
X108375000Y-62900000D01*
G75*
G02*
X108600000Y-63125000I0J-225000D01*
G01*
X108600000Y-63575000D01*
G75*
G02*
X108375000Y-63800000I-225000J0D01*
G01*
G37*
G36*
G01*
X128250000Y-67400000D02*
X126250000Y-67400000D01*
G75*
G02*
X126000000Y-67150000I0J250000D01*
G01*
X126000000Y-63250000D01*
G75*
G02*
X126250000Y-63000000I250000J0D01*
G01*
X128250000Y-63000000D01*
G75*
G02*
X128500000Y-63250000I0J-250000D01*
G01*
X128500000Y-67150000D01*
G75*
G02*
X128250000Y-67400000I-250000J0D01*
G01*
G37*
G36*
G01*
X128250000Y-59000000D02*
X126250000Y-59000000D01*
G75*
G02*
X126000000Y-58750000I0J250000D01*
G01*
X126000000Y-54850000D01*
G75*
G02*
X126250000Y-54600000I250000J0D01*
G01*
X128250000Y-54600000D01*
G75*
G02*
X128500000Y-54850000I0J-250000D01*
G01*
X128500000Y-58750000D01*
G75*
G02*
X128250000Y-59000000I-250000J0D01*
G01*
G37*
G36*
G01*
X112530000Y-71315000D02*
X112530000Y-71685000D01*
G75*
G02*
X112395000Y-71820000I-135000J0D01*
G01*
X112125000Y-71820000D01*
G75*
G02*
X111990000Y-71685000I0J135000D01*
G01*
X111990000Y-71315000D01*
G75*
G02*
X112125000Y-71180000I135000J0D01*
G01*
X112395000Y-71180000D01*
G75*
G02*
X112530000Y-71315000I0J-135000D01*
G01*
G37*
G36*
G01*
X111510000Y-71315000D02*
X111510000Y-71685000D01*
G75*
G02*
X111375000Y-71820000I-135000J0D01*
G01*
X111105000Y-71820000D01*
G75*
G02*
X110970000Y-71685000I0J135000D01*
G01*
X110970000Y-71315000D01*
G75*
G02*
X111105000Y-71180000I135000J0D01*
G01*
X111375000Y-71180000D01*
G75*
G02*
X111510000Y-71315000I0J-135000D01*
G01*
G37*
G36*
G01*
X110185000Y-63780000D02*
X109815000Y-63780000D01*
G75*
G02*
X109680000Y-63645000I0J135000D01*
G01*
X109680000Y-63375000D01*
G75*
G02*
X109815000Y-63240000I135000J0D01*
G01*
X110185000Y-63240000D01*
G75*
G02*
X110320000Y-63375000I0J-135000D01*
G01*
X110320000Y-63645000D01*
G75*
G02*
X110185000Y-63780000I-135000J0D01*
G01*
G37*
G36*
G01*
X110185000Y-62760000D02*
X109815000Y-62760000D01*
G75*
G02*
X109680000Y-62625000I0J135000D01*
G01*
X109680000Y-62355000D01*
G75*
G02*
X109815000Y-62220000I135000J0D01*
G01*
X110185000Y-62220000D01*
G75*
G02*
X110320000Y-62355000I0J-135000D01*
G01*
X110320000Y-62625000D01*
G75*
G02*
X110185000Y-62760000I-135000J0D01*
G01*
G37*
D16*
X112500000Y-57650000D03*
X112500000Y-56350000D03*
G36*
G01*
X122600000Y-92700000D02*
X123900000Y-92700000D01*
G75*
G02*
X124150000Y-92950000I0J-250000D01*
G01*
X124150000Y-93600000D01*
G75*
G02*
X123900000Y-93850000I-250000J0D01*
G01*
X122600000Y-93850000D01*
G75*
G02*
X122350000Y-93600000I0J250000D01*
G01*
X122350000Y-92950000D01*
G75*
G02*
X122600000Y-92700000I250000J0D01*
G01*
G37*
G36*
G01*
X122600000Y-95650000D02*
X123900000Y-95650000D01*
G75*
G02*
X124150000Y-95900000I0J-250000D01*
G01*
X124150000Y-96550000D01*
G75*
G02*
X123900000Y-96800000I-250000J0D01*
G01*
X122600000Y-96800000D01*
G75*
G02*
X122350000Y-96550000I0J250000D01*
G01*
X122350000Y-95900000D01*
G75*
G02*
X122600000Y-95650000I250000J0D01*
G01*
G37*
G36*
G01*
X133750000Y-81900000D02*
X134450000Y-81900000D01*
G75*
G02*
X134700000Y-82150000I0J-250000D01*
G01*
X134700000Y-83850000D01*
G75*
G02*
X134450000Y-84100000I-250000J0D01*
G01*
X133750000Y-84100000D01*
G75*
G02*
X133500000Y-83850000I0J250000D01*
G01*
X133500000Y-82150000D01*
G75*
G02*
X133750000Y-81900000I250000J0D01*
G01*
G37*
G36*
G01*
X129169997Y-86100000D02*
X134470003Y-86100000D01*
G75*
G02*
X134720000Y-86349997I0J-249997D01*
G01*
X134720000Y-92250003D01*
G75*
G02*
X134470003Y-92500000I-249997J0D01*
G01*
X129169997Y-92500000D01*
G75*
G02*
X128920000Y-92250003I0J249997D01*
G01*
X128920000Y-86349997D01*
G75*
G02*
X129169997Y-86100000I249997J0D01*
G01*
G37*
G36*
G01*
X129190000Y-81900000D02*
X129890000Y-81900000D01*
G75*
G02*
X130140000Y-82150000I0J-250000D01*
G01*
X130140000Y-83850000D01*
G75*
G02*
X129890000Y-84100000I-250000J0D01*
G01*
X129190000Y-84100000D01*
G75*
G02*
X128940000Y-83850000I0J250000D01*
G01*
X128940000Y-82150000D01*
G75*
G02*
X129190000Y-81900000I250000J0D01*
G01*
G37*
G36*
G01*
X126750000Y-88500000D02*
X125450000Y-88500000D01*
G75*
G02*
X125200000Y-88250000I0J250000D01*
G01*
X125200000Y-86250000D01*
G75*
G02*
X125450000Y-86000000I250000J0D01*
G01*
X126750000Y-86000000D01*
G75*
G02*
X127000000Y-86250000I0J-250000D01*
G01*
X127000000Y-88250000D01*
G75*
G02*
X126750000Y-88500000I-250000J0D01*
G01*
G37*
G36*
G01*
X126750000Y-84500000D02*
X125450000Y-84500000D01*
G75*
G02*
X125200000Y-84250000I0J250000D01*
G01*
X125200000Y-82250000D01*
G75*
G02*
X125450000Y-82000000I250000J0D01*
G01*
X126750000Y-82000000D01*
G75*
G02*
X127000000Y-82250000I0J-250000D01*
G01*
X127000000Y-84250000D01*
G75*
G02*
X126750000Y-84500000I-250000J0D01*
G01*
G37*
G36*
G01*
X136830000Y-86185000D02*
X136830000Y-85815000D01*
G75*
G02*
X136965000Y-85680000I135000J0D01*
G01*
X137235000Y-85680000D01*
G75*
G02*
X137370000Y-85815000I0J-135000D01*
G01*
X137370000Y-86185000D01*
G75*
G02*
X137235000Y-86320000I-135000J0D01*
G01*
X136965000Y-86320000D01*
G75*
G02*
X136830000Y-86185000I0J135000D01*
G01*
G37*
G36*
G01*
X137850000Y-86185000D02*
X137850000Y-85815000D01*
G75*
G02*
X137985000Y-85680000I135000J0D01*
G01*
X138255000Y-85680000D01*
G75*
G02*
X138390000Y-85815000I0J-135000D01*
G01*
X138390000Y-86185000D01*
G75*
G02*
X138255000Y-86320000I-135000J0D01*
G01*
X137985000Y-86320000D01*
G75*
G02*
X137850000Y-86185000I0J135000D01*
G01*
G37*
G36*
G01*
X145750000Y-62475000D02*
X145250000Y-62475000D01*
G75*
G02*
X145025000Y-62250000I0J225000D01*
G01*
X145025000Y-61800000D01*
G75*
G02*
X145250000Y-61575000I225000J0D01*
G01*
X145750000Y-61575000D01*
G75*
G02*
X145975000Y-61800000I0J-225000D01*
G01*
X145975000Y-62250000D01*
G75*
G02*
X145750000Y-62475000I-225000J0D01*
G01*
G37*
G36*
G01*
X145750000Y-60925000D02*
X145250000Y-60925000D01*
G75*
G02*
X145025000Y-60700000I0J225000D01*
G01*
X145025000Y-60250000D01*
G75*
G02*
X145250000Y-60025000I225000J0D01*
G01*
X145750000Y-60025000D01*
G75*
G02*
X145975000Y-60250000I0J-225000D01*
G01*
X145975000Y-60700000D01*
G75*
G02*
X145750000Y-60925000I-225000J0D01*
G01*
G37*
G36*
G01*
X112530000Y-63315000D02*
X112530000Y-63685000D01*
G75*
G02*
X112395000Y-63820000I-135000J0D01*
G01*
X112125000Y-63820000D01*
G75*
G02*
X111990000Y-63685000I0J135000D01*
G01*
X111990000Y-63315000D01*
G75*
G02*
X112125000Y-63180000I135000J0D01*
G01*
X112395000Y-63180000D01*
G75*
G02*
X112530000Y-63315000I0J-135000D01*
G01*
G37*
G36*
G01*
X111510000Y-63315000D02*
X111510000Y-63685000D01*
G75*
G02*
X111375000Y-63820000I-135000J0D01*
G01*
X111105000Y-63820000D01*
G75*
G02*
X110970000Y-63685000I0J135000D01*
G01*
X110970000Y-63315000D01*
G75*
G02*
X111105000Y-63180000I135000J0D01*
G01*
X111375000Y-63180000D01*
G75*
G02*
X111510000Y-63315000I0J-135000D01*
G01*
G37*
G36*
G01*
X145650000Y-67525000D02*
X144350000Y-67525000D01*
G75*
G02*
X144100000Y-67275000I0J250000D01*
G01*
X144100000Y-66625000D01*
G75*
G02*
X144350000Y-66375000I250000J0D01*
G01*
X145650000Y-66375000D01*
G75*
G02*
X145900000Y-66625000I0J-250000D01*
G01*
X145900000Y-67275000D01*
G75*
G02*
X145650000Y-67525000I-250000J0D01*
G01*
G37*
G36*
G01*
X145650000Y-64575000D02*
X144350000Y-64575000D01*
G75*
G02*
X144100000Y-64325000I0J250000D01*
G01*
X144100000Y-63675000D01*
G75*
G02*
X144350000Y-63425000I250000J0D01*
G01*
X145650000Y-63425000D01*
G75*
G02*
X145900000Y-63675000I0J-250000D01*
G01*
X145900000Y-64325000D01*
G75*
G02*
X145650000Y-64575000I-250000J0D01*
G01*
G37*
G36*
G01*
X145275000Y-86125000D02*
X145275000Y-87375000D01*
G75*
G02*
X145025000Y-87625000I-250000J0D01*
G01*
X144400000Y-87625000D01*
G75*
G02*
X144150000Y-87375000I0J250000D01*
G01*
X144150000Y-86125000D01*
G75*
G02*
X144400000Y-85875000I250000J0D01*
G01*
X145025000Y-85875000D01*
G75*
G02*
X145275000Y-86125000I0J-250000D01*
G01*
G37*
G36*
G01*
X142350000Y-86125000D02*
X142350000Y-87375000D01*
G75*
G02*
X142100000Y-87625000I-250000J0D01*
G01*
X141475000Y-87625000D01*
G75*
G02*
X141225000Y-87375000I0J250000D01*
G01*
X141225000Y-86125000D01*
G75*
G02*
X141475000Y-85875000I250000J0D01*
G01*
X142100000Y-85875000D01*
G75*
G02*
X142350000Y-86125000I0J-250000D01*
G01*
G37*
G36*
G01*
X107525000Y-76750000D02*
X107525000Y-76250000D01*
G75*
G02*
X107750000Y-76025000I225000J0D01*
G01*
X108200000Y-76025000D01*
G75*
G02*
X108425000Y-76250000I0J-225000D01*
G01*
X108425000Y-76750000D01*
G75*
G02*
X108200000Y-76975000I-225000J0D01*
G01*
X107750000Y-76975000D01*
G75*
G02*
X107525000Y-76750000I0J225000D01*
G01*
G37*
G36*
G01*
X109075000Y-76750000D02*
X109075000Y-76250000D01*
G75*
G02*
X109300000Y-76025000I225000J0D01*
G01*
X109750000Y-76025000D01*
G75*
G02*
X109975000Y-76250000I0J-225000D01*
G01*
X109975000Y-76750000D01*
G75*
G02*
X109750000Y-76975000I-225000J0D01*
G01*
X109300000Y-76975000D01*
G75*
G02*
X109075000Y-76750000I0J225000D01*
G01*
G37*
G36*
G01*
X114700000Y-78900000D02*
X114700000Y-77600000D01*
G75*
G02*
X114950000Y-77350000I250000J0D01*
G01*
X115600000Y-77350000D01*
G75*
G02*
X115850000Y-77600000I0J-250000D01*
G01*
X115850000Y-78900000D01*
G75*
G02*
X115600000Y-79150000I-250000J0D01*
G01*
X114950000Y-79150000D01*
G75*
G02*
X114700000Y-78900000I0J250000D01*
G01*
G37*
G36*
G01*
X117650000Y-78900000D02*
X117650000Y-77600000D01*
G75*
G02*
X117900000Y-77350000I250000J0D01*
G01*
X118550000Y-77350000D01*
G75*
G02*
X118800000Y-77600000I0J-250000D01*
G01*
X118800000Y-78900000D01*
G75*
G02*
X118550000Y-79150000I-250000J0D01*
G01*
X117900000Y-79150000D01*
G75*
G02*
X117650000Y-78900000I0J250000D01*
G01*
G37*
G36*
G01*
X142750000Y-82100000D02*
X142750000Y-83900000D01*
G75*
G02*
X142500000Y-84150000I-250000J0D01*
G01*
X140500000Y-84150000D01*
G75*
G02*
X140250000Y-83900000I0J250000D01*
G01*
X140250000Y-82100000D01*
G75*
G02*
X140500000Y-81850000I250000J0D01*
G01*
X142500000Y-81850000D01*
G75*
G02*
X142750000Y-82100000I0J-250000D01*
G01*
G37*
G36*
G01*
X138450000Y-82100000D02*
X138450000Y-83900000D01*
G75*
G02*
X138200000Y-84150000I-250000J0D01*
G01*
X136200000Y-84150000D01*
G75*
G02*
X135950000Y-83900000I0J250000D01*
G01*
X135950000Y-82100000D01*
G75*
G02*
X136200000Y-81850000I250000J0D01*
G01*
X138200000Y-81850000D01*
G75*
G02*
X138450000Y-82100000I0J-250000D01*
G01*
G37*
G36*
G01*
X133500000Y-65775000D02*
X134000000Y-65775000D01*
G75*
G02*
X134225000Y-66000000I0J-225000D01*
G01*
X134225000Y-66450000D01*
G75*
G02*
X134000000Y-66675000I-225000J0D01*
G01*
X133500000Y-66675000D01*
G75*
G02*
X133275000Y-66450000I0J225000D01*
G01*
X133275000Y-66000000D01*
G75*
G02*
X133500000Y-65775000I225000J0D01*
G01*
G37*
G36*
G01*
X133500000Y-67325000D02*
X134000000Y-67325000D01*
G75*
G02*
X134225000Y-67550000I0J-225000D01*
G01*
X134225000Y-68000000D01*
G75*
G02*
X134000000Y-68225000I-225000J0D01*
G01*
X133500000Y-68225000D01*
G75*
G02*
X133275000Y-68000000I0J225000D01*
G01*
X133275000Y-67550000D01*
G75*
G02*
X133500000Y-67325000I225000J0D01*
G01*
G37*
G36*
G01*
X112975000Y-72750000D02*
X112975000Y-73250000D01*
G75*
G02*
X112750000Y-73475000I-225000J0D01*
G01*
X112300000Y-73475000D01*
G75*
G02*
X112075000Y-73250000I0J225000D01*
G01*
X112075000Y-72750000D01*
G75*
G02*
X112300000Y-72525000I225000J0D01*
G01*
X112750000Y-72525000D01*
G75*
G02*
X112975000Y-72750000I0J-225000D01*
G01*
G37*
G36*
G01*
X111425000Y-72750000D02*
X111425000Y-73250000D01*
G75*
G02*
X111200000Y-73475000I-225000J0D01*
G01*
X110750000Y-73475000D01*
G75*
G02*
X110525000Y-73250000I0J225000D01*
G01*
X110525000Y-72750000D01*
G75*
G02*
X110750000Y-72525000I225000J0D01*
G01*
X111200000Y-72525000D01*
G75*
G02*
X111425000Y-72750000I0J-225000D01*
G01*
G37*
G36*
G01*
X107525000Y-68750000D02*
X107525000Y-68250000D01*
G75*
G02*
X107750000Y-68025000I225000J0D01*
G01*
X108200000Y-68025000D01*
G75*
G02*
X108425000Y-68250000I0J-225000D01*
G01*
X108425000Y-68750000D01*
G75*
G02*
X108200000Y-68975000I-225000J0D01*
G01*
X107750000Y-68975000D01*
G75*
G02*
X107525000Y-68750000I0J225000D01*
G01*
G37*
G36*
G01*
X109075000Y-68750000D02*
X109075000Y-68250000D01*
G75*
G02*
X109300000Y-68025000I225000J0D01*
G01*
X109750000Y-68025000D01*
G75*
G02*
X109975000Y-68250000I0J-225000D01*
G01*
X109975000Y-68750000D01*
G75*
G02*
X109750000Y-68975000I-225000J0D01*
G01*
X109300000Y-68975000D01*
G75*
G02*
X109075000Y-68750000I0J225000D01*
G01*
G37*
D17*
X152000000Y-62000000D03*
X157000000Y-62000000D03*
D18*
X152000000Y-57000000D03*
X157000000Y-57000000D03*
G36*
G01*
X134000000Y-79950000D02*
X133500000Y-79950000D01*
G75*
G02*
X133275000Y-79725000I0J225000D01*
G01*
X133275000Y-79275000D01*
G75*
G02*
X133500000Y-79050000I225000J0D01*
G01*
X134000000Y-79050000D01*
G75*
G02*
X134225000Y-79275000I0J-225000D01*
G01*
X134225000Y-79725000D01*
G75*
G02*
X134000000Y-79950000I-225000J0D01*
G01*
G37*
G36*
G01*
X134000000Y-78400000D02*
X133500000Y-78400000D01*
G75*
G02*
X133275000Y-78175000I0J225000D01*
G01*
X133275000Y-77725000D01*
G75*
G02*
X133500000Y-77500000I225000J0D01*
G01*
X134000000Y-77500000D01*
G75*
G02*
X134225000Y-77725000I0J-225000D01*
G01*
X134225000Y-78175000D01*
G75*
G02*
X134000000Y-78400000I-225000J0D01*
G01*
G37*
G36*
G01*
X136825000Y-78752000D02*
X136175000Y-78752000D01*
G75*
G02*
X136073000Y-78650000I0J102000D01*
G01*
X136073000Y-77300000D01*
G75*
G02*
X136175000Y-77198000I102000J0D01*
G01*
X136825000Y-77198000D01*
G75*
G02*
X136927000Y-77300000I0J-102000D01*
G01*
X136927000Y-78650000D01*
G75*
G02*
X136825000Y-78752000I-102000J0D01*
G01*
G37*
G36*
G01*
X137825000Y-78752000D02*
X137175000Y-78752000D01*
G75*
G02*
X137073000Y-78650000I0J102000D01*
G01*
X137073000Y-77300000D01*
G75*
G02*
X137175000Y-77198000I102000J0D01*
G01*
X137825000Y-77198000D01*
G75*
G02*
X137927000Y-77300000I0J-102000D01*
G01*
X137927000Y-78650000D01*
G75*
G02*
X137825000Y-78752000I-102000J0D01*
G01*
G37*
G36*
G01*
X138825000Y-78752000D02*
X138175000Y-78752000D01*
G75*
G02*
X138073000Y-78650000I0J102000D01*
G01*
X138073000Y-77300000D01*
G75*
G02*
X138175000Y-77198000I102000J0D01*
G01*
X138825000Y-77198000D01*
G75*
G02*
X138927000Y-77300000I0J-102000D01*
G01*
X138927000Y-78650000D01*
G75*
G02*
X138825000Y-78752000I-102000J0D01*
G01*
G37*
G36*
G01*
X139825000Y-78752000D02*
X139175000Y-78752000D01*
G75*
G02*
X139073000Y-78650000I0J102000D01*
G01*
X139073000Y-77300000D01*
G75*
G02*
X139175000Y-77198000I102000J0D01*
G01*
X139825000Y-77198000D01*
G75*
G02*
X139927000Y-77300000I0J-102000D01*
G01*
X139927000Y-78650000D01*
G75*
G02*
X139825000Y-78752000I-102000J0D01*
G01*
G37*
G36*
G01*
X140825000Y-78752000D02*
X140175000Y-78752000D01*
G75*
G02*
X140073000Y-78650000I0J102000D01*
G01*
X140073000Y-77300000D01*
G75*
G02*
X140175000Y-77198000I102000J0D01*
G01*
X140825000Y-77198000D01*
G75*
G02*
X140927000Y-77300000I0J-102000D01*
G01*
X140927000Y-78650000D01*
G75*
G02*
X140825000Y-78752000I-102000J0D01*
G01*
G37*
G36*
G01*
X141825000Y-78752000D02*
X141175000Y-78752000D01*
G75*
G02*
X141073000Y-78650000I0J102000D01*
G01*
X141073000Y-77300000D01*
G75*
G02*
X141175000Y-77198000I102000J0D01*
G01*
X141825000Y-77198000D01*
G75*
G02*
X141927000Y-77300000I0J-102000D01*
G01*
X141927000Y-78650000D01*
G75*
G02*
X141825000Y-78752000I-102000J0D01*
G01*
G37*
G36*
G01*
X141175000Y-67248000D02*
X141825000Y-67248000D01*
G75*
G02*
X141927000Y-67350000I0J-102000D01*
G01*
X141927000Y-68700000D01*
G75*
G02*
X141825000Y-68802000I-102000J0D01*
G01*
X141175000Y-68802000D01*
G75*
G02*
X141073000Y-68700000I0J102000D01*
G01*
X141073000Y-67350000D01*
G75*
G02*
X141175000Y-67248000I102000J0D01*
G01*
G37*
G36*
G01*
X140175000Y-67248000D02*
X140825000Y-67248000D01*
G75*
G02*
X140927000Y-67350000I0J-102000D01*
G01*
X140927000Y-68700000D01*
G75*
G02*
X140825000Y-68802000I-102000J0D01*
G01*
X140175000Y-68802000D01*
G75*
G02*
X140073000Y-68700000I0J102000D01*
G01*
X140073000Y-67350000D01*
G75*
G02*
X140175000Y-67248000I102000J0D01*
G01*
G37*
G36*
G01*
X139175000Y-67248000D02*
X139825000Y-67248000D01*
G75*
G02*
X139927000Y-67350000I0J-102000D01*
G01*
X139927000Y-68700000D01*
G75*
G02*
X139825000Y-68802000I-102000J0D01*
G01*
X139175000Y-68802000D01*
G75*
G02*
X139073000Y-68700000I0J102000D01*
G01*
X139073000Y-67350000D01*
G75*
G02*
X139175000Y-67248000I102000J0D01*
G01*
G37*
G36*
G01*
X138175000Y-67248000D02*
X138825000Y-67248000D01*
G75*
G02*
X138927000Y-67350000I0J-102000D01*
G01*
X138927000Y-68700000D01*
G75*
G02*
X138825000Y-68802000I-102000J0D01*
G01*
X138175000Y-68802000D01*
G75*
G02*
X138073000Y-68700000I0J102000D01*
G01*
X138073000Y-67350000D01*
G75*
G02*
X138175000Y-67248000I102000J0D01*
G01*
G37*
G36*
G01*
X137175000Y-67248000D02*
X137825000Y-67248000D01*
G75*
G02*
X137927000Y-67350000I0J-102000D01*
G01*
X137927000Y-68700000D01*
G75*
G02*
X137825000Y-68802000I-102000J0D01*
G01*
X137175000Y-68802000D01*
G75*
G02*
X137073000Y-68700000I0J102000D01*
G01*
X137073000Y-67350000D01*
G75*
G02*
X137175000Y-67248000I102000J0D01*
G01*
G37*
G36*
G01*
X136175000Y-67248000D02*
X136825000Y-67248000D01*
G75*
G02*
X136927000Y-67350000I0J-102000D01*
G01*
X136927000Y-68700000D01*
G75*
G02*
X136825000Y-68802000I-102000J0D01*
G01*
X136175000Y-68802000D01*
G75*
G02*
X136073000Y-68700000I0J102000D01*
G01*
X136073000Y-67350000D01*
G75*
G02*
X136175000Y-67248000I102000J0D01*
G01*
G37*
G36*
G01*
X136450000Y-70698000D02*
X141550000Y-70698000D01*
G75*
G02*
X141652000Y-70800000I0J-102000D01*
G01*
X141652000Y-75200000D01*
G75*
G02*
X141550000Y-75302000I-102000J0D01*
G01*
X136450000Y-75302000D01*
G75*
G02*
X136348000Y-75200000I0J102000D01*
G01*
X136348000Y-70800000D01*
G75*
G02*
X136450000Y-70698000I102000J0D01*
G01*
G37*
G36*
G01*
X136552000Y-72100000D02*
X136552000Y-73900000D01*
G75*
G02*
X136450000Y-74002000I-102000J0D01*
G01*
X135100000Y-74002000D01*
G75*
G02*
X134998000Y-73900000I0J102000D01*
G01*
X134998000Y-72100000D01*
G75*
G02*
X135100000Y-71998000I102000J0D01*
G01*
X136450000Y-71998000D01*
G75*
G02*
X136552000Y-72100000I0J-102000D01*
G01*
G37*
G36*
G01*
X143002000Y-72100000D02*
X143002000Y-73900000D01*
G75*
G02*
X142900000Y-74002000I-102000J0D01*
G01*
X141550000Y-74002000D01*
G75*
G02*
X141448000Y-73900000I0J102000D01*
G01*
X141448000Y-72100000D01*
G75*
G02*
X141550000Y-71998000I102000J0D01*
G01*
X142900000Y-71998000D01*
G75*
G02*
X143002000Y-72100000I0J-102000D01*
G01*
G37*
D19*
X115240000Y-49200000D03*
G36*
G01*
X145750000Y-71500000D02*
X145250000Y-71500000D01*
G75*
G02*
X145025000Y-71275000I0J225000D01*
G01*
X145025000Y-70825000D01*
G75*
G02*
X145250000Y-70600000I225000J0D01*
G01*
X145750000Y-70600000D01*
G75*
G02*
X145975000Y-70825000I0J-225000D01*
G01*
X145975000Y-71275000D01*
G75*
G02*
X145750000Y-71500000I-225000J0D01*
G01*
G37*
G36*
G01*
X145750000Y-69950000D02*
X145250000Y-69950000D01*
G75*
G02*
X145025000Y-69725000I0J225000D01*
G01*
X145025000Y-69275000D01*
G75*
G02*
X145250000Y-69050000I225000J0D01*
G01*
X145750000Y-69050000D01*
G75*
G02*
X145975000Y-69275000I0J-225000D01*
G01*
X145975000Y-69725000D01*
G75*
G02*
X145750000Y-69950000I-225000J0D01*
G01*
G37*
G36*
G01*
X113790000Y-54065000D02*
X113790000Y-54435000D01*
G75*
G02*
X113655000Y-54570000I-135000J0D01*
G01*
X113385000Y-54570000D01*
G75*
G02*
X113250000Y-54435000I0J135000D01*
G01*
X113250000Y-54065000D01*
G75*
G02*
X113385000Y-53930000I135000J0D01*
G01*
X113655000Y-53930000D01*
G75*
G02*
X113790000Y-54065000I0J-135000D01*
G01*
G37*
G36*
G01*
X112770000Y-54065000D02*
X112770000Y-54435000D01*
G75*
G02*
X112635000Y-54570000I-135000J0D01*
G01*
X112365000Y-54570000D01*
G75*
G02*
X112230000Y-54435000I0J135000D01*
G01*
X112230000Y-54065000D01*
G75*
G02*
X112365000Y-53930000I135000J0D01*
G01*
X112635000Y-53930000D01*
G75*
G02*
X112770000Y-54065000I0J-135000D01*
G01*
G37*
G36*
G01*
X112975000Y-64750000D02*
X112975000Y-65250000D01*
G75*
G02*
X112750000Y-65475000I-225000J0D01*
G01*
X112300000Y-65475000D01*
G75*
G02*
X112075000Y-65250000I0J225000D01*
G01*
X112075000Y-64750000D01*
G75*
G02*
X112300000Y-64525000I225000J0D01*
G01*
X112750000Y-64525000D01*
G75*
G02*
X112975000Y-64750000I0J-225000D01*
G01*
G37*
G36*
G01*
X111425000Y-64750000D02*
X111425000Y-65250000D01*
G75*
G02*
X111200000Y-65475000I-225000J0D01*
G01*
X110750000Y-65475000D01*
G75*
G02*
X110525000Y-65250000I0J225000D01*
G01*
X110525000Y-64750000D01*
G75*
G02*
X110750000Y-64525000I225000J0D01*
G01*
X111200000Y-64525000D01*
G75*
G02*
X111425000Y-64750000I0J-225000D01*
G01*
G37*
G36*
G01*
X116995000Y-76450000D02*
X116695000Y-76450000D01*
G75*
G02*
X116545000Y-76300000I0J150000D01*
G01*
X116545000Y-74650000D01*
G75*
G02*
X116695000Y-74500000I150000J0D01*
G01*
X116995000Y-74500000D01*
G75*
G02*
X117145000Y-74650000I0J-150000D01*
G01*
X117145000Y-76300000D01*
G75*
G02*
X116995000Y-76450000I-150000J0D01*
G01*
G37*
G36*
G01*
X118265000Y-76450000D02*
X117965000Y-76450000D01*
G75*
G02*
X117815000Y-76300000I0J150000D01*
G01*
X117815000Y-74650000D01*
G75*
G02*
X117965000Y-74500000I150000J0D01*
G01*
X118265000Y-74500000D01*
G75*
G02*
X118415000Y-74650000I0J-150000D01*
G01*
X118415000Y-76300000D01*
G75*
G02*
X118265000Y-76450000I-150000J0D01*
G01*
G37*
G36*
G01*
X119535000Y-76450000D02*
X119235000Y-76450000D01*
G75*
G02*
X119085000Y-76300000I0J150000D01*
G01*
X119085000Y-74650000D01*
G75*
G02*
X119235000Y-74500000I150000J0D01*
G01*
X119535000Y-74500000D01*
G75*
G02*
X119685000Y-74650000I0J-150000D01*
G01*
X119685000Y-76300000D01*
G75*
G02*
X119535000Y-76450000I-150000J0D01*
G01*
G37*
G36*
G01*
X120805000Y-76450000D02*
X120505000Y-76450000D01*
G75*
G02*
X120355000Y-76300000I0J150000D01*
G01*
X120355000Y-74650000D01*
G75*
G02*
X120505000Y-74500000I150000J0D01*
G01*
X120805000Y-74500000D01*
G75*
G02*
X120955000Y-74650000I0J-150000D01*
G01*
X120955000Y-76300000D01*
G75*
G02*
X120805000Y-76450000I-150000J0D01*
G01*
G37*
G36*
G01*
X120805000Y-71500000D02*
X120505000Y-71500000D01*
G75*
G02*
X120355000Y-71350000I0J150000D01*
G01*
X120355000Y-69700000D01*
G75*
G02*
X120505000Y-69550000I150000J0D01*
G01*
X120805000Y-69550000D01*
G75*
G02*
X120955000Y-69700000I0J-150000D01*
G01*
X120955000Y-71350000D01*
G75*
G02*
X120805000Y-71500000I-150000J0D01*
G01*
G37*
G36*
G01*
X119535000Y-71500000D02*
X119235000Y-71500000D01*
G75*
G02*
X119085000Y-71350000I0J150000D01*
G01*
X119085000Y-69700000D01*
G75*
G02*
X119235000Y-69550000I150000J0D01*
G01*
X119535000Y-69550000D01*
G75*
G02*
X119685000Y-69700000I0J-150000D01*
G01*
X119685000Y-71350000D01*
G75*
G02*
X119535000Y-71500000I-150000J0D01*
G01*
G37*
G36*
G01*
X118265000Y-71500000D02*
X117965000Y-71500000D01*
G75*
G02*
X117815000Y-71350000I0J150000D01*
G01*
X117815000Y-69700000D01*
G75*
G02*
X117965000Y-69550000I150000J0D01*
G01*
X118265000Y-69550000D01*
G75*
G02*
X118415000Y-69700000I0J-150000D01*
G01*
X118415000Y-71350000D01*
G75*
G02*
X118265000Y-71500000I-150000J0D01*
G01*
G37*
G36*
G01*
X116995000Y-71500000D02*
X116695000Y-71500000D01*
G75*
G02*
X116545000Y-71350000I0J150000D01*
G01*
X116545000Y-69700000D01*
G75*
G02*
X116695000Y-69550000I150000J0D01*
G01*
X116995000Y-69550000D01*
G75*
G02*
X117145000Y-69700000I0J-150000D01*
G01*
X117145000Y-71350000D01*
G75*
G02*
X116995000Y-71500000I-150000J0D01*
G01*
G37*
G36*
G01*
X108375000Y-75100000D02*
X107625000Y-75100000D01*
G75*
G02*
X107400000Y-74875000I0J225000D01*
G01*
X107400000Y-74425000D01*
G75*
G02*
X107625000Y-74200000I225000J0D01*
G01*
X108375000Y-74200000D01*
G75*
G02*
X108600000Y-74425000I0J-225000D01*
G01*
X108600000Y-74875000D01*
G75*
G02*
X108375000Y-75100000I-225000J0D01*
G01*
G37*
G36*
G01*
X108375000Y-71800000D02*
X107625000Y-71800000D01*
G75*
G02*
X107400000Y-71575000I0J225000D01*
G01*
X107400000Y-71125000D01*
G75*
G02*
X107625000Y-70900000I225000J0D01*
G01*
X108375000Y-70900000D01*
G75*
G02*
X108600000Y-71125000I0J-225000D01*
G01*
X108600000Y-71575000D01*
G75*
G02*
X108375000Y-71800000I-225000J0D01*
G01*
G37*
G36*
G01*
X144500000Y-82525000D02*
X145000000Y-82525000D01*
G75*
G02*
X145225000Y-82750000I0J-225000D01*
G01*
X145225000Y-83200000D01*
G75*
G02*
X145000000Y-83425000I-225000J0D01*
G01*
X144500000Y-83425000D01*
G75*
G02*
X144275000Y-83200000I0J225000D01*
G01*
X144275000Y-82750000D01*
G75*
G02*
X144500000Y-82525000I225000J0D01*
G01*
G37*
G36*
G01*
X144500000Y-84075000D02*
X145000000Y-84075000D01*
G75*
G02*
X145225000Y-84300000I0J-225000D01*
G01*
X145225000Y-84750000D01*
G75*
G02*
X145000000Y-84975000I-225000J0D01*
G01*
X144500000Y-84975000D01*
G75*
G02*
X144275000Y-84750000I0J225000D01*
G01*
X144275000Y-84300000D01*
G75*
G02*
X144500000Y-84075000I225000J0D01*
G01*
G37*
G36*
G01*
X128250000Y-81150000D02*
X126250000Y-81150000D01*
G75*
G02*
X126000000Y-80900000I0J250000D01*
G01*
X126000000Y-77000000D01*
G75*
G02*
X126250000Y-76750000I250000J0D01*
G01*
X128250000Y-76750000D01*
G75*
G02*
X128500000Y-77000000I0J-250000D01*
G01*
X128500000Y-80900000D01*
G75*
G02*
X128250000Y-81150000I-250000J0D01*
G01*
G37*
G36*
G01*
X128250000Y-72750000D02*
X126250000Y-72750000D01*
G75*
G02*
X126000000Y-72500000I0J250000D01*
G01*
X126000000Y-68600000D01*
G75*
G02*
X126250000Y-68350000I250000J0D01*
G01*
X128250000Y-68350000D01*
G75*
G02*
X128500000Y-68600000I0J-250000D01*
G01*
X128500000Y-72500000D01*
G75*
G02*
X128250000Y-72750000I-250000J0D01*
G01*
G37*
G36*
G01*
X146000000Y-92600000D02*
X146000000Y-93900000D01*
G75*
G02*
X145750000Y-94150000I-250000J0D01*
G01*
X143750000Y-94150000D01*
G75*
G02*
X143500000Y-93900000I0J250000D01*
G01*
X143500000Y-92600000D01*
G75*
G02*
X143750000Y-92350000I250000J0D01*
G01*
X145750000Y-92350000D01*
G75*
G02*
X146000000Y-92600000I0J-250000D01*
G01*
G37*
G36*
G01*
X142000000Y-92600000D02*
X142000000Y-93900000D01*
G75*
G02*
X141750000Y-94150000I-250000J0D01*
G01*
X139750000Y-94150000D01*
G75*
G02*
X139500000Y-93900000I0J250000D01*
G01*
X139500000Y-92600000D01*
G75*
G02*
X139750000Y-92350000I250000J0D01*
G01*
X141750000Y-92350000D01*
G75*
G02*
X142000000Y-92600000I0J-250000D01*
G01*
G37*
G36*
G01*
X116995000Y-67925000D02*
X116695000Y-67925000D01*
G75*
G02*
X116545000Y-67775000I0J150000D01*
G01*
X116545000Y-66125000D01*
G75*
G02*
X116695000Y-65975000I150000J0D01*
G01*
X116995000Y-65975000D01*
G75*
G02*
X117145000Y-66125000I0J-150000D01*
G01*
X117145000Y-67775000D01*
G75*
G02*
X116995000Y-67925000I-150000J0D01*
G01*
G37*
G36*
G01*
X118265000Y-67925000D02*
X117965000Y-67925000D01*
G75*
G02*
X117815000Y-67775000I0J150000D01*
G01*
X117815000Y-66125000D01*
G75*
G02*
X117965000Y-65975000I150000J0D01*
G01*
X118265000Y-65975000D01*
G75*
G02*
X118415000Y-66125000I0J-150000D01*
G01*
X118415000Y-67775000D01*
G75*
G02*
X118265000Y-67925000I-150000J0D01*
G01*
G37*
G36*
G01*
X119535000Y-67925000D02*
X119235000Y-67925000D01*
G75*
G02*
X119085000Y-67775000I0J150000D01*
G01*
X119085000Y-66125000D01*
G75*
G02*
X119235000Y-65975000I150000J0D01*
G01*
X119535000Y-65975000D01*
G75*
G02*
X119685000Y-66125000I0J-150000D01*
G01*
X119685000Y-67775000D01*
G75*
G02*
X119535000Y-67925000I-150000J0D01*
G01*
G37*
G36*
G01*
X120805000Y-67925000D02*
X120505000Y-67925000D01*
G75*
G02*
X120355000Y-67775000I0J150000D01*
G01*
X120355000Y-66125000D01*
G75*
G02*
X120505000Y-65975000I150000J0D01*
G01*
X120805000Y-65975000D01*
G75*
G02*
X120955000Y-66125000I0J-150000D01*
G01*
X120955000Y-67775000D01*
G75*
G02*
X120805000Y-67925000I-150000J0D01*
G01*
G37*
G36*
G01*
X120805000Y-62975000D02*
X120505000Y-62975000D01*
G75*
G02*
X120355000Y-62825000I0J150000D01*
G01*
X120355000Y-61175000D01*
G75*
G02*
X120505000Y-61025000I150000J0D01*
G01*
X120805000Y-61025000D01*
G75*
G02*
X120955000Y-61175000I0J-150000D01*
G01*
X120955000Y-62825000D01*
G75*
G02*
X120805000Y-62975000I-150000J0D01*
G01*
G37*
G36*
G01*
X119535000Y-62975000D02*
X119235000Y-62975000D01*
G75*
G02*
X119085000Y-62825000I0J150000D01*
G01*
X119085000Y-61175000D01*
G75*
G02*
X119235000Y-61025000I150000J0D01*
G01*
X119535000Y-61025000D01*
G75*
G02*
X119685000Y-61175000I0J-150000D01*
G01*
X119685000Y-62825000D01*
G75*
G02*
X119535000Y-62975000I-150000J0D01*
G01*
G37*
G36*
G01*
X118265000Y-62975000D02*
X117965000Y-62975000D01*
G75*
G02*
X117815000Y-62825000I0J150000D01*
G01*
X117815000Y-61175000D01*
G75*
G02*
X117965000Y-61025000I150000J0D01*
G01*
X118265000Y-61025000D01*
G75*
G02*
X118415000Y-61175000I0J-150000D01*
G01*
X118415000Y-62825000D01*
G75*
G02*
X118265000Y-62975000I-150000J0D01*
G01*
G37*
G36*
G01*
X116995000Y-62975000D02*
X116695000Y-62975000D01*
G75*
G02*
X116545000Y-62825000I0J150000D01*
G01*
X116545000Y-61175000D01*
G75*
G02*
X116695000Y-61025000I150000J0D01*
G01*
X116995000Y-61025000D01*
G75*
G02*
X117145000Y-61175000I0J-150000D01*
G01*
X117145000Y-62825000D01*
G75*
G02*
X116995000Y-62975000I-150000J0D01*
G01*
G37*
G36*
G01*
X136825000Y-64752000D02*
X136175000Y-64752000D01*
G75*
G02*
X136073000Y-64650000I0J102000D01*
G01*
X136073000Y-63300000D01*
G75*
G02*
X136175000Y-63198000I102000J0D01*
G01*
X136825000Y-63198000D01*
G75*
G02*
X136927000Y-63300000I0J-102000D01*
G01*
X136927000Y-64650000D01*
G75*
G02*
X136825000Y-64752000I-102000J0D01*
G01*
G37*
G36*
G01*
X137825000Y-64752000D02*
X137175000Y-64752000D01*
G75*
G02*
X137073000Y-64650000I0J102000D01*
G01*
X137073000Y-63300000D01*
G75*
G02*
X137175000Y-63198000I102000J0D01*
G01*
X137825000Y-63198000D01*
G75*
G02*
X137927000Y-63300000I0J-102000D01*
G01*
X137927000Y-64650000D01*
G75*
G02*
X137825000Y-64752000I-102000J0D01*
G01*
G37*
G36*
G01*
X138825000Y-64752000D02*
X138175000Y-64752000D01*
G75*
G02*
X138073000Y-64650000I0J102000D01*
G01*
X138073000Y-63300000D01*
G75*
G02*
X138175000Y-63198000I102000J0D01*
G01*
X138825000Y-63198000D01*
G75*
G02*
X138927000Y-63300000I0J-102000D01*
G01*
X138927000Y-64650000D01*
G75*
G02*
X138825000Y-64752000I-102000J0D01*
G01*
G37*
G36*
G01*
X139825000Y-64752000D02*
X139175000Y-64752000D01*
G75*
G02*
X139073000Y-64650000I0J102000D01*
G01*
X139073000Y-63300000D01*
G75*
G02*
X139175000Y-63198000I102000J0D01*
G01*
X139825000Y-63198000D01*
G75*
G02*
X139927000Y-63300000I0J-102000D01*
G01*
X139927000Y-64650000D01*
G75*
G02*
X139825000Y-64752000I-102000J0D01*
G01*
G37*
G36*
G01*
X140825000Y-64752000D02*
X140175000Y-64752000D01*
G75*
G02*
X140073000Y-64650000I0J102000D01*
G01*
X140073000Y-63300000D01*
G75*
G02*
X140175000Y-63198000I102000J0D01*
G01*
X140825000Y-63198000D01*
G75*
G02*
X140927000Y-63300000I0J-102000D01*
G01*
X140927000Y-64650000D01*
G75*
G02*
X140825000Y-64752000I-102000J0D01*
G01*
G37*
G36*
G01*
X141825000Y-64752000D02*
X141175000Y-64752000D01*
G75*
G02*
X141073000Y-64650000I0J102000D01*
G01*
X141073000Y-63300000D01*
G75*
G02*
X141175000Y-63198000I102000J0D01*
G01*
X141825000Y-63198000D01*
G75*
G02*
X141927000Y-63300000I0J-102000D01*
G01*
X141927000Y-64650000D01*
G75*
G02*
X141825000Y-64752000I-102000J0D01*
G01*
G37*
G36*
G01*
X141175000Y-53248000D02*
X141825000Y-53248000D01*
G75*
G02*
X141927000Y-53350000I0J-102000D01*
G01*
X141927000Y-54700000D01*
G75*
G02*
X141825000Y-54802000I-102000J0D01*
G01*
X141175000Y-54802000D01*
G75*
G02*
X141073000Y-54700000I0J102000D01*
G01*
X141073000Y-53350000D01*
G75*
G02*
X141175000Y-53248000I102000J0D01*
G01*
G37*
G36*
G01*
X140175000Y-53248000D02*
X140825000Y-53248000D01*
G75*
G02*
X140927000Y-53350000I0J-102000D01*
G01*
X140927000Y-54700000D01*
G75*
G02*
X140825000Y-54802000I-102000J0D01*
G01*
X140175000Y-54802000D01*
G75*
G02*
X140073000Y-54700000I0J102000D01*
G01*
X140073000Y-53350000D01*
G75*
G02*
X140175000Y-53248000I102000J0D01*
G01*
G37*
G36*
G01*
X139175000Y-53248000D02*
X139825000Y-53248000D01*
G75*
G02*
X139927000Y-53350000I0J-102000D01*
G01*
X139927000Y-54700000D01*
G75*
G02*
X139825000Y-54802000I-102000J0D01*
G01*
X139175000Y-54802000D01*
G75*
G02*
X139073000Y-54700000I0J102000D01*
G01*
X139073000Y-53350000D01*
G75*
G02*
X139175000Y-53248000I102000J0D01*
G01*
G37*
G36*
G01*
X138175000Y-53248000D02*
X138825000Y-53248000D01*
G75*
G02*
X138927000Y-53350000I0J-102000D01*
G01*
X138927000Y-54700000D01*
G75*
G02*
X138825000Y-54802000I-102000J0D01*
G01*
X138175000Y-54802000D01*
G75*
G02*
X138073000Y-54700000I0J102000D01*
G01*
X138073000Y-53350000D01*
G75*
G02*
X138175000Y-53248000I102000J0D01*
G01*
G37*
G36*
G01*
X137175000Y-53248000D02*
X137825000Y-53248000D01*
G75*
G02*
X137927000Y-53350000I0J-102000D01*
G01*
X137927000Y-54700000D01*
G75*
G02*
X137825000Y-54802000I-102000J0D01*
G01*
X137175000Y-54802000D01*
G75*
G02*
X137073000Y-54700000I0J102000D01*
G01*
X137073000Y-53350000D01*
G75*
G02*
X137175000Y-53248000I102000J0D01*
G01*
G37*
G36*
G01*
X136175000Y-53248000D02*
X136825000Y-53248000D01*
G75*
G02*
X136927000Y-53350000I0J-102000D01*
G01*
X136927000Y-54700000D01*
G75*
G02*
X136825000Y-54802000I-102000J0D01*
G01*
X136175000Y-54802000D01*
G75*
G02*
X136073000Y-54700000I0J102000D01*
G01*
X136073000Y-53350000D01*
G75*
G02*
X136175000Y-53248000I102000J0D01*
G01*
G37*
G36*
G01*
X136450000Y-56698000D02*
X141550000Y-56698000D01*
G75*
G02*
X141652000Y-56800000I0J-102000D01*
G01*
X141652000Y-61200000D01*
G75*
G02*
X141550000Y-61302000I-102000J0D01*
G01*
X136450000Y-61302000D01*
G75*
G02*
X136348000Y-61200000I0J102000D01*
G01*
X136348000Y-56800000D01*
G75*
G02*
X136450000Y-56698000I102000J0D01*
G01*
G37*
G36*
G01*
X136552000Y-58100000D02*
X136552000Y-59900000D01*
G75*
G02*
X136450000Y-60002000I-102000J0D01*
G01*
X135100000Y-60002000D01*
G75*
G02*
X134998000Y-59900000I0J102000D01*
G01*
X134998000Y-58100000D01*
G75*
G02*
X135100000Y-57998000I102000J0D01*
G01*
X136450000Y-57998000D01*
G75*
G02*
X136552000Y-58100000I0J-102000D01*
G01*
G37*
G36*
G01*
X143002000Y-58100000D02*
X143002000Y-59900000D01*
G75*
G02*
X142900000Y-60002000I-102000J0D01*
G01*
X141550000Y-60002000D01*
G75*
G02*
X141448000Y-59900000I0J102000D01*
G01*
X141448000Y-58100000D01*
G75*
G02*
X141550000Y-57998000I102000J0D01*
G01*
X142900000Y-57998000D01*
G75*
G02*
X143002000Y-58100000I0J-102000D01*
G01*
G37*
D17*
X152000000Y-90000000D03*
X157000000Y-90000000D03*
D18*
X152000000Y-85000000D03*
X157000000Y-85000000D03*
G36*
G01*
X110185000Y-71780000D02*
X109815000Y-71780000D01*
G75*
G02*
X109680000Y-71645000I0J135000D01*
G01*
X109680000Y-71375000D01*
G75*
G02*
X109815000Y-71240000I135000J0D01*
G01*
X110185000Y-71240000D01*
G75*
G02*
X110320000Y-71375000I0J-135000D01*
G01*
X110320000Y-71645000D01*
G75*
G02*
X110185000Y-71780000I-135000J0D01*
G01*
G37*
G36*
G01*
X110185000Y-70760000D02*
X109815000Y-70760000D01*
G75*
G02*
X109680000Y-70625000I0J135000D01*
G01*
X109680000Y-70355000D01*
G75*
G02*
X109815000Y-70220000I135000J0D01*
G01*
X110185000Y-70220000D01*
G75*
G02*
X110320000Y-70355000I0J-135000D01*
G01*
X110320000Y-70625000D01*
G75*
G02*
X110185000Y-70760000I-135000J0D01*
G01*
G37*
D17*
X152000000Y-76000000D03*
X157000000Y-76000000D03*
D18*
X152000000Y-71000000D03*
X157000000Y-71000000D03*
G36*
G01*
X119100000Y-92725000D02*
X120400000Y-92725000D01*
G75*
G02*
X120650000Y-92975000I0J-250000D01*
G01*
X120650000Y-93625000D01*
G75*
G02*
X120400000Y-93875000I-250000J0D01*
G01*
X119100000Y-93875000D01*
G75*
G02*
X118850000Y-93625000I0J250000D01*
G01*
X118850000Y-92975000D01*
G75*
G02*
X119100000Y-92725000I250000J0D01*
G01*
G37*
G36*
G01*
X119100000Y-95675000D02*
X120400000Y-95675000D01*
G75*
G02*
X120650000Y-95925000I0J-250000D01*
G01*
X120650000Y-96575000D01*
G75*
G02*
X120400000Y-96825000I-250000J0D01*
G01*
X119100000Y-96825000D01*
G75*
G02*
X118850000Y-96575000I0J250000D01*
G01*
X118850000Y-95925000D01*
G75*
G02*
X119100000Y-95675000I250000J0D01*
G01*
G37*
D20*
X115292500Y-83553000D03*
D21*
X115292500Y-86093000D03*
X115292500Y-88633000D03*
D19*
X113970000Y-97460000D03*
X166040000Y-64440000D03*
X166040000Y-92380000D03*
G36*
G01*
X145400000Y-81550000D02*
X144100000Y-81550000D01*
G75*
G02*
X143850000Y-81300000I0J250000D01*
G01*
X143850000Y-80650000D01*
G75*
G02*
X144100000Y-80400000I250000J0D01*
G01*
X145400000Y-80400000D01*
G75*
G02*
X145650000Y-80650000I0J-250000D01*
G01*
X145650000Y-81300000D01*
G75*
G02*
X145400000Y-81550000I-250000J0D01*
G01*
G37*
G36*
G01*
X145400000Y-78600000D02*
X144100000Y-78600000D01*
G75*
G02*
X143850000Y-78350000I0J250000D01*
G01*
X143850000Y-77700000D01*
G75*
G02*
X144100000Y-77450000I250000J0D01*
G01*
X145400000Y-77450000D01*
G75*
G02*
X145650000Y-77700000I0J-250000D01*
G01*
X145650000Y-78350000D01*
G75*
G02*
X145400000Y-78600000I-250000J0D01*
G01*
G37*
G36*
G01*
X145750000Y-76450000D02*
X145250000Y-76450000D01*
G75*
G02*
X145025000Y-76225000I0J225000D01*
G01*
X145025000Y-75775000D01*
G75*
G02*
X145250000Y-75550000I225000J0D01*
G01*
X145750000Y-75550000D01*
G75*
G02*
X145975000Y-75775000I0J-225000D01*
G01*
X145975000Y-76225000D01*
G75*
G02*
X145750000Y-76450000I-225000J0D01*
G01*
G37*
G36*
G01*
X145750000Y-74900000D02*
X145250000Y-74900000D01*
G75*
G02*
X145025000Y-74675000I0J225000D01*
G01*
X145025000Y-74225000D01*
G75*
G02*
X145250000Y-74000000I225000J0D01*
G01*
X145750000Y-74000000D01*
G75*
G02*
X145975000Y-74225000I0J-225000D01*
G01*
X145975000Y-74675000D01*
G75*
G02*
X145750000Y-74900000I-225000J0D01*
G01*
G37*
G36*
G01*
X145750000Y-57475000D02*
X145250000Y-57475000D01*
G75*
G02*
X145025000Y-57250000I0J225000D01*
G01*
X145025000Y-56800000D01*
G75*
G02*
X145250000Y-56575000I225000J0D01*
G01*
X145750000Y-56575000D01*
G75*
G02*
X145975000Y-56800000I0J-225000D01*
G01*
X145975000Y-57250000D01*
G75*
G02*
X145750000Y-57475000I-225000J0D01*
G01*
G37*
G36*
G01*
X145750000Y-55925000D02*
X145250000Y-55925000D01*
G75*
G02*
X145025000Y-55700000I0J225000D01*
G01*
X145025000Y-55250000D01*
G75*
G02*
X145250000Y-55025000I225000J0D01*
G01*
X145750000Y-55025000D01*
G75*
G02*
X145975000Y-55250000I0J-225000D01*
G01*
X145975000Y-55700000D01*
G75*
G02*
X145750000Y-55925000I-225000J0D01*
G01*
G37*
%LPD*%
M02*
