G04 #@! TF.GenerationSoftware,KiCad,Pcbnew,8.0.8+1*
G04 #@! TF.CreationDate,2025-03-25T20:02:48+00:00*
G04 #@! TF.ProjectId,dc_shield,64635f73-6869-4656-9c64-2e6b69636164,rev?*
G04 #@! TF.SameCoordinates,Original*
G04 #@! TF.FileFunction,Legend,Bot*
G04 #@! TF.FilePolarity,Positive*
%FSLAX46Y46*%
G04 Gerber Fmt 4.6, Leading zero omitted, Abs format (unit mm)*
G04 Created by KiCad (PCBNEW 8.0.8+1) date 2025-03-25 20:02:48*
%MOMM*%
%LPD*%
G01*
G04 APERTURE LIST*
%ADD10R,1.700000X1.700000*%
%ADD11O,1.700000X1.700000*%
%ADD12R,3.000000X1.500000*%
%ADD13O,3.000000X1.500000*%
%ADD14C,3.200000*%
%ADD15R,2.300000X1.500000*%
%ADD16O,2.300000X1.500000*%
G04 APERTURE END LIST*
%LPC*%
D10*
X127940000Y-97460000D03*
D11*
X130480000Y-97460000D03*
X133020000Y-97460000D03*
X135560000Y-97460000D03*
X138100000Y-97460000D03*
X140640000Y-97460000D03*
X143180000Y-97460000D03*
X145720000Y-97460000D03*
D10*
X150800000Y-97460000D03*
D11*
X153340000Y-97460000D03*
X155880000Y-97460000D03*
X158420000Y-97460000D03*
X160960000Y-97460000D03*
X163500000Y-97460000D03*
D10*
X118796000Y-49200000D03*
D11*
X121336000Y-49200000D03*
X123876000Y-49200000D03*
X126416000Y-49200000D03*
X128956000Y-49200000D03*
X131496000Y-49200000D03*
X134036000Y-49200000D03*
X136576000Y-49200000D03*
X139116000Y-49200000D03*
X141656000Y-49200000D03*
D10*
X145720000Y-49200000D03*
D11*
X148260000Y-49200000D03*
X150800000Y-49200000D03*
X153340000Y-49200000D03*
X155880000Y-49200000D03*
X158420000Y-49200000D03*
X160960000Y-49200000D03*
X163500000Y-49200000D03*
D12*
X152000000Y-62000000D03*
X157000000Y-62000000D03*
D13*
X152000000Y-57000000D03*
X157000000Y-57000000D03*
D14*
X115240000Y-49200000D03*
D12*
X152000000Y-90000000D03*
X157000000Y-90000000D03*
D13*
X152000000Y-85000000D03*
X157000000Y-85000000D03*
D12*
X152000000Y-76000000D03*
X157000000Y-76000000D03*
D13*
X152000000Y-71000000D03*
X157000000Y-71000000D03*
D15*
X115292500Y-83553000D03*
D16*
X115292500Y-86093000D03*
X115292500Y-88633000D03*
D14*
X113970000Y-97460000D03*
X166040000Y-64440000D03*
X166040000Y-92380000D03*
%LPD*%
M02*
